<svg version="1.2" xmlns="http://www.w3.org/2000/svg" viewBox="0 0 837 813" width="837" height="813">
	<title>Aansdas</title>
	<style>
		.s0 { fill: #ffad00 } 
		.s1 { fill: #ffffff } 
	</style>
	<g id="Folder 1">
	</g>
	<g id="Folder 2">
		<path id="Shape 3" class="s0" d="m257 28h354v4h-354zm0-5h3v13h-3zm351 1h3v13h-3z"/>
		<path id="Shape 2" class="s1" d="m258 42h353.2l173.8 111h-701zm527 259h-701v-148h701zm-486 0h268.4l217.6 60h-701zm486 193h-701l76-133h547zm-535.6-1l371.5 1 164.1 93h-701zm535.6 183h-701l86.8-89h525.9zm-542 0h382v87h-382z"/>
		<path id="Shape 3 copy 2" class="s0" d="m572 311h213v4h-213zm0-5h1.8v13h-1.8zm211.2 1h1.8v13h-1.8z"/>
		<path id="Shape 3 copy 3" class="s0" d="m707 373h75v4h-75zm0-5h0.6v13h-0.6zm74.4 1h0.6v13h-0.6z"/>
		<path id="Shape 3 copy 4" class="s0" d="m623 503h161v4h-161zm0-5h1.4v13h-1.4zm159.6 1h1.4v13h-1.4z"/>
		<path id="path814" fill-rule="evenodd" class="s1" d="m194.9 707.7q4.3 0 7.2 4.9 2.9 5 2.9 13 0 8.5-3.1 13.5-3.2 4.9-7.3 4.9-4 0-7.1-4.8-3.1-4.8-3.1-13 0-8.3 3-13.4 3.1-5.1 7.5-5.1zm5.4 17.3q0-15.9-5.5-15.9-5.8 0-5.8 15.9zm-11.3 1.6q0 8.2 1.6 12.1 1.5 3.9 4.1 3.9 5.6 0 5.6-16z"/>
		<path id="path814 copy" fill-rule="evenodd" class="s1" d="m104.9 596.7q4.3 0 7.2 4.9 2.9 5 2.9 13 0 8.5-3.1 13.5-3.2 4.9-7.3 4.9-4 0-7.1-4.8-3.1-4.8-3.1-13 0-8.3 3-13.4 3.1-5.1 7.5-5.1zm5.4 17.3q0-15.9-5.5-15.9-5.8 0-5.8 15.9zm-11.3 1.6q0 8.2 1.6 12.1 1.5 3.9 4.1 3.9 5.6 0 5.6-16z"/>
		<path id="path814 copy 2" fill-rule="evenodd" class="s1" d="m144.9 500.7q4.3 0 7.2 4.9 2.9 5 2.9 13 0 8.5-3.1 13.5-3.2 4.9-7.3 4.9-4 0-7.1-4.8-3.1-4.8-3.1-13 0-8.3 3-13.4 3.1-5.1 7.5-5.1zm5.4 17.3q0-15.9-5.5-15.9-5.8 0-5.8 15.9zm-11.3 1.6q0 8.2 1.6 12.1 1.5 3.9 4.1 3.9 5.6 0 5.6-16z"/>
		<path id="path814 copy 3" fill-rule="evenodd" class="s1" d="m122.9 305.7q4.3 0 7.2 4.9 2.9 5 2.9 13 0 8.5-3.1 13.5-3.2 4.9-7.3 4.9-4 0-7.1-4.8-3.1-4.8-3.1-13 0-8.3 3-13.4 3.1-5.1 7.5-5.1zm5.4 17.3q0-15.9-5.5-15.9-5.8 0-5.8 15.9zm-11.3 1.6q0 8.2 1.6 12.1 1.5 3.9 4.1 3.9 5.6 0 5.6-16z"/>
		<path id="path814 copy 4" fill-rule="evenodd" class="s1" d="m126.9 66.7q4.3 0 7.2 4.9 2.9 5 2.9 13 0 8.5-3.1 13.5-3.2 4.9-7.3 4.9-4 0-7.1-4.8-3.1-4.8-3.1-13 0-8.3 3-13.4 3.1-5.1 7.5-5.1zm5.4 17.3q0-15.9-5.5-15.9-5.8 0-5.8 15.9zm-11.3 1.6q0 8.2 1.6 12.1 1.5 3.9 4.1 3.9 5.6 0 5.6-16z"/>
		<path id="Shape 4 copy 2" fill-rule="evenodd" class="s0" d="m199 494.5q0-0.3 0-0.5h4q0 0.2 0 0.5c0 8.1 2.2 15.6 6 22.1l-3.5 2c-4.1-7.1-6.5-15.3-6.5-24.1z"/>
		<path id="Shape 4 copy 4" fill-rule="evenodd" class="s0" d="m249 301.5q0-0.3 0-0.5h4q0 0.2 0 0.5c0 4.2 0.6 8.2 1.7 12l-3.9 1.1c-1.2-4.2-1.8-8.6-1.8-13.1z"/>
		<path id="Shape 4 copy 5" fill-rule="evenodd" class="s0" d="m37 153.5c0-26.3 21.2-47.5 47.5-47.5 16.5 0 31 8.4 39.5 21.1l-3.4 2.2c-7.8-11.7-21-19.3-36.1-19.3-24.1 0-43.5 19.4-43.5 43.5 0 23.6 18.6 42.7 42 43.5v4c-25.6-0.8-46-21.7-46-47.5z"/>
		<path id="Shape 4 copy 3" fill-rule="evenodd" class="s0" d="m123 587.5q0-0.3 0-0.5h4q0 0.2 0 0.5c0 12.1 4.9 23.1 12.9 31l-2.7 2.9c-8.8-8.7-14.2-20.6-14.2-33.9z"/>
		<path id="Shape 3 copy 5" class="s0" d="m697 597h87v4h-87zm0-5h0.7v13h-0.7zm86.3 1h0.7v13h-0.7z"/>
		<path id="Shape 3 copy 6" class="s0" d="m626 683h157v4h-157zm0-5h1.3v13h-1.3zm155.7 1h1.3v13h-1.3z"/>
		<path id="Shape 3 copy" fill-rule="evenodd" class="s0" d="m247.2 773v4h-3.2v-13h3.2v5h375.6v-4h3.2v13h-3.2v-5z"/>
		<path id="Shape 4 copy" fill-rule="evenodd" class="s0" d="m211 676h4v30h29v4h-33z"/>
	</g>
</svg>