<svg xmlns="http://www.w3.org/2000/svg" version="1.0" width="4164.000000pt" height="1417.000000pt" viewBox="0 0 4164.000000 1417.000000" preserveAspectRatio="xMidYMid meet">

<g transform="translate(0.000000,1417.000000) scale(0.100000,-0.100000)" fill="#ffffff" stroke="none">
<path d="M6710 10670 l0 -320 728 -2 727 -3 3 -317 2 -318 1455 0 1455 0 0 640 0 640 -2185 0 -2185 0 0 -320z" fill="#ffffff"/>
<path d="M13242 10980 c-546 -69 -915 -355 -1050 -815 l-26 -90 -4 -822 -3 -823 -539 0 -540 0 0 320 0 320 -1025 0 -1025 0 0 -320 0 -320 -2100 0 -2100 0 0 -320 0 -320 -325 0 -325 0 0 -325 0 -325 1265 0 1265 0 0 -320 0 -320 -625 0 -625 0 0 -320 0 -320 2810 0 2810 0 0 965 0 965 538 -2 537 -3 5 -460 c6 -531 8 -541 105 -740 109 -224 256 -371 490 -487 169 -85 345 -130 580 -149 308 -24 586 21 821 136 285 138 484 367 577 660 38 120 47 212 47 461 l0 224 -444 0 -445 0 -3 -233 -3 -233 -34 -69 c-44 -88 -129 -176 -208 -213 -68 -31 -185 -41 -261 -22 -144 36 -264 147 -311 288 -20 58 -21 84 -21 452 l0 390 1155 0 1155 0 0 -890 0 -890 440 0 440 0 2 888 3 887 463 3 462 2 0 -890 0 -890 440 0 440 0 0 2460 0 2460 -440 0 -440 0 0 -1250 0 -1250 -465 0 -465 0 0 1250 0 1250 -440 0 -440 0 0 -1250 0 -1250 -1155 0 -1155 0 2 768 3 767 32 68 c102 215 360 315 559 217 76 -37 166 -131 209 -215 l30 -60 3 -237 3 -238 446 0 445 0 -4 273 c-4 254 -6 279 -31 369 -113 424 -440 716 -919 820 -107 23 -459 33 -586 18z m-2242 -3515 l0 -245 -3375 0 -3375 0 0 245 0 245 3375 0 3375 0 0 -245z" fill="#ffffff"/>
<path d="M26310 10975 c-543 -78 -896 -360 -1017 -813 l-26 -97 -8 -1025 c-3 -564 -3 -1284 1 -1600 7 -574 7 -575 33 -671 114 -430 457 -716 957 -798 246 -40 482 -37 698 10 487 105 816 457 902 964 16 96 19 197 25 798 l7 687 -646 0 -646 0 0 -320 0 -320 248 -2 247 -3 0 -315 c-1 -261 -4 -330 -18 -400 -56 -268 -226 -420 -470 -420 -45 0 -105 6 -133 14 -156 41 -286 179 -312 331 -14 77 -14 2878 -1 2945 23 117 117 244 219 295 233 118 463 36 579 -205 l36 -75 3 -227 4 -228 439 0 439 0 0 253 c0 207 -4 268 -19 343 -41 198 -139 380 -286 529 -173 175 -375 281 -645 337 -125 26 -470 34 -610 13z" fill="#ffffff"/>
<path d="M19317 9683 c-141 -687 -286 -1386 -321 -1554 -36 -168 -67 -324 -71 -347 -5 -35 -346 -1703 -359 -1754 -4 -17 21 -18 412 -18 l417 0 133 882 c74 486 136 886 138 890 3 5 149 8 325 8 247 0 321 -3 324 -12 3 -7 65 -407 138 -888 l133 -875 441 -3 c417 -2 441 -1 437 15 -13 53 -356 1734 -360 1763 -3 19 -34 172 -69 340 -35 168 -180 866 -322 1553 l-257 1247 -441 0 -440 0 -258 -1247z m778 -656 l91 -592 -185 -3 c-101 -1 -188 1 -192 5 -6 7 164 1148 176 1182 3 8 9 11 13 7 4 -4 48 -274 97 -599z" fill="#ffffff"/>
<path d="M21980 8470 l0 -2460 440 0 440 0 0 890 0 890 165 0 164 0 39 -122 c21 -68 143 -468 272 -890 l235 -768 442 0 441 0 1 2460 0 2460 -439 0 -440 0 0 -1251 0 -1250 -42 3 -42 3 -351 1175 c-193 646 -361 1208 -374 1248 l-22 72 -464 0 -465 0 0 -2460z m954 158 c31 -102 56 -189 56 -192 0 -3 -29 -6 -65 -6 l-65 0 0 202 c0 115 4 198 9 193 5 -6 34 -94 65 -197z" fill="#ffffff"/>
<path d="M28510 8470 l0 -2460 1115 0 1115 0 0 350 0 350 -675 0 -675 0 2 538 3 537 448 3 447 2 0 320 0 320 -447 2 -448 3 0 895 0 895 623 3 622 2 0 350 0 350 -1065 0 -1065 0 0 -2460z" fill="#ffffff"/>
<path d="M31638 9400 l-3 -970 3118 0 3117 0 0 325 0 325 -1215 0 -1215 0 0 320 0 320 -505 0 -505 0 0 318 0 319 -1037 6 c-570 4 -1198 7 -1395 7 l-358 0 -2 -970z m6162 -645 l0 -245 -3045 0 -3045 0 0 245 0 245 3045 0 3045 0 0 -245z" fill="#ffffff"/>
<path d="M31640 7150 l0 -640 1075 0 1075 0 0 320 0 320 1400 0 1400 0 0 320 0 320 -2475 0 -2475 0 0 -640z" fill="#ffffff"/>
<path d="M12463 4700 c-198 -42 -306 -209 -306 -475 1 -225 73 -370 221 -442 51 -25 68 -27 162 -28 99 0 109 2 171 32 36 18 73 41 82 50 15 17 14 21 -16 57 l-33 38 -68 -36 c-87 -46 -156 -49 -234 -10 -94 47 -139 135 -149 300 -10 155 21 276 88 343 79 79 177 92 283 37 l66 -34 30 38 c16 21 30 42 30 46 0 13 -66 53 -111 69 -51 18 -164 26 -216 15z" fill="#ffffff"/>
<path d="M23460 4696 c-143 -31 -243 -127 -292 -279 -16 -48 -21 -90 -21 -187 -1 -194 37 -307 133 -393 111 -99 300 -115 487 -40 l63 25 0 229 0 229 -150 0 c-166 0 -158 4 -144 -68 l6 -31 82 -3 81 -3 3 -137 3 -137 -29 -15 c-16 -8 -57 -20 -92 -25 -209 -34 -321 110 -307 394 6 116 25 182 72 247 81 112 233 129 368 41 l27 -18 37 37 c35 35 36 38 20 56 -27 30 -123 72 -185 83 -71 11 -93 11 -162 -5z" fill="#ffffff"/>
<path d="M29190 4697 c-135 -32 -200 -107 -200 -233 0 -136 57 -193 261 -265 167 -59 216 -106 206 -195 -10 -88 -89 -147 -197 -147 -75 0 -129 17 -192 59 l-53 36 -32 -39 c-18 -21 -33 -41 -33 -45 0 -14 82 -67 139 -90 46 -18 76 -22 171 -23 109 0 119 2 181 31 103 49 149 123 149 241 -1 146 -64 211 -270 278 -161 52 -200 84 -200 162 0 58 27 97 85 119 78 29 202 4 268 -55 18 -15 21 -13 54 22 19 21 33 43 30 50 -5 17 -105 76 -147 87 -63 17 -164 20 -220 7z" fill="#ffffff"/>
<path d="M30370 4697 c-135 -32 -200 -109 -200 -239 0 -131 58 -187 270 -263 162 -57 195 -87 195 -174 0 -45 -5 -67 -21 -88 -70 -95 -237 -103 -365 -17 l-53 35 -33 -38 c-18 -21 -32 -41 -33 -45 0 -14 82 -67 139 -90 46 -18 76 -22 171 -23 106 0 120 2 175 28 76 36 102 60 131 122 18 38 24 67 24 120 -1 148 -63 213 -270 280 -152 49 -200 87 -200 160 0 90 75 143 188 132 57 -5 129 -33 165 -65 16 -15 21 -13 54 20 22 22 34 42 30 51 -7 18 -83 65 -136 83 -57 20 -169 25 -231 11z" fill="#ffffff"/>
<path d="M12972 4318 c3 -361 4 -374 25 -414 26 -49 89 -107 140 -131 59 -26 243 -25 303 3 65 30 107 69 138 128 l27 51 3 368 3 367 -66 0 -65 0 0 -348 c0 -345 0 -349 -23 -392 -31 -60 -89 -90 -171 -90 -79 0 -132 29 -166 90 l-25 45 -3 348 -3 347 -60 0 -60 0 3 -372z" fill="#ffffff"/>
<path d="M13890 4230 l0 -460 249 0 248 0 7 38 c13 78 28 72 -184 72 l-190 0 0 405 0 405 -65 0 -65 0 0 -460z" fill="#ffffff"/>
<path d="M14360 4635 l0 -55 135 0 135 0 0 -405 0 -405 60 0 60 0 0 405 0 405 129 0 c143 0 141 -2 141 78 l0 32 -330 0 -330 0 0 -55z" fill="#ffffff"/>
<path d="M15182 4331 l3 -358 35 -68 c60 -117 159 -163 324 -152 99 7 175 43 223 105 59 78 63 108 63 489 l0 343 -65 0 -65 0 0 -339 c0 -366 -2 -384 -53 -438 -40 -42 -84 -56 -162 -51 -74 5 -121 34 -151 95 -17 35 -19 68 -22 386 l-3 347 -65 0 -66 0 4 -359z" fill="#ffffff"/>
<path d="M16110 4231 l0 -461 65 0 65 0 2 193 3 192 67 3 66 3 110 -193 109 -193 78 -3 c60 -2 76 0 72 10 -2 7 -56 99 -120 205 l-115 191 31 13 c111 44 161 117 161 234 1 88 -15 132 -61 179 -66 65 -121 79 -340 84 l-193 4 0 -461z m343 348 c22 -6 55 -25 75 -43 32 -30 36 -40 40 -93 6 -81 -20 -133 -81 -162 -35 -17 -62 -21 -145 -21 l-102 0 0 165 0 165 88 0 c48 0 104 -5 125 -11z" fill="#ffffff"/>
<path d="M17036 4428 c-180 -561 -206 -641 -206 -649 0 -5 28 -9 63 -9 l63 0 35 113 35 112 174 0 174 0 32 -108 c18 -60 35 -111 37 -113 3 -3 34 -4 69 -2 l64 3 -145 457 -146 458 -82 0 -82 0 -85 -262z m233 -85 c36 -120 66 -224 69 -230 3 -10 -28 -13 -137 -13 -78 0 -141 3 -141 6 0 17 134 454 140 454 3 0 34 -98 69 -217z" fill="#ffffff"/>
<path d="M17750 4230 l0 -460 244 0 244 0 6 31 c3 17 6 42 6 55 l0 24 -190 0 -190 0 0 405 0 405 -60 0 -60 0 0 -460z" fill="#ffffff"/>
<path d="M18820 4230 l0 -460 65 0 65 0 2 213 3 212 193 3 192 2 0 -215 0 -215 65 0 65 0 0 460 0 460 -65 0 -65 0 0 -195 0 -195 -192 2 -193 3 -3 193 -2 192 -65 0 -65 0 0 -460z" fill="#ffffff"/>
<path d="M19760 4230 l0 -460 255 0 255 0 0 50 0 50 -190 0 -190 0 0 155 0 155 155 0 155 0 0 55 0 55 -155 0 -156 0 3 148 3 147 176 3 177 2 6 31 c15 75 34 69 -244 69 l-250 0 0 -460z" fill="#ffffff"/>
<path d="M20510 4230 l0 -460 60 0 60 0 2 193 3 192 70 0 70 0 110 -192 109 -193 79 0 c43 0 76 3 74 8 -94 153 -237 394 -237 396 0 2 24 16 54 30 97 48 136 112 136 227 0 139 -73 220 -225 248 -32 6 -128 11 -212 11 l-153 0 0 -460z m375 335 c52 -26 78 -72 78 -140 0 -70 -26 -113 -83 -142 -37 -19 -60 -23 -147 -23 l-103 0 0 166 0 166 108 -4 c81 -3 117 -8 147 -23z" fill="#ffffff"/>
<path d="M21350 4230 l0 -460 60 0 60 0 0 460 0 460 -60 0 -60 0 0 -460z" fill="#ffffff"/>
<path d="M21650 4635 l0 -55 135 0 135 0 0 -405 0 -405 60 0 60 0 0 405 0 405 129 0 c143 0 141 -2 141 78 l0 32 -330 0 -330 0 0 -55z" fill="#ffffff"/>
<path d="M22506 4428 c-180 -561 -206 -641 -206 -649 0 -5 28 -9 63 -9 l63 0 35 113 35 112 174 0 174 0 32 -108 c18 -60 35 -111 37 -113 3 -3 34 -4 69 -2 l64 3 -145 457 -146 458 -82 0 -82 0 -85 -262z m233 -85 c36 -120 66 -224 69 -230 3 -10 -28 -13 -137 -13 -78 0 -141 3 -141 6 0 17 134 454 140 454 3 0 34 -98 69 -217z" fill="#ffffff"/>
<path d="M24080 4230 l0 -460 255 0 255 0 0 50 0 50 -195 0 -195 0 0 155 0 155 160 0 160 0 0 55 0 55 -160 0 -161 0 3 148 3 147 178 3 c130 2 179 6 182 15 2 6 6 29 9 50 l5 37 -250 0 -249 0 0 -460z" fill="#ffffff"/>
<path d="M25356 4643 c-195 -608 -276 -863 -276 -867 0 -3 29 -6 64 -6 l65 0 26 88 c14 48 30 98 34 112 l8 25 174 0 173 0 35 -112 35 -113 69 0 c60 0 68 2 63 16 -4 10 -70 217 -148 460 l-142 444 -82 0 -82 0 -16 -47z m234 -535 c0 -5 -63 -8 -141 -8 -129 0 -140 1 -135 18 34 116 128 431 132 442 5 12 143 -425 144 -452z" fill="#ffffff"/>
<path d="M26000 4230 l0 -460 61 0 62 0 -6 358 c-3 196 -9 368 -13 382 -16 57 16 -6 187 -362 l178 -373 91 -3 90 -3 0 461 0 460 -61 0 -61 0 4 -380 c3 -355 2 -377 -13 -347 -9 18 -92 188 -184 380 l-168 347 -83 0 -84 0 0 -460z" fill="#ffffff"/>
<path d="M27031 4443 c-188 -585 -211 -657 -211 -665 0 -4 28 -8 63 -8 l63 0 35 113 35 112 174 0 174 0 32 -108 c18 -60 35 -111 37 -113 3 -3 34 -4 69 -2 l64 3 -145 457 -146 458 -82 0 -82 0 -80 -247z m229 -100 c35 -120 66 -224 68 -230 3 -10 -29 -13 -137 -13 -78 0 -141 3 -141 6 0 17 134 454 140 454 3 0 34 -98 70 -217z" fill="#ffffff"/>
<path d="M27740 4230 l0 -460 244 0 244 0 6 23 c3 12 6 37 6 55 l0 32 -190 0 -190 0 0 405 0 405 -60 0 -60 0 0 -460z" fill="#ffffff"/>
<path d="M28224 4608 c24 -46 92 -174 150 -286 l106 -203 0 -175 0 -174 65 0 65 0 0 173 0 173 76 144 c41 80 109 209 150 288 l75 142 -68 0 -68 0 -110 -220 c-60 -121 -112 -220 -115 -220 -3 0 -55 99 -115 220 l-110 220 -72 0 -73 0 44 -82z" fill="#ffffff"/>
<path d="M29810 4230 l0 -460 60 0 60 0 0 460 0 460 -60 0 -60 0 0 -460z" fill="#ffffff"/>
<path d="M15129 3096 c-134 -36 -227 -141 -264 -298 -17 -72 -20 -240 -5 -319 15 -82 73 -191 126 -238 145 -127 394 -116 523 24 146 158 160 502 29 699 -76 115 -257 173 -409 132z m204 -110 c52 -21 114 -97 134 -163 26 -84 25 -305 -1 -385 -50 -153 -197 -220 -333 -153 -90 45 -136 135 -149 293 -16 198 47 358 161 408 39 17 147 18 188 0z" fill="#ffffff"/>
<path d="M20508 3091 c-104 -33 -173 -93 -223 -190 -40 -80 -55 -154 -55 -276 0 -179 39 -296 126 -380 66 -65 136 -88 259 -89 107 0 156 10 248 51 l57 26 0 223 0 224 -156 0 -156 0 6 -22 c3 -13 6 -35 6 -50 l0 -28 85 0 85 0 0 -141 0 -140 -37 -16 c-51 -22 -171 -29 -218 -13 -90 30 -146 117 -166 257 -28 202 28 376 145 444 47 27 57 30 132 27 71 -3 87 -7 134 -36 l53 -33 40 39 40 40 -54 36 c-98 64 -237 83 -351 47z" fill="#ffffff"/>
<path d="M26521 3095 c-125 -35 -208 -124 -254 -270 -26 -85 -31 -276 -8 -365 32 -127 104 -226 195 -268 174 -82 386 -33 481 111 57 87 76 156 82 297 10 248 -63 404 -224 477 -70 32 -193 40 -272 18z m215 -114 c98 -45 146 -157 147 -346 1 -241 -71 -360 -228 -372 -86 -7 -142 14 -194 74 -62 70 -76 123 -76 293 0 116 4 156 19 199 21 61 73 123 125 151 48 26 152 26 207 1z" fill="#ffffff"/>
<path d="M28313 3093 c-62 -18 -126 -70 -153 -124 -27 -52 -27 -156 0 -208 35 -69 92 -107 245 -160 166 -59 213 -104 202 -197 -9 -85 -73 -135 -182 -142 -76 -5 -125 8 -200 54 l-60 36 -32 -38 c-18 -20 -33 -41 -33 -45 0 -15 90 -70 148 -91 81 -29 246 -30 318 -1 76 30 120 68 150 129 24 49 26 63 22 138 -7 142 -52 188 -249 257 -185 65 -219 93 -219 177 0 78 63 122 172 122 62 0 127 -23 184 -65 21 -15 23 -14 54 25 37 47 34 55 -38 97 -87 51 -226 66 -329 36z" fill="#ffffff"/>
<path d="M14240 2630 l0 -460 65 0 65 0 2 203 3 202 148 3 147 3 0 49 0 50 -150 0 -150 0 0 155 0 155 174 0 c172 0 174 0 180 23 3 12 6 34 6 50 l0 27 -245 0 -245 0 0 -460z" fill="#ffffff"/>
<path d="M15860 2631 l0 -461 65 0 65 0 0 195 0 196 72 -3 71 -3 109 -192 109 -193 79 0 79 0 -125 205 -124 206 42 18 c120 51 177 165 148 296 -18 80 -52 122 -128 158 l-67 32 -197 3 -198 4 0 -461z m391 331 c50 -31 72 -80 67 -149 -6 -66 -29 -100 -88 -130 -37 -19 -60 -23 -142 -23 l-98 0 0 166 0 166 113 -3 c95 -4 118 -8 148 -27z" fill="#ffffff"/>
<path d="M17080 2630 l0 -460 61 0 61 0 -3 378 -4 377 65 -135 c36 -74 117 -244 180 -377 l115 -242 88 -1 87 0 0 460 0 460 -60 0 -60 0 1 -297 c0 -164 4 -335 7 -380 4 -44 5 -80 2 -78 -3 2 -86 172 -185 379 l-180 375 -87 1 -88 0 0 -460z" fill="#ffffff"/>
<path d="M18030 2630 l0 -460 255 0 255 0 0 50 0 50 -192 2 -193 3 0 155 0 155 153 3 152 3 0 49 0 50 -155 0 -155 0 0 150 0 150 180 0 c201 0 181 -8 193 73 l4 27 -248 0 -249 0 0 -460z" fill="#ffffff"/>
<path d="M18672 3073 c3 -10 45 -217 94 -460 l89 -443 81 0 82 0 15 68 c8 37 46 205 83 374 37 169 70 305 74 302 3 -3 41 -171 86 -372 l80 -367 85 0 84 0 92 450 c50 248 92 453 92 458 1 4 -26 7 -59 7 -33 0 -60 -3 -60 -6 0 -12 -141 -749 -147 -769 -4 -12 -34 104 -73 281 -37 166 -78 345 -90 398 l-22 96 -68 0 c-57 0 -70 -3 -74 -17 -3 -10 -42 -188 -87 -396 -47 -215 -86 -370 -90 -360 -3 10 -37 188 -74 396 l-69 377 -64 0 c-56 0 -64 -2 -60 -17z" fill="#ffffff"/>
<path d="M21160 2630 l0 -460 255 0 255 0 0 50 0 50 -190 0 -190 0 0 160 0 160 155 0 155 0 0 50 0 50 -155 0 -155 0 0 150 0 150 180 0 c169 0 180 1 180 19 0 10 3 33 6 50 l7 31 -252 0 -251 0 0 -460z" fill="#ffffff"/>
<path d="M21900 2630 l0 -460 61 0 61 0 -4 379 c-2 209 -2 379 -1 378 1 -1 82 -171 181 -377 l179 -375 86 -3 87 -3 0 461 0 460 -61 0 -62 0 6 -357 c3 -197 9 -369 13 -383 16 -59 -22 14 -192 368 l-179 372 -87 0 -88 0 0 -460z" fill="#ffffff"/>
<path d="M22850 2630 l0 -460 255 0 255 0 0 50 0 50 -190 0 -190 0 0 160 0 160 155 0 155 0 0 50 0 50 -155 0 -155 0 0 150 0 150 175 0 c132 0 177 3 179 13 3 6 7 29 10 50 l5 37 -250 0 -249 0 0 -460z" fill="#ffffff"/>
<path d="M23590 2630 l0 -460 65 0 65 0 0 195 0 196 72 -3 71 -3 109 -192 109 -193 80 0 79 0 -125 205 -125 206 43 18 c104 45 151 116 151 232 1 133 -59 210 -190 244 -41 11 -109 15 -231 15 l-173 0 0 -460z m389 335 c51 -30 73 -78 68 -148 -4 -69 -26 -103 -87 -134 -37 -19 -60 -23 -142 -23 l-98 0 0 166 0 166 113 -3 c89 -3 119 -8 146 -24z" fill="#ffffff"/>
<path d="M24595 3078 c-3 -7 -70 -214 -148 -460 l-144 -448 67 0 66 0 34 115 33 115 175 -2 176 -3 32 -108 c18 -60 35 -111 37 -113 3 -3 34 -4 69 -2 l64 3 -145 457 -146 458 -83 0 c-57 0 -84 -4 -87 -12z m154 -333 c34 -115 64 -218 67 -227 5 -17 -6 -18 -135 -18 -78 0 -141 3 -141 8 -1 21 135 460 141 454 4 -4 34 -101 68 -217z" fill="#ffffff"/>
<path d="M25050 3035 l0 -55 130 0 130 0 0 -405 0 -405 65 0 65 0 0 405 0 405 124 0 c138 0 136 -1 136 78 l0 32 -325 0 -325 0 0 -55z" fill="#ffffff"/>
<path d="M25880 2630 l0 -460 65 0 65 0 0 460 0 460 -65 0 -65 0 0 -460z" fill="#ffffff"/>
<path d="M27260 2630 l0 -460 60 0 60 0 0 243 c-1 133 -5 303 -10 377 -4 74 -7 136 -6 138 2 1 84 -168 184 -375 l181 -378 86 -3 85 -3 0 461 0 460 -56 0 -55 0 3 -375 c2 -205 0 -371 -4 -367 -3 4 -86 172 -184 375 l-177 367 -83 0 -84 0 0 -460z" fill="#ffffff"/>
</g>
</svg>