<svg version="1.2" xmlns="http://www.w3.org/2000/svg" viewBox="0 0 150 150" width="150" height="150">
	<title>CHIBA</title>
	<style>
		.s0 { fill: #98242a } 
		.s1 { fill: #d0112b } 
	</style>
	<g id="Background">
		<path id="Path 0" class="s0" d="m35 16.3c-2.7 5-5 9.8-5 10.4 0 0.7 0.3 1.3 0.8 1.2 0.4 0 8.1-3.7 17.2-8.3 13-6.5 16.1-8.4 14.5-9-1.1-0.4-5.6-1.4-10-2.1-4.4-0.8-9-1.5-10.2-1.5-1.8 0-3.2 1.8-7.3 9.3zm83 15.1c7.4 7.4 13.8 13.3 14.3 13 0.4-0.2 0.5-1 0.3-1.7-0.2-0.6-0.9-5.2-1.6-10.2-0.6-5-1.5-9.5-1.8-10.1-0.4-0.6-4.7-1.8-9.7-2.7-5-0.9-10.3-1.7-12-1.7-2.8 0-2.1 0.9 10.5 13.4zm15.5 20.8c0.3 2.9 1.3 9.1 2 13.8 0.7 4.7 1.6 11 2 14 0.6 5.4 0.6 5.5 2.3 3.4 0.9-1.2 3.7-6.3 6.2-11.3l4.5-9.1c-12.4-12.4-16.4-16-16.9-16-0.4 0-0.5 2.4-0.1 5.2zm-124.2 14c-0.5 0.7-2.7 4.7-4.9 8.9-2.1 4.2-4 8.7-4.2 10-0.2 1.8 1.5 4.2 7.3 9.9 4.2 4.1 7.8 7.3 8.1 7 0.3-0.3-0.7-8.6-2.1-18.5-1.5-9.9-2.8-18.1-2.9-18.3-0.2-0.1-0.7 0.3-1.3 1zm92.9 63.2c-8.9 4.4-16.1 8.5-16 9 0.2 0.5 4.8 1.7 10.3 2.7 5.5 1 10.6 1.8 11.2 1.8 0.7 0.1 3.5-4.4 6.3-9.9 2.7-5.5 4.8-10.4 4.7-10.9-0.2-0.5-7.7 2.8-16.5 7.3zm-85.2-95.2c-4.7 2.2-9 4.4-9.6 4.9-0.8 0.6-0.8 3 0.2 9.1 0.8 4.6 1.7 9.9 2 11.8 0.3 2.1 0.8 3.1 1.4 2.5 0.4-0.6 4.5-7.9 8.9-16.3 4.5-8.3 8.1-15.4 8.1-15.7 0-0.3-0.6-0.5-1.3-0.4-0.6 0-5 1.8-9.7 4.1zm112.2 68.8c-4.5 8.8-8.1 16.2-8 16.5 0.2 0.3 5-1.7 10.8-4.4l10.5-5c-2.1-14.4-2.8-19.6-3.1-20.8-0.2-1.3-0.7-2.3-1.2-2.3-0.4 0-4.4 7.2-9 16zm-112.7 3.3c0.2 0.6 0.8 5.2 1.5 10.2 0.6 5 1.6 9.7 2.1 10.5 0.6 1 4.6 2.1 11.6 3.2 6 1 11 1.5 11.3 1.2 0.3-0.2-5.3-6.3-12.5-13.4-7.2-7.2-13.3-13-13.7-13-0.4 0-0.5 0.6-0.3 1.3zm59.3-101.4c-4.9 2.5-8.6 5.1-8.5 5.6 0.2 0.6 8.2 2.3 17.8 3.8 9.6 1.5 17.6 2.5 17.9 2.2 0.3-0.3-3.1-4.2-7.5-8.5-4.4-4.4-8.7-7.9-9.5-7.9-0.8 0.1-5.4 2.3-10.2 4.8zm-29.3 127.9c-0.1 0.4 3.2 4.5 7.4 9.1l7.6 8.3c15.9-7.9 20.7-10.6 21-11.2 0.3-0.6 0.2-1-0.3-1-0.4 0-7.7-1.1-16.2-2.5-8.5-1.4-16.3-2.7-17.3-2.9-1-0.2-2-0.1-2.2 0.2z"/>
		<path id="Path 3" class="s1" d="m62.7 10.8c0.7 0.4-5.5 4-15.5 9-9.2 4.6-16.9 8-17.2 7.8-0.3-0.3-1.1-0.1-1.8 0.4-0.6 0.6-1 1.4-0.7 2 0.3 0.6-3.2 7.9-7.6 16.3-4.5 8.3-8.9 16.3-9.8 17.7-0.9 1.4-1.1 2.1-0.4 1.7 0.8-0.4 1.3-0.2 1.3 0.5 0 0.7 1.2 8.5 2.5 17.3 1.4 8.8 2.5 16.6 2.5 17.3 0 0.6-0.6 0.9-1.3 0.5-0.6-0.3-1-0.3-0.7 0 0.3 0.4 7.2 7.5 15.5 15.8 12.7 12.9 15.5 15.2 18.5 15.6 1.9 0.2 10.5 1.5 19 2.9 8.5 1.5 16.1 2.9 16.8 3.3 0.8 0.3 1.7 0.1 2-0.5 0.4-0.6 8-4.8 16.9-9.3 9-4.4 16.3-7.6 16.3-7.1 0 0.5 0.6 0.4 1.4-0.3 0.8-0.6 1.2-1.5 1-2-0.2-0.4 3.3-7.8 7.8-16.5 4.5-8.6 8.8-16.3 9.5-17 0.7-0.6 1.3-1.8 1.3-2.5q0-1.2-0.9 0.3c-0.7 1.1-1.1-0.1-1.6-4-0.3-3-1.3-9.3-2.1-14-0.7-4.7-1.6-11.2-1.9-14.5-0.2-3.3-0.4-6.5-0.4-7 0-0.5-0.4-0.6-0.8-0.2-0.5 0.4-6.7-5.2-14-12.5-7.3-7.3-13-13.6-12.7-14.1 0.2-0.4-0.2-0.8-0.9-0.8-0.6-0.1-1.7-0.1-2.2 0-0.6 0.1-8.2-0.9-17-2.4-8.8-1.4-16.8-3-17.8-3.5-0.9-0.6-2.7-1-4-1-1.3 0-1.7 0.3-1 0.8z"/>
	</g>
</svg>