<svg version="1.2" xmlns="http://www.w3.org/2000/svg" viewBox="0 0 456 456" width="456" height="456">
	<title>Open3D-svg</title>
	<style>
		.s0 { fill: #dcdcdc } 
		.s1 { fill: #005c94 } 
	</style>
	<g id="Layer">
		<path id="Shape 1" class="s0" d="m35.5 54c-10.2 0-18.5-8.3-18.5-18.5 0-10.2 8.3-18.5 18.5-18.5 10.2 0 18.5 8.3 18.5 18.5 0 10.2-8.3 18.5-18.5 18.5zm43 0c-10.2 0-18.5-8.3-18.5-18.5 0-10.2 8.3-18.5 18.5-18.5 10.2 0 18.5 8.3 18.5 18.5 0 10.2-8.3 18.5-18.5 18.5zm43 0c-10.2 0-18.5-8.3-18.5-18.5 0-10.2 8.3-18.5 18.5-18.5 10.2 0 18.5 8.3 18.5 18.5 0 10.2-8.3 18.5-18.5 18.5zm43 0c-10.2 0-18.5-8.3-18.5-18.5 0-10.2 8.3-18.5 18.5-18.5 10.2 0 18.5 8.3 18.5 18.5 0 10.2-8.3 18.5-18.5 18.5zm42 0c-10.2 0-18.5-8.3-18.5-18.5 0-10.2 8.3-18.5 18.5-18.5 10.2 0 18.5 8.3 18.5 18.5 0 10.2-8.3 18.5-18.5 18.5zm43 0c-10.2 0-18.5-8.3-18.5-18.5 0-10.2 8.3-18.5 18.5-18.5 10.2 0 18.5 8.3 18.5 18.5 0 10.2-8.3 18.5-18.5 18.5zm43 0c-10.2 0-18.5-8.3-18.5-18.5 0-10.2 8.3-18.5 18.5-18.5 10.2 0 18.5 8.3 18.5 18.5 0 10.2-8.3 18.5-18.5 18.5zm43 0c-10.2 0-18.5-8.3-18.5-18.5 0-10.2 8.3-18.5 18.5-18.5 10.2 0 18.5 8.3 18.5 18.5 0 10.2-8.3 18.5-18.5 18.5zm44 0c-10.2 0-18.5-8.3-18.5-18.5 0-10.2 8.3-18.5 18.5-18.5 10.2 0 18.5 8.3 18.5 18.5 0 10.2-8.3 18.5-18.5 18.5zm43 0c-10.2 0-18.5-8.3-18.5-18.5 0-10.2 8.3-18.5 18.5-18.5 10.2 0 18.5 8.3 18.5 18.5 0 10.2-8.3 18.5-18.5 18.5zm-386 44c-10.2 0-18.5-8.3-18.5-18.5 0-10.2 8.3-18.5 18.5-18.5 10.2 0 18.5 8.3 18.5 18.5 0 10.2-8.3 18.5-18.5 18.5zm43 0c-10.2 0-18.5-8.3-18.5-18.5 0-10.2 8.3-18.5 18.5-18.5 10.2 0 18.5 8.3 18.5 18.5 0 10.2-8.3 18.5-18.5 18.5zm43 0c-10.2 0-18.5-8.3-18.5-18.5 0-10.2 8.3-18.5 18.5-18.5 10.2 0 18.5 8.3 18.5 18.5 0 10.2-8.3 18.5-18.5 18.5zm43 0c-10.2 0-18.5-8.3-18.5-18.5 0-10.2 8.3-18.5 18.5-18.5 10.2 0 18.5 8.3 18.5 18.5 0 10.2-8.3 18.5-18.5 18.5zm42 0c-10.2 0-18.5-8.3-18.5-18.5 0-10.2 8.3-18.5 18.5-18.5 10.2 0 18.5 8.3 18.5 18.5 0 10.2-8.3 18.5-18.5 18.5zm43 0c-10.2 0-18.5-8.3-18.5-18.5 0-10.2 8.3-18.5 18.5-18.5 10.2 0 18.5 8.3 18.5 18.5 0 10.2-8.3 18.5-18.5 18.5zm43 0c-10.2 0-18.5-8.3-18.5-18.5 0-10.2 8.3-18.5 18.5-18.5 10.2 0 18.5 8.3 18.5 18.5 0 10.2-8.3 18.5-18.5 18.5zm43 0c-10.2 0-18.5-8.3-18.5-18.5 0-10.2 8.3-18.5 18.5-18.5 10.2 0 18.5 8.3 18.5 18.5 0 10.2-8.3 18.5-18.5 18.5zm44 0c-10.2 0-18.5-8.3-18.5-18.5 0-10.2 8.3-18.5 18.5-18.5 10.2 0 18.5 8.3 18.5 18.5 0 10.2-8.3 18.5-18.5 18.5zm43 0c-10.2 0-18.5-8.3-18.5-18.5 0-10.2 8.3-18.5 18.5-18.5 10.2 0 18.5 8.3 18.5 18.5 0 10.2-8.3 18.5-18.5 18.5zm-388 42c-10.2 0-18.5-8.3-18.5-18.5 0-10.2 8.3-18.5 18.5-18.5 10.2 0 18.5 8.3 18.5 18.5 0 10.2-8.3 18.5-18.5 18.5zm43 0c-10.2 0-18.5-8.3-18.5-18.5 0-10.2 8.3-18.5 18.5-18.5 10.2 0 18.5 8.3 18.5 18.5 0 10.2-8.3 18.5-18.5 18.5zm43 0c-10.2 0-18.5-8.3-18.5-18.5 0-10.2 8.3-18.5 18.5-18.5 10.2 0 18.5 8.3 18.5 18.5 0 10.2-8.3 18.5-18.5 18.5zm43 0c-10.2 0-18.5-8.3-18.5-18.5 0-10.2 8.3-18.5 18.5-18.5 10.2 0 18.5 8.3 18.5 18.5 0 10.2-8.3 18.5-18.5 18.5zm42 0c-10.2 0-18.5-8.3-18.5-18.5 0-10.2 8.3-18.5 18.5-18.5 10.2 0 18.5 8.3 18.5 18.5 0 10.2-8.3 18.5-18.5 18.5zm43 0c-10.2 0-18.5-8.3-18.5-18.5 0-10.2 8.3-18.5 18.5-18.5 10.2 0 18.5 8.3 18.5 18.5 0 10.2-8.3 18.5-18.5 18.5zm43 0c-10.2 0-18.5-8.3-18.5-18.5 0-10.2 8.3-18.5 18.5-18.5 10.2 0 18.5 8.3 18.5 18.5 0 10.2-8.3 18.5-18.5 18.5zm43 0c-10.2 0-18.5-8.3-18.5-18.5 0-10.2 8.3-18.5 18.5-18.5 10.2 0 18.5 8.3 18.5 18.5 0 10.2-8.3 18.5-18.5 18.5zm44 0c-10.2 0-18.5-8.3-18.5-18.5 0-10.2 8.3-18.5 18.5-18.5 10.2 0 18.5 8.3 18.5 18.5 0 10.2-8.3 18.5-18.5 18.5zm43 0c-10.2 0-18.5-8.3-18.5-18.5 0-10.2 8.3-18.5 18.5-18.5 10.2 0 18.5 8.3 18.5 18.5 0 10.2-8.3 18.5-18.5 18.5zm-386 44c-10.2 0-18.5-8.3-18.5-18.5 0-10.2 8.3-18.5 18.5-18.5 10.2 0 18.5 8.3 18.5 18.5 0 10.2-8.3 18.5-18.5 18.5zm43 0c-10.2 0-18.5-8.3-18.5-18.5 0-10.2 8.3-18.5 18.5-18.5 10.2 0 18.5 8.3 18.5 18.5 0 10.2-8.3 18.5-18.5 18.5zm43 0c-10.2 0-18.5-8.3-18.5-18.5 0-10.2 8.3-18.5 18.5-18.5 10.2 0 18.5 8.3 18.5 18.5 0 10.2-8.3 18.5-18.5 18.5zm43 0c-10.2 0-18.5-8.3-18.5-18.5 0-10.2 8.3-18.5 18.5-18.5 10.2 0 18.5 8.3 18.5 18.5 0 10.2-8.3 18.5-18.5 18.5zm42 0c-10.2 0-18.5-8.3-18.5-18.5 0-10.2 8.3-18.5 18.5-18.5 10.2 0 18.5 8.3 18.5 18.5 0 10.2-8.3 18.5-18.5 18.5zm43 0c-10.2 0-18.5-8.3-18.5-18.5 0-10.2 8.3-18.5 18.5-18.5 10.2 0 18.5 8.3 18.5 18.5 0 10.2-8.3 18.5-18.5 18.5zm43 0c-10.2 0-18.5-8.3-18.5-18.5 0-10.2 8.3-18.5 18.5-18.5 10.2 0 18.5 8.3 18.5 18.5 0 10.2-8.3 18.5-18.5 18.5zm43 0c-10.2 0-18.5-8.3-18.5-18.5 0-10.2 8.3-18.5 18.5-18.5 10.2 0 18.5 8.3 18.5 18.5 0 10.2-8.3 18.5-18.5 18.5zm44 0c-10.2 0-18.5-8.3-18.5-18.5 0-10.2 8.3-18.5 18.5-18.5 10.2 0 18.5 8.3 18.5 18.5 0 10.2-8.3 18.5-18.5 18.5zm43 0c-10.2 0-18.5-8.3-18.5-18.5 0-10.2 8.3-18.5 18.5-18.5 10.2 0 18.5 8.3 18.5 18.5 0 10.2-8.3 18.5-18.5 18.5zm-388 41c-10.2 0-18.5-8.3-18.5-18.5 0-10.2 8.3-18.5 18.5-18.5 10.2 0 18.5 8.3 18.5 18.5 0 10.2-8.3 18.5-18.5 18.5zm43 0c-10.2 0-18.5-8.3-18.5-18.5 0-10.2 8.3-18.5 18.5-18.5 10.2 0 18.5 8.3 18.5 18.5 0 10.2-8.3 18.5-18.5 18.5zm43 0c-10.2 0-18.5-8.3-18.5-18.5 0-10.2 8.3-18.5 18.5-18.5 10.2 0 18.5 8.3 18.5 18.5 0 10.2-8.3 18.5-18.5 18.5zm43 0c-10.2 0-18.5-8.3-18.5-18.5 0-10.2 8.3-18.5 18.5-18.5 10.2 0 18.5 8.3 18.5 18.5 0 10.2-8.3 18.5-18.5 18.5zm42 0c-10.2 0-18.5-8.3-18.5-18.5 0-10.2 8.3-18.5 18.5-18.5 10.2 0 18.5 8.3 18.5 18.5 0 10.2-8.3 18.5-18.5 18.5zm43 0c-10.2 0-18.5-8.3-18.5-18.5 0-10.2 8.3-18.5 18.5-18.5 10.2 0 18.5 8.3 18.5 18.5 0 10.2-8.3 18.5-18.5 18.5zm43 0c-10.2 0-18.5-8.3-18.5-18.5 0-10.2 8.3-18.5 18.5-18.5 10.2 0 18.5 8.3 18.5 18.5 0 10.2-8.3 18.5-18.5 18.5zm43 0c-10.2 0-18.5-8.3-18.5-18.5 0-10.2 8.3-18.5 18.5-18.5 10.2 0 18.5 8.3 18.5 18.5 0 10.2-8.3 18.5-18.5 18.5zm44 0c-10.2 0-18.5-8.3-18.5-18.5 0-10.2 8.3-18.5 18.5-18.5 10.2 0 18.5 8.3 18.5 18.5 0 10.2-8.3 18.5-18.5 18.5zm43 0c-10.2 0-18.5-8.3-18.5-18.5 0-10.2 8.3-18.5 18.5-18.5 10.2 0 18.5 8.3 18.5 18.5 0 10.2-8.3 18.5-18.5 18.5zm-386 44c-10.2 0-18.5-8.3-18.5-18.5 0-10.2 8.3-18.5 18.5-18.5 10.2 0 18.5 8.3 18.5 18.5 0 10.2-8.3 18.5-18.5 18.5zm43 0c-10.2 0-18.5-8.3-18.5-18.5 0-10.2 8.3-18.5 18.5-18.5 10.2 0 18.5 8.3 18.5 18.5 0 10.2-8.3 18.5-18.5 18.5zm43 0c-10.2 0-18.5-8.3-18.5-18.5 0-10.2 8.3-18.5 18.5-18.5 10.2 0 18.5 8.3 18.5 18.5 0 10.2-8.3 18.5-18.5 18.5zm43 0c-10.2 0-18.5-8.3-18.5-18.5 0-10.2 8.3-18.5 18.5-18.5 10.2 0 18.5 8.3 18.5 18.5 0 10.2-8.3 18.5-18.5 18.5zm42 0c-10.2 0-18.5-8.3-18.5-18.5 0-10.2 8.3-18.5 18.5-18.5 10.2 0 18.5 8.3 18.5 18.5 0 10.2-8.3 18.5-18.5 18.5zm43 0c-10.2 0-18.5-8.3-18.5-18.5 0-10.2 8.3-18.5 18.5-18.5 10.2 0 18.5 8.3 18.5 18.5 0 10.2-8.3 18.5-18.5 18.5zm43 0c-10.2 0-18.5-8.3-18.5-18.5 0-10.2 8.3-18.5 18.5-18.5 10.2 0 18.5 8.3 18.5 18.5 0 10.2-8.3 18.5-18.5 18.5zm43 0c-10.2 0-18.5-8.3-18.5-18.5 0-10.2 8.3-18.5 18.5-18.5 10.2 0 18.5 8.3 18.5 18.5 0 10.2-8.3 18.5-18.5 18.5zm44 0c-10.2 0-18.5-8.3-18.5-18.5 0-10.2 8.3-18.5 18.5-18.5 10.2 0 18.5 8.3 18.5 18.5 0 10.2-8.3 18.5-18.5 18.5zm43 0c-10.2 0-18.5-8.3-18.5-18.5 0-10.2 8.3-18.5 18.5-18.5 10.2 0 18.5 8.3 18.5 18.5 0 10.2-8.3 18.5-18.5 18.5zm-388 42c-10.2 0-18.5-8.3-18.5-18.5 0-10.2 8.3-18.5 18.5-18.5 10.2 0 18.5 8.3 18.5 18.5 0 10.2-8.3 18.5-18.5 18.5zm43 0c-10.2 0-18.5-8.3-18.5-18.5 0-10.2 8.3-18.5 18.5-18.5 10.2 0 18.5 8.3 18.5 18.5 0 10.2-8.3 18.5-18.5 18.5zm43 0c-10.2 0-18.5-8.3-18.5-18.5 0-10.2 8.3-18.5 18.5-18.5 10.2 0 18.5 8.3 18.5 18.5 0 10.2-8.3 18.5-18.5 18.5zm43 0c-10.2 0-18.5-8.3-18.5-18.5 0-10.2 8.3-18.5 18.5-18.5 10.2 0 18.5 8.3 18.5 18.5 0 10.2-8.3 18.5-18.5 18.5zm42 0c-10.2 0-18.5-8.3-18.5-18.5 0-10.2 8.3-18.5 18.5-18.5 10.2 0 18.5 8.3 18.5 18.5 0 10.2-8.3 18.5-18.5 18.5zm43 0c-10.2 0-18.5-8.3-18.5-18.5 0-10.2 8.3-18.5 18.5-18.5 10.2 0 18.5 8.3 18.5 18.5 0 10.2-8.3 18.5-18.5 18.5zm43 0c-10.2 0-18.5-8.3-18.5-18.5 0-10.2 8.3-18.5 18.5-18.5 10.2 0 18.5 8.3 18.5 18.5 0 10.2-8.3 18.5-18.5 18.5zm43 0c-10.2 0-18.5-8.3-18.5-18.5 0-10.2 8.3-18.5 18.5-18.5 10.2 0 18.5 8.3 18.5 18.5 0 10.2-8.3 18.5-18.5 18.5zm44 0c-10.2 0-18.5-8.3-18.5-18.5 0-10.2 8.3-18.5 18.5-18.5 10.2 0 18.5 8.3 18.5 18.5 0 10.2-8.3 18.5-18.5 18.5zm43 0c-10.2 0-18.5-8.3-18.5-18.5 0-10.2 8.3-18.5 18.5-18.5 10.2 0 18.5 8.3 18.5 18.5 0 10.2-8.3 18.5-18.5 18.5zm-386 44c-10.2 0-18.5-8.3-18.5-18.5 0-10.2 8.3-18.5 18.5-18.5 10.2 0 18.5 8.3 18.5 18.5 0 10.2-8.3 18.5-18.5 18.5zm43 0c-10.2 0-18.5-8.3-18.5-18.5 0-10.2 8.3-18.5 18.5-18.5 10.2 0 18.5 8.3 18.5 18.5 0 10.2-8.3 18.5-18.5 18.5zm43 0c-10.2 0-18.5-8.3-18.5-18.5 0-10.2 8.3-18.5 18.5-18.5 10.2 0 18.5 8.3 18.5 18.5 0 10.2-8.3 18.5-18.5 18.5zm43 0c-10.2 0-18.5-8.3-18.5-18.5 0-10.2 8.3-18.5 18.5-18.5 10.2 0 18.5 8.3 18.5 18.5 0 10.2-8.3 18.5-18.5 18.5zm42 0c-10.2 0-18.5-8.3-18.5-18.5 0-10.2 8.3-18.5 18.5-18.5 10.2 0 18.5 8.3 18.5 18.5 0 10.2-8.3 18.5-18.5 18.5zm43 0c-10.2 0-18.5-8.3-18.5-18.5 0-10.2 8.3-18.5 18.5-18.5 10.2 0 18.5 8.3 18.5 18.5 0 10.2-8.3 18.5-18.5 18.5zm43 0c-10.2 0-18.5-8.3-18.5-18.5 0-10.2 8.3-18.5 18.5-18.5 10.2 0 18.5 8.3 18.5 18.5 0 10.2-8.3 18.5-18.5 18.5zm43 0c-10.2 0-18.5-8.3-18.5-18.5 0-10.2 8.3-18.5 18.5-18.5 10.2 0 18.5 8.3 18.5 18.5 0 10.2-8.3 18.5-18.5 18.5zm44 0c-10.2 0-18.5-8.3-18.5-18.5 0-10.2 8.3-18.5 18.5-18.5 10.2 0 18.5 8.3 18.5 18.5 0 10.2-8.3 18.5-18.5 18.5zm43 0c-10.2 0-18.5-8.3-18.5-18.5 0-10.2 8.3-18.5 18.5-18.5 10.2 0 18.5 8.3 18.5 18.5 0 10.2-8.3 18.5-18.5 18.5zm-388 41c-10.2 0-18.5-8.3-18.5-18.5 0-10.2 8.3-18.5 18.5-18.5 10.2 0 18.5 8.3 18.5 18.5 0 10.2-8.3 18.5-18.5 18.5zm43 0c-10.2 0-18.5-8.3-18.5-18.5 0-10.2 8.3-18.5 18.5-18.5 10.2 0 18.5 8.3 18.5 18.5 0 10.2-8.3 18.5-18.5 18.5zm43 0c-10.2 0-18.5-8.3-18.5-18.5 0-10.2 8.3-18.5 18.5-18.5 10.2 0 18.5 8.3 18.5 18.5 0 10.2-8.3 18.5-18.5 18.5zm43 0c-10.2 0-18.5-8.3-18.5-18.5 0-10.2 8.3-18.5 18.5-18.5 10.2 0 18.5 8.3 18.5 18.5 0 10.2-8.3 18.5-18.5 18.5zm42 0c-10.2 0-18.5-8.3-18.5-18.5 0-10.2 8.3-18.5 18.5-18.5 10.2 0 18.5 8.3 18.5 18.5 0 10.2-8.3 18.5-18.5 18.5zm43 0c-10.2 0-18.5-8.3-18.5-18.5 0-10.2 8.3-18.5 18.5-18.5 10.2 0 18.5 8.3 18.5 18.5 0 10.2-8.3 18.5-18.5 18.5zm43 0c-10.2 0-18.5-8.3-18.5-18.5 0-10.2 8.3-18.5 18.5-18.5 10.2 0 18.5 8.3 18.5 18.5 0 10.2-8.3 18.5-18.5 18.5zm43 0c-10.2 0-18.5-8.3-18.5-18.5 0-10.2 8.3-18.5 18.5-18.5 10.2 0 18.5 8.3 18.5 18.5 0 10.2-8.3 18.5-18.5 18.5zm44 0c-10.2 0-18.5-8.3-18.5-18.5 0-10.2 8.3-18.5 18.5-18.5 10.2 0 18.5 8.3 18.5 18.5 0 10.2-8.3 18.5-18.5 18.5zm43 0c-10.2 0-18.5-8.3-18.5-18.5 0-10.2 8.3-18.5 18.5-18.5 10.2 0 18.5 8.3 18.5 18.5 0 10.2-8.3 18.5-18.5 18.5zm-386 44c-10.2 0-18.5-8.3-18.5-18.5 0-10.2 8.3-18.5 18.5-18.5 10.2 0 18.5 8.3 18.5 18.5 0 10.2-8.3 18.5-18.5 18.5zm43 0c-10.2 0-18.5-8.3-18.5-18.5 0-10.2 8.3-18.5 18.5-18.5 10.2 0 18.5 8.3 18.5 18.5 0 10.2-8.3 18.5-18.5 18.5zm43 0c-10.2 0-18.5-8.3-18.5-18.5 0-10.2 8.3-18.5 18.5-18.5 10.2 0 18.5 8.3 18.5 18.5 0 10.2-8.3 18.5-18.5 18.5zm43 0c-10.2 0-18.5-8.3-18.5-18.5 0-10.2 8.3-18.5 18.5-18.5 10.2 0 18.5 8.3 18.5 18.5 0 10.2-8.3 18.5-18.5 18.5zm42 0c-10.2 0-18.5-8.3-18.5-18.5 0-10.2 8.3-18.5 18.5-18.5 10.2 0 18.5 8.3 18.5 18.5 0 10.2-8.3 18.5-18.5 18.5zm43 0c-10.2 0-18.5-8.3-18.5-18.5 0-10.2 8.3-18.5 18.5-18.5 10.2 0 18.5 8.3 18.5 18.5 0 10.2-8.3 18.5-18.5 18.5zm43 0c-10.2 0-18.5-8.3-18.5-18.5 0-10.2 8.3-18.5 18.5-18.5 10.2 0 18.5 8.3 18.5 18.5 0 10.2-8.3 18.5-18.5 18.5zm43 0c-10.2 0-18.5-8.3-18.5-18.5 0-10.2 8.3-18.5 18.5-18.5 10.2 0 18.5 8.3 18.5 18.5 0 10.2-8.3 18.5-18.5 18.5zm44 0c-10.2 0-18.5-8.3-18.5-18.5 0-10.2 8.3-18.5 18.5-18.5 10.2 0 18.5 8.3 18.5 18.5 0 10.2-8.3 18.5-18.5 18.5zm43 0c-10.2 0-18.5-8.3-18.5-18.5 0-10.2 8.3-18.5 18.5-18.5 10.2 0 18.5 8.3 18.5 18.5 0 10.2-8.3 18.5-18.5 18.5z"/>
		<path id="Shape 2" fill-rule="evenodd" class="s1" d="m185.5 380c-81.6 0-147.5-67.3-147.5-150.5 0-83.2 65.9-150.5 147.5-150.5 60.8 0 113 37.4 135.6 91h-41.2c-18.9-34.7-53.9-58-93.9-58-60.3 0-109 52.7-109 118 0 65.3 48.7 118 109 118 43.4 0 80.8-27.3 98.4-67h39.8c-20.6 57.8-74.9 99-138.7 99z"/>
		<path id="Shape 2 copy" fill-rule="evenodd" class="s1" d="m292.5 379c-81.6 0-147.5-67.3-147.5-150.5 0-83.2 65.9-150.5 147.5-150.5 60.8 0 113 37.4 135.6 91h-41.2c-18.9-34.7-53.9-58-93.9-58-60.3 0-109 52.7-109 118 0 65.3 48.7 118 109 118 43.4 0 80.8-27.3 98.4-67h39.8c-20.6 57.8-74.9 99-138.7 99z"/>
	</g>
</svg>