<?xml version="1.0" standalone="no"?>
<!DOCTYPE svg PUBLIC "-//W3C//DTD SVG 20010904//EN"
 "http://www.w3.org/TR/2001/REC-SVG-20010904/DTD/svg10.dtd">
<svg version="1.0" xmlns="http://www.w3.org/2000/svg"
 width="125.000000pt" height="126.000000pt" viewBox="0 0 125.000000 126.000000"
 preserveAspectRatio="xMidYMid meet">

<g transform="translate(0.000000,126.000000) scale(0.100000,-0.100000)"
fill="#000000" stroke="none">
<path d="M168 1042 c-74 -82 -128 -208 -143 -334 l-7 -58 183 0 184 0 12 -51
c25 -102 90 -168 189 -190 l54 -12 0 -184 0 -185 43 7 c138 20 245 64 336 136
l53 42 -130 131 -129 131 23 34 c45 64 53 126 29 209 -30 101 -111 162 -225
169 -58 5 -71 2 -124 -26 l-60 -32 -126 126 -127 126 -35 -39z m501 -327 c71
-36 45 -145 -35 -145 -85 0 -104 124 -24 153 24 9 29 8 59 -8z"/>
</g>
</svg>
