<svg version="1.2" xmlns="http://www.w3.org/2000/svg" viewBox="0 0 456 456" width="456" height="456">
	<title>Open3D-svg</title>
	<style>
		.s0 { fill: #ffc11e } 
		.s1 { fill: #ef1161 } 
		.s2 { fill: #fc6e6b } 
	</style>
	<g id="Layer">
		<path id="Layer" class="s0" d="m123.3 137.1l117.4-67.7c1.1-0.7 1.9-1.9 1.9-3.3v-40.6c0-6-2.5-12-7.3-15.6-6.2-4.7-14.2-5.2-20.7-1.4l-164.2 94.8c-5.8 3.3-9.3 9.5-9.3 16.1l-0.1 214c0 6 2.5 12 7.2 15.6 6.2 4.7 14.2 5.2 20.8 1.4l34.8-20.1c1.1-0.7 1.8-1.9 1.8-3.2l0.1-159.5c0-12.6 6.7-24.2 17.6-30.5z"/>
		<path id="Layer" class="s1" d="m404.7 106.4c-2.9-1.7-6.2-2.5-9.4-2.5-3.2 0-6.4 0.8-9.3 2.5l-164.2 94.7c-5.7 3.3-9.3 9.5-9.3 16.2l-0.1 214.8c0 6.7 3.5 12.7 9.3 16.1 5.9 3.4 12.9 3.4 18.7 0l164.2-94.7c5.7-3.4 9.3-9.5 9.3-16.2l0.1-214.7c0-6.8-3.5-12.8-9.3-16.2z"/>
		<path id="Layer" class="s2" d="m213.5 186.8l108.4-62.6c1.2-0.6 1.9-1.9 1.9-3.2v-47.3c0-6-2.5-12-7.3-15.6-6.2-4.7-14.1-5.2-20.7-1.4l-44.9 25.9-119.3 68.9c-5.8 3.3-9.3 9.4-9.3 16.1l-0.1 161.6v52.4c0 6 2.5 11.9 7.2 15.6 6.3 4.7 14.2 5.1 20.8 1.3l43.8-25.2c1.1-0.7 1.9-1.9 1.9-3.3v-152.7c0-12.6 6.7-24.3 17.6-30.5z"/>
	</g>
</svg>