<svg version="1.2" xmlns="http://www.w3.org/2000/svg" viewBox="0 0 124 151" width="124" height="151">
	<title>KIRKEsvg-svg</title>
	<style>
		.s0 { fill: #ffffff } 
	</style>
	<g id="Layer">
		<path id="Layer" fill-rule="evenodd" class="s0" d="m61.6 3h60.5l-0.6 13.2c-1.5 31.6-3.7 48.2-8.6 63.5-5.9 18.4-13 31.2-26.2 46.9-7.7 9.2-23.3 23.4-25.7 23.4-4.6 0-26.3-21.8-35.1-35.2-14-21.3-19.9-39.3-23.3-70.3-1.2-10.8-2.1-34.1-1.7-40.8 0.1-0.4 27.4-0.7 60.7-0.7zm-3.3 4c-2.2 0.9-3.9 4.3-2.8 6 0.3 0.6-0.4 1-1.7 1-3 0-4.8 1.7-4.8 4.5 0 2.8 1.8 4.5 4.8 4.5 1.8 0 2.3 0.4 1.8 1.6-0.3 0.9-0.6 8.1-0.6 16v14.4l-8.2-0.1c-4.6 0-7.7-0.3-7-0.6 0.9-0.3 1.2-4.5 1.2-15.9 0-14.9-0.1-15.4-2-15.4-2 0-2.1 0.4-1.8 16l0.3 16h-5.7c-5.1 0-5.8-0.2-5.8-1.9 0-2.5-2.6-5.1-5-5.1-2.6 0-5.3 2.9-4.7 5.2 0.3 1 0 1.8-0.6 1.7-3.2-0.4-4.8 0.3-5.8 2.5-1.6 3.5 0.3 6.6 4.1 6.6 2.5 0 3 0.4 3 2.5 0 5.2 7.6 5.5 8.7 0.4 0.5-2.8 0.8-2.9 6.2-2.9h5.6v29.2c0 25.4 0.2 29.3 1.5 29.3 1.3 0 1.5-4 1.8-29.3l0.2-29.2h14v26.9c0 14.8 0.3 28.3 0.6 30 0.6 2.8 0.4 3.1-2 3.1-1.6 0-3.1 0.9-4.2 2.5-1.5 2.3-1.5 2.7 0 5 0.9 1.4 2.4 2.5 3.4 2.5 0.9 0 2.4 1.5 3.2 3.3 2.5 5.3 10 4.8 10-0.7 0-1.6 0.9-2.4 3.3-3.1 2.5-0.8 3.3-1.6 3.5-3.8 0.4-3.5-1.3-5.7-4.5-5.7-2.1 0-2.3-0.3-1.9-3.8 0.3-2 0.5-15.5 0.5-30l0.1-26.2h14.5l-0.3 29.5c-0.3 29.2-0.2 29.5 1.8 29.5 2 0 2.1-0.3 1.8-29.4l-0.3-29.5 6.2-0.3c5.8-0.3 6.2-0.2 5.7 1.7-0.3 1.3 0.3 2.8 1.6 4 2 1.8 2.4 1.8 4.8 0.4 1.5-0.8 2.8-2.5 3-3.7 0.3-1.6 1-2.2 2.8-2.2 5.4 0 5.3-8.2-0.1-9.6-1.4-0.4-2.5-1.3-2.5-2.3 0-4-5.4-5.5-8.5-2.5-0.9 1-1.4 2.5-1.2 3.5 0.5 1.7-0.1 1.9-5.6 1.9h-6.2l0.6-34h3.4c2.5 0 4.3 0.9 7.1 3.5 2 1.9 4 3.2 4.4 3 2.3-1.4 4-19.5 1.9-19.5-0.5 0-3.1 1.6-5.6 3.5-5.4 4.1-11.3 4.9-11.3 1.5 0-1.2-0.7-2-1.6-2-0.9 0-1.8 0.9-2.1 2-0.3 1.1-0.9 2-1.4 2-1.4 0-1.1 5.8 0.4 6.7 0.9 0.6 1.2 5.1 1.2 17.1v16.2h-14.5v-14.4c0-7.9-0.3-15.1-0.6-16-0.5-1.2 0-1.6 1.8-1.6 3.2 0 4.8-1.8 4.8-5.2 0-2.8-3.1-5.5-5-4.3-0.6 0.3-1-0.2-1-1.2 0-1.1-0.6-2.6-1.2-3.5-1.7-2.1-4.8-2.9-7.5-1.8zm-38.1 1c-1.2 0-1.4 1.1-0.9 6.7 0.3 3.8 1.1 8.5 1.7 10.6l1.1 3.8 4.5-4.1c4.3-3.9 4.7-4.1 10-3.8 5 0.3 5.7 0.1 6.5-1.9 0.6-1.6 0.4-2.7-0.6-3.7-0.8-0.8-1.5-2.2-1.5-3 0-0.9-0.8-1.6-2-1.6-1.3 0-2 0.7-2 2 0 1.5-0.7 2-2.5 2-3 0-9.5-3.1-11.4-5.4-0.8-0.9-2-1.6-2.9-1.6z"/>
	</g>
</svg>