<?xml version="1.0" standalone="no"?>
<!DOCTYPE svg PUBLIC "-//W3C//DTD SVG 20010904//EN"
 "http://www.w3.org/TR/2001/REC-SVG-20010904/DTD/svg10.dtd">
<svg version="1.0" xmlns="http://www.w3.org/2000/svg"
 width="124.000000pt" height="151.000000pt" viewBox="0 0 124.000000 151.000000"
 preserveAspectRatio="xMidYMid meet">

<g transform="translate(0.000000,151.000000) scale(0.100000,-0.100000)"
fill="#000000" stroke="none">
<path d="M9 1473 c-4 -67 5 -300 17 -408 34 -310 93 -490 233 -703 88 -134
305 -352 351 -352 24 0 180 142 257 234 132 157 203 285 262 469 49 153 71
319 86 635 l6 132 -605 0 c-333 0 -606 -3 -607 -7z m649 -51 c6 -9 12 -24 12
-35 0 -10 4 -15 10 -12 19 12 50 -15 50 -43 0 -34 -16 -52 -48 -52 -18 0 -23
-4 -18 -16 3 -9 6 -81 6 -160 l0 -144 73 0 72 0 0 162 c0 120 -3 165 -12 171
-15 9 -18 67 -4 67 5 0 11 9 14 20 3 11 12 20 21 20 9 0 16 -8 16 -20 0 -34
59 -26 113 15 25 19 51 35 56 35 21 0 4 -181 -19 -195 -4 -2 -24 11 -44 30
-28 26 -46 35 -71 35 l-34 0 -3 -170 -3 -170 62 0 c55 0 61 2 56 19 -2 10 3
25 12 35 31 30 85 15 85 -25 0 -10 11 -19 25 -23 54 -14 55 -96 1 -96 -18 0
-25 -6 -28 -22 -2 -12 -15 -29 -30 -37 -24 -14 -28 -14 -48 4 -13 12 -19 27
-16 40 5 19 1 20 -57 17 l-62 -3 3 -295 c3 -291 2 -294 -18 -294 -20 0 -21 3
-18 295 l3 295 -72 0 -73 0 -1 -262 c0 -145 -2 -280 -5 -300 -4 -35 -2 -38 19
-38 32 0 49 -22 45 -57 -2 -22 -10 -30 -35 -38 -24 -7 -33 -15 -33 -31 0 -55
-75 -60 -100 -7 -8 18 -23 33 -32 33 -10 0 -25 11 -34 25 -15 23 -15 27 0 50
11 16 26 25 42 25 24 0 26 3 20 31 -3 17 -6 152 -6 300 l0 269 -70 0 -70 0 -2
-292 c-3 -253 -5 -293 -18 -293 -13 0 -15 39 -15 293 l0 292 -56 0 c-54 0 -57
-1 -62 -29 -11 -51 -87 -48 -87 4 0 21 -5 25 -30 25 -38 0 -57 31 -41 66 10
22 26 29 58 25 6 -1 9 7 6 17 -6 23 21 52 47 52 24 0 50 -26 50 -51 0 -17 7
-19 58 -19 l57 0 -3 160 c-3 156 -2 160 18 160 19 0 20 -5 20 -154 0 -114 -3
-156 -12 -159 -7 -3 24 -6 70 -6 l82 -1 0 144 c0 79 3 151 6 160 5 12 0 16
-18 16 -30 0 -48 17 -48 45 0 28 18 45 48 45 13 0 20 4 17 10 -11 17 6 51 28
60 27 11 58 3 75 -18z m-427 -8 c19 -23 84 -54 114 -54 18 0 25 5 25 20 0 13
7 20 20 20 12 0 20 -7 20 -16 0 -8 7 -22 15 -30 10 -10 12 -21 6 -37 -8 -20
-15 -22 -65 -19 -53 3 -57 1 -100 -38 l-45 -41 -11 38 c-6 21 -14 68 -17 106
-5 56 -3 67 9 67 9 0 21 -7 29 -16z"/>
</g>
</svg>
