<svg version="1.2" xmlns="http://www.w3.org/2000/svg" viewBox="0 0 606 188" width="606" height="188">
	<title>MANER</title>
	<style>
		.s0 { fill: #e15d22 } 
		.s1 { fill: #90cd07 } 
		.s2 { fill: #274bd7 } 
	</style>
	<g id="Background">
		<path id="Path 0" class="s0" d="m188.2 33.7c-0.9 0.6-0.4 1.2 1.5 2.2 1.6 0.7 4.5 2.7 6.7 4.5 2.1 1.7 6 6.2 8.5 10.1 2.6 3.8 6.1 10.9 7.9 15.7 1.8 4.9 3.9 13.2 4.8 18.5 1.2 7.1 1.5 13.3 1.1 22.3-0.4 8.4-1.4 15.6-3 22-1.3 5.2-4.1 13.3-6.1 18-2.1 4.7-6.4 12.4-9.7 17.2-3.2 4.9-5.9 9.7-5.9 10.8 0 1.1 0.9 2.9 2 4 1.1 1.1 2.7 2 3.5 2 0.8 0 2.4-0.4 3.5-1 1.1-0.6 4.2-4.3 6.9-8.3 2.6-3.9 6-9.5 7.4-12.2 1.4-2.8 3.9-8.5 5.6-12.8 1.7-4.2 4.1-11.6 5.3-16.5 1.9-7.5 2.2-11.3 2.2-28.2 0-17.7-0.3-20.4-2.6-29-1.4-5.2-4-12.7-5.7-16.5-1.7-3.9-5.1-9.8-7.4-13.3-3.7-5.6-4.7-6.4-9.2-7.7-2.7-0.8-7.5-1.7-10.5-2-3-0.3-6.1-0.2-6.8 0.2z"/>
		<path id="Path 2" class="s1" d="m200 21.2c3 0.5 8.9 2 13 3.4 4.1 1.4 9.5 3.7 12 5.1 2.5 1.4 6.8 4.2 9.5 6.3 2.8 2.1 7.9 5.3 11.5 7.3 3.6 2 9.7 6.2 13.5 9.4 3.9 3.3 9.2 8.6 11.8 11.9 2.6 3.2 6.4 9.2 8.5 13.1 2 4 3.9 7.3 4.2 7.3 0.3 0 1.7-3 3.2-6.7 1.6-3.8 2.8-7.1 2.8-7.5 0-0.5-1.9-3.6-4.2-7-2.3-3.5-7.3-9.6-11.2-13.6-3.9-4.1-10.7-9.8-15.1-12.7-4.4-3-10.9-6.7-14.5-8.3-3.6-1.6-9.9-3.9-14-5-4.1-1.2-11-2.6-15.3-3.1-4.2-0.6-10.7-1-14.5-1l-6.7 0.1zm90.3 79.1c-0.4 0.7-0.8 7.1-0.8 14.3-0.1 8.9-0.7 15.7-2.1 21.6-1.9 8.7-1.9 8.7 0.1 10.8 1.1 1.2 3.1 2.1 4.5 2.1 1.4 0 3.3-0.8 4.2-1.7 0.9-1 2.5-5.2 3.4-9.3 1.1-4.8 1.7-12.2 1.8-20.5 0-7.2-0.2-14.3-0.7-15.8-0.6-2.5-1.1-2.7-5.2-2.7-2.4 0-4.7 0.5-5.2 1.2z"/>
		<path id="Path 1" fill-rule="evenodd" class="s2" d="m68 20.3c9 0.2 11.3 0.7 16.5 3.1 3.3 1.5 8.2 4.4 10.9 6.4 2.7 2 7 6.4 9.6 9.7 2.6 3.3 6.4 8.9 8.3 12.5 1.9 3.6 4.6 9.3 8.2 18.9l4.3-7.7c2.3-4.2 6.6-10.8 9.5-14.7 3-3.9 8.3-9.5 11.8-12.5 3.6-3 9.9-7.1 14-9.1 4.1-2.1 9.9-4.3 12.9-5 3-0.8 10-1.3 15.5-1.3 7.1 0 12.3 0.7 18 2.2 4.4 1.2 11.3 3.9 15.3 6 4 2 10.1 6 13.6 8.7 3.5 2.8 8.7 7.9 11.5 11.5 2.9 3.6 6.7 9.8 8.6 13.8 1.9 3.9 4.4 10.5 5.6 14.4 1.4 5 2.2 11.3 2.6 20.3 0.4 10.6 0.1 14.8-1.6 23-1.1 5.5-2.7 11.8-3.4 14-0.8 2.2-2.5 4.8-3.8 5.9-1.6 1.2-3.3 1.6-5.2 1.2-1.5-0.3-3.2-1.6-3.8-2.9-0.9-1.8-0.6-4.4 1.5-13.2 1.4-6 2.9-14.6 3.2-19 0.3-4.4 0.1-11.5-0.5-15.8-0.6-4.2-2-10.5-3.2-14-1.1-3.4-3.8-9.1-5.9-12.7-2.1-3.6-6.5-9.2-9.8-12.5-3.3-3.3-8.5-7.5-11.4-9.2-2.9-1.8-8.7-4.5-12.8-5.9-6-2.2-9.3-2.7-16.5-2.7-5.1 0-11.8 0.8-15.5 1.7-3.6 1-9 3.1-12 4.8-3 1.8-8.2 5.9-11.6 9.2-3.4 3.4-8.3 9.5-10.9 13.6-2.7 4.1-6.2 10.4-7.8 14-1.6 3.6-3.8 9.9-4.8 14-1.1 4.1-1.9 9.2-1.9 11.2 0 2.7-0.7 4.5-2.5 6.3-1.3 1.4-3.2 2.5-4.2 2.5-1 0.1-2.9-0.7-4.1-1.7-2.1-1.6-2.5-3.1-3.3-11.3-0.5-5.2-1.8-13.1-3-17.5-1.1-4.4-3.6-11.6-5.5-16-1.9-4.4-5.8-11.1-8.7-14.9-2.8-3.8-7.5-8.5-10.2-10.4-2.8-1.8-7.5-4-10.5-4.9-3.5-1-7.7-1.4-11.5-1.1-3.5 0.3-8.4 1.6-11.8 3.1-3.1 1.5-7.8 4.9-10.4 7.5-2.7 2.6-6.2 7.2-8 10.2-1.8 3-4.3 8.7-5.7 12.5-1.3 3.8-3.2 10.6-4.1 15-0.9 4.4-1.9 12.5-2.2 18-0.4 6.1-0.1 14.7 0.8 22.2 1.4 11.8 1.3 12.2-0.6 14.3-1.1 1.1-3.2 2.1-4.8 2-1.5 0-3.6-0.9-4.7-2-1.1-1.1-2.3-4.1-2.8-6.7-0.4-2.7-0.7-13.6-0.7-24.3 0.1-17.9 0.3-20.4 2.9-30.5 1.5-6 4-13.9 5.5-17.5 1.5-3.6 4.5-9.2 6.6-12.5 2.1-3.3 6.1-8.2 8.9-10.9 2.8-2.7 7.1-6 9.6-7.4 2.5-1.5 7-3.4 10-4.4 4.2-1.4 8-1.7 16-1.5zm245.3 9.8c0.9-0.1 2.9 0.5 4.3 1.2 1.5 0.6 3.2 2.3 3.9 3.7 0.7 1.4 8.1 19.4 16.5 40 12.9 32 15 37.8 14.1 39.8-0.6 1.2-2.2 2.8-3.5 3.5-2.1 1-2.9 0.9-5-0.5-1.8-1.2-3.7-4.6-9.1-18.9l-43.7 0.6-2.4 7c-1.3 3.8-3.1 8-3.9 9.3-0.8 1.2-2.4 2.4-3.5 2.7-1.1 0.3-3-0.1-4.3-0.8-1.2-0.8-2.5-2.2-2.8-3.3-0.4-1.1 1-6.2 3.6-12.9 2.3-6 5.6-13.9 7.3-17.5 1.6-3.6 3.7-8.5 4.5-11 0.8-2.5 4.3-11.5 7.7-20 3.4-8.5 6.9-16.7 7.8-18.3 1-1.5 2.8-3.1 4.2-3.6 1.4-0.5 3.3-1 4.2-1zm-9.1 35.9c-3.9 10.2-7.1 19.3-7.1 20.3 0 1.5 1.4 1.7 16.5 1.7 9.1 0 16.5-0.3 16.5-0.7 0-0.5-3-8.5-6.7-17.8-3.6-9.3-7.4-19-8.3-21.5-1.6-4-1.8-4.3-2.7-2.5-0.6 1.1-4.2 10.3-8.2 20.5zm249.3-34.8c19.2 0.3 21.5 0.5 25.1 2.4 2.2 1.2 5.6 3.9 7.5 6.1 1.9 2.2 4.1 6 4.9 8.4 0.7 2.4 1.3 7.1 1.2 10.4-0.1 4.1-0.8 7.6-2.5 11-1.5 3.1-4.1 6.3-6.7 8.3-2.4 1.7-5.6 3.4-7.2 3.7-1.5 0.3-2.7 0.8-2.7 1.2 0.1 0.5 4.6 7.1 10.1 14.8 6 8.4 9.9 14.8 9.7 15.9-0.2 1-1.4 2.8-2.8 3.8-1.9 1.4-3.1 1.7-5 1-1.6-0.6-6.5-6.7-25.5-34.2h-17.5v15c0 14.6-0.1 15.1-2.5 17.5-1.3 1.4-3 2.5-3.7 2.5-0.7 0.1-2.4-0.8-6.3-3.8v-40.5c0-33.6 0.2-40.7 1.4-42.1 1.3-1.6 3.6-1.7 22.5-1.4zm-11.4 41.8c26.1-0.5 28.2-0.8 30.6-2.5 1.4-1.1 3.5-3.1 4.6-4.5 1.1-1.4 2.1-4.5 2.4-7 0.4-3.5 0-5.5-1.8-8.9-1.4-2.8-3.6-5.1-5.8-6.3-2.9-1.5-5.9-1.8-16.8-1.8h-13.2zm-170-43c1.1 0 2.8 0.4 3.7 0.9 1 0.4 12.4 15.3 48.8 65.1l0.5-30.9c0.5-29.1 0.6-31 2.5-33 1.1-1.2 2.7-2.2 3.5-2.1 0.8 0 2.5 0.7 6 3v40.8c0.1 37.8-0.1 40.8-1.7 42.3-1 0.9-2.6 1.9-3.6 2.2-0.9 0.4-2.7 0.3-4-0.1-1.3-0.5-10.8-12.8-23.1-29.8-11.5-15.9-22.5-30.9-27.7-37.9l0.1 32c0 17.6-0.4 32.5-0.8 33.1-0.4 0.6-1.7 1.6-3 2.3-1.3 0.7-3.1 0.8-4.5 0.3-1.2-0.5-2.5-1.6-3-2.5-0.4-1-0.7-19.5-0.6-80.8l2.4-2.4c1.3-1.4 3.3-2.5 4.5-2.5zm140 1l1.4 2.4c1 1.7 1.1 3.1 0.5 4.5-0.5 1.2-1.8 2.6-2.9 3.1-1.1 0.6-10.8 1-43 1v26h21.5c21.2 0 21.5 0 23 2.3 0.8 1.2 1.5 2.8 1.5 3.5 0 0.6-0.9 2.1-2 3.2-1.9 1.9-3.3 2-44 2v28h21.2c15.7 0 21.7 0.3 22.9 1.2 1 0.7 2 2.3 2.3 3.6 0.4 1.5-0.1 2.9-1.4 4.2-1.9 1.9-3.3 2-28 2-25.8 0-26 0-27.5-2.2-1.3-1.9-1.5-8.5-1.7-41.7-0.1-37 0-39.6 1.7-41.3 1.6-1.7 4-1.8 54.5-1.8z"/>
	</g>
</svg>