<svg version="1.2" xmlns="http://www.w3.org/2000/svg" viewBox="0 0 608 723" width="608" height="723">
	<title>NORW-svg</title>
	<style>
		.s0 { fill: #ff0000 } 
	</style>
	<g id="Folder 2">
		<path id="OsloDot" class="s0" d="m137.5 639c-3.6 0-6.5-2.9-6.5-6.5 0-3.6 2.9-6.5 6.5-6.5 3.6 0 6.5 2.9 6.5 6.5 0 3.6-2.9 6.5-6.5 6.5z"/>
		<path id="StavDot" class="s0" d="m24.5 684c-3.6 0-6.5-2.9-6.5-6.5 0-3.6 2.9-6.5 6.5-6.5 3.6 0 6.5 2.9 6.5 6.5 0 3.6-2.9 6.5-6.5 6.5z"/>
		<path id="TromDot" class="s0" d="m327.5 109c-3.6 0-6.5-2.9-6.5-6.5 0-3.6 2.9-6.5 6.5-6.5 3.6 0 6.5 2.9 6.5 6.5 0 3.6-2.9 6.5-6.5 6.5z"/>
		<path id="ÅlesDot" class="s0" d="m35.5 521c-3.6 0-6.5-2.9-6.5-6.5 0-3.6 2.9-6.5 6.5-6.5 3.6 0 6.5 2.9 6.5 6.5 0 3.6-2.9 6.5-6.5 6.5z"/>
		<path id="BergDot" class="s0" d="m14.5 609c-3.6 0-6.5-2.9-6.5-6.5 0-3.6 2.9-6.5 6.5-6.5 3.6 0 6.5 2.9 6.5 6.5 0 3.6-2.9 6.5-6.5 6.5z"/>
		<path id="TronDot" class="s0" d="m133.5 473c-3.6 0-6.5-2.9-6.5-6.5 0-3.6 2.9-6.5 6.5-6.5 3.6 0 6.5 2.9 6.5 6.5 0 3.6-2.9 6.5-6.5 6.5z"/>
	</g>
</svg>