<svg xmlns="http://www.w3.org/2000/svg" version="1.2" viewBox="0 0 44 45" width="44" height="45">
	<title>NTNU-logo-svg</title>
	<style>
		.s0 { fill: #ffffff } 
		.s1 { fill: #000000 } 
	</style>
	<g id="Layer">
		<g id="Layer">
			<g id="Layer">
				<path id="Layer" fill-rule="evenodd" class="s0" d="m44.1 11v22.1c0 6.1-4.9 11-11 11h-22.1c-6.1 0-11-4.9-11-11v-22.1c0-6.1 4.9-11 11-11h22.1c6.1 0 11 4.9 11 11zm-11 0h-22.1v22.1h22.1z" fill="#000000"/>
				<path id="Layer" class="s0" d="m22 12.9c-5 0-9.1 4.1-9.1 9.1 0 5 4.1 9 9.1 9 5 0 9-4 9-9 0-5-4-9.1-9-9.1z" fill="#000000"/>
			</g>
			<path id="Layer" class="s1" d="m75 0.1l21.4 31.2v-24.1-5.7h-6.5v-1.4h13.9v1.4h-5.4v5.8 37.1l-1 0.3-28.8-41.9v33.7 5.9h6.7v1.5h-14.4v-1.5h5.7l0.1-5.9v-29.3l-0.1-5.7h-5.7v-1.5z" fill="#000000"/>
			<path id="Layer" class="s1" d="m146.6 0.1v14h-1.9c-0.2-2.2-0.4-4.9-2.3-8.2-2.3-3.7-5.3-3.9-8.3-4.1h-3.5v5.6 28.7 6.3h6.8v1.5h-20.4v-1.5h6.7l0.1-6.3v-28.7l-0.1-5.6h-2.9c-3.6 0.1-6.3 0.1-8.9 4.3-2.1 3.3-2.2 5.9-2.4 8h-1.8v-14z" fill="#000000"/>
			<path id="Layer" class="s1" d="m164.2 0.1l21.5 31.2v-24.1l-0.1-5.7h-6.4v-1.4h13.8v1.4h-5.3l-0.1 5.8v37.1l-1 0.3-28.8-41.9v33.7l0.1 5.9h6.6v1.5h-14.3v-1.5h5.7l0.1-5.9v-29.3l-0.1-5.7h-5.7v-1.5z" fill="#000000"/>
			<path id="Layer" class="s1" d="m217.1 0.1v1.4h-6.1l-0.1 5.3v23.7c0.1 6.2 0.2 12 11.7 12 11.7 0 12.5-5.1 12.6-10.6v-25.1-5.3h-6.3v-1.4h13.7v1.4h-5.4v5.3 22.6c-0.1 8.2-0.2 15.1-16.2 15.1-2.3 0-7.8-0.2-11.3-1.7-5.5-2.3-5.6-7.2-5.7-13.1v-22.9-5.3h-5.4v-1.5z" fill="#000000"/>
		</g>
	</g>
</svg>