<svg version="1.2" xmlns="http://www.w3.org/2000/svg" viewBox="0 0 40 44" width="40" height="44">
	<title>Office365-svg</title>
	<style>
		.s0 { fill: #567bdb } 
		.s1 { fill: #7d5bad } 
		.s2 { fill: #4cbcee } 
	</style>
	<path id="Layer" class="s0" d="m16.1 1l-0.2 0.2q-0.6 0.3-1 0.7l0.6-0.5h5.5l1 7.6-5 5-5 3.5v4c0 2.8 1.5 5.4 3.9 6.8l5.2 3.2-11.1 6.5h-2.1l-4-2.4c-2.4-1.5-3.9-4.1-3.9-6.9v-13.4c0-2.8 1.5-5.4 3.9-6.9l12-7.2q0.1-0.1 0.2-0.2zm0 0l-0.2 0.2q-0.6 0.3-1 0.7l0.6-0.5h5.5l1 7.6-5 5-5 3.5v4c0 2.8 1.5 5.4 3.9 6.8l5.2 3.2-11.1 6.5h-2.1l-4-2.4c-2.4-1.5-3.9-4.1-3.9-6.9v-13.4c0-2.8 1.5-5.4 3.9-6.9l12-7.2q0.1-0.1 0.2-0.2z"/>
	<path id="Layer" class="s1" d="m28 17v4.5c0 2.8-1.5 5.4-3.9 6.8l-12 7.3c-2.4 1.5-5.5 1.5-8 0.1l11.8 7.1c2.5 1.6 5.7 1.6 8.2 0l12-7.2c2.4-1.5 3.9-4.1 3.9-6.9v-3.2l-1-1.5zm0 0v4.5c0 2.8-1.5 5.4-3.9 6.8l-12 7.3c-2.4 1.5-5.5 1.5-8 0.1l11.8 7.1c2.5 1.6 5.7 1.6 8.2 0l12-7.2c2.4-1.5 3.9-4.1 3.9-6.9v-3.2l-1-1.5z"/>
	<path id="Layer" class="s2" d="m36.1 8.4l-12-7.2c-2.4-1.5-5.5-1.6-8-0.2l-0.2 0.2c-2.4 1.4-3.9 4-3.9 6.8v9.5l3.9-2.3c2.5-1.6 5.7-1.6 8.2 0l12 7.2c2.4 1.4 3.8 3.9 3.9 6.6q0-0.1 0-0.3v-13.4c0-2.8-1.5-5.4-3.9-6.9zm0 0l-12-7.2c-2.4-1.5-5.5-1.6-8-0.2l-0.2 0.2c-2.4 1.4-3.9 4-3.9 6.8v9.5l3.9-2.3c2.5-1.6 5.7-1.6 8.2 0l12 7.2c2.4 1.4 3.8 3.9 3.9 6.6q0-0.1 0-0.3v-13.4c0-2.8-1.5-5.4-3.9-6.9z"/>
</svg>