<svg version="1.2" xmlns="http://www.w3.org/2000/svg" viewBox="0 0 456 456" width="456" height="456">
	<title>Open3D-svg</title>
	<style>
		.s0 { fill: #ffffff } 
		.s1 { fill: #000000 } 
	</style>
	<g id="Layer">
		<path id="Layer 1" class="s0" d="m340.2 424.8l-224.5 0.6-112.7-194.1 111.8-194.7 224.5-0.6 112.7 194.1z"/>
		<path id="Layer" class="s1" d="m244.8 30c-38.8 0.3-70.9 0.7-71.1 1-0.3 0.3 7.9 14.8 18.1 32.2l18.7 31.7 41 0.3 40.9 0.3 39.3 66.4c21.5 36.6 39.1 66.7 38.9 67-0.1 0.3-18 30.4-39.6 66.8l-39.4 66.3h-40.5l-40.6 0.1-18.8 32c-10.4 17.7-18.7 32.3-18.4 32.5 0.2 0.2 38.1 0 84.2-0.4l83.8-0.7 56.8-98.4c31.3-54.1 56.9-98.8 56.9-99.3 0-1.1-84.5-148.4-110.4-192.6l-3.7-6.2-12.7 0.2c-7 0.2-44.5 0.5-83.4 0.8zm-133.2 5.2c-14.8 25.5-110.6 194.3-110.6 195 0 1 34.5 61.3 82.6 144.3l30.1 52 21.9 0.2 21.9 0.3 18.7-31.9c10.4-17.5 18.8-32.2 18.8-32.5 0-0.3-10.3-0.6-22.9-0.6h-22.8l-37.7-63.5c-20.7-35-37.6-63.8-37.6-64 0-0.3 33.1-0.4 73.6-0.3l73.6 0.3 31.7 57.2c17.4 31.4 31.9 57.4 32.2 57.7 0.5 0.5 70.1-116 71.5-119.7 0.3-1-12.7-23.6-35.2-61.1-19.6-32.8-36-59.6-36.3-59.6-0.3 0-15 25.9-32.6 57.5l-32 57.5h-73.2c-49.7 0-73.3-0.3-73.3-1 0-0.6 17-29.6 37.7-64.5l37.7-63.5h22.9c17.9 0 22.8-0.3 22.4-1.3-0.3-0.6-8.6-14.9-18.5-31.7l-18-30.5-22.1-0.3-22-0.2z"/>
	</g>
</svg>