<svg version="1.2" xmlns="http://www.w3.org/2000/svg" viewBox="0 0 456 456" width="456" height="456">
	<title>Open3D-svg</title>
	<style>
		.s0 { fill: #306998 } 
		.s1 { fill: #ffd43b } 
	</style>
	<g id="Folder 1">
		<path id="path1948" fill-rule="evenodd" class="s0" d="m280.7 10.3c28.8 4.8 53 26.4 53 55.2v101.1c0 29.6-23.5 53.9-53 53.9h-106c-36 0-66.3 30.9-66.3 65.9v48.5h-36.5c-30.9 0-48.9-22.4-56.4-53.8-10.2-42.2-9.8-67.4 0-107.9 8.4-35.2 35.4-53.8 66.3-53.8h145.9v-13.5h-106.1v-40.4c0-30.6 8.2-47.2 53.1-55.2 15.2-2.7 32.5-4.2 50.7-4.3 18.1-0.1 37 1.3 55.3 4.3zm-92.8 48.5c0-11.2-8.9-20.3-19.9-20.3-11 0-19.9 9.1-19.9 20.3 0 11.1 8.9 20.2 19.9 20.2 11 0 19.9-9.1 19.9-20.2z"/>
		<path id="path1950" fill-rule="evenodd" class="s1" d="m386.8 119.4c30.9 0 45.4 23.1 53.1 53.8 10.6 42.7 11 74.7 0 107.9-10.8 32.3-22.3 53.8-53.1 53.8h-159.1v13.5h106v40.4c0 30.7-26.3 46.2-53 54-40.2 11.6-72.4 9.8-106 0-28.1-8.3-53.1-25.2-53.1-54v-101c0-29.1 24-54 53.1-54h106c35.3 0 66.3-30.7 66.3-67.2v-47.2zm-79.6 276.2c0-11.2-8.9-20.2-19.9-20.2-11 0-19.9 9-19.9 20.2 0 11.2 8.9 20.2 19.9 20.2 11 0 19.9-9 19.9-20.2z"/>
	</g>
</svg>