<svg version="1.2" xmlns="http://www.w3.org/2000/svg" viewBox="0 0 1024 885" width="1024" height="885">
	<title>Riksantikvaren-svg</title>
	<style>
		.s0 { fill: #ffffff } 
	</style>
	<g id="Layer">
		<path id="Layer" fill-rule="evenodd" class="s0" d="m475 99.4c11.5 25.2 22.1 47.4 23.6 49.3 2.9 3.8 9.3 7.2 13.7 7.3 7.4 0 13.3-5.4 16.7-15.6 3.4-9.9 14-58.4 14-63.7 0-6.7-2.7-10.8-10.1-15.3-5.7-3.5-7.3-5.4-4.6-5.4 0.6 0 6.2 1.1 12.2 2.5l11 2.6 27 46c20.2 34.4 27.2 45.6 27.7 44.2 1.8-4.5 11.8-54.6 11.8-59.2 0-4.2-0.5-5.6-3.2-8.6-1.7-2-5.3-4.7-8-6.1-4.5-2.3-6.3-4.4-3.5-4.4 4 0.2 38.2 8.9 38.5 9.8 0.2 0.7-0.7 1.2-2.2 1.2-4.4 0-9.2 2.6-11.3 6.1-4.2 7-9.2 25.1-17.4 63.4-6.2 29.3-5.8 27.5-6.8 27.5-0.5 0-4.5-6.8-9-15-4.5-8.3-14.5-25.7-22.3-38.8-7.8-13-16.6-27.9-19.6-33-3-5.1-5.6-9.1-5.8-8.9-1.2 1.2-11.5 49.3-12 55.7-0.8 10.5 1.9 14.9 13.2 21.6 4.3 2.6-0.6 2.6-16.9 0.1-13-2-20.8-2.7-32.2-2.7-16.2 0-31.5-0.9-31.5-1.9 0-0.3 1.9-1.5 4.2-2.6 2.4-1.2 4.9-3.3 5.8-4.7 1.9-3.4 0.7-7.9-5.8-23.1l-4.7-10.9-11 0.6c-6 0.4-13.8 0.9-17.1 1.3l-6.1 0.6-3.1 11.1c-3.9 14.1-4.6 18.5-3.3 21.8 1.3 3.4 5.8 5.8 10.8 5.8 3.9 0 7.2 1.4 6.1 2.5-0.5 0.6-35.8 5.5-39 5.5-2 0-0.5-2.9 1.7-3.4 4.1-1 9.1-6.3 11.3-11.9 5.1-12.8 26.4-85.5 25.7-87.7-0.3-1.1 0.9-2.6 4-4.8 2.5-1.7 4.5-3.7 4.5-4.3 0-4 4.5 4.8 23 45.5zm-27.9-25.7c-0.4-0.4-3.1 7.9-6.1 18.3-2.9 10.5-5.1 19.2-4.9 19.4 0.5 0.4 27.3-1.5 27.8-2 0.2-0.2-3.3-8.1-7.8-17.6-4.6-9.5-8.6-17.6-9-18.1z"/>
		<path id="Layer" class="s0" d="m358 70.9c-7.3 2.3-9.5 3.6-14.7 8.4-5.2 4.8-9.1 11.9-9.9 18.1-0.9 6 1.9 14.8 6.1 19.4 4.5 5.1 10.4 7.8 25.2 11.9 6.8 1.8 14.1 4.2 16.1 5.2 7.9 4 12.2 10.5 12.2 18.4 0 6.2-3.2 10.5-10.4 14.1-13.5 6.8-27.7 2.1-38.6-12.6-1.6-2.1-3.1-3.3-3.8-2.9-0.8 0.5 0.4 3.9 3.8 11.1 2.7 5.7 5.3 10.7 5.7 11.1 1.6 1.6 13.8 2.6 20.4 1.8 10.9-1.3 19.1-5.1 26.7-12.3 6.6-6.2 8.6-10.8 8.6-19.1 0-8.4-2.3-13.5-8.5-18.9-4.8-4.1-10.6-6.4-26.3-10.7-16.6-4.5-23.3-9.2-25.7-18.2-2.8-10.5 6-20.6 18.1-20.7 6.6 0 11.6 3.3 16.7 11 2.4 3.6 4.9 6.7 5.5 6.9 1.3 0.4 0.6-4.9-2-15.4-1.4-5.8-2.1-7-4.2-7.6-4.7-1.3-15.5-0.8-21 1z"/>
		<path id="Layer" class="s0" d="m650.2 95.9c-4 6.5-7.2 12.1-7.2 12.5 0 1.6 2.9 0.3 5.5-2.4 3.8-4 10.4-6.4 15.6-5.7 3.8 0.5 23.9 9.4 23.9 10.6 0 1.9-36.2 70.1-38.8 73.2-2.1 2.4-4.7 4.2-7 4.8-3.4 0.9-5.3 0.7-14.9-1.4-7.6-1.7-2.1 2 20 13.3 12.7 6.6 23.8 12.2 24.6 12.4 2.9 0.7 1.8-1.8-2-4.5-5.8-4-8.1-8.2-7.6-13.8 0.4-5.1 0.4-5.1 22.4-47.6l15.6-30.2 7.6 3.9c16.5 8.3 19.5 12.1 19.4 24.2 0 4.3 0.3 7.8 0.7 7.8 0.7 0 10.4-21.7 11.2-24.9 0.2-1.1-0.8-1.4-4.3-1.2-4.2 0.2-7.5-1.3-38.8-17.5-32-16.6-34.4-18-36.2-21.6-1.1-2.1-2.1-3.8-2.2-3.8-0.2 0-3.5 5.3-7.5 11.9z"/>
		<path id="Layer" class="s0" d="m278.7 100.1c-9.2 5-16.5 9.4-16.2 9.9 0.3 0.4 2.4 0.6 4.7 0.3 3.3-0.5 4.4-0.2 5.5 1.2 2.6 3.6 1.5 13.1-4.1 35-3 11.5-5.3 21.2-5.1 21.4 0.3 0.2 12.7 4.6 27.7 9.8 29.1 10.1 35.8 11.5 44.4 9.4 14.6-3.7 24.8-10.2 13.6-8.7-8.4 1.1-20.7-1.9-49.4-12.1-15-5.3-27.7-10-28.2-10.4-1-0.9 7.7-33.8 11.5-43.2 3.1-7.8 7-13.7 11.1-17.2 2.6-2.2 3.7-4.5 2.1-4.5-0.5 0-8.3 4.1-17.6 9.1z"/>
		<path id="Layer" class="s0" d="m229.7 126.4c-11.4 6.1-20.5 11.5-20.3 12.1 0.2 0.5 1 0.8 1.7 0.7 13.1-3.3 15.8-2.8 20.5 3.8 4.6 6.4 32.3 58.4 34.5 64.6 2.5 7 1.6 10.6-3.8 16.2-4 4.3-5.2 6.2-3.6 6.2 2 0 43.3-26.4 43.3-27.7 0-1.1-0.5-1.3-1.7-0.8-1 0.5-4.3 1.5-7.4 2.3-5.1 1.3-6 1.3-9.2-0.3-2.2-1-4.8-3.6-6.6-6.3-5.2-8.2-31-57.1-32.7-62-2.2-6.1-1.4-9.5 3.5-14.3 2.1-2.1 3.5-4.2 3.2-4.7-0.3-0.5-9.9 4.1-21.4 10.2z"/>
		<path id="Layer" class="s0" d="m749 142.9c0 0.6 0.5 1.3 1.1 1.7 2.3 1.4 6.9 9.9 6.9 12.6 0 3.2-2 7.6-5.9 12.8-8 10.7-35.8 46-38.5 48.8-6.3 6.8-11.7 7.8-20.3 3.7-2.9-1.3-5.5-2-5.8-1.5-0.3 0.5 3.4 4.1 8.2 7.9 26.8 21.1 30.8 24 31.7 23.1 0.6-0.6 0.1-2-1.6-3.7-6.1-6.7-7.3-11.5-4.2-17.5 2.8-5.4 45.6-57.9 48.8-59.9 4.1-2.5 7-2.4 13.5 0.6 3 1.4 5.8 2.2 6.3 1.7 0.9-0.9-37.1-31.2-39.1-31.2-0.6 0-1.1 0.4-1.1 0.9z"/>
		<path id="Layer" fill-rule="evenodd" class="s0" d="m189.2 154.6c0.4 0.3-1 3-3.2 6.1-7 9.8-6.3 11.7 11.9 33.3 34.2 40.6 35.6 42 42.3 42 1.9 0 5.7-1.1 8.4-2.5 2.6-1.3 5.2-2.1 5.7-1.6 0.4 0.4-6.5 7.1-15.5 14.7-9 7.6-19.8 17.1-24.1 21-4.2 4-10.1 8.4-13.1 9.9-8.1 3.9-21.2 5.2-38.4 3.7-7.5-0.7-14.9-1.2-16.4-1.2-2.9 0-8.4 4.2-11.8 9l-1.9 2.7 10.1 7.4c23 16.8 23.1 16.9 34.5 7.2 2.8-2.4 5.4-3.9 5.8-3.4 0.3 0.6-5.8 10.6-13.6 22.3-16.6 25-14.5 22.1-15.8 21.4-0.6-0.4-0.3-2.2 0.9-4.9 2.7-5.8 2.5-11.4-0.4-15.7-2.3-3.5-46.7-36.9-58.9-44.3-7.9-4.9-12.1-4.7-17.7 0.8-2.1 2.1-4.3 3.6-5 3.3-1.4-0.4 20.2-32.3 27.6-40.6 12.8-14.3 26.6-16.9 37.8-7 5.8 5.1 8.1 11 7.9 20.4l-0.1 7.2 3.6 0.5c24.1 3.7 45.7 3.4 56.6-0.6 14-5.2 19-15 12.7-24.8-3.8-5.8-41.7-50.5-46.5-54.7-4.6-4-8.6-4.2-16-0.5-5.5 2.7-8.3 2.6-5.5-0.1 0.8-0.8 9.5-8.2 19.3-16.5 9.8-8.3 18.3-14.8 18.8-14.5zm-79.8 93.2c-5.6 2-12.3 6.8-15.3 11.1l-2 2.8 18.2 13.3c10 7.3 18.9 13.3 19.7 13.4 0.9 0.1 2.7-2.4 4.5-5.9 4-8 4.7-18.2 1.7-24.2-2.5-4.9-7.9-9.1-14-10.9-5.7-1.8-6.6-1.7-12.8 0.4z"/>
		<path id="Layer" class="s0" d="m808 189.4c0 0.2 1.1 2.3 2.4 4.7 3.4 6.2 4 10.2 2.2 13.6-2.3 4.4-6.5 8.2-46.1 41.5-17.4 14.6-20.3 15.5-29.4 9.3-4.8-3.3-7.1-4.3-7.1-2.9 0 0.6 18 20.4 28.9 31.6 3.5 3.7 6.8 6.5 7.3 6.2 0.4-0.3-0.6-3-2.2-6.1-2-3.8-3-7-3-10 0-4 0.5-4.9 5.3-9.6 8.3-8.3 50.8-43.7 54.9-45.8 5.1-2.6 7.8-2.4 12.9 1.1 4.8 3.2 5.9 3.6 5.9 1.9 0-1.6-29.3-35.9-30.7-35.9-0.7 0-1.3 0.2-1.3 0.4z"/>
		<path id="Layer" class="s0" d="m847.7 235.6c-0.3 0.4 0.1 2 0.9 3.7 1.2 2.2 1.3 3.5 0.6 5.2-2 4.3-6.6 4.9-32.9 4.2l-24.3-0.6-0.5 2.2c-0.2 1.2-1.9 13.4-3.6 27.2-4 32.2-3.8 38.2 1.7 48.4 4.4 8.1 8.8 14 9.9 12.9 0.4-0.4-0.1-3.7-1-7.5-1.3-5.2-1.6-9.1-1.2-16.3 0.7-10.1 7.3-60.9 8.1-61.8 0.3-0.2 9.6 0.1 20.8 0.7 23.7 1.2 33.5 3.3 41.5 8.6 2.9 1.9 5.5 3.1 5.8 2.6 0.5-0.9-22.7-29.3-24.4-29.9-0.4-0.1-1 0-1.4 0.4z"/>
		<path id="Layer" fill-rule="evenodd" class="s0" d="m507.3 255.4c1.5 3 2.1 6 2.1 10.9l0.1 6.7 2.7-0.5c3.8-0.9 7.9 1.6 10.7 6.5 1.2 2.3 2.1 4.3 1.9 4.5-0.2 0.3-2 0-3.9-0.5-5-1.5-6.6-1.2-8.9 1.2-2.2 2.3-2.6 5.8-1 8.7 2.3 4.5 20 7.7 25.7 4.7 3.5-1.7 4.3-3.3 4.3-8.2 0-2.8-0.5-3.6-2.7-4.5-1.4-0.5-3.2-0.8-4-0.5-1.9 0.8-1.6-1.4 0.7-5.2 2.4-4 4.3-4.8 7.6-3.4 1.9 0.9 2.4 0.9 2.4-0.2 0-1.8 4.6-7.3 7.3-8.8 2.5-1.3 11.9-3.9 12.4-3.4 0.2 0.2-2.1 3.8-5.1 8-7.3 10.1-12.5 24.8-12.6 35.2v3.2l6.3-0.5c3.7-0.2 8 0.1 10.7 0.9 4.2 1.3 4.5 1.6 4.8 5.2 0.2 2.2 0.1 4.9-0.2 6.2-1 3.9-5.5 8.2-10.4 10-2.6 0.9-5 2-5.5 2.4-0.4 0.3 0.5 4 1.9 8.1 2.2 6.2 2.7 10.1 3.4 23.9 0.5 9.1 1.4 18.1 2 20.2 1.4 4.7 6.2 9.5 12.5 12.3l4.9 2.2-5.6 2.1c-3 1.1-8.3 2.4-11.7 2.8l-6.2 0.7 0.7 4.1c0.5 3.5 2.1 8.3 4.8 14.7 0.6 1.3 0 1.6-3.2 1.6-8.5 0-11.2 4.4-11.2 18.1 0 9.7 2.7 22.3 6 27.9 1.9 3.3 1.9 3.3 0 3.3-9.3 0-27.8-14.3-37.6-29.2-2.5-3.7-5-6.8-5.5-6.8-4.1 0 5.4 14.3 16.3 24.5l7.5 7 1.2 9.5c1.5 11.8 4.8 21.7 11.3 34.3 5.6 10.5 13.1 20.3 19.9 26 2.4 1.9 8.5 5.7 13.4 8.3 11.6 6.1 16.9 9.7 22.1 15.2 5.1 5.3 11.7 17.5 13.4 24.9 1 4.5 2.1 6.1 8.1 11.7 8.1 7.7 19.8 14.9 28.9 17.7 3.6 1.1 13.3 3.4 21.5 5.1 26.3 5.3 43.6 4 56.1-4.5 8.8-5.8 13.3-17.3 10.4-26.1-2.9-8.8-16.2-18.6-47.7-35-31.7-16.5-44.9-25.2-59.2-39-15.9-15.4-27.8-32.8-32.8-48.1-2.3-7.1-2.6-9.6-2.7-23-0.1-13.8 0.2-15.6 2.6-22.5 4-11.5 7.4-16.8 16.3-25.6 6.6-6.6 9.9-9 17.6-12.8 11.3-5.5 17.3-7.1 34.3-9.1 16.8-2 19.9-3 24.3-7.8 3.5-3.9 3.5-4 3-11.1-0.2-3.9-0.8-8-1.2-9.1-1.3-3.7 4.3 3.7 7.2 9.5 2.5 5 2.8 6.5 2.8 16.1v10.6l4 2.3c8 4.5 17.8 12.6 22.2 18.5 2.5 3.3 6.5 10 8.9 14.9 4.4 9 14.8 38.9 14.2 40.8-0.2 0.6-1.7-1.4-3.3-4.3-8.4-15.7-20.2-29.7-33-39.2-6.8-5.1-20.1-12.7-22.1-12.7-0.3 0 2.1 2.9 5.5 6.5 7 7.5 10.5 13.8 12.6 22.7 2.3 9.9 2 10.9-1.9 5.3-1.8-2.8-6.5-8-10.4-11.7-10.7-10.1-25.2-16.5-41.2-18.2l-5.5-0.6 6 2.9c8.3 3.9 13.8 8.2 17.5 13.5 3.2 4.8 6.4 12.5 5.5 13.5-0.3 0.2-2.5-1.6-4.8-4.1-9.3-10.1-27.2-14.5-40.8-10.1l-5.4 1.8 6.2 0.7c8.7 0.9 15.8 5.3 19.7 11.8l1.8 3.2-3.3-1.8c-2-1-6.5-1.9-11-2.2-6.8-0.4-8.4-0.1-13.5 2.2-7.5 3.4-10.1 5.9-13 12.1-4.7 9.9-2.7 23.2 5.2 35.2 6.6 9.9 23.6 26.5 35.9 35l3 2.1 0.1-6.2c0-11.9 8.5-23.8 19.1-27 2.1-0.7 2.1-0.5-0.7 4.6-4.1 7.7-5.4 15.4-4 22.5 1.3 6 4.5 13 7.9 17.3l2.1 2.5v-6c0-5.1 0.5-7 3.3-11.4 1.7-3 4.7-6.6 6.6-8l3.5-2.6-0.8 2.5c-0.4 1.4-1 5.9-1.3 10.1-0.6 8.8 0.4 13 5.1 20.4l3.1 5 0.5-5c0.6-5.5 2.7-10 5.9-12.9l2.1-1.9v6.9c0 11.9 4.8 19 20.1 29.7 3.7 2.5 8.7 6.9 11.2 9.7 16.2 18 7.8 48.2-16.7 60-11.8 5.6-21 7.3-39.6 7.3-25.9-0.1-49.5-5.6-69.7-16.3l-9.3-4.8-2.2 3.1c-1.2 1.8-5.2 6.8-8.8 11.2-7.8 9.3-9.5 12.3-10.4 18.6-0.9 6 1.6 17.8 4.8 23.4 4.6 7.7 12.5 12.9 22.6 14.7 5.1 0.9 6.4 0.7 10.4-1.1 2.8-1.2 5.3-3.2 6.4-5 2.6-4.7 3.5-3.7 2.9 2.9-0.4 5-0.2 6 1.2 6.5 1 0.3 3.2 2 5 3.9l3.2 3.3-4.5 0.5c-6.8 0.8-10.6 4.3-15.9 14.5-7.5 14.7-13.6 37.5-12.5 46.8l0.3 2.7 9-5.9c15.8-10.5 27.6-20.2 42.9-35.5 8.7-8.7 15.7-14.8 16.8-14.8 4.1 0 12.8 5.9 12.8 8.8 0 2-30.9 32.6-41 40.6-34.5 27.4-76.9 47.5-117 55.5-69.4 13.7-141.6-2.3-198.2-44.1-33.4-24.6-60.4-57.2-78.3-94.3-8.4-17.6-13.6-32.6-19.5-57.3-0.8-3-1.6-4.2-2.9-4.2-2.7 0-9.5-5.3-12-9.3-1.3-2.1-2.1-5.1-2.1-7.6 0-2.3-0.7-5.3-1.6-6.6-1.6-2.5-1.6-5 0.3-17.5 1.1-7.1 2.1-8.7 8-13.3l4.9-3.8 1.2-13.1c1.5-15.3 4.2-30.5 7.9-43.6l2.6-9.3-2.3-1.6c-5-3.5-7.5-14.1-4.5-19.3 0.8-1.4 1.4-3.9 1.5-5.7 0-4.7 1.4-7.6 5.7-12.1 2.1-2.1 4.6-5.1 5.6-6.6 2.2-3.2 6.5-5.3 12.7-6.1 4.3-0.5 4.7-0.9 8.9-7.6 6-9.8 17.6-25.2 24.6-32.7l5.8-6.3 6.3 6.2 6.2 6.2-7.7 9.1c-8.2 9.7-17.6 22.5-17 23 0.2 0.2 3.6 1.5 7.4 2.9 3.9 1.4 8.8 3.2 11 4 2.3 0.9 10.8 2 19.8 2.6 13.4 0.9 34.3 4.1 36.8 5.7 0.4 0.2-0.8 4.6-2.6 9.8-4 11-6.5 23.5-6.5 31.8 0 4.4-0.3 5.9-1.2 5.5-0.7-0.3-9.6-4-19.8-8.2-24.1-10-33.3-12.7-43.5-12.8-8.7-0.1-22.6 2.6-24.9 4.8-1.8 1.9-6.9 17.9-10 31.6-3 13.3-5.6 32.3-4.5 32.7 0.4 0.2 1.8-0.2 3.1-0.9 1.5-0.9 7.2-1.4 16.3-1.5 13.5-0.1 14.4-0.3 26.8-4.4 29.5-9.6 36.2-13.3 54.9-30.7 10.9-10.2 19.5-15 37-20.7 9.9-3.3 26.2-6.6 32-6.6 1.8 0 2.8-0.5 2.8-1.5 0-2.2-7.9-2-20 0.5-12.2 2.5-25 6.9-35.5 12.4-4.4 2.2-8.3 4.2-8.7 4.4-1.8 0.8-0.7-15 1.6-23.9 4.6-18.2 10.7-29.7 21.4-40.2l5.9-5.8 6.9 3.5c8.2 4.2 10.7 4.7 11.2 2.4 0.2-1.1-0.6-1.8-2.7-2.3-3.6-0.8-13.6-6.7-17.5-10.3-5.7-5.4-10.6-16.1-10.6-23.3v-2.8l6.3 2.9c8.6 3.9 17.1 5.4 27.5 4.8 11.1-0.7 17.2-3.2 24-10.1 4.5-4.6 12-17.2 10.9-18.3-0.2-0.2-2.8 0.1-5.7 0.7-7.8 1.7-15.9 0.8-18.2-2.1-2-2.5-2.5-11.1-0.8-15.4 0.5-1.4 0.8-2.6 0.7-2.7-0.1 0-7.2-0.4-15.7-0.8-13.6-0.6-16.2-1-21.1-3.3-5.6-2.6-10.9-8-10.9-11.1 0-1.3 1-1.1 5.6 1.4 4.4 2.3 6.9 2.9 11.8 2.9 16.6 0 27.9 3 38 9.9 3.8 2.7 5.3 3.1 10.8 3.1 7.6 0 11.2-1.6 11.6-5.1 0.4-3.4-3.9-9.5-6.4-9.1-13.4 2-19.8 1-23.4-3.5-2.7-3.4-2.6-10.4 0.1-16l2.1-4.3-2.1-2.6c-3.6-4.6-2.3-10.6 2.7-12.6 1.5-0.5 6.5-1.8 11.2-2.8 10.1-2 9.8-1.5 9.9-17.5 0.1-12.4-1.3-19.4-5.9-29.4-1.7-3.5-3-6.8-3-7.3 0-1.6 12 5.4 14.1 8.3 1 1.5 2.2 4 2.5 5.6 0.5 2.6 0.9 2.9 3.4 2.5 2.4-0.3 3.2 0.1 4.9 2.9 1.2 1.9 2.1 4.3 2.1 5.4 0 1.7-0.7 2-4.2 2-3.9 0-4.3 0.3-5.1 3.1-0.7 2.3-0.5 4 0.4 6 2.2 4.6 6.1 5.9 17.1 5.9 11.2 0 13.2-1.1 13.2-7 0-5-2.3-6.9-8.4-6.9-2.7 0-5-0.2-5-0.4 0-0.3 1.1-2 2.5-3.8 3-3.9 8.4-6 11.4-4.5 2.8 1.6 2.8 1.6 4.1-4.1 1.2-6 5-13 8.2-15.2 2.7-1.9 4.1-0.9 7.1 4.8zm-46 53.7c-2 2-1.6 2.6 2.5 3.3 3.6 0.5 3.8 0.8 3.4 3.6-0.6 3.8 1.2 6 5 6 3.7 0 6.6-1.5 10-5.1 2.4-2.6 3.1-2.8 7.6-2.2 6.9 0.8 18.2-0.5 18.2-2.1 0-0.9-3.2-1.7-10.2-2.5-17-2-35.1-2.5-36.5-1zm-44.3 239c-1.9 1.6-6.9 4.9-11 7.3-7.5 4.4-11.8 8.2-13.9 12.3-1.8 3.5-1.3 12.2 1.4 22.2 1.4 5.2 2.4 9.6 2.2 9.8-0.2 0.2-1.7-1.6-3.2-3.9-4.3-6.4-11.4-13.6-17.8-18-3.2-2.2-6-3.8-6.2-3.6-0.2 0.2 0.6 3.7 2 7.8 1.3 4.1 2.2 7.6 2 7.8-0.1 0.2-3.7-2.2-8-5.2-8.2-6-17.7-9.6-24.9-9.6-5 0-28.2 3.3-39.1 5.5-9.7 2-23.7 6.6-30.4 9.9-4.9 2.5-7 4.7-11.7 11.9-2.8 4.5-2.9 6.4-0.8 16 16 72.5 62.9 132 129.1 163.8 5.6 2.7 10.4 4.9 10.6 4.9 0.3 0 0.2-2 0-4.4-0.5-4.3-0.4-4.6 5.4-10.5 6-6.2 7.2-6.7 14.3-6.1 1.4 0.1 5.2 1.7 8.6 3.6 3.3 1.9 7 3.4 8.1 3.4 3.6 0 11-5.7 15.7-12.2 6.4-9.1 13.2-22.3 15-29.2 1.4-5.3 1.4-6.6 0-12.5-1.2-5.6-2.8-8.4-9.9-18.1-12.3-16.6-13.7-23.1-9.1-41.1 3-11.6 8-22.7 15.1-33.4 5.6-8.4 19-22.7 24.2-25.7l2.9-1.7 3.6 5.5c5.1 7.6 7.5 15.6 9.7 32.4 1.1 8 2.7 16.4 3.5 18.8 1.8 5 7.4 13.7 11.1 17.2 1.4 1.3 2.5 2.8 2.5 3.3 0 0.5-2 2.7-4.4 4.8-9.5 8.3-11.1 18.6-5.1 30.7 3.3 6.6 6.9 10.7 14 15.9l3 2.2-4 0.1c-2.2 0-5.7 0.5-7.7 1-3.5 1-3.7 1.3-2.8 3.6 1.9 4.8 0.6 9.9-1.5 6.4-1-1.7-8.8-1.1-11.8 0.9-6.5 4.2-20.9 28.2-25.4 42.4-2.4 7.5-6.1 13.2-10.7 16.6-1.9 1.4-1.9 1.5 0.2 2.2 1.2 0.5 8.6 1.1 16.4 1.5 20.6 0.9 44.9-1.5 65.3-6.7 11.3-2.8 10.8-2.5 7.9-5.6-2.3-2.4-2.5-3.4-2-7.3 0.9-7.1 2.5-11.7 5.2-14.9 2.4-2.9 5.3-3.9 16.4-5.6 6.5-1 9.3-3.6 12.4-11.6 4.2-10.7 4.5-17.1 1.1-27.5-4.4-13.4-13.1-21.4-37.1-34-18.3-9.7-27.5-16.8-34.6-27.2-4.8-6.9-6.6-13-8.4-27.3-0.9-7.2-2.4-16-3.3-19.5-3.5-12.3-12.3-23.8-26.5-34.6-12.3-9.3-19.7-12.2-42.1-16.3-4.9-0.9-12.5-3-16.9-4.7-6.9-2.7-7.8-3.3-6.2-4.2 5.2-3.1 12.6-9.1 12.6-10.2 0-2.4-1.5-2.2-5 0.7z"/>
		<path id="Layer" class="s0" d="m366.6 268c-55 22-102.9 60.8-134.5 109-3.5 5.2-5.8 9.6-5.3 9.8 0.6 0.2 3.2-0.8 5.9-2.1 14.4-7.4 32.4-11.4 42.9-9.7 10.7 1.8 16.7 5.7 34.9 22.6 14.9 14 16.9 15.5 18.8 14.6 3.9-1.8 15.7-13.3 15.7-15.3 0-1.1-1.4-4.7-3-8-1.7-3.3-4.5-10.1-6.2-15.2-2.8-8.4-3-10-2.5-18.3 1.4-24.8 19.5-58.4 49-91.2 3.1-3.4 1-2.8-15.7 3.8z"/>
		<path id="Layer" class="s0" d="m877.9 271.7c-0.1 0.5 0 3.3 0.1 6.4 0.1 4-0.4 6.8-1.8 9.5-1.1 2.2-16 20.8-33.1 41.3-20.3 24.5-30.8 37.8-30.1 38.5 0.6 0.6 11.9 0.4 32.5-0.8 67.9-3.7 70.3-3.6 78.1 3.6 2.3 2.1 4.5 3.5 4.8 3 0.8-1.3-17.6-38.3-18.8-37.8-0.6 0.2-0.9 1-0.8 1.7 1.8 7 2.4 11.9 1.8 14.2-0.8 3.2-4.7 5.4-11.9 6.7-5.2 1-62.7 4.4-63.3 3.8-0.7-0.8 42.5-52.5 45.7-54.6 4.6-3.2 8.4-2.4 13 2.8 3.2 3.5 5.9 5.1 5.9 3.5 0-1-21-42.5-21.5-42.5-0.3 0-0.6 0.3-0.6 0.7z"/>
		<path id="Layer" class="s0" d="m342.7 363.1c-3.1 2.2-5.7 4.6-5.6 5.2 0.1 2.9 5.6 15.2 6.8 15.2 2.3 0 14.1-9 14.7-11.2 1.1-4-5.2-13.3-9-13.3-0.6 0-3.7 1.8-6.9 4.1z"/>
		<path id="Layer" fill-rule="evenodd" class="s0" d="m825.8 386c6.1 7.2 8 7.7 42.5 11.4 45.8 5 56.2 5.9 60.7 5.3 2.8-0.4 4.3-0.1 5.2 1.1 0.7 0.8 3 2.7 5 4.2l3.6 2.7-9.6 6.8c-56.3 39.8-74.7 53.3-77.1 56.2-5.6 6.7-4.6 14.3 2.2 18 2.9 1.6 7 1.8 38.7 2.1 19.5 0.2 37.4 0 39.8-0.3 6.1-0.9 10-4.7 11.1-10.8 0.9-5 1.7-6.5 2.8-5.4 0.3 0.4 0.6 12.9 0.7 27.9 0.1 26.2 0 27.5-2.2 32.9-2.6 6.4-7.9 12.5-12.8 14.5-4.7 2-14.1 1.7-18.9-0.5-4.3-1.9-10.4-8.1-13-13.1-0.9-1.7-1.9-2.9-2.3-2.7-23.6 13.3-31.1 18.4-39.8 27.1-8.6 8.6-12.4 15.5-12.4 22.6 0 8.7 2.8 12.1 13.2 16 14.2 5.2 61 19.3 65.9 19.7 6.9 0.7 9.3-0.7 13.4-7.7 1.6-2.7 3.5-5 4.2-5 0.7 0 1.1 0.6 0.8 1.2-1.2 3.8-17.8 56.8-20.5 65.5-1.7 5.7-3.4 10.3-3.8 10.3-1.6 0-21.2-8.3-21.2-9 0-0.4 3.3-0.9 7.3-1.2 11.5-0.5 14.6-3.9 20.8-23.1 2.1-6.6 3.9-12.5 3.9-13.1 0-0.7-8.3-3.7-18.3-6.9-10.1-3.1-19.1-5.9-20-6.3-1.2-0.4-2.2 1.4-4.7 9.3-5.5 17.1-5 23.5 2.1 27.7 3 1.8 3.8 3.6 1.6 3.6-0.7 0-7.7-2-15.7-4.5-8-2.5-14.6-4.5-14.7-4.5-0.2 0-0.3-0.7-0.3-1.5 0-1.1 1.2-1.5 4.8-1.5 7.9-0.1 10.3-3.2 15.5-19.8l3.5-11.1-14.7-4.7c-18-5.7-20.6-6.1-25.1-3.6-9.5 5.3-16 29.7-10.5 40.2 1.8 3.6 8 9.7 11.8 11.6 3.1 1.6 3.6 3.4 0.9 3.4-3.9 0-25.2-11.4-25.2-13.6 0-0.5 4.7-16.7 10.4-36 6-20.4 10.6-37.8 11-41.9 1-9.4 2.4-15.1 5.3-20.8 4.2-8.4 17-19 34.6-28.6 4.3-2.4 8.5-5.4 9.4-6.7 0.8-1.3 1.8-5.4 2.1-9l0.5-6.5-19.2 0.3-19.3 0.3-2.3 2.7c-1.3 1.5-3 5.6-3.8 9.3-3.1 13.6-4 10.5-4.9-17.2-0.7-22-1-24.9-4.4-40.5-2.1-9.3-3.4-17.1-3-17.5 0.3-0.3 2.2 1.2 4.1 3.5 2 2.2 4.4 4.4 5.5 4.7 2.8 0.9 11.5-3.3 21.2-10.2 4.5-3.2 8.6-6.1 9.1-6.5 1.3-0.8-7.1-32.8-8.7-33.4-2.9-1-24.9-2.1-28.7-1.4-6.4 1.2-8.1 3.8-7.8 12.4 0.1 4-0.2 7.1-0.8 7.3-0.9 0.3-14.3-35.7-14.3-38.5 0-2.1 1.2-1.4 4.8 2.8zm59.5 18.3l-4.2-0.6 3.6 13.9c2 7.7 3.7 14 3.9 14.2 0.3 0.5 32.3-23.1 32.4-23.9 0-0.3-7.1-1.1-15.7-1.8-8.7-0.7-17.7-1.5-20-1.8zm64 103.7h-48.4l0.7 4.7c1.9 13.5 8.9 23.2 18.1 25.1 5.2 1.1 13.4 0.1 16.2-2 7.6-5.7 11.3-12.3 12.7-22.7z"/>
		<path id="Layer" class="s0" d="m812.1 680.1c-13.2 23-13.8 25.1-5.7 18.5 7.6-6.3 12.9-7.1 21.2-3.2 7.2 3.4 49 31.3 48.1 32.2-0.7 0.7-78.2 13.2-92.7 15-8 1-15.1 2.2-15.8 2.7-0.9 0.7 6.5 6.1 26.1 19.1 37.8 25.1 49.7 34.6 51.3 41.2 0.4 1.4 0.2 4.2-0.4 6.2-2.5 8.1 1.1 4.7 12-11.5 11.5-16.8 13.4-21.8 5.9-15-7.5 6.8-13.1 8.3-19.4 5.1-1.8-0.9-13.9-8.6-27.1-17.2-18.8-12.3-23.5-15.8-22-16.4 1.1-0.4 24.6-4.3 52.4-8.8 27.8-4.4 51-8.6 51.7-9.3 0.6-0.7 3.9-5.2 7.2-10.1 6.7-9.8 6.9-13.3 0.6-7.8-4.7 4.2-10.7 7.2-14.4 7.2-1.6 0-5.3-1.3-8.2-2.9-7.2-3.7-39.7-26-48-32.7-11.3-9.2-15-17.4-11.5-25.8 1.9-4.6 1.9-4.6 0.4-4.6-0.7 0.1-6 8.2-11.7 18.1z"/>
	</g>
</svg>