<?xml version="1.0" standalone="no"?>
<!DOCTYPE svg PUBLIC "-//W3C//DTD SVG 20010904//EN"
 "http://www.w3.org/TR/2001/REC-SVG-20010904/DTD/svg10.dtd">
<svg version="1.0" xmlns="http://www.w3.org/2000/svg"
 width="1024.000000pt" height="885.000000pt" viewBox="0 0 1024.000000 885.000000"
 preserveAspectRatio="xMidYMid meet">

<g transform="translate(0.000000,885.000000) scale(0.100000,-0.100000)"
fill="#000000" stroke="none">
<path d="M4520 8311 c0 -6 -20 -26 -45 -43 -31 -22 -43 -37 -40 -48 7 -22
-206 -749 -257 -877 -22 -56 -72 -109 -113 -119 -22 -5 -37 -34 -17 -34 32 0
385 49 390 55 11 11 -22 25 -61 25 -50 0 -95 24 -108 58 -13 33 -6 77 33 218
l31 111 61 6 c33 4 111 9 171 13 l110 6 47 -109 c65 -152 77 -197 58 -231 -9
-14 -34 -35 -58 -47 -23 -11 -42 -23 -42 -26 0 -10 153 -19 315 -19 114 0 192
-7 322 -27 163 -25 212 -25 169 1 -113 67 -140 111 -132 216 5 64 108 545 120
557 2 2 28 -38 58 -89 30 -51 118 -200 196 -330 78 -131 178 -305 223 -388 45
-82 85 -150 90 -150 10 0 6 -18 68 275 82 383 132 564 174 634 21 35 69 61
113 61 15 0 24 5 22 12 -3 9 -345 96 -385 98 -28 0 -10 -21 35 -44 27 -14 63
-41 80 -61 27 -30 32 -44 32 -86 0 -46 -100 -547 -118 -592 -5 -14 -75 98
-277 442 l-270 460 -110 26 c-60 14 -116 25 -122 25 -27 0 -11 -19 46 -54 74
-45 101 -86 101 -153 0 -53 -106 -538 -140 -637 -34 -102 -93 -156 -167 -156
-44 1 -108 35 -137 73 -15 19 -121 241 -236 493 -185 407 -230 495 -230 455z
m41 -379 c45 -95 80 -174 78 -176 -5 -5 -273 -24 -278 -20 -2 2 20 89 49 194
30 104 57 187 61 183 4 -5 44 -86 90 -181z"/>
<path d="M3580 8141 c-73 -23 -95 -36 -147 -84 -52 -48 -91 -119 -99 -181 -9
-60 19 -148 61 -194 45 -51 104 -78 252 -119 68 -18 141 -42 161 -52 79 -40
122 -105 122 -184 0 -62 -32 -105 -104 -141 -135 -68 -277 -21 -386 126 -16
21 -31 33 -38 29 -8 -5 4 -39 38 -111 27 -57 53 -107 57 -111 16 -16 138 -26
204 -18 109 13 191 51 267 123 66 62 86 108 86 191 0 84 -23 135 -85 189 -48
41 -106 64 -263 107 -166 45 -233 92 -257 182 -28 105 60 206 181 207 66 0
116 -33 167 -110 24 -36 49 -67 55 -69 13 -4 6 49 -20 154 -14 58 -21 70 -42
76 -47 13 -155 8 -210 -10z"/>
<path d="M6502 7891 c-40 -65 -72 -121 -72 -125 0 -16 29 -3 55 24 38 40 104
64 156 57 38 -5 239 -94 239 -106 0 -19 -362 -701 -388 -732 -21 -24 -47 -42
-70 -48 -34 -9 -53 -7 -149 14 -76 17 -21 -20 200 -133 127 -66 238 -122 246
-124 29 -7 18 18 -20 45 -58 40 -81 82 -76 138 4 51 4 51 224 476 l156 302 76
-39 c165 -83 195 -121 194 -242 0 -43 3 -78 7 -78 7 0 104 217 112 249 2 11
-8 14 -43 12 -42 -2 -75 13 -388 175 -320 166 -344 180 -362 216 -11 21 -21
38 -22 38 -2 0 -35 -53 -75 -119z"/>
<path d="M2787 7849 c-92 -50 -165 -94 -162 -99 3 -4 24 -6 47 -3 33 5 44 2
55 -12 26 -36 15 -131 -41 -350 -30 -115 -53 -212 -51 -214 3 -2 127 -46 277
-98 291 -101 358 -115 444 -94 146 37 248 102 136 87 -84 -11 -207 19 -494
121 -150 53 -277 100 -282 104 -10 9 77 338 115 432 31 78 70 137 111 172 26
22 37 45 21 45 -5 0 -83 -41 -176 -91z"/>
<path d="M2297 7586 c-114 -61 -205 -115 -203 -121 2 -5 10 -8 17 -7 131 33
158 28 205 -38 46 -64 323 -584 345 -646 25 -70 16 -106 -38 -162 -40 -43 -52
-62 -36 -62 20 0 433 264 433 277 0 11 -5 13 -17 8 -10 -5 -43 -15 -74 -23
-51 -13 -60 -13 -92 3 -22 10 -48 36 -66 63 -52 82 -310 571 -327 620 -22 61
-14 95 35 143 21 21 35 42 32 47 -3 5 -99 -41 -214 -102z"/>
<path d="M7490 7421 c0 -6 5 -13 11 -17 23 -14 69 -99 69 -126 0 -32 -20 -76
-59 -128 -80 -107 -358 -460 -385 -488 -63 -68 -117 -78 -203 -37 -29 13 -55
20 -58 15 -3 -5 34 -41 82 -79 268 -211 308 -240 317 -231 6 6 1 20 -16 37
-61 67 -73 115 -42 175 28 54 456 579 488 599 41 25 70 24 135 -6 30 -14 58
-22 63 -17 9 9 -371 312 -391 312 -6 0 -11 -4 -11 -9z"/>
<path d="M1704 7159 c-98 -83 -185 -157 -193 -165 -28 -27 0 -28 55 -1 74 37
114 35 160 -5 48 -42 427 -489 465 -547 63 -98 13 -196 -127 -248 -109 -40
-325 -43 -566 -6 l-36 5 1 72 c2 94 -21 153 -79 204 -112 99 -250 73 -378 -70
-74 -83 -290 -402 -276 -406 7 -3 29 12 50 33 56 55 98 57 177 8 122 -74 566
-408 589 -443 29 -43 31 -99 4 -157 -12 -27 -15 -45 -9 -49 13 -7 -8 -36 158
214 78 117 139 217 136 223 -4 5 -30 -10 -58 -34 -114 -97 -115 -96 -345 72
l-101 74 19 27 c34 48 89 90 118 90 15 0 89 -5 164 -12 172 -15 303 -2 384 37
30 15 89 59 131 99 43 39 151 134 241 210 90 76 159 143 155 147 -5 5 -31 -3
-57 -16 -27 -14 -65 -25 -84 -25 -67 0 -81 14 -423 420 -182 216 -189 235
-119 333 22 31 36 58 32 61 -5 3 -90 -62 -188 -145z m-482 -783 c61 -18 115
-60 140 -109 30 -60 23 -162 -17 -242 -18 -35 -36 -60 -45 -59 -8 1 -97 61
-197 134 l-182 133 20 28 c30 43 97 91 153 111 62 21 71 22 128 4z"/>
<path d="M8080 6956 c0 -2 11 -23 24 -47 34 -62 40 -102 22 -136 -23 -44 -65
-82 -461 -415 -174 -146 -203 -155 -294 -93 -48 33 -71 43 -71 29 0 -6 180
-204 289 -316 35 -37 68 -65 73 -62 4 3 -6 30 -22 61 -20 38 -30 70 -30 100 0
40 5 49 53 96 83 83 508 437 549 458 51 26 78 24 129 -11 48 -32 59 -36 59
-19 0 16 -293 359 -307 359 -7 0 -13 -2 -13 -4z"/>
<path d="M8477 6494 c-3 -4 1 -20 9 -37 12 -22 13 -35 6 -52 -20 -43 -66 -49
-329 -42 l-243 6 -5 -22 c-2 -12 -19 -134 -36 -272 -40 -322 -38 -382 17 -484
44 -81 88 -140 99 -129 4 4 -1 37 -10 75 -13 52 -16 91 -12 163 7 101 73 609
81 618 3 2 96 -1 208 -7 237 -12 335 -33 415 -86 29 -19 55 -31 58 -26 5 9
-227 293 -244 299 -4 1 -10 0 -14 -4z"/>
<path d="M5002 6344 c-32 -22 -70 -92 -82 -152 -13 -57 -13 -57 -41 -41 -30
15 -84 -6 -114 -45 -14 -18 -25 -35 -25 -38 0 -2 23 -4 50 -4 61 0 84 -19 84
-69 0 -59 -20 -70 -132 -70 -110 0 -149 13 -171 59 -9 20 -11 37 -4 60 8 28
12 31 51 31 35 0 42 3 42 20 0 11 -9 35 -21 54 -17 28 -25 32 -49 29 -25 -4
-29 -1 -34 25 -3 16 -15 41 -25 56 -21 29 -141 99 -141 83 0 -5 13 -38 30 -73
46 -100 60 -170 59 -294 -1 -160 2 -155 -99 -175 -47 -10 -97 -23 -112 -28
-50 -20 -63 -80 -27 -126 l21 -26 -21 -43 c-27 -56 -28 -126 -1 -160 36 -45
100 -55 234 -35 25 4 68 -57 64 -91 -4 -35 -40 -51 -116 -51 -55 0 -70 4 -108
31 -101 69 -214 99 -380 99 -49 0 -74 6 -118 29 -46 25 -56 27 -56 14 0 -31
53 -85 109 -111 49 -23 75 -27 211 -33 85 -4 156 -8 157 -8 1 -1 -2 -13 -7
-27 -17 -43 -12 -129 8 -154 23 -29 104 -38 182 -21 29 6 55 9 57 7 11 -11
-64 -137 -109 -183 -68 -69 -129 -94 -240 -101 -104 -6 -189 9 -275 48 l-63
29 0 -28 c0 -72 49 -179 106 -233 39 -36 139 -95 175 -103 21 -5 29 -12 27
-23 -5 -23 -30 -18 -112 24 l-69 35 -59 -58 c-107 -105 -168 -220 -214 -402
-23 -89 -34 -247 -16 -239 4 2 43 22 87 44 105 55 233 99 355 124 121 25 200
27 200 5 0 -10 -10 -15 -28 -15 -58 0 -221 -33 -320 -66 -175 -57 -261 -105
-370 -207 -187 -174 -254 -211 -549 -307 -124 -41 -133 -43 -268 -44 -91 -1
-148 -6 -163 -15 -13 -7 -27 -11 -31 -9 -11 4 15 194 45 327 31 137 82 297
100 316 23 22 162 49 249 48 102 -1 194 -28 435 -128 102 -42 191 -79 198 -82
9 -4 12 11 12 55 0 83 25 208 65 318 18 52 30 96 26 98 -25 16 -234 48 -368
57 -90 6 -175 17 -198 26 -22 8 -71 26 -110 40 -38 14 -72 27 -74 29 -6 5 88
133 170 230 l77 91 -62 62 -63 62 -58 -63 c-70 -75 -186 -229 -246 -327 -42
-67 -46 -71 -89 -76 -62 -8 -105 -29 -127 -61 -10 -15 -35 -45 -56 -66 -43
-45 -57 -74 -57 -121 -1 -18 -7 -43 -15 -57 -30 -52 -5 -158 45 -193 l23 -16
-26 -93 c-37 -131 -64 -283 -79 -436 l-12 -131 -49 -38 c-59 -46 -69 -62 -80
-133 -19 -125 -19 -150 -3 -175 9 -13 16 -43 16 -66 0 -25 8 -55 21 -76 25
-40 93 -93 120 -93 13 0 21 -12 29 -42 59 -247 111 -397 195 -573 179 -371
449 -697 783 -943 566 -418 1288 -578 1982 -441 401 80 825 281 1170 555 101
80 410 386 410 406 0 29 -87 88 -128 88 -11 0 -81 -61 -168 -148 -153 -153
-271 -250 -429 -355 l-90 -59 -3 27 c-11 93 50 321 125 468 53 102 91 137 159
145 l45 5 -32 33 c-18 19 -40 36 -50 39 -14 5 -16 15 -12 65 6 66 -3 76 -29
29 -11 -18 -36 -38 -64 -50 -40 -18 -53 -20 -104 -11 -101 18 -180 70 -226
147 -32 56 -57 174 -48 234 9 63 26 93 104 186 36 44 76 94 88 112 l22 31 93
-48 c202 -107 438 -162 697 -163 186 0 278 17 396 73 245 118 329 420 167 600
-25 28 -75 72 -112 97 -153 107 -201 178 -201 297 l0 69 -21 -19 c-32 -29 -53
-74 -59 -129 l-5 -50 -31 50 c-47 74 -57 116 -51 204 3 42 9 87 13 101 l8 25
-35 -26 c-19 -14 -49 -50 -66 -80 -28 -44 -33 -63 -33 -114 l0 -60 -21 25
c-34 43 -66 113 -79 173 -14 71 -1 148 40 225 28 51 28 53 7 46 -106 -32 -191
-151 -191 -270 l-1 -62 -30 21 c-123 85 -293 251 -359 350 -79 120 -99 253
-52 352 29 62 55 87 130 121 51 23 67 26 135 22 45 -3 90 -12 110 -22 l33 -18
-18 32 c-39 65 -110 109 -197 118 l-62 7 54 18 c136 44 315 0 408 -101 23 -25
45 -43 48 -41 9 10 -23 87 -55 135 -37 53 -92 96 -175 135 l-60 29 55 -6 c160
-17 305 -81 412 -182 39 -37 86 -89 104 -117 39 -56 42 -46 19 53 -21 89 -56
152 -126 227 -34 36 -58 65 -55 65 20 0 153 -76 221 -127 128 -95 246 -235
330 -392 16 -29 31 -49 33 -43 6 19 -98 318 -142 408 -24 49 -64 116 -89 149
-44 59 -142 140 -222 185 l-40 23 0 106 c0 96 -3 111 -28 161 -29 58 -85 132
-72 95 4 -11 10 -52 12 -91 5 -71 5 -72 -30 -111 -44 -48 -75 -58 -243 -78
-170 -20 -230 -36 -343 -91 -77 -38 -110 -62 -176 -128 -89 -88 -123 -141
-163 -256 -24 -69 -27 -87 -26 -225 1 -134 4 -159 27 -230 50 -153 169 -327
328 -481 143 -138 275 -225 592 -390 315 -164 448 -262 477 -350 29 -88 -16
-203 -104 -261 -125 -85 -298 -98 -561 -45 -82 17 -179 40 -215 51 -91 28
-208 100 -289 177 -60 56 -71 72 -81 117 -17 74 -83 196 -134 249 -52 55 -105
91 -221 152 -49 26 -110 64 -134 83 -68 57 -143 155 -199 260 -65 126 -98 225
-113 343 l-12 95 -75 70 c-109 102 -204 245 -163 245 5 0 30 -31 55 -68 98
-149 283 -292 376 -292 19 0 19 0 0 33 -33 56 -60 182 -60 279 0 137 27 181
112 181 32 0 38 3 32 16 -27 64 -43 112 -48 147 l-7 41 62 7 c34 4 87 17 117
28 l56 21 -49 22 c-63 28 -111 76 -125 123 -6 21 -15 111 -20 202 -7 138 -12
177 -34 239 -14 41 -23 78 -19 81 5 4 29 15 55 24 49 18 94 61 104 100 3 13 4
40 2 62 -3 36 -6 39 -48 52 -27 8 -70 11 -107 9 l-63 -5 0 32 c1 104 53 251
126 352 30 42 53 78 51 80 -5 5 -99 -21 -124 -34 -27 -15 -73 -70 -73 -88 0
-11 -5 -11 -24 -2 -33 14 -52 6 -76 -34 -23 -38 -26 -60 -7 -52 8 3 26 0 40
-5 22 -9 27 -17 27 -45 0 -49 -8 -65 -43 -82 -57 -30 -234 2 -257 47 -16 29
-12 64 10 87 23 24 39 27 89 12 19 -5 37 -8 39 -5 2 2 -7 22 -19 45 -28 49
-69 74 -107 65 l-27 -5 -1 67 c0 49 -6 79 -21 109 -30 57 -44 67 -71 48z m-24
-595 c70 -8 102 -16 102 -25 0 -16 -113 -29 -182 -21 -45 6 -52 4 -76 -22 -34
-36 -63 -51 -100 -51 -38 0 -56 22 -50 60 4 28 2 31 -34 36 -41 7 -45 13 -25
33 14 15 195 10 365 -10z m-758 -2373 c0 -11 -74 -71 -126 -102 -16 -9 -7 -15
62 -42 44 -17 120 -38 169 -47 224 -41 298 -70 421 -163 142 -108 230 -223
265 -346 9 -35 24 -123 33 -195 18 -143 36 -204 84 -273 71 -104 163 -175 346
-272 240 -126 327 -206 371 -340 34 -104 31 -168 -11 -275 -31 -80 -59 -106
-124 -116 -111 -17 -140 -27 -164 -56 -27 -32 -43 -78 -52 -149 -5 -39 -3 -49
20 -73 29 -31 34 -28 -79 -56 -204 -52 -447 -76 -653 -67 -78 4 -152 10 -164
15 -21 7 -21 8 -2 22 46 34 83 91 107 166 45 142 189 382 254 424 30 20 108
26 118 9 21 -35 34 16 15 64 -9 23 -7 26 28 36 20 5 55 10 77 10 l40 1 -30 22
c-71 52 -107 93 -140 159 -60 121 -44 224 51 307 24 21 44 43 44 48 0 5 -11
20 -25 33 -37 35 -93 122 -111 172 -8 24 -24 108 -35 188 -22 168 -46 248 -97
324 l-36 55 -29 -17 c-52 -30 -186 -173 -242 -257 -71 -107 -121 -218 -151
-334 -46 -180 -32 -245 91 -411 71 -97 87 -125 99 -181 14 -59 14 -72 0 -125
-18 -69 -86 -201 -150 -292 -47 -65 -121 -122 -157 -122 -11 0 -48 15 -81 34
-34 19 -72 35 -86 36 -71 6 -83 1 -143 -61 -58 -59 -59 -62 -54 -105 2 -24 3
-44 0 -44 -2 0 -50 22 -106 49 -662 318 -1131 913 -1291 1638 -21 96 -20 115
8 160 47 72 68 94 117 119 67 33 207 79 304 99 109 22 341 55 391 55 72 0 167
-36 249 -96 43 -30 79 -54 80 -52 2 2 -7 37 -20 78 -14 41 -22 76 -20 78 2 2
30 -14 62 -36 64 -44 135 -116 178 -180 15 -23 30 -41 32 -39 2 2 -8 46 -22
98 -27 100 -32 187 -14 222 21 41 64 79 139 123 41 24 91 57 110 73 35 29 50
31 50 7z"/>
<path d="M3666 6170 c-550 -220 -1029 -608 -1345 -1090 -35 -52 -58 -96 -53
-98 6 -2 32 8 59 21 144 74 324 114 429 97 107 -18 167 -57 349 -226 149 -140
169 -155 188 -146 39 18 157 133 157 153 0 11 -14 47 -30 80 -17 33 -45 101
-62 152 -28 84 -30 100 -25 183 14 248 195 584 490 912 31 34 10 28 -157 -38z"/>
<path d="M8779 6133 c-1 -5 0 -33 1 -64 1 -40 -4 -68 -18 -95 -11 -22 -160
-208 -331 -413 -203 -245 -308 -378 -301 -385 6 -6 119 -4 325 8 679 37 703
36 781 -36 23 -21 45 -35 48 -30 8 13 -176 383 -188 378 -6 -2 -9 -10 -8 -17
18 -70 24 -119 18 -142 -8 -32 -47 -54 -119 -67 -52 -10 -627 -44 -633 -38 -7
8 425 525 457 546 46 32 84 24 130 -28 32 -35 59 -51 59 -35 0 10 -210 425
-215 425 -3 0 -6 -3 -6 -7z"/>
<path d="M3427 5219 c-31 -22 -57 -46 -56 -52 1 -29 56 -152 68 -152 23 0 141
90 147 112 11 40 -52 133 -90 133 -6 0 -37 -18 -69 -41z"/>
<path d="M8210 5018 c0 -28 134 -388 143 -385 6 2 9 33 8 73 -3 86 14 112 78
124 38 7 258 -4 287 -14 16 -6 100 -326 87 -334 -5 -4 -46 -33 -91 -65 -97
-69 -184 -111 -212 -102 -11 3 -35 25 -55 47 -19 23 -38 38 -41 35 -4 -4 9
-82 30 -175 34 -156 37 -185 44 -405 9 -277 18 -308 49 -172 8 37 25 78 38 93
l23 27 193 3 192 3 -5 -65 c-3 -36 -13 -77 -21 -90 -9 -13 -51 -43 -94 -67
-176 -96 -304 -202 -346 -286 -29 -57 -43 -114 -53 -208 -4 -41 -50 -215 -110
-419 -57 -193 -104 -355 -104 -360 0 -22 213 -136 252 -136 27 0 22 18 -9 34
-38 19 -100 80 -118 116 -55 105 10 349 105 402 45 25 71 21 251 -36 l147 -47
-35 -111 c-52 -166 -76 -197 -155 -198 -36 0 -48 -4 -48 -15 0 -8 1 -15 3 -15
1 0 67 -20 147 -45 80 -25 150 -45 157 -45 22 0 14 18 -16 36 -71 42 -76 106
-21 277 25 79 35 97 47 93 9 -4 99 -32 200 -63 100 -32 183 -62 183 -69 0 -6
-18 -65 -39 -131 -62 -192 -93 -226 -208 -231 -40 -3 -73 -8 -73 -12 0 -7 196
-90 212 -90 4 0 21 46 38 103 27 87 193 617 205 655 3 6 -1 12 -8 12 -7 0 -26
-23 -42 -50 -41 -70 -65 -84 -134 -77 -49 4 -517 145 -659 197 -104 39 -132
73 -132 160 0 71 38 140 124 226 87 87 162 138 398 271 4 2 14 -10 23 -27 26
-50 87 -112 130 -131 48 -22 142 -25 189 -5 49 20 102 81 128 145 22 54 23 67
22 329 -1 150 -4 275 -7 279 -11 11 -19 -4 -28 -54 -11 -61 -50 -99 -111 -108
-24 -3 -203 -5 -398 -3 -317 3 -358 5 -387 21 -68 37 -78 113 -22 180 24 29
208 164 771 562 l96 68 -36 27 c-20 15 -43 34 -50 42 -9 12 -24 15 -52 11 -45
-6 -149 3 -607 53 -345 37 -364 42 -425 114 -36 42 -48 49 -48 28z m843 -229
c86 -7 157 -15 157 -18 -1 -8 -321 -244 -324 -239 -2 2 -19 65 -39 142 l-36
139 42 -6 c23 -3 113 -11 200 -18z m433 -1070 c-14 -104 -51 -170 -127 -227
-28 -21 -110 -31 -162 -20 -92 19 -162 116 -181 251 l-7 47 242 0 242 0 -7
-51z"/>
<path d="M8121 2049 c-132 -230 -138 -251 -57 -185 76 63 129 71 212 32 72
-34 490 -313 481 -322 -7 -7 -782 -132 -927 -150 -80 -10 -151 -22 -158 -27
-9 -7 65 -61 261 -191 378 -251 497 -346 513 -412 4 -14 2 -42 -4 -62 -25 -81
11 -47 120 115 115 168 134 218 59 150 -75 -68 -131 -83 -194 -51 -18 9 -139
86 -271 172 -188 123 -235 158 -220 164 11 4 246 43 524 88 278 44 510 86 517
93 6 7 39 52 72 101 67 98 69 133 6 78 -47 -42 -107 -72 -144 -72 -16 0 -53
13 -82 29 -72 37 -397 260 -480 327 -113 92 -150 174 -115 258 19 46 19 46 4
46 -7 -1 -60 -82 -117 -181z"/>
</g>
</svg>
