<svg version="1.2" xmlns="http://www.w3.org/2000/svg" viewBox="0 0 450 127" width="450" height="127">
	<title>Python-svg</title>
	<style>
		.s0 { fill: #ffffff } 
	</style>
	<g id="Layer">
		<path id="STATM" fill-rule="evenodd" class="s0" d="m1.7 104.3v-12.9q3.8 0.5 8.1 0.9 3.7 0.3 8.5 0.6 4.8 0.2 10.2 0.2 7.1 0 11.2-0.9 4.2-0.9 6.4-2.7 2.2-1.8 2.8-4.5 0.7-2.6 0.7-6.1 0-2.7-0.3-4.9-0.3-2.2-1.2-4-1-1.7-2.7-3-1.8-1.3-4.8-2.1l-21.4-5.6q-5-1.3-8.5-3.5-3.5-2.3-5.7-5.7-2.2-3.5-3.2-8.3-0.9-4.9-0.9-11.5 0-7.7 2.3-13.4 2.3-5.7 6.6-9.4 4.3-3.6 10.4-5.4 6.1-1.7 13.5-1.7 6.3 0 11.4 0.7 5.2 0.7 8.9 1.5 4.4 0.9 8 2.1v13.5q-3.3-0.4-6.9-0.8-3.2-0.3-7.2-0.6-3.8-0.3-8-0.3-6.5 0-10.7 0.5-4.2 0.4-6.6 1.8-2.4 1.4-3.4 4-0.9 2.5-0.9 6.8 0 2.3 0.2 4.2 0.3 1.8 1.2 3.2 0.9 1.4 2.6 2.4 1.8 1 4.7 1.9l19.8 5.7q3.9 1.1 6.8 2.4 3 1.1 5.2 2.8 2.2 1.6 3.7 3.8 1.6 2.2 2.6 5.3 0.9 3 1.4 7.1 0.4 4.1 0.4 9.4 0 8.4-1.4 14.4-1.4 5.9-5.4 9.7-3.9 3.8-10.9 5.6-6.9 1.8-17.9 1.8-8.5 0-14.1-0.8-5.6-0.8-9.1-1.7-4-1.1-6.4-2.5zm104.8 2.7v-88.3h-31.4v-16.2h80.4v16.2h-31.6v88.3zm51 0l33.9-104.5h23.3l34.2 104.5h-19.4l-8.8-28.3h-35.6l-8.4 28.3zm32.3-44.1h26l-12.9-44.2h-0.2zm92.3 44.1v-88.4h-31.3v-16.2h80.4v16.2h-31.7v88.4zm63.3 0v-104.6h30.5l19.3 63h0.6l20-63h30v104.6h-17.5v-88.2h-0.5l-2 6.6q-0.8 2.8-1.7 5.8-1 3-1.7 5.2l-13.5 42.2h-26.3l-13.7-42.5q-0.8-2.2-1.7-5.1-1-3-1.8-5.7-0.9-3.2-2-6.5h-0.4v88.2z"/>
		<path id="Shape 1" class="s0" d="m0 114h449v11h-449z"/>
	</g>
</svg>