<svg version="1.2" xmlns="http://www.w3.org/2000/svg" viewBox="0 0 450 196" width="450" height="196">
	<title>STATM-svg</title>
	<style>
		.s0 { fill: #000000 } 
	</style>
	<g id="Layer">
		<path id="Statistical Toolbox for Analysis" fill-rule="evenodd" class="s0" d="m16 147.5v-2.5q0.7 0.1 1.6 0.2 0.7 0 1.6 0.1 0.9 0 2 0 1.3 0 2.2-0.2 0.8-0.1 1.2-0.5 0.4-0.3 0.5-0.8 0.1-0.6 0.1-1.2 0-0.5 0-1 0-0.4-0.2-0.8-0.2-0.3-0.6-0.5-0.3-0.3-0.9-0.4l-4.1-1.1q-1-0.3-1.7-0.7-0.6-0.4-1.1-1.1-0.4-0.7-0.6-1.6-0.2-1-0.2-2.2 0-1.5 0.5-2.6 0.4-1.1 1.3-1.8 0.8-0.7 2-1.1 1.1-0.3 2.6-0.3 1.2 0 2.2 0.1 1 0.2 1.7 0.3 0.9 0.2 1.6 0.4v2.6q-0.7 0-1.4-0.1-0.6-0.1-1.4-0.1-0.7-0.1-1.5-0.1-1.3 0-2.1 0.1-0.8 0.1-1.3 0.4-0.4 0.2-0.6 0.7-0.2 0.5-0.2 1.3 0 0.5 0 0.8 0.1 0.4 0.3 0.7 0.2 0.2 0.5 0.4 0.3 0.2 0.9 0.4l3.8 1.1q0.8 0.2 1.3 0.5 0.6 0.2 1 0.5 0.5 0.3 0.8 0.7 0.3 0.5 0.5 1.1 0.1 0.5 0.2 1.3 0.1 0.8 0.1 1.9 0 1.6-0.3 2.7-0.2 1.2-1 1.9-0.8 0.7-2.1 1.1-1.4 0.3-3.5 0.3-1.6 0-2.7-0.1-1.1-0.2-1.8-0.3-0.7-0.3-1.2-0.5zm17.4-2.5v-9.1h-2.2v-2.8h2.2v-3.2l3.4-0.7v3.9h3.7v2.8h-3.7v8q0 0.5 0 0.8 0.1 0.4 0.3 0.6 0.2 0.2 0.6 0.3 0.4 0 1 0 0.5 0 1 0 0.4 0 0.7 0 0.4 0 0.7-0.1v2.2q-0.5 0.2-1.1 0.4-0.5 0.1-1.1 0.2-0.7 0.1-1.5 0.1-1.1 0-1.9-0.2-0.7-0.2-1.2-0.6-0.5-0.4-0.7-1.1-0.2-0.7-0.2-1.5zm10.7-1.2q0-1.3 0.3-2.2 0.4-0.9 1-1.4 0.7-0.5 1.6-0.8 0.8-0.2 1.8-0.2 1.1 0 1.9 0.1 0.8 0.1 1.4 0.2 0.7 0.2 1.3 0.4v-1.4q0-0.5-0.1-0.9 0-0.3-0.1-0.6-0.1-0.3-0.2-0.5-0.2-0.1-0.4-0.3-0.4-0.3-1.2-0.5-0.8-0.1-2.1-0.1-0.8 0-1.5 0-0.8 0.1-1.4 0.2-0.7 0-1.3 0.1v-2.3q0.6-0.3 1.4-0.5 0.7-0.1 1.8-0.2 1-0.2 2.5-0.2 1 0 1.7 0.1 0.8 0.1 1.4 0.3 0.5 0.1 1 0.4 0.4 0.3 0.8 0.8 0.3 0.3 0.5 0.8 0.2 0.4 0.3 0.9 0.1 0.6 0.2 1.3 0 0.7 0 1.7v9h-2.8l-0.3-1.1q-0.6 0.4-1.3 0.8-0.7 0.3-1.6 0.5-0.8 0.2-1.9 0.2-1.3 0-2.2-0.2-0.9-0.3-1.5-0.8-0.5-0.6-0.8-1.5-0.2-0.9-0.2-2.1zm3.4 0q0 0.6 0.2 1 0.1 0.3 0.4 0.5 0.3 0.2 0.7 0.3 0.5 0 1 0 0.7 0 1.4-0.1 0.6-0.1 1.1-0.3 0.6-0.2 1.1-0.4v-2.6q-0.5-0.1-1-0.2-0.4 0-1-0.1-0.6 0-1.2 0-0.7 0-1.2 0-0.5 0.1-0.9 0.3-0.3 0.2-0.4 0.6-0.2 0.3-0.2 1zm15 1.2v-9.1h-2.2v-2.8h2.2v-3.2l3.4-0.7v3.9h3.8v2.8h-3.8v8q0 0.5 0.1 0.8 0.1 0.4 0.3 0.6 0.2 0.2 0.5 0.3 0.4 0 1 0 0.6 0 1 0 0.5 0 0.8 0 0.3 0 0.6-0.1v2.2q-0.5 0.2-1 0.4-0.5 0.1-1.2 0.2-0.7 0.1-1.5 0.1-1.1 0-1.8-0.2-0.8-0.2-1.3-0.6-0.4-0.4-0.6-1.1-0.3-0.7-0.3-1.5zm13.2-14.5q-0.6 0-1-0.1-0.4 0-0.6-0.3-0.2-0.2-0.3-0.5-0.1-0.4-0.1-1 0-0.6 0.1-0.9 0.1-0.4 0.3-0.6 0.2-0.3 0.6-0.4 0.4 0 1 0 0.6 0 0.9 0 0.4 0.1 0.6 0.4 0.3 0.2 0.3 0.6 0.1 0.3 0.1 0.9 0 0.6-0.1 1 0 0.3-0.3 0.5-0.2 0.3-0.6 0.3-0.3 0.1-0.9 0.1zm-1.7 17.5v-14.9h3.4v14.9zm7.5-0.5v-2.4q0.7 0.2 1.4 0.3 0.7 0.1 1.6 0.2 0.9 0 1.9 0 1.2 0 1.9-0.1 0.6 0 1-0.2 0.3-0.3 0.4-0.6 0.1-0.4 0.1-0.9 0-0.3 0-0.5 0-0.3-0.2-0.4-0.1-0.2-0.4-0.4-0.2-0.1-0.7-0.2l-3.1-0.6q-1.1-0.1-1.8-0.5-0.7-0.3-1.2-0.8-0.4-0.5-0.6-1.3-0.2-0.7-0.2-1.8 0-2.4 1.5-3.5 1.6-1.2 4.5-1.2 1 0 1.9 0.2 0.8 0.1 1.5 0.2 0.7 0.2 1.3 0.4v2.4q-0.7-0.1-1.4-0.2-0.6 0-1.4-0.1-0.8-0.1-1.6-0.1-0.9 0-1.5 0.1-0.6 0.1-1 0.3-0.4 0.1-0.5 0.4-0.1 0.3-0.1 0.8 0 0.3 0 0.6 0.1 0.2 0.3 0.4 0.1 0.3 0.5 0.4 0.3 0.2 0.8 0.3l3.3 0.6q0.9 0.2 1.6 0.5 0.7 0.3 1.1 0.8 0.4 0.5 0.6 1.3 0.1 0.7 0.1 1.9 0 1.1-0.2 1.9-0.2 0.9-0.9 1.5-0.6 0.6-1.8 0.9-1.3 0.3-3.3 0.3-1.1 0-2-0.1-1-0.2-1.8-0.3-0.8-0.3-1.6-0.5zm16.5-2.5v-9.1h-2.2v-2.8h2.2v-3.2l3.3-0.7v3.9h3.8v2.8h-3.8v8q0 0.5 0.1 0.8 0.1 0.4 0.3 0.6 0.2 0.2 0.6 0.3 0.3 0 0.9 0 0.6 0 1 0 0.5 0 0.8 0 0.4 0 0.6-0.1v2.2q-0.5 0.2-1 0.4-0.5 0.1-1.2 0.2-0.7 0.1-1.4 0.1-1.2 0-1.9-0.2-0.8-0.2-1.2-0.6-0.5-0.4-0.7-1.1-0.2-0.7-0.2-1.5zm13.1-14.5q-0.6 0-1-0.1-0.3 0-0.6-0.3-0.2-0.2-0.3-0.5-0.1-0.4-0.1-1 0-0.6 0.1-0.9 0.1-0.4 0.3-0.6 0.3-0.3 0.6-0.4 0.4 0 1 0 0.6 0 0.9 0 0.4 0.1 0.6 0.4 0.3 0.2 0.4 0.6 0 0.3 0 0.9 0 0.6 0 1-0.1 0.3-0.4 0.5-0.2 0.3-0.6 0.3-0.3 0.1-0.9 0.1zm-1.7 17.5v-14.9h3.4v14.9zm7.3-7.5q0-2.1 0.5-3.6 0.5-1.5 1.4-2.4 0.9-0.9 2-1.4 1.2-0.4 2.6-0.4 1 0 1.8 0.2 0.9 0.1 1.4 0.2 0.7 0.2 1.2 0.5v2.3q-0.5-0.1-1-0.1-0.5 0-1.1-0.1-0.6 0-1.3 0-1.1 0-1.8 0.2-0.8 0.1-1.3 0.7-0.5 0.5-0.7 1.4-0.2 1-0.2 2.5 0 1.6 0.2 2.5 0.3 1 0.9 1.5 0.5 0.5 1.3 0.7 0.8 0.2 1.9 0.2 0.7 0 1.3 0 0.6-0.1 1-0.1 0.5-0.1 0.9-0.2v2.4q-0.4 0.2-1.1 0.4-0.5 0.2-1.4 0.3-0.8 0.2-1.9 0.2-1.4 0-2.6-0.4-1.2-0.4-2.1-1.3-0.9-0.9-1.4-2.4-0.5-1.5-0.5-3.8zm14.1 3.3q0-1.3 0.4-2.2 0.3-0.9 1-1.4 0.6-0.5 1.5-0.8 0.9-0.2 1.9-0.2 1 0 1.8 0.1 0.8 0.1 1.5 0.2 0.6 0.2 1.2 0.4v-1.4q0-0.5 0-0.9-0.1-0.3-0.1-0.6-0.1-0.3-0.3-0.5-0.1-0.1-0.3-0.3-0.5-0.3-1.3-0.5-0.8-0.1-2.1-0.1-0.8 0-1.5 0-0.8 0.1-1.4 0.2-0.7 0-1.3 0.1v-2.3q0.6-0.3 1.4-0.5 0.7-0.1 1.8-0.2 1-0.2 2.5-0.2 1 0 1.7 0.1 0.8 0.1 1.4 0.3 0.6 0.1 1 0.4 0.5 0.3 0.8 0.8 0.3 0.3 0.5 0.8 0.2 0.4 0.3 0.9 0.2 0.6 0.2 1.3 0.1 0.7 0.1 1.7v9h-2.9l-0.2-1.1q-0.7 0.4-1.4 0.8-0.7 0.3-1.5 0.5-0.9 0.2-2 0.2-1.2 0-2.1-0.2-0.9-0.3-1.5-0.8-0.6-0.6-0.9-1.5-0.2-0.9-0.2-2.1zm3.4 0q0 0.6 0.2 1 0.1 0.3 0.4 0.5 0.3 0.2 0.8 0.3 0.4 0 0.9 0 0.8 0 1.4-0.1 0.7-0.1 1.2-0.3 0.5-0.2 1-0.4v-2.6q-0.4-0.1-1-0.2-0.4 0-1-0.1-0.6 0-1.2 0-0.7 0-1.2 0-0.5 0.1-0.8 0.3-0.4 0.2-0.5 0.6-0.2 0.3-0.2 1zm14 4.2v-22h3.4v22zm19.2 0v-17.1h-6.1v-3.1h15.6v3.1h-6.2v17.1zm11-7.5q0-1.9 0.4-3.3 0.5-1.5 1.3-2.5 0.9-1 2.2-1.5 1.4-0.6 3.2-0.6 1.9 0 3.2 0.6 1.3 0.5 2.2 1.5 0.9 1 1.3 2.5 0.4 1.4 0.4 3.3 0 1.9-0.4 3.4-0.4 1.5-1.3 2.5-0.9 1-2.2 1.5-1.3 0.5-3.2 0.5-1.8 0-3.2-0.5-1.3-0.5-2.2-1.5-0.8-1-1.3-2.5-0.4-1.5-0.4-3.4zm7.1 5.1q1.1 0 1.8-0.3 0.7-0.4 1.1-1 0.4-0.7 0.5-1.6 0.1-0.9 0.1-2.2 0-1.2-0.1-2.1-0.1-1-0.5-1.6-0.4-0.7-1.1-1-0.7-0.3-1.8-0.3-1.1 0-1.8 0.3-0.7 0.3-1.1 1-0.4 0.6-0.5 1.6-0.1 0.9-0.1 2.1 0 1.3 0.1 2.2 0.1 0.9 0.5 1.6 0.4 0.6 1.1 1 0.7 0.3 1.8 0.3zm9.8-5.1q0-1.9 0.4-3.3 0.4-1.5 1.2-2.5 0.9-1 2.2-1.5 1.4-0.6 3.2-0.6 1.9 0 3.2 0.6 1.4 0.5 2.2 1.5 0.9 1 1.3 2.5 0.4 1.4 0.4 3.3 0 1.9-0.4 3.4-0.4 1.5-1.3 2.5-0.8 1-2.2 1.5-1.3 0.5-3.2 0.5-1.8 0-3.2-0.5-1.3-0.5-2.2-1.5-0.8-1-1.2-2.5-0.4-1.5-0.4-3.4zm7 5.1q1.1 0 1.8-0.3 0.7-0.4 1.1-1 0.4-0.7 0.5-1.6 0.2-0.9 0.2-2.2 0-1.2-0.2-2.1-0.1-1-0.5-1.6-0.4-0.7-1.1-1-0.7-0.3-1.8-0.3-1.1 0-1.8 0.3-0.7 0.3-1.1 1-0.3 0.6-0.5 1.6-0.1 0.9-0.1 2.1 0 1.3 0.1 2.2 0.2 0.9 0.5 1.6 0.4 0.6 1.1 1 0.7 0.3 1.8 0.3zm10.8 2.4v-22h3.3v22zm8.1 0v-22h3.4v7.7q0.6-0.3 1.4-0.5 0.7-0.2 1.6-0.4 0.9-0.2 2-0.2 1.5 0 2.4 0.6 1 0.5 1.6 1.5 0.6 1 0.8 2.5 0.3 1.4 0.3 3.3 0 2.2-0.4 3.7-0.3 1.5-1 2.5-0.7 0.9-1.7 1.3-0.9 0.4-2.2 0.4-1.1 0-2-0.2-0.9-0.3-1.6-0.6-0.8-0.3-1.5-0.8l-0.2 1.2zm3.4-11.8v8.4q0.4 0.3 1 0.4 0.5 0.2 1.2 0.3 0.7 0.1 1.5 0.1 0.9 0 1.4-0.2 0.6-0.3 0.9-0.8 0.3-0.6 0.4-1.5 0.1-0.9 0.1-2.3 0-1.5-0.1-2.4-0.1-1-0.4-1.6-0.3-0.5-0.9-0.7-0.6-0.3-1.7-0.3-0.6 0-1.2 0.1-0.6 0.1-1.1 0.2-0.6 0.1-1.1 0.3zm13 4.3q0-1.9 0.4-3.3 0.4-1.5 1.3-2.5 0.8-1 2.2-1.5 1.3-0.6 3.2-0.6 1.8 0 3.1 0.6 1.4 0.5 2.3 1.5 0.8 1 1.2 2.5 0.4 1.4 0.4 3.3 0 1.9-0.4 3.4-0.4 1.5-1.2 2.5-0.9 1-2.3 1.5-1.3 0.5-3.1 0.5-1.9 0-3.2-0.5-1.4-0.5-2.2-1.5-0.9-1-1.3-2.5-0.4-1.5-0.4-3.4zm7.1 5.1q1.1 0 1.8-0.3 0.7-0.4 1-1 0.4-0.7 0.6-1.6 0.1-0.9 0.1-2.2 0-1.2-0.1-2.1-0.2-1-0.6-1.6-0.3-0.7-1-1-0.7-0.3-1.8-0.3-1.1 0-1.8 0.3-0.7 0.3-1.1 1-0.4 0.6-0.6 1.6-0.1 0.9-0.1 2.1 0 1.3 0.1 2.2 0.2 0.9 0.6 1.6 0.4 0.6 1.1 1 0.7 0.3 1.8 0.3zm8.4 2.4l5.5-7.6-5-7.3h4l3.2 4.6 3.2-4.6h3.6l-5 7.2 5.3 7.7h-4l-3.5-5-3.6 5zm25.4 0v-12.1h-2.1v-2.8h2.1v-2.5q0-1.2 0.3-2.1 0.2-0.9 0.7-1.5 0.5-0.6 1.3-0.9 0.8-0.3 2-0.3 0.9 0 1.6 0.1 0.7 0.1 1.2 0.2 0.6 0.1 1 0.2v2.5q-0.4 0-0.8 0-0.4-0.1-0.8-0.1-0.5 0-1 0-0.7 0-1.1 0.1-0.4 0.1-0.6 0.3-0.2 0.2-0.3 0.5-0.1 0.4-0.1 0.8v2.7h3.8v2.8h-3.8v12.1zm8.9-7.5q0-1.9 0.4-3.3 0.5-1.5 1.3-2.5 0.9-1 2.2-1.5 1.4-0.6 3.2-0.6 1.9 0 3.2 0.6 1.3 0.5 2.2 1.5 0.9 1 1.3 2.5 0.4 1.4 0.4 3.3 0 1.9-0.4 3.4-0.4 1.5-1.3 2.5-0.9 1-2.2 1.5-1.3 0.5-3.2 0.5-1.8 0-3.2-0.5-1.3-0.5-2.2-1.5-0.8-1-1.3-2.5-0.4-1.5-0.4-3.4zm7.1 5.1q1.1 0 1.8-0.3 0.7-0.4 1.1-1 0.4-0.7 0.5-1.6 0.2-0.9 0.2-2.2 0-1.2-0.2-2.1-0.1-1-0.5-1.6-0.4-0.7-1.1-1-0.7-0.3-1.8-0.3-1.1 0-1.8 0.3-0.7 0.3-1.1 1-0.4 0.6-0.5 1.6-0.1 0.9-0.1 2.1 0 1.3 0.1 2.2 0.1 0.9 0.5 1.6 0.4 0.6 1.1 1 0.7 0.3 1.8 0.3zm10.8 2.4v-14.9h2.9l0.2 1.6q1.1-0.7 2.5-1.2 1.3-0.5 3-0.6v3.5q-1.8 0.1-3.1 0.2-1.3 0.2-2.2 0.5v10.9zm16.7 0l6.5-20.2h4.5l6.7 20.2h-3.8l-1.7-5.5h-6.9l-1.6 5.5zm6.2-8.5h5.1l-2.5-8.6h-0.1zm14 8.5v-14.9h2.5l0.4 1.1q0.8-0.4 1.7-0.8 0.8-0.2 1.8-0.5 1-0.2 2.2-0.2 2.2 0 3.3 1.1 1 1.2 1 3.7v10.5h-3.3v-10.1q0-0.6-0.1-1-0.1-0.4-0.3-0.7-0.3-0.3-0.8-0.4-0.5-0.1-1.3-0.1-0.8 0-1.5 0.1-0.7 0.1-1.2 0.2-0.6 0.1-1 0.3v11.7zm17-4.2q0-1.3 0.4-2.1 0.4-0.9 1-1.5 0.6-0.5 1.5-0.7 0.9-0.3 1.9-0.3 1 0 1.8 0.1 0.9 0.2 1.5 0.3 0.7 0.1 1.2 0.3v-1.3q0-0.6 0-0.9 0-0.4-0.1-0.7-0.1-0.2-0.3-0.4-0.1-0.2-0.3-0.4-0.5-0.3-1.3-0.4-0.8-0.2-2-0.2-0.8 0-1.6 0.1-0.7 0-1.3 0.1-0.7 0.1-1.4 0.2v-2.4q0.6-0.2 1.4-0.4 0.8-0.2 1.8-0.3 1.1-0.1 2.5-0.1 1 0 1.8 0.1 0.7 0 1.3 0.2 0.6 0.2 1 0.5 0.5 0.3 0.8 0.7 0.3 0.4 0.5 0.8 0.2 0.4 0.4 1 0.1 0.5 0.1 1.2 0.1 0.8 0.1 1.7v9h-2.9l-0.2-1.1q-0.6 0.5-1.4 0.8-0.6 0.3-1.5 0.5-0.9 0.3-1.9 0.3-1.3 0-2.2-0.3-0.9-0.2-1.5-0.8-0.6-0.5-0.8-1.4-0.3-0.9-0.3-2.2zm3.4 0q0 0.6 0.2 1 0.2 0.4 0.5 0.6 0.3 0.2 0.7 0.2 0.4 0.1 1 0.1 0.7 0 1.3-0.2 0.7-0.1 1.2-0.3 0.5-0.1 1-0.4v-2.6q-0.4-0.1-0.9-0.1-0.5-0.1-1.1-0.1-0.5-0.1-1.2-0.1-0.7 0-1.2 0.1-0.5 0-0.8 0.2-0.3 0.2-0.5 0.6-0.2 0.4-0.2 1zm14.1 4.2v-22h3.3v22zm7.5 4.3q0.2 0 0.5 0.1 0.4 0 1.3 0 0.5 0 0.8-0.1 0.4-0.1 0.6-0.3 0.3-0.3 0.5-0.6 0.2-0.3 0.4-0.8l0.9-2.6h-1.4l-5.2-14.9h3.7l3.9 12h0.1l3.8-12h3.7l-6.4 18q-0.4 1.2-0.8 1.9-0.4 0.8-0.9 1.2-0.5 0.5-1.1 0.7-0.5 0.2-1.2 0.2-0.8 0-1.4 0-0.6-0.1-1-0.2-0.4-0.1-0.8-0.3zm15.3-4.8v-2.3q0.6 0.1 1.4 0.2 0.6 0.1 1.5 0.2 0.9 0.1 1.9 0.1 1.2 0 1.9-0.1 0.7-0.1 1-0.3 0.4-0.2 0.5-0.5 0.1-0.4 0.1-0.9 0-0.3-0.1-0.5 0-0.3-0.1-0.5-0.2-0.2-0.4-0.3-0.3-0.1-0.7-0.2l-3.2-0.6q-1-0.2-1.8-0.5-0.7-0.3-1.2-0.8-0.4-0.5-0.6-1.3-0.2-0.7-0.2-1.8 0-2.4 1.6-3.5 1.5-1.2 4.4-1.2 1.1 0 1.9 0.1 0.9 0.1 1.5 0.3 0.7 0.2 1.4 0.4v2.4q-0.7-0.1-1.5-0.2-0.6-0.1-1.4-0.1-0.8-0.1-1.6-0.1-0.9 0-1.5 0.1-0.6 0-1 0.2-0.3 0.2-0.5 0.5-0.1 0.3-0.1 0.7 0 0.4 0 0.6 0.1 0.3 0.3 0.5 0.2 0.2 0.5 0.4 0.3 0.1 0.9 0.2l3.2 0.6q1 0.2 1.6 0.5 0.7 0.3 1.1 0.8 0.4 0.5 0.6 1.3 0.2 0.8 0.2 2 0 1.1-0.3 1.9-0.2 0.9-0.8 1.5-0.7 0.6-1.9 0.9-1.2 0.3-3.2 0.3-1.1 0-2.1-0.1-1-0.2-1.7-0.4-0.9-0.2-1.6-0.5zm17.3-16.9q-0.6 0-1-0.1-0.3-0.1-0.6-0.3-0.2-0.2-0.3-0.6-0.1-0.3-0.1-0.9 0-0.6 0.1-1 0.1-0.3 0.3-0.6 0.3-0.2 0.6-0.3 0.4-0.1 1-0.1 0.6 0 0.9 0.1 0.4 0.1 0.6 0.3 0.3 0.3 0.4 0.6 0 0.4 0 1 0 0.6 0 0.9-0.1 0.4-0.4 0.6-0.2 0.2-0.6 0.3-0.3 0.1-0.9 0.1zm-1.7 17.5v-15h3.4v15zm7.6-0.6v-2.3q0.6 0.1 1.3 0.2 0.7 0.1 1.6 0.2 0.9 0.1 1.9 0.1 1.2 0 1.9-0.1 0.6-0.1 1-0.3 0.3-0.2 0.4-0.5 0.1-0.4 0.1-0.9 0-0.3 0-0.5 0-0.3-0.2-0.5-0.1-0.2-0.4-0.3-0.2-0.1-0.7-0.2l-3.1-0.6q-1.1-0.2-1.8-0.5-0.7-0.3-1.2-0.8-0.4-0.5-0.6-1.3-0.2-0.7-0.2-1.8 0-2.4 1.5-3.5 1.6-1.2 4.5-1.2 1 0 1.9 0.1 0.9 0.1 1.5 0.3 0.7 0.2 1.3 0.4v2.4q-0.6-0.1-1.4-0.2-0.6-0.1-1.4-0.1-0.8-0.1-1.6-0.1-0.9 0-1.5 0.1-0.6 0-1 0.2-0.3 0.2-0.5 0.5-0.1 0.3-0.1 0.7 0 0.4 0 0.6 0.1 0.3 0.3 0.5 0.2 0.2 0.5 0.4 0.3 0.1 0.9 0.2l3.2 0.6q0.9 0.2 1.6 0.5 0.7 0.3 1.1 0.8 0.4 0.5 0.6 1.3 0.2 0.8 0.2 2 0 1.1-0.3 1.9-0.2 0.9-0.8 1.5-0.7 0.6-1.9 0.9-1.3 0.3-3.2 0.3-1.2 0-2.1-0.1-1-0.2-1.7-0.4-0.9-0.2-1.6-0.5zm-372.9 28.1q0-1.9 0.4-3.4 0.4-1.4 1.3-2.4 0.9-1 2.2-1.6 1.4-0.5 3.2-0.5 1.9 0 3.2 0.5 1.3 0.6 2.2 1.6 0.9 1 1.3 2.4 0.4 1.5 0.4 3.4 0 1.9-0.4 3.4-0.4 1.4-1.3 2.5-0.9 1-2.2 1.5-1.3 0.5-3.2 0.5-1.8 0-3.2-0.5-1.3-0.5-2.2-1.5-0.9-1.1-1.3-2.5-0.4-1.5-0.4-3.4zm7.1 5.1q1.1 0 1.8-0.4 0.7-0.3 1.1-0.9 0.4-0.7 0.5-1.6 0.1-1 0.1-2.2 0-1.2-0.1-2.2-0.1-0.9-0.5-1.5-0.4-0.7-1.1-1-0.7-0.4-1.8-0.4-1.1 0-1.8 0.4-0.7 0.3-1.1 1-0.4 0.6-0.5 1.5-0.1 1-0.1 2.2 0 1.2 0.1 2.2 0.1 0.9 0.5 1.6 0.4 0.6 1.1 0.9 0.7 0.4 1.8 0.4zm11.8 2.4v-12.2h-2.1v-2.8h2.1v-2.5q0-1.1 0.2-2 0.2-0.9 0.7-1.5 0.5-0.6 1.3-0.9 0.8-0.3 2-0.3 0.9 0 1.6 0 0.7 0.1 1.2 0.2 0.6 0.2 1.1 0.3v2.5q-0.4 0-0.8-0.1-0.4 0-0.9 0-0.5 0-1 0-0.6 0-1 0.1-0.4 0.1-0.6 0.3-0.3 0.2-0.4 0.5-0.1 0.3-0.1 0.8v2.6h3.9v2.8h-3.9v12.2zm21.1 0v-17.1h-6v-3.1h15.5v3.1h-6.1v17.1zm12 0v-15h2.9l0.2 1.7q1.1-0.8 2.5-1.2 1.4-0.5 3.1-0.6l-0.1 3.5q-1.7 0-3 0.2-1.3 0.1-2.2 0.5v10.9zm13.5-17.5q-0.6 0-1-0.1-0.4-0.1-0.6-0.3-0.2-0.2-0.3-0.6-0.1-0.3-0.1-0.9 0-0.6 0.1-1 0.1-0.3 0.3-0.6 0.2-0.2 0.6-0.3 0.4-0.1 1-0.1 0.5 0 0.9 0.1 0.4 0.1 0.6 0.3 0.2 0.3 0.3 0.6 0.1 0.4 0.1 1 0 0.6-0.1 0.9-0.1 0.4-0.3 0.6-0.2 0.2-0.6 0.3-0.4 0.1-0.9 0.1zm-1.7 17.5v-15h3.3v15zm7.8-4.3q0-1.2 0.4-2.1 0.3-0.9 1-1.4 0.6-0.6 1.5-0.8 0.9-0.3 1.9-0.3 1 0 1.8 0.2 0.9 0.1 1.5 0.2 0.7 0.2 1.2 0.4v-1.4q0-0.5 0-0.9-0.1-0.4-0.1-0.6-0.1-0.3-0.3-0.5-0.1-0.2-0.3-0.3-0.5-0.4-1.3-0.5-0.8-0.1-2-0.1-0.9 0-1.6 0-0.8 0.1-1.4 0.1-0.7 0.1-1.3 0.2v-2.4q0.6-0.2 1.4-0.4 0.7-0.1 1.8-0.3 1.1-0.1 2.5-0.1 1 0 1.7 0.1 0.8 0 1.4 0.2 0.6 0.2 1 0.5 0.5 0.3 0.8 0.7 0.3 0.4 0.5 0.8 0.2 0.4 0.3 1 0.2 0.5 0.2 1.3 0.1 0.7 0.1 1.6v9.1h-2.9l-0.2-1.1q-0.7 0.4-1.4 0.7-0.7 0.3-1.5 0.6-0.9 0.2-2 0.2-1.2 0-2.1-0.2-0.9-0.3-1.5-0.9-0.6-0.5-0.9-1.4-0.2-0.9-0.2-2.2zm3.4 0q0 0.7 0.2 1 0.1 0.4 0.4 0.6 0.3 0.2 0.8 0.2 0.4 0.1 1 0.1 0.7 0 1.3-0.1 0.7-0.2 1.2-0.3 0.5-0.2 1-0.5v-2.6q-0.4 0-1-0.1-0.4-0.1-1-0.1-0.6-0.1-1.2-0.1-0.7 0-1.2 0.1-0.5 0.1-0.8 0.3-0.4 0.2-0.5 0.5-0.2 0.4-0.2 1zm14 4.3v-15h2.5l0.4 1.1q0.8-0.4 1.7-0.7 0.8-0.3 1.8-0.6 1.1-0.2 2.2-0.2 2.3 0 3.3 1.2 1.1 1.1 1.1 3.6v10.6h-3.4v-10.2q0-0.6-0.1-1 0-0.4-0.3-0.7-0.3-0.3-0.7-0.4-0.5-0.1-1.3-0.1-0.9 0-1.6 0.1-0.7 0.1-1.2 0.2-0.5 0.2-1 0.3v11.8zm18.8 6.2v-2.5q0.5 0.1 1.1 0.2 0.6 0.1 1.4 0.1 0.8 0.1 1.8 0.1 1.2 0 1.9-0.1 0.8-0.1 1.2-0.3 0.4-0.3 0.6-0.7 0.1-0.4 0.1-1v-2.6q-0.6 0.3-1.3 0.5-0.7 0.2-1.5 0.3-0.7 0.2-1.6 0.2-1.5 0-2.6-0.4-1-0.5-1.7-1.4-0.7-0.9-1-2.4-0.3-1.6-0.3-3.8 0-1.8 0.3-3.2 0.4-1.5 1-2.4 0.7-1 1.7-1.6 1.1-0.5 2.4-0.5 1.1 0 2 0.2 1 0.2 1.6 0.5 0.8 0.3 1.4 0.7l0.4-1.1h2.6v17.2q0 1.4-0.4 2.3-0.4 0.9-1.2 1.5-0.8 0.6-1.9 0.8-1.2 0.2-2.8 0.2-1 0-1.9-0.1-0.9-0.1-1.7-0.3-0.9-0.2-1.6-0.4zm4.9-8.9q0.6 0 1.2 0 0.5-0.1 1-0.1 0.5-0.1 1-0.2v-8.6q-0.5-0.2-1.2-0.3-0.5-0.2-1.2-0.3-0.7-0.1-1.4-0.1-0.8 0-1.3 0.2-0.5 0.3-0.8 0.9-0.3 0.5-0.5 1.5-0.1 0.9-0.1 2.3 0 1.3 0.1 2.2 0.1 0.9 0.4 1.4 0.3 0.6 1 0.9 0.6 0.2 1.8 0.2zm11.3-1.7v-10.6h3.3v10.2q0 0.6 0.1 1 0.1 0.4 0.3 0.7 0.3 0.3 0.8 0.4 0.5 0.1 1.3 0.1 0.8 0 1.5-0.1 0.7-0.1 1.2-0.2 0.6-0.1 1.1-0.3v-11.8h3.3v15h-2.5l-0.4-1.1q-0.7 0.4-1.7 0.7-0.8 0.3-1.8 0.6-1 0.2-2.2 0.2-2.2 0-3.3-1.2-1-1.1-1-3.6zm17.6 4.4v-22h3.4v22zm7.5-4.3q0-1.2 0.3-2.1 0.4-0.9 1.1-1.4 0.6-0.6 1.5-0.8 0.9-0.3 1.9-0.3 1 0 1.8 0.2 0.8 0.1 1.4 0.2 0.7 0.2 1.3 0.4v-1.4q0-0.5 0-0.9-0.1-0.4-0.2-0.6 0-0.3-0.2-0.5-0.1-0.2-0.3-0.3-0.5-0.4-1.3-0.5-0.8-0.1-2.1-0.1-0.8 0-1.5 0-0.8 0.1-1.4 0.1-0.7 0.1-1.3 0.2v-2.4q0.6-0.2 1.4-0.4 0.7-0.1 1.8-0.3 1-0.1 2.5-0.1 1 0 1.7 0.1 0.8 0 1.4 0.2 0.5 0.2 1 0.5 0.4 0.3 0.8 0.7 0.3 0.4 0.5 0.8 0.2 0.4 0.3 1 0.1 0.5 0.2 1.3 0 0.7 0 1.6v9.1h-2.8l-0.3-1.1q-0.6 0.4-1.3 0.7-0.7 0.3-1.6 0.6-0.8 0.2-1.9 0.2-1.2 0-2.2-0.2-0.9-0.3-1.4-0.9-0.6-0.5-0.9-1.4-0.2-0.9-0.2-2.2zm3.4 0q0 0.7 0.2 1 0.1 0.4 0.4 0.6 0.3 0.2 0.7 0.2 0.5 0.1 1 0.1 0.8 0 1.4-0.1 0.6-0.2 1.1-0.3 0.6-0.2 1.1-0.5v-2.6q-0.5 0-1-0.1-0.4-0.1-1-0.1-0.6-0.1-1.2-0.1-0.7 0-1.2 0.1-0.5 0.1-0.9 0.3-0.3 0.2-0.4 0.5-0.2 0.4-0.2 1zm15.1 1.2v-9.1h-2.2v-2.8h2.2v-3.1l3.3-0.8v3.9h3.8v2.8h-3.8v8q0 0.6 0.1 0.9 0.1 0.4 0.3 0.6 0.2 0.2 0.6 0.2 0.3 0.1 0.9 0.1 0.6 0 1 0 0.5 0 0.8-0.1 0.4 0 0.6 0v2.2q-0.5 0.2-1 0.4-0.5 0.1-1.2 0.2-0.7 0.1-1.4 0.1-1.1 0-1.9-0.2-0.8-0.2-1.2-0.6-0.5-0.5-0.7-1.1-0.2-0.7-0.2-1.6zm10.1-4.6q0-2.3 0.6-3.8 0.6-1.5 1.7-2.4 1-0.8 2.2-1.2 1.3-0.3 2.7-0.3 1.7 0 2.8 0.5 1.2 0.4 1.8 1.3 0.7 0.8 1 2 0.2 1.2 0.2 2.6 0 0.7 0 1.4-0.1 0.7-0.2 1.4h-9.3q0 1 0.2 1.7 0.2 0.7 0.7 1.1 0.5 0.5 1.2 0.7 0.8 0.1 2 0.1 1 0 1.9 0 0.8-0.1 1.5-0.1 0.7-0.1 1.4-0.2v2.3q-0.8 0.3-1.6 0.5-0.7 0.2-1.7 0.4-1 0.1-2 0.1-1.7 0-3-0.4-1.3-0.4-2.2-1.4-0.9-0.9-1.4-2.5-0.5-1.5-0.5-3.8zm3.5-1h6.4v-0.5q0-0.9-0.1-1.5-0.1-0.6-0.4-1.1-0.3-0.4-0.9-0.6-0.6-0.2-1.6-0.2-1.1 0-1.8 0.3-0.6 0.2-1 0.7-0.4 0.5-0.5 1.2-0.1 0.8-0.1 1.7zm17.2 9.1q-1.3 0-2.3-0.4-0.9-0.4-1.5-1.3-0.7-1-1-2.5-0.4-1.5-0.4-3.6 0-2.2 0.3-3.7 0.4-1.5 1.1-2.5 0.6-0.9 1.6-1.4 0.9-0.4 2.1-0.4 1.1 0 2 0.2 0.9 0.1 1.6 0.3 0.8 0.3 1.4 0.6v-7.7h3.4v22h-2.9l-0.2-1.2q-0.7 0.4-1.5 0.8-0.7 0.3-1.6 0.6-1 0.2-2.1 0.2zm1.2-3q0.7 0 1.4-0.1 0.6-0.1 1.2-0.3 0.6-0.1 1.1-0.3v-8.6q-0.6-0.1-1.2-0.2-0.6-0.1-1.3-0.2-0.7-0.1-1.5-0.1-0.8 0-1.3 0.3-0.4 0.2-0.7 0.8-0.3 0.6-0.4 1.6-0.1 1-0.1 2.5 0 1.2 0.1 2.1 0.1 0.9 0.4 1.4 0.3 0.6 0.8 0.9 0.6 0.2 1.5 0.2zm19.2 2.6v-20.2h5.9l3.8 12.1h0.1l3.8-12.1h5.8v20.2h-3.3v-17.1h-0.1l-0.4 1.3q-0.2 0.5-0.4 1.1-0.1 0.6-0.3 1l-2.6 8.2h-5.1l-2.6-8.2q-0.2-0.4-0.4-1-0.1-0.6-0.3-1.1-0.2-0.6-0.4-1.3h-0.1v17.1zm23.8-4.3q0-1.2 0.4-2.1 0.4-0.9 1-1.4 0.6-0.6 1.5-0.8 0.9-0.3 1.9-0.3 1 0 1.8 0.2 0.9 0.1 1.5 0.2 0.7 0.2 1.2 0.4v-1.4q0-0.5 0-0.9 0-0.4-0.1-0.6-0.1-0.3-0.3-0.5-0.1-0.2-0.3-0.3-0.5-0.4-1.3-0.5-0.7-0.1-2-0.1-0.8 0-1.6 0-0.7 0.1-1.3 0.1-0.7 0.1-1.4 0.2v-2.4q0.6-0.2 1.4-0.4 0.8-0.1 1.8-0.3 1.1-0.1 2.5-0.1 1 0 1.8 0.1 0.7 0 1.3 0.2 0.6 0.2 1 0.5 0.5 0.3 0.8 0.7 0.3 0.4 0.5 0.8 0.2 0.4 0.4 1 0.1 0.5 0.1 1.3 0.1 0.7 0.1 1.6v9.1h-2.9l-0.2-1.1q-0.6 0.4-1.4 0.7-0.6 0.3-1.5 0.6-0.9 0.2-1.9 0.2-1.3 0-2.2-0.2-0.9-0.3-1.5-0.9-0.6-0.5-0.8-1.4-0.3-0.9-0.3-2.2zm3.5 0q0 0.7 0.1 1 0.2 0.4 0.5 0.6 0.3 0.2 0.7 0.2 0.4 0.1 1 0.1 0.7 0 1.3-0.1 0.7-0.2 1.2-0.3 0.5-0.2 1-0.5v-2.6q-0.4 0-0.9-0.1-0.5-0.1-1.1-0.1-0.5-0.1-1.2-0.1-0.7 0-1.2 0.1-0.5 0.1-0.8 0.3-0.3 0.2-0.5 0.5-0.1 0.4-0.1 1zm14 4.3v-15h2.4l0.4 1.1q0.8-0.4 1.7-0.7 0.8-0.3 1.9-0.6 1-0.2 2.2-0.2 2.2 0 3.2 1.2 1.1 1.1 1.1 3.6v10.6h-3.4v-10.2q0-0.6-0.1-1 0-0.4-0.3-0.7-0.2-0.3-0.7-0.4-0.5-0.1-1.3-0.1-0.9 0-1.6 0.1-0.6 0.1-1.1 0.2-0.6 0.2-1.1 0.3v11.8zm19.6-17.5q-0.6 0-1-0.1-0.4-0.1-0.6-0.3-0.2-0.2-0.3-0.6-0.1-0.3-0.1-0.9 0-0.6 0.1-1 0.1-0.3 0.3-0.6 0.2-0.2 0.6-0.3 0.4-0.1 1-0.1 0.5 0 0.9 0.1 0.4 0.1 0.6 0.3 0.2 0.3 0.3 0.6 0.1 0.4 0.1 1 0 0.6-0.1 0.9-0.1 0.4-0.3 0.6-0.2 0.2-0.6 0.3-0.4 0.1-0.9 0.1zm-1.7 17.5v-15h3.3v15zm9.4 0v-12.2h-2.1v-2.8h2.1v-2.5q0-1.1 0.2-2 0.2-0.9 0.7-1.5 0.5-0.6 1.3-0.9 0.8-0.3 2-0.3 0.9 0 1.6 0 0.7 0.1 1.2 0.2 0.6 0.2 1 0.3v2.5q-0.3 0-0.8-0.1-0.3 0-0.8 0-0.5 0-1 0-0.6 0-1 0.1-0.4 0.1-0.7 0.3-0.2 0.2-0.3 0.5-0.1 0.3-0.1 0.8v2.6h3.8v2.8h-3.8v12.2zm8.9-7.5q0-1.9 0.5-3.4 0.4-1.4 1.2-2.4 0.9-1 2.2-1.6 1.4-0.5 3.2-0.5 1.9 0 3.2 0.5 1.4 0.6 2.2 1.6 0.9 1 1.3 2.4 0.4 1.5 0.4 3.4 0 1.9-0.4 3.4-0.4 1.4-1.3 2.5-0.8 1-2.2 1.5-1.3 0.5-3.2 0.5-1.8 0-3.2-0.5-1.3-0.5-2.2-1.5-0.8-1.1-1.2-2.5-0.5-1.5-0.5-3.4zm7.1 5.1q1.1 0 1.8-0.4 0.7-0.3 1.1-0.9 0.4-0.7 0.5-1.6 0.2-1 0.2-2.2 0-1.2-0.2-2.2-0.1-0.9-0.5-1.5-0.4-0.7-1.1-1-0.7-0.4-1.8-0.4-1.1 0-1.8 0.4-0.7 0.3-1.1 1-0.3 0.6-0.5 1.5-0.1 1-0.1 2.2 0 1.2 0.1 2.2 0.2 0.9 0.5 1.6 0.4 0.6 1.1 0.9 0.7 0.4 1.8 0.4zm10.8 2.4v-22h3.3v22zm12.3 0.4q-1.2 0-2.2-0.4-0.9-0.4-1.6-1.3-0.6-1-0.9-2.5-0.4-1.5-0.4-3.6 0-2.2 0.3-3.7 0.4-1.5 1-2.5 0.7-0.9 1.7-1.4 0.9-0.4 2.1-0.4 1.1 0 2 0.2 0.9 0.1 1.6 0.3 0.8 0.3 1.4 0.6v-7.7h3.3v22h-2.9l-0.2-1.2q-0.6 0.4-1.4 0.8-0.7 0.3-1.7 0.6-0.9 0.2-2.1 0.2zm1.2-3q0.8 0 1.4-0.1 0.7-0.1 1.2-0.3 0.7-0.1 1.2-0.3v-8.6q-0.6-0.1-1.3-0.2-0.5-0.1-1.2-0.2-0.7-0.1-1.5-0.1-0.8 0-1.3 0.3-0.5 0.2-0.7 0.8-0.3 0.6-0.4 1.6-0.1 1-0.1 2.5 0 1.2 0.1 2.1 0.1 0.9 0.4 1.4 0.3 0.6 0.8 0.9 0.5 0.2 1.4 0.2zm11.1 2v-2.3q0.7 0.1 1.4 0.2 0.7 0.1 1.6 0.2 0.8 0.1 1.9 0.1 1.2 0 1.9-0.1 0.6-0.1 1-0.3 0.3-0.2 0.4-0.5 0.1-0.4 0.1-0.9 0-0.3 0-0.5 0-0.3-0.2-0.5-0.1-0.2-0.4-0.3-0.2-0.1-0.7-0.2l-3.1-0.6q-1.1-0.2-1.8-0.5-0.8-0.3-1.2-0.8-0.4-0.5-0.6-1.3-0.2-0.7-0.2-1.8 0-2.4 1.5-3.5 1.6-1.2 4.5-1.2 1 0 1.9 0.1 0.8 0.1 1.5 0.3 0.7 0.2 1.3 0.4v2.4q-0.7-0.1-1.4-0.2-0.6-0.1-1.4-0.1-0.8-0.1-1.6-0.1-0.9 0-1.5 0.1-0.7 0-1 0.2-0.4 0.2-0.5 0.5-0.1 0.3-0.1 0.7 0 0.4 0 0.6 0.1 0.3 0.3 0.5 0.1 0.2 0.5 0.4 0.3 0.1 0.8 0.2l3.3 0.6q0.9 0.2 1.6 0.5 0.6 0.3 1.1 0.8 0.4 0.5 0.6 1.3 0.1 0.8 0.1 2 0 1.1-0.2 1.9-0.2 0.9-0.9 1.5-0.6 0.6-1.9 0.9-1.2 0.3-3.2 0.3-1.1 0-2-0.1-1-0.2-1.8-0.4-0.8-0.2-1.6-0.5z"/>
		<path id="STATM" fill-rule="evenodd" class="s0" d="m8.1 106.8q3.5 0.9 9.1 1.7 5.6 0.8 14.1 0.8 11 0 17.9-1.8 7-1.8 10.9-5.6 4-3.8 5.4-9.7 1.4-6 1.4-14.4 0-5.3-0.4-9.4-0.5-4.1-1.4-7.1-1-3.1-2.6-5.3-1.5-2.2-3.7-3.8-2.2-1.7-5.2-2.8-2.9-1.3-6.8-2.4l-19.8-5.7q-2.9-0.9-4.7-1.9-1.7-1-2.6-2.4-0.9-1.4-1.2-3.2-0.2-1.9-0.2-4.2 0-4.3 0.9-6.8 1-2.6 3.4-4 2.4-1.4 6.6-1.8 4.2-0.5 10.7-0.5 4.2 0 8 0.3 4 0.3 7.2 0.6 3.6 0.4 6.9 0.8v-13.5q-3.6-1.2-8-2.1-3.7-0.8-8.9-1.5-5.1-0.7-11.4-0.7-7.4 0-13.5 1.7-6.1 1.8-10.4 5.4-4.3 3.7-6.6 9.4-2.3 5.7-2.3 13.4 0 6.6 0.9 11.5 1 4.8 3.2 8.3 2.2 3.4 5.7 5.7 3.5 2.2 8.5 3.5l21.4 5.6q3 0.8 4.8 2.1 1.7 1.3 2.7 3 0.9 1.8 1.2 4 0.3 2.2 0.3 4.9 0 3.5-0.7 6.1-0.6 2.7-2.8 4.5-2.2 1.8-6.4 2.7-4.1 0.9-11.2 0.9-5.4 0-10.2-0.2-4.8-0.3-8.5-0.6-4.3-0.4-8.1-0.9v12.9q2.4 1.4 6.4 2.5zm115.8 0.2v-88.3h31.6v-16.2h-80.4v16.2h31.4v88.3zm52.8 0l8.4-28.3h35.6l8.8 28.3h19.4l-34.2-104.5h-23.3l-33.9 104.5zm26-88.3h0.2l12.9 44.2h-26zm96.8 88.3v-88.4h31.7v-16.2h-80.4v16.2h31.3v88.4zm63.5 0v-88.2h0.4q1.1 3.3 2 6.5 0.8 2.7 1.8 5.7 0.9 2.9 1.7 5.1l13.7 42.5h26.3l13.5-42.2q0.7-2.2 1.7-5.2 0.9-3 1.7-5.8l2-6.6h0.5v88.2h17.5v-104.6h-30l-20 63h-0.6l-19.3-63h-30.5v104.6z"/>
		<path id="Shape 1" class="s0" d="m0 114h449v11h-449z"/>
	</g>
</svg>