<svg version="1.2" xmlns="http://www.w3.org/2000/svg" viewBox="0 0 200 265" width="200" height="265">
	<title>SVALW-svg</title>
	<style>
		.s0 { fill: #ffffff } 
		.s1 { fill: #ff0000 } 
	</style>
	<g id="Folder 1">
		<path id="Layer" class="s0" d="m196.6 12.1c1.3-1.7 4.3 1.5 2.8 2.8-3 2.3-5.7 5-8.1 8.2-0.4 0.6-7.4 0.4-7.4-0.8 1.1-2.1 2.3-3.2 5.1-3.9 3.3-1.9 5.4-4.1 7.6-6.3z"/>
		<path id="Layer" class="s0" d="m148.7 203.8c-0.3 0.8 1.6 2.8 1.8 2 0.9-4 1.7-6.7 3.2-9.5 0.5-1-0.8-1.8-1.4-0.7-1.4 2.5-2.4 4.5-3.6 8.2z"/>
		<path id="Layer" class="s0" d="m79.6 258.3c-4.3-2.9-4.9 2.4-4.8 3.9 0.2 1.5 4.5 3.7 5.4 2.2 0.7-1.4 0.6-5.3-0.6-6.1z"/>
		<path id="Layer" class="s0" d="m155.6 91.9c-2.4-2.4-3.5 1.2-2.3 3.1l2 2.8c1 1.4 4.1-1.7 2.7-3.1z"/>
		<path id="Layer" class="s0" d="m157.8 23.6c1.4-0.6 2.1-0.2 2.7 0.9 0.6 1.2-2.2 3.9-3.3 2.8-1-1.5-0.7-2.8 0.6-3.7z"/>
		<path id="Layer" class="s0" d="m140.6 10.6c1.3 1.3-0.9 2.4-1.6 1.7-0.9-1.9 1.3-2.3 1.6-1.7z"/>
		<path id="Layer" class="s0" d="m137.2 10.2c-0.4-0.4-1.2 0.3-0.8 0.9 0.6 0.4 1.2-0.7 0.8-0.9z"/>
		<path id="Layer" class="s0" d="m137.9 12.5c-0.4-0.6-2.4 0.5-1.9 1.4 0.2 0.4 2.7-0.4 1.9-1.4z"/>
		<path id="Layer" class="s0" d="m78.2 19.3c-1.4-1-3.8 1.9-2 3l1 1c1.6 1.8 3.8-1.3 2.6-2.7z"/>
		<path id="Layer" class="s0" d="m96.1 0.2c1-0.8 3.2 1.4 2.2 2.5-0.8 0.7-3-1.6-2.2-2.5z"/>
		<path id="Layer" class="s0" d="m99.6 4.6c-0.6-1.4 2.1-2.7 2.9-2 0.7 0.8-1.8 2.8-2.9 2z"/>
		<path id="Layer" class="s0" d="m96.6 3.7c-1.2 0-1.2 1.5-0.6 1.8 0.5 0.3 1.3-1.6 0.6-1.8z"/>
		<path id="Layer" class="s0" d="m172.5 87.5c0.3-0.6 2.6 0.1 2.7 1.1 0 0.5-0.1 0.7-0.1 1.1-0.7 2.5-0.5-0.8-1-0.8-1.2 0.1-1.8-0.5-1.6-1.4z"/>
		<path id="Layer" class="s0" d="m166.5 85.3c-1.3 1.6 1.6 3.1 2.4 2l5-4.4c1-0.3 2.1 0.1 2.9 0.9 2.9 1.6 3.8 0.4 3.8-0.6-0.2-0.9-0.9-1.6-5.2-1-0.6-0.9-1-3.1-3.3-1.4z"/>
		<path id="Layer" class="s0" d="m181.7 80.9c0.5 0.6 0.4 1.9-1 1.8q-0.2-1.5 1-1.8z"/>
		<path id="Layer" class="s0" d="m174.2 83.6c0.5-0.4 1.3 0.5 0.9 0.9-0.4 0.3-1.2-0.7-0.9-0.9z"/>
		<path id="Layer" class="s0" d="m50.9 202.9c-1.1 0.4 0.4 3.5 1.2 2.9 1.8-0.9 0.2-3.3-1.2-2.9z"/>
		<path id="Layer" class="s0" d="m126.5 165.5c-0.9-0.4-2.7 1.1-1.9 2.1 1.3 1.1 2.5-1.6 1.9-2.1z"/>
		<path id="Layer" class="s0" d="m122.2 171.9c-0.4 0.4 0.8 1.3 1.1 0.8 0.3-0.4 0.2-1.1-1.1-0.8z"/>
		<path id="Layer" class="s0" d="m123.2 173.7c-0.3-0.4-5.1 1.7-4.6 2.7 0.4 0.5 5-2.4 4.6-2.7z"/>
		<path id="Layer" class="s0" d="m109 171.8c-0.6 0.4 0.4 1.5 1.8 1.3 0.6-0.5-1.1-1.6-1.8-1.3z"/>
		<path id="Layer" class="s0" d="m124.9 11.3c0.6 0.1 1.6 0.9 0 1.2-0.4 0.2-1.4 0.6-1.6 0 0-1.4 1.2-1.5 1.6-1.2z"/>
		<path id="Layer" class="s0" d="m10.3 40c0.7 0 2 4.4 0 2.9-1.4-1.1-0.8-2.6 0-2.9z"/>
		<path id="Layer" class="s0" d="m10.1 44.8c3.4 0.1 3 2.6 2.3 2.2-0.9-0.1-1.6 0-2.3 0.9-0.5 0.4-1.1-3.2 0-3.1z"/>
		<path id="Layer" class="s0" d="m125.6 13.8c0.6-0.2 0.4 3.1-0.3 2.7-1.2-0.2-0.2-2.8 0.3-2.7z"/>
		<path id="Layer" class="s0" d="m87.6 67.2c-0.1-1.3 4.6-1.3 4.2 0.1 0.1 1.6-4.2 1.2-4.2-0.1z"/>
		<path id="Layer" class="s0" d="m100.8 70.5c0.5-0.9 1.5-0.1 1.4 0.7-0.2 0.6-1.7 0.2-1.4-0.7z"/>
		<path id="Layer" class="s0" d="m94.5 79.3c-3.3 0.1-1.9 3.9-0.8 4 4.4 0.2 4.6-0.4 4.7-2.1 0.1-1-2.6-1.9-3.9-1.9z"/>
		<path id="Layer" class="s0" d="m103.2 81.9c-1.6 2.9-2.5 1.3-3.5 0.1-0.4-0.6 1.1-0.7 1.4 0.1 0.6 0.8 2.4-1.1 2.1-0.2z"/>
		<path id="Layer" class="s0" d="m97.5 67c0.4 0-0.3 2.4-1.2 1.9-0.8-0.4 0.4-2.2 1.2-1.9z"/>
		<path id="Layer" class="s0" d="m86.6 63.4c1.7-0.2 2.6 0.1 1.4 0.9-1.1 0.8-1.9-0.8-1.4-0.9z"/>
		<path id="Layer" class="s0" d="m90.5 70.8c0.3 2.7 1.1 2.6 2 2.2 1.5-0.5 1.1-1.2 0.5-1.5-0.8-0.4-2.7-1.7-2.5-0.7z"/>
		<path id="Layer" class="s0" d="m107.3 181.5c-1-0.7 3.6-2 4.4 0 0.6 1.5-2.5 1.5-4 3-1.4 1.2-3.2 3-4 3-0.9 0.1 0.6-1.1 2.7-2.6 1.2-1.1 3-2.2 0.9-3.4z"/>
		<path id="Layer" class="s0" d="m110.2 178c0.4-0.3 3.5 2.6 2.7 2.6-1.5-0.3-3.1-2.5-2.7-2.6z"/>
		<path id="Layer" class="s0" d="m87.5 68.8c-1-0.2-1.2 0.3-1.1 1.1 0.1 0.2 0.1 0.7 0.8-0.4 0.4-0.3 0.6-0.8 0.3-0.7z"/>
		<path id="Layer" class="s0" d="m88.9 69.9c-0.8-0.2-0.8 1-0.5 1.2 0.3 0.3 1-1.2 0.5-1.2z"/>
		<path id="Layer" class="s0" d="m100 87.4c1.4-0.3 1.5 0.7 1.2 1.3-0.1 0.4-1.7-0.9-1.2-1.3z"/>
		<path id="Layer" class="s0" d="m107.1 87.4c-0.9 1-4.1 2.1-4.3 1.6-0.3-0.6 0.9-1.2 1.7-1.2 0.8-0.5 2.7-0.9 2.6-0.4z"/>
		<path id="Layer" class="s0" d="m102.6 85.7c-0.5 0.7 0 0.8 0.5 0.5 0.3-0.2 0-0.7-0.5-0.5z"/>
		<path id="Layer" class="s0" d="m106.2 85.4c0.9-0.9 2 0.5 1.8 0.8-0.2 0.5-2.1-0.4-1.8-0.8z"/>
		<path id="Layer" class="s0" d="m151.1 25.7c4.3 0.7 2.8 2 2.4 3.3q-1.2 1.8 0.2 4.5c1 2.3 0.6 4.7-1.5 7.3-3.6 2-3.3 6.5-7.5 8.6-1.1 1.2-0.9 3.6-0.9 5.9 0.2 4.3-0.1 8.5-2.6 11.4-1.7 2.7-3.3 1.8-5 0.9-1.4-2.1-4.6-1-4.8 0.8-2.2 5.8-5.1 7.5-8.4 6.7-6.4-1.6-7.5-4.3-6.1-9.1 0.6-1.1 0.5-3.3-1.3-1.3-1.2 1.5-2.8 1.8-4.6 1.6l-3.7-0.3c-2-0.1-3.9-0.1-5.5 0.5-2.7 1.3-2.9 0.5-3.3-0.2-0.4-1.6-2.1-2-3.9-2.2-4.4-1.1-5-4.7-5.1-8.6 0.5-2.9 3.2-1 4.8 0.8 1.5 0.9 3.1 1.3 4.9 0.7 0.7 1.2 1.4 0.6 2.2 0-3.2-1.8-3.3-3-4-4.3-0.1-2.8 4.3-2.2 8.1-2 1.5-0.8 4.8-2.8 4.2-3-1.1-0.2-2.2-0.5-2.2-1.7-0.2-1.8-3.1-1.2-4.6 0-1 0.9-6.4 1-9.9 0.9-2 2.1-4.6 2.8-7.4 3.2-1-0.6-1.9 0-2.9 0.2-1.6 0.5-3 0.5-3.9-2.4-0.5-1.6-1.2-3.2-2.4-4.5-1.5-1.4-0.7-3.7-0.2-5.8 1.5 1.6 2.4 0.2 3.5-0.7 1.7-1.2 2.2-2.1-1.3-2.3-2.5-0.5-4.7-1.7-6.4-4.6-1-2.1 2-4.7 3.7-3.6 2 1 3 0.6 4 0 0.9-0.8 2.4-0.1 2.4 0.8q0.3 4.8 4.1 3.1c1.8-1.2-1-3.2-2.5-4.9-0.9-1.8-1.5-3.5-0.5-4.6 1.3-1.9 2.4 0.4 2.6 1.5 0.5 2.4 2 2.8 3.3 3.6-0.5-2.4 0.1-4.1 0.6-6 0.6-1.8 0-3-2.8-2.8-1-0.2-0.4-3.6 2.6-4.1 0.8 0.4 1.7 0.6 2.5 0.3-3-1.6-0.5-2 0-1.9 3.4-0.2-0.1 2.4-0.3 3.7-0.1 0.8 1.6 1.5 3 1.9 1.3 0.2 1 1.8 0.7 3.4 2.1 1.3 2.4 2.4 2.6 3.5 0.5 3.7 1.8 2.3 2.9 1.4 1.1-1.3 2.9-1.8 4.7-2.2 2.2 1.2-0.1 3.7-0.9 5.8 2.9-0.7 3.4 0.8 4.3 1.9 0.7 1.3 0.6 3.3 0.8 5 0.4 1.3 2.8-1.7 2.4-3.3-0.9-2.8-0.5-5-0.4-7.4l0.3-3.8c-1.3-1.8-0.8-4.5 1.2-2.7-0.2-0.9 0.5-1.4 1-2l-0.4-2.4c-1.6-1.9 0.3-2 2.1-1 1 0.5 2.3 1.4 2 2.2-0.4 1.3-1.3 2.7 0.1 3.6 1.5 1.3 1.8 2.6 0 4.1-1.3 1.3-2.5 3.9-0.9 6.1 0.5 0.5 2-1.2 3.2-1.5 2.4 0 2.6-1.7 2.3-3.8-0.3-2.1 1.5-2.3 3.8-2.1l0.7-2.1c-1.1-0.2-3.3-0.3-2.9-1 0.6-1.4 2.3-0.9 4.2-0.1 0.6 0.4-1.2 1.5-1.2 3.2l2.3-0.2c1.9-1.9 1.1-3.4 1-4.9 0.9 1.5 1.8 3-0.6 4.9 1.7-1 2.2 0 2.6 1.2 0.8-1.2 2.3-0.2 3.7 0.7 2.1 1.3 3.7 1.5 5.5 2z"/>
		<path id="Layer" class="s0" d="m96.4 122.4c-0.5-0.3 2.3-0.6 2.7-2.7 0.6-0.7 0.8-1.3 0-1.6-0.3-0.5 0.7-1 0-1.3-1.2-1-2.3-1.9-1.4-3.2q0.6-1.2-0.6-1.9c-1.4-0.7-2.7-1.4-3.6-2.9 1.8-1.9 4.2-3.1 7.6-3.2 1.2 0 2.5-2.9 3.7-2.1 0.8 1.9 1.6 0.7 2.3-0.3 0.9-1.6 3.1 0 4.1 0.8 1.7 1 1 4.1 2.1 6.1 0.8 1.4 0.4 2.9 0 4.5-0.2 2.6-1.5 5.6-2.6 4.9-1.3-0.8-2.9-1.4-3.3-0.6-1 2.1-4.8 1.2-6.9 2.6-1.1 1.3-2.6 1-4.1 0.9z"/>
		<path id="Layer" class="s0" d="m117.5 120.6c1.1-1.2 3.9-1.8 4.5-0.5 0.7 1.2 1.6 2.2 3.4 2.3 0.9-0.1 0.8 4.2 0.3 5.3-2 3.3-0.1 5.4 0.9 6.6 1.2 1.5 2.6 2.6 3.9 3.7 1.3 1.1 2.2 0.1 3.3-0.2 1.6-0.5 1.6 1.2 1.5 2.4 0.2 2.3 1 5 0.3 6.9-0.2 0.7-1.4 1.2-0.3 2 1.1 1 0.4 1.6-0.4 2.1q-3 1.9-4.5 5.4c-0.9 1.5-2 2.8-3.4 3.8-1.7 0.8-3 1.7-4.2 2.6-1.9 1.6-3.9 5-5.4 7.9 0.2-2.2 0.4-4.4 1-6.4l2.5-7c1.3-3.1 1.3-4.6-0.3-4.8-2-0.4-2.3 0.8-3.2 0.9-1.6 0.2-2.8 0.5-3.6 1l-8.1 4.9c-0.8 0.4-1.8 1.7-2.4 0-0.4-0.8-3.3 1.7-2.8 0.4 0.7-1.6 1.1-3.3 0-4.7-1.1-1.9-0.4-2.5 1.2-2.3l3.3-5.6 1.8-8.1c0.8-2.1 1.2-4.1-1.1-5.5l-5.4-3.4c-1.4-1.7-0.2-2.5 0.6-3.5 2.5-3.4 5.7-3.7 8.7-4.5 1.8-0.6 3.7-0.5 5.7 0 0.7 0.3 1-0.1 1-0.8 0.6-0.1 1.1-0.3 1.2-0.9z"/>
		<path id="Layer" class="s0" d="m1 82.9c3.5 0.3 3.9 2.2 3.3 4.7-0.5 0.8-1.1 1.7 0.4 1.9 2.7 0.6 1.7 1.9 0.8 3.5-0.9 0.7 1.1 1.8-0.3 5.8 0.2 0.8 0.4 1.5 1 1.5 1.2 0.4 1.7 1.3 1.8 2.5 0.2 1 0.3 2.1 1.3 2.5 1.2 0.4 3.6 1.5 1.8 3.3-0.6 0.6-0.1 3.1 0.4 4.8 0.6 0.9 0.7 1.5 0.6 2.2 0.4 1.6-1 1.5-2 2.2-0.6 0.3-0.5-1.1-0.3-1.7-0.5-0.5-0.5-1-0.3-1.6-0.5-0.9-1-1.7-1-2.8-0.7-2.5-2.2-6.4-3.2-6.2-1.6 0.3-3-0.7-2.6-1.7 0.8-1.7 0.7-3.4 0.1-5.2-0.3-1.1-0.2-2.2-0.1-3.3 0-1.6-1.1-3.7-1.8-5.5-0.7-0.9-1.4-1.8-0.5-3.1 2.3-0.9-0.1-3.9 0.6-3.8z"/>
		<path id="Layer" class="s0" d="m62.8 39.1c1 3.5 1.8 2.2 2.6 0.9-0.1-1.1-0.6-2.3 0.9-2.2 3.5 0.8 4 2.6 4.2 4.5 0.1 1.2 0.9 2.1 1.7 3 2.7 2.3 1.5 4.8 1.1 7.2-0.1 1.3-2.6 3.5-4.4 5.1 1.7 0.4 1.9 1.6 2 2.8-0.3 1.4-0.5 2.7-1.3 3.5-1.4 1.9 0.1 3.2 1.5 2.1 2.8-2.1 2.3-5.5 2.7-8.6 0.2-4.7 1.1-3.2 2.8-1.5 2.9 1.8 3.7 4.2 4.6 6.7 1 2.3 0.9 3.8 0 5l-2.4 3c-1.3 1.2-0.6 1.9 0.9 2.3 0.7 2.9 1.4 2.9 2.2 2 0.5-0.7 1-1.3 3-0.9 1.4 0.3 0.9 2 2.4 1.5 1.9-3.1 1.5-1.9 1.6-1.7-0.7 13.5 9.4 15.8 15.1 17.7 3.3 0.2 3.1 2.6 2.4 5.4-0.6 1.2-1.2 2.3-2.6 2.1-1.4-0.7-3.3 1.1-4.2 0.5-1-0.6-1.9-0.5-2.6 0.6 0.2 1.9-1.5 1.9-3.5 1.5-1.3-0.1-2.2 0.7-2.9 1.7-0.6 0.8-3.9-0.8-2.6 2.6 1.8 1.8-0.4 3.6-1.1 4.8 0.1 2.6-1.6 2.4-3.5 1.9-1.3-0.5-1.4 0.4-0.7 2.2 0.6 0.9 0.9 1.8 0 2.8-0.8 1.6-0.3 2.6 0.3 3.6 1 1.8-1.2 3.7-1.1 5.2 0.9 2.5-0.5 3.7-2.7 4.5-2.3 0.7-4 1.3-3.5 3.7 0.1 1.7-1.4 3.4-0.4 5.4 1.4 1.9 0.8 3.5 0 5.2-0.7 1.6-0.8 3.3-0.9 4.9-0.4 5.9-2.4 7.8-6.3 5.6-1.9-1.4-4.1 9.1-4.6 16.6 0.1 1.5-0.6 2.2-1.4 2.8-0.2 0.7-0.9 1.3 0.5 2.2 1 2.5-3.6-1.6-3.3-0.7 1.4 3 4.2 6.1 0.7 8.4-1.4 0.7-2.3 2.2-3.1 3.9-0.3 1-3.3-0.1 0.2 3 3.4 3.3 1.4 4.2-0.2 6.1-0.9 3.1-2.8 3.5-4.8 3.2-0.5-1.4 0.6-4.2-0.3-4.1-0.9 0.8-1.3 1.5-1.5 3.5-0.9 1.9-3 0.3-1.5-2 2-1.4 1.1-3.2 0-4.9-1.7-1.1-3.5-2.2-4.6-4.3-0.4-0.8-0.5-2.4-1.3-1.8 0-0.5 0-1.1-0.8-0.9l-0.5-0.8c-2.6-3 1.9-2.8 3.2-4.1 1.7-1.3 3.2-1.8 4.2 0 1.3 2.2 2.1-0.9 3.1-2.6 0.4-0.6-4 0.3-4.6-1.9-1.2-2.9-2.1 0.4-2.4 2.4 0.1 0.8-4.6-0.5-5.7 1.2-0.5 0.5-1.1-2.9-2.7-4 0.7-3.5-2.4-7.7-4.1-7.2-1.9 0.3-3.7-0.8-3.8-1.7 0-1.6 0-3.2-1.5-4.5q-0.8-2 0.2-3.5c-0.8-1.5-1.1-3.1-0.2-4.7-1.1-3.4 1.5-4.1 5.1-4.1 1 0.4 1 1.4 0.6 2.6 0 1.9 2.9 1.5 3.3-0.7 1.6-2.2 8.2 0.9 12.3 3.9 2.2 1.6 3.4 1.1 1.5-1.2-2-2.7-5.1-5-10.3-6.5q-1.6-0.4-3.3 0.2c0.1-1.5 0.4-3-0.9-4.1-1.7-1.7 0.2-2.4 0.9-1.5 0.8 2.4 2.8 0.7 4.8 0.6 4.1 0.3 7.7-0.4 11.2-1.3 2.6-2.4 5.4-1.5 8.3 0-1.7-1.6-4.3-3-2.2-6-4.1 1.1-8 1.7-11.6 0.8-2.8-1.5-4.3-0.8-5 1.1-1 1.5-4.6 2.5-12.3 2.8-0.8 2.6-2.3 1.5-3.7 0.7q-0.7-1.2 0.9-2.8c1-1.8 0.4-3-0.2-4.1-1-0.9-1.6-2-1.1-3.5 0.4-3.5 1-5 1.7-6 1.2-0.7 3.2-1.2 3.1-0.2-0.2 1.9 1.1 3.3 2.4 4.7-0.8-4 0.1-5.8 2.2-5.8l4.1 0.2c3.4-2.7 5-7.2 7.3-4.7 2.5 0.6 0.4-2.7 1.5-3.5 0.9-1.4 2.8-3.8 3.9-2.8 0.9 0.9 1.8 0.9 2.7-0.2 0.7-0.8 1.3-0.1 1.9 0.4 2.1 2.5 4.4 0.5 6.6-1q4-3.8-1.1-1.3c-1.2 0.8-2.4 1.2-3.3 0-0.4-1.3-0.8-2.6-3.9-1.8-0.7-0.3 3.9-6.2 5.9-9.2 2.6-3.5-3.7-3.7-3.7-1.1-0.7 2.6-1.5 5.2-4.2 6.9-1.9 1.2-4 1.7-6.1 2.1-2.1 0-1.5-3.8-1.6-6.4 0.9-2.4 2.1-4.8 3.3-6.5 1.4-2.8-2.3-5.7-2.8-2.4-0.1 2.3 0.1 4.8-1.1 6.1-0.9 0.7-1.5 1.4-2 2.1-1 1.2-2.5-2-2.2-2.6 2.5-5.2-0.1-3.7-0.6-2.5-1.3 1.1 0.1 4.2-0.5 6.2-0.6 2.2-2.5 4.2-0.6 6.9 0.8 0.9 2.2 2-0.9 2.2-2.3 0-4.1 0.4-2.8 3.2 0.5 1 0.3 1.7-2.7 0.4 0.2 1.2 0.1 2.2-1.1 2.8-0.5-1.2-1.3-1.9-2.2-2.3 0.6 1 2.2 1.9 0.7 3.4-1.4 1.3-2.7 0.9-3.9 0-1.6-1-3-1.3-4.4-1.1-1.1-0.1 0.3-5.2-1.4-4.9 0-1.3 1.7-2.8-1-3.7-1.3-0.3-1.6-1.3-1.6-2.8-0.4-1.8-0.1-2.7 1.1-2.6 1.8 0.6 3.8 0.2 5.7-0.2 1-0.3 1.9-2.8-1.5-1.5q-1.4 0.6-3.3 0.2-1.9 0-2.4-2.4c-0.2-0.9-0.3-1.8-1.8-1.7-2.2 0.3-1.8-1.3-2.1-2.4-0.3-1.7-1-3.1-2.5-3.8-2.2-1.7-0.7-3 0-3.7 1.1-0.9 2.3-0.9 3.6-1.1 1.3 0.1-2.3-2.6-3.8-3.6-0.7-0.5-0.5-3.2 0-4.8 0.7-0.7 5.1 3.4 7.3 5.4 1.4 1.6 3.6-1 3.2-2.2-1-0.3-1.6-1.2-2.1-2.1-1.2 1-2.4 0.8-3.8-2-0.5-1.4-1.3-2.9 0-4.5 0.7-1.2 1.6-2.2 2.9-3 0.8-0.5 1.5-1.1 0.2-2.2q0.2-1.7 1.5-3.4l-2.4 0.2c0.8 1.8-0.7 3-2 3.5 0.4-8.4-0.6-4.3-0.9 0.5-1.3 1.7-2.4 4.1-4.7 3.3-0.2-1.8-0.2-3.6 0.4-5.6 0.7-2.5-0.6-3.2-1.5-4.3-0.9-1.1-0.3-2.6 0.2-4.1 0.9-1.3 1.3-2.7 1.5-4.1-1.4-2.4-1.8-3.7 0-3 4.8-0.4 2.5-1.2 0-1.9-0.5-0.4 2.2-1.5 3.1-1.1 1.6 0.4 3.1 0.8 2.4-1.5-0.3-1.2-0.4-2.7-1.5-3-1.1-0.4 0.9-2.2 0.2-3.5 0.9-0.4 3.7 3.4 3.5 0.9-0.3-3.6 2.6-2.4 2.4-1.5 1.7 2 1.3 4.3 0.4 6.7-0.4 0.8 1.1 3.4 1.8-1.8 1.9 5.4 1.6-0.2 1.3-1.3-2-1-1.6-2.6-1.5-4.1 0-1.7 3.1 0.1 3.7 2 2 3.3 3.3 0.5 4.8-0.7-0.2-0.8 1.3-0.6 2.5-0.5 1.2 0.3 2.3-0.1 3.4-0.8 2.9-0.6 2.6 2.5 1.1 5.2-0.5 2.5-2.7 2-4.6 2.2-3.3 0.1-4.8 2.9-7.2 4.5-2.3 1.7-1.3 4.1 2.8 1.3 5.1-4 5.3 0 3.8 1.7-1.9 1.8-2.8 3.5-1.6 5.4 0.9 1 1.4-1.8 3.3-0.4 2.2 1.1 1.7 3.6 1.5 5.8-0.1 3.1 2.6 4 2-0.2 0.1-3.1-0.5-6-1.1-8.9-0.4-1.8 1.1-2.4 2.6-3 2.4-1.1-1.1-1.2 2-4.9 3.2-5 3.8-3.4 5.7-2 2.2 1.9 3.8 4.2 2.9 8.4-0.9 1.8-0.5 3.7 0.2 5.6 1.5 3.3 0.2 5.3 1.1 6.5 1.8 2.2 1 3.8-0.2 5.4-2.2 1.6-1.8 4-1.1 6.5 0.4-2.9 1.3-4.4 3.5-1.5 0.6 1.7 0.6 3.5 0.6 5.3 0.3 5.5 4.2 0.7 3-2-1.3-1.9-2.2-3.8-1.9-5.3 0.4-1.6 0.8-3.2-0.2-4.9-0.8-1.8-1.1-3.4-0.9-5 0.6-1.9 0.4-3.9-0.2-5.8-0.9-1.8-0.6-3 0.2-3.9q1.6-3.1 0.2-6.5c-0.5-1.9 0.8-3.8-0.2-5.8-0.9-1.9-0.1-2.1 0.7-2.4 3-0.9-0.2-3.5 2.6-5.7 2.8-6.4 5.6-0.2 5.7 3.8z"/>
	</g>
	<path id="Shape 1" class="s1" d="m48.5 127c-3.6 0-6.5-2.9-6.5-6.5 0-3.6 2.9-6.5 6.5-6.5 3.6 0 6.5 2.9 6.5 6.5 0 3.6-2.9 6.5-6.5 6.5z"/>
</svg>