<svg version="1.2" xmlns="http://www.w3.org/2000/svg" viewBox="0 0 234 235" width="234" height="235">
	<title>UIO-svg</title>
	<style>
		.s0 { fill: #ffffff } 
	</style>
	<g id="Segl">
		<g id="Layer">
			<g id="Layer">
				<path id="Layer" fill-rule="evenodd" class="s0" d="m1.2 118c0-28 9.9-53.6 26.4-73.7 21.3-25.7 53.4-42.1 89.4-42.1 64 0 115.8 51.8 115.8 115.8 0 63.9-51.9 115.8-115.8 115.8-64 0-115.8-51.8-115.8-115.8zm1.7 0c0 31.5 12.8 60 33.4 80.7 20.7 20.6 49.2 33.4 80.7 33.4 31.5 0 60-12.8 80.7-33.4 20.6-20.7 33.4-49.2 33.4-80.7 0-31.5-12.8-60-33.4-80.7-20.7-20.6-49.2-33.4-80.7-33.4-35.5 0-67.1 16.2-88 41.5-16.3 19.8-26.1 45-26.1 72.6z"/>
			</g>
			<g id="Layer">
				<path id="Layer" class="s0" d="m26.6 165c0-1.5 1.3-2.7 2.8-2.7 1.5 0 2.7 1.2 2.7 2.8 0 1.5-1.3 2.7-2.8 2.7-1.5-0.1-2.7-1.3-2.7-2.8z"/>
				<path id="Layer" class="s0" d="m200.9 166.6c0-1.5 1.3-2.7 2.8-2.7 1.5 0 2.7 1.3 2.7 2.8 0 1.5-1.3 2.7-2.8 2.7-1.5 0-2.7-1.3-2.7-2.8z"/>
			</g>
			<g id="Layer">
				<g id="Layer">
					<g id="Layer">
						<path id="Layer" fill-rule="evenodd" class="s0" d="m202.9 118.1c0 11.6-2.3 22.8-6.7 33.4-4.3 10.2-10.5 19.4-18.4 27.2-7.9 7.9-17 14.1-27.2 18.4-5.6 2.4-11.4 4.1-17.3 5.2-1 0.3-2.6 0.7-4.7 0.8q0 0-0.1 0-5.6 0.7-11.3 0.7-9.4 0-18.5-1.9-2.5-0.5-5-1.3-0.1 0-0.1 0-5-1.5-9.8-3.5c-10.2-4.3-19.4-10.5-27.3-18.4-7.8-7.8-14-17-18.3-27.2-4.5-10.6-6.8-21.8-6.8-33.4 0-11.6 2.3-22.8 6.8-33.4 4.3-10.2 10.5-19.4 18.3-27.2 7.9-7.9 17.1-14.1 27.3-18.4 10.6-4.5 21.8-6.7 33.4-6.7 11.5 0 22.8 2.2 33.4 6.7 10.2 4.3 19.3 10.5 27.2 18.4 7.9 7.8 14.1 17 18.4 27.2 4.5 10.6 6.7 21.8 6.7 33.4zm-1.7 0c0-11.3-2.3-22.3-6.6-32.7-4.3-10-10.3-19-18-26.7-7.8-7.7-16.7-13.8-26.7-18-10.4-4.4-21.4-6.6-32.7-6.6-11.4 0-22.4 2.2-32.8 6.6-10 4.2-18.9 10.3-26.7 18-7.7 7.7-13.7 16.7-18 26.7-4.3 10.4-6.6 21.4-6.6 32.7 0 11.3 2.3 22.3 6.6 32.7 4.3 10 10.3 19 18 26.7q2.2 2.2 4.5 4.1 0.1-0.2 0.2-0.4c0.3-0.6 0.7-1.2 1.1-1.7 0.7-1 1.4-1.7 1.5-1.8l2.3-2.6c-1.8-1.4-6.5-5.8-12.7-15.4-5.4-8.5-7.1-13.9-7.2-17.4 0-1.8 0.5-3.1 1.2-4l8.5-11.7c-0.9-0.8-1.8-1.6-2.6-2.4-3.6-3.3-6.8-6.2-6.8-6.2-0.2-0.1-0.3-0.4-0.3-0.6q0-0.4 0.3-0.6l46.4-47q0 0 0 0c0.4-0.4 0.7-0.6 0.8-0.6 4.1-2.9 8.4-4.8 9.1-5.1v-1.6c-0.4-0.2-1-0.4-1.6-0.7-1.3-0.7-2.6-2.1-3-4.3q-0.2-1.4-0.2-2.4c0-1.2 0.2-1.9 0.3-2.3q0-0.3 0-0.9c0-2.2 0.3-7.3 3.9-10.1 2.7-2.1 5.3-2.7 7.3-2.7 1.1 0 2.1 0.2 2.9 0.3 1 0.2 4.5 1.1 5.1 1.3 1.5 0 2.7 0.4 3.4 1.2 0.7 0.7 1 1.7 1 2.5 0 1.2-0.7 2.2-1 2.7 0.1 1.1 0.4 4.7 0.6 6.8q0.2 1.3 0.2 1.7c0 0.3-0.2 0.6-0.4 0.7-0.1 0.2-0.3 0.3-0.4 0.3q-0.5 0.2-0.8 0.3-0.1 0-0.2 0l0.1 0.9c0 0.2-0.1 0.5-0.3 0.7 0.1 0.2 0.1 0.5 0 0.7l-0.4 0.7q0 0.4 0 0.9 0.1 0.5-0.1 1c-0.2 0.7-0.8 1.1-1.4 1.4-0.6 0.2-1.3 0.4-2.2 0.4h-0.1-0.9c0 0.2 0.1 0.4 0.2 0.6 0.2 0.4 0.5 0.7 1.2 1 2 0.6 3.7 1.1 4.8 1.4 1.2 0.4 2.3 1.5 3.2 2.8q0.6 0.7 1 1.4 0.1-0.9 0.1-1.8c0-8 0-13.7 0-13.7q0-0.4 0.2-0.6 0.3-0.3 0.6-0.3c2.5 0 4.1 1 4.9 2 0.4 0.5 0.7 1 0.8 1.4h15.6c0.1-0.3 0.4-0.8 0.8-1.2 0.9-1 2.4-1.8 5-1.8q0.3 0 0.6 0.3 0.2 0.2 0.2 0.6c0 0 0 4.5 0 12.1 0 4.1 1 7.4 2.1 10.9 1.1 3.5 2.2 7.2 2.2 11.9 0 2.7-0.5 5.3-1.6 7.7 0.5 0.4 0.9 0.8 1.2 1.4 0.4 0.6 0.8 1.5 0.8 2.4 0 0.6-0.2 1.2-0.7 1.8-0.6 0.5-2.9 2.5-3.4 2.9-0.6 0.4-1.7 0.8-2.7 1.1-0.8 0.4-1.5 0.6-1.7 0.7l5 56.1c0.1 0.4-0.1 0.7-0.4 0.9l-7.7 4.3q0 0-0.1 0l0.1 7.2q0 0.1 0 0.3c0 0.9-0.1 4-2.9 6-2.8 2-8.7 5.1-16.8 5.3l-0.1 2.6 2.7 3.6c0.3 0.3 0.3 0.7 0 1 0 0.1 0 0.2 0.1 0.2 0.1 0.1 1.2 0.3 1.2 0.3h3.7c0.6 0 1.7 0.5 1.7 1.5l0.1 1.7q6.2-1.6 12.1-4.1c10-4.2 19-10.3 26.7-18 7.7-7.7 13.8-16.7 18-26.7 4.4-10.3 6.6-21.4 6.6-32.7zm-149.4 20.4q0-0.1-0.1 0c-0.5 0-1.1 0.1-1.6 0.7q0 0-0.1 0.1 0 0 0 0c-0.4 0.6-0.8 1.5-0.8 3 0 2.9 1.6 8.2 6.9 16.4 6.1 9.5 10.8 13.8 12.3 15.1l21.4-24.4c0 0 6.7-24.8 6.8-25.1 0-0.4-0.2-0.5-0.2-0.5l-1.4-1.2c-0.3-0.2-0.4-0.6-0.3-0.9l6.1-21.1q-0.1-0.1-0.2-0.3-0.4-0.5-1-1.4c-0.7-1.1-1.7-2.8-2.7-4.9-1.6-3.7-3.2-8.5-3.6-15.4-0.1-0.4-0.2-1.2-0.3-1.6l-26.2 61.3-0.1 0.1q0 0 0 0.1c0 0-0.3 0.6-1 1.2-0.7 0.6-1.8 1.2-3.3 1.2q-0.6 0-1.3-0.2c-3.5-0.7-6.9-1.9-9.3-2.2zm12.7-7.4c1.1 1 1.8 2.1 2.1 3.1l25.6-59.9-42.6 43.1c2.6 2.4 12.5 11.3 14.9 13.7zm-6.1-3.3l-6.5 9q0.1 0 0.1 0c2.8 0.3 6.1 1.6 9.4 2.3q0.6 0.1 1 0.1c2 0 2.7-1.3 2.8-1.5q0 0 0 0 0-0.1 0-0.2c0.1-0.2 0.2-0.6 0.2-1-0.1-1-0.4-2.5-2.1-4.2-0.9-0.8-2.7-2.5-4.9-4.5zm47.4-76.2l-3.7 1.3c-0.6 0.5-1 0.9-1 0.9q0 0 0 0-0.1 0.5-0.1 1.3 0 0.9 0.2 2.1c0.2 1.5 1 2.3 1.8 2.9 0.6 0.4 1.2 0.6 1.7 0.7l2.6-2.6q-0.1-0.1-0.2-0.2c-0.6-0.6-1.2-1.7-1.2-3.3 0-0.9 0.4-1.5 0.8-1.8 0.4-0.4 0.8-0.4 0.9-0.5h0.2 1.9l4.1-5.3c0.1-0.2 0.3-0.3 0.6-0.4l6.4-0.7q0.1-0.1 0.2-0.3c0.2-0.4 0.4-0.9 0.4-1.3 0-0.5-0.1-1-0.5-1.3-0.3-0.4-1-0.7-2.2-0.7h-0.2c0 0-1.1-0.3-2.3-0.6-1.1-0.3-2.4-0.6-2.8-0.7-0.8-0.1-1.7-0.2-2.7-0.2-1.7 0-3.8 0.4-6.3 2.3-2.5 1.9-3.1 5.8-3.2 8.1q0.7-0.6 1.5-1.4l2.2-4.2c0.2-0.4 0.7-0.6 1.2-0.4 0.4 0.2 0.5 0.8 0.3 1.2l-0.2 0.4q0.5-0.4 0.9-0.7 0.2-0.1 0.5-0.3l2-2.8c0.2-0.4 0.8-0.5 1.2-0.2 0.3 0.3 0.4 0.8 0.2 1.2 1.8-0.9 3.3-1.3 3.3-1.3 0.4-0.1 0.9 0.1 1.1 0.6 0.1 0.4-0.2 0.9-0.6 1q0 0.1-0.6 0.2-0.6 0.3-1.7 0.7c-0.9 0.4-2.1 0.9-3.3 1.6l0.6-0.1c0.5 0 0.9 0.3 1 0.8 0 0.4-0.3 0.9-0.8 0.9l-3.7 0.5q-0.5 0.5-1.1 1c0.4-0.2 0.9 0.1 1.1 0.5 0.1 0.5-0.1 1-0.5 1.1zm13.6 4.6q0-0.4 0.2-0.6 0.2-0.3 0.6-0.3c0 0 0.2 0 0.5-0.1 0.1 0 0.4 0 0.4-0.3q0-0.4-0.1-0.8c0-0.7-0.2-1.7-0.3-2.6 0-0.2-0.1-0.3-0.3-0.3-0.5 0-0.7 0.3-0.8 0.7 0 0.5-0.1 0.8-0.6 1-0.3 0.1-1-0.2-1.5-0.3-0.5-0.2-0.9-0.2-1.1-0.4-0.4-0.4-0.4-1 0-1.3 0.5-0.5 1.3-0.8 2-0.8q1.1 0 2-0.1c0.1 0 0.2-0.1 0.2-0.3q-0.1-0.9-0.1-1.6c-0.1-0.3-0.3-0.3-0.3-0.3l-4.9 0.5c0 0-0.4 0-0.6 0.3-0.3 0.4-3.9 5.1-3.9 5.1-0.2 0.2-0.4 0.4-0.7 0.4h-2.2q-0.1 0-0.1 0c-0.1 0.1-0.2 0.2-0.2 0.5 0.1 2.2 1.1 2.5 1.3 2.6 0.2 0.1 0.5 0.3 0.5 0.6 0.1 0.3 0 0.6-0.2 0.8l-3.5 3.5v2.5c0 0.3-0.2 0.6-0.4 0.8q0 0-0.5 0.2l5.4 4.2 8-0.5-3.1-3.5q0 0 0 0-0.4-0.3-0.6-0.8c-0.4-0.7-0.4-1.4-0.4-1.9 0-0.3 0-0.6 0-0.6 0.1-0.4 0.5-0.7 0.9-0.7h1.8c0.7 0 1.3-0.1 1.6-0.2 0.3-0.2 0.4-0.6 0.4-0.8 0-0.3 0-0.6 0-0.7q-0.1 0 0 0-0.2-0.4 0-0.7c0 0 0.1-0.2 0.2-0.3 0.1-0.1 0-0.2 0-0.3-0.1-0.2-0.2-0.4-0.2-0.7q0.1-0.4 0.4-0.6c0.2-0.1 0.2-0.4 0.2-0.4zm-16.1 10.3c-0.6 0.2-1.2 0.6-1.8 0.9q-0.6 0.3-1.3 0.7 0.5-0.1 0.9-0.1c1.6 0 3.3 0.5 4.4 1.6 2.2 2.2 4.4 5.5 4.9 6.2l9.7 6.5 4.4-3.4c0.6-1.7 1.1-3.5 1.4-5.3-0.5-1-1.2-2.2-2-3.2-0.8-1.1-1.8-2-2.3-2.1q-1.1-0.4-2.7-0.9l1.8 2.1c0.2 0.2 0.3 0.6 0.2 0.9-0.1 0.3-0.4 0.5-0.8 0.5l-10 0.7q0 0 0 0-0.3 0-0.6-0.2zm-7.2 5.6q-0.2 0.3-0.3 0.6-0.1 0.1-0.1 0.1-0.1 0.2-0.2 0.5-0.1 0-0.1 0-0.1 0.3-0.2 0.6 0 0 0 0-0.1 0.3-0.2 0.5-0.1 0.5-0.1 0.9 0 0 0 0-0.1 0.2-0.1 0.4 0 0.2 0 0.4 0 0.3 0 0.6 0.1 0.1 0.1 0.2 0 0.2 0 0.3 0.1 0.4 0.2 0.8 0 0 0 0 0.1 0.2 0.2 0.4 0 0 0 0 0.1 0.4 0.3 0.7 0.1 0 0.1 0.1 0.1 0.2 0.2 0.3 0 0.1 0.1 0.2 0.1 0.2 0.2 0.3 0.2 0.2 0.3 0.4 0.1 0 0.1 0.1 0.2 0.2 0.4 0.5c1.3 1.3 2.8 2.2 3.6 2.6 4.2 2.3 9.8 4.8 14.4 6.7 3.2 1.4 5.9 2.5 7.1 3 0.3 0.1 0.5 0 0.6-0.1q0.3-0.2 0.7-0.6c0.9-0.7 2.1-1.8 3.5-3.3 1.4-1.4 3.7-4.2 5.5-6.6 1.8-2.5 3.2-4.5 3.2-4.5 0.2-0.2 0.4-0.4 0.7-0.4 0 0 1.2-0.1 1.9-0.1q0 0 0.1 0 0.1-0.1 0.2-0.1 0.2 0 0.6-0.1c0.5-0.1 1.1-0.3 1.7-0.4 1.2-0.3 2.3-0.6 2.3-0.6h0.2 0.9c0.1 0 0.4 0 0.7-0.1 0.2 0 0.6-0.1 0.6-0.7 0-0.5-0.5-0.6-0.8-0.6-0.4 0-0.7-0.3-0.7-0.7 0 0 0-1.6 0-2.6-0.1-0.7-0.2-0.9-0.5-1.1-0.3-0.2-1-0.4-1.9-0.3q-0.2 0-0.5 0c-1.8 0-4.7 1.7-5.4 2.2-0.3 0.2-0.8 0.5-1.1 0.9-0.4 0.3-0.7 0.5-0.7 0.5l-0.1 0.1-13.1 10c-0.3 0.2-0.7 0.2-1 0l-10.3-6.9q-0.2-0.1-0.3-0.3c0 0-0.6-0.9-1.5-2.2-0.9-1.2-2.1-2.7-3.2-3.8-0.7-0.7-1.9-1.1-3.2-1.1-2.1 0-4.3 1-5.1 2.3zm32.1-3.1q0 2.4-0.5 4.7 0 0.1 0 0.1-0.3 1.8-0.8 3.4l3.9-2.9c0.4-2.6 0.8-6.1 0.8-11.5q0-0.3 0.2-0.6 0.3-0.2 0.6-0.2h16.6q0.4 0 0.6 0.2 0.3 0.3 0.3 0.6c0 7.6 0.6 11.9 1.2 14.9 0.7 3.1 1.3 5.1 1.3 7.9 0 6.4-4.8 12.1-11.3 12.1q-0.1 0-0.2 0 0 0-0.1 0-0.1 0-0.1 0c-3-0.1-5.9-1.1-8.1-3-1.6-1.3-2.8-3.1-3.4-5.3q-0.6 0.7-1.1 1.2c-1.9 1.8-3.3 3.2-4.2 3.9 0.5 2.7 1.8 5.4 3.8 7.5 2.7 2.9 6.9 4.9 12.6 4.9 3.9 0 7.2-0.9 9.8-2.4-0.2-0.5-0.4-1-0.4-1.5q0-0.5 0.2-0.8c0.1-0.5 0.3-0.7 0.6-1q0.4-0.5 0.8-0.8 0.3-0.3 0.6-0.5c-0.1-0.3-0.3-0.6-0.3-1.1q0-0.2 0.1-0.5c0.3-0.6 0.6-0.8 1-1.1 0.4-0.3 0.9-0.6 1.6-0.7q0.1 0 0.3 0.1c0.4 0.1 1 0.3 1.8 0.8 0.9-2.1 1.3-4.4 1.3-6.7 0-4.5-1-7.9-2.1-11.4-1.1-3.5-2.2-7.1-2.2-11.5 0-5.3 0-9.1 0-10.8 0-0.2 0-0.4-0.2-0.3-1.3 0.1-2 0.6-2.5 1-0.5 0.5-0.7 1.1-0.7 1.2 0 0.4-0.4 0.7-0.8 0.7h-16.8c-0.5 0-0.8-0.3-0.9-0.7q0-0.1 0-0.1 0-0.1-0.1-0.3c-0.1-0.3-0.3-0.6-0.6-0.9-0.4-0.6-1.1-1.2-2.4-1.4-0.1 0-0.2 0.1-0.2 0.5 0 2.1 0 6.6 0 12.3zm24 35.9c0 0.6-0.2 0.8-0.4 1q-0.2 0.2-0.4 0.4c-0.1 0.1-0.1 0.3-0.1 0.3 0 0 0.1 0.2 0.4 0q0.4-0.1 0.8-0.2c0.9-0.4 2-0.8 2.2-1 0.3-0.2 2.8-2.3 3.1-2.6 0.1-0.2 0.3-0.4 0.3-0.7 0-0.4-0.3-1.1-0.5-1.5-0.3-0.6-1.1-1.2-1.8-1.6-0.5-0.3-1-0.5-1.4-0.7 0 0-0.5-0.1-0.8 0.2-0.2 0.2-0.2 0.5-0.1 0.6q0.1 0.2 0.2 0.4c0 0.1 0.1 0.2 0.1 0.6 0 0.2-0.1 0.6-0.4 0.7 0 0-0.4 0.3-0.8 0.7-0.5 0.4-1 1-1.1 1.1q0 0.2 0 0.3c0 0.3 0.1 0.8 0.6 1.4 0.1 0.2 0.2 0.4 0.1 0.6zm-2.7 1.8q-1 0.5-2 0.8l0.7 60.5c0 0 6-3.4 6.2-3.5 0.2-0.1 0.2-0.4 0.2-0.4zm-22.7 84.8c0 0 2.4-71.4 2.4-71.6 0-0.2 0-0.5-0.4-0.4-0.4 0-2.7 0.2-2.7 0.2-0.2 3.7-1.5 21.6-4.4 40.4-2.8 18.2-6.6 36.2-7.6 40.7 6.2-0.7 11.7-2.6 15.1-5.4 0.1 0 0.1-0.2 0-0.3 0-0.1-2.3-3-2.3-3q-0.2-0.2-0.1-0.6zm-29.7-69.5c0.4 0.3 0.5 0.4 0.7 0.5 0.2 0.2 0.6 0.1 0.6 0.1 0 0 11.9-3.3 12.4-3.4 0.6-0.2 1.1-0.2 1.6-0.3 3.5-0.2 17.2-1.2 17.6-1.2 0.5-0.1 0.6-0.3 0.6-0.5 0-0.2 0-10.9 0-10.9q-2.4-1.3-4.1-3.1c-1.3-1.4-2.3-2.9-3-4.6l-14.1 0.9c0 0-1.1 0-1.8 0.3-0.6 0.2-4.7 1.3-4.7 1.3 0 0-0.3 0.1-0.3 0.3-0.1 0.3-5.7 19.7-5.7 19.7 0 0-0.2 0.6 0.2 0.9zm5.5-22.6c0.2-0.1 3.3-0.9 4.6-1.3 1.1-0.3 2.6-0.4 2.6-0.4l13-0.8q-0.2-0.8-0.4-1.7 0 0-0.1 0c0 0-13.8-5.5-22.5-10.1-0.9-0.5-2.6-1.5-4-3q-0.1-0.1-0.3-0.3c1.4 10.1 5.3 15.7 6.7 17.5 0 0.1 0.2 0.2 0.4 0.1zm26 87.6c7.6-0.2 13.3-3.1 15.8-5 2-1.4 2.2-3.9 2.2-4.6q0-0.2 0-0.2l-0.8-69.2q-2.5 0.6-5.4 0.6 0 0-0.1 0c-3 0-5.7-0.6-8-1.5v11.2c0 0.4-0.3 0.7-0.7 0.8l-0.6 0.1zm5.1-93.6q1.1 0.9 2.4 1.5v-14.4c-1.3 1.8-3.5 4.8-5.5 7.3 0.3 2.4 1.5 4.2 3.1 5.6zm6.3 2.6v-16.9q-0.3 0.1-0.5 0.1c-0.6 0.1-0.9 0.2-1.3 0.2q-0.2 0-0.4 0v16.1q1.1 0.3 2.2 0.5zm3.8-0.4v-17.4h-0.4c-0.2 0.1-0.9 0.3-1.7 0.5v17.3q1.1-0.1 2.1-0.4zm3.4-19.8q0 0.5-0.1 1c-0.1 0.3-0.1 0.6-0.5 1-0.1 0.1-0.3 0.3-0.7 0.3q0 0 0 0-0.1 0-0.2 0-0.1 0-0.2 0v16.8q1.4-0.8 2.4-2c1.8-1.9 2.8-4.5 2.8-7.3 0-2.5-0.6-4.3-1.2-7.5-0.6-3.1-1.3-7.3-1.3-14.4h-2.7v6.9q0.2 0.6 0.2 1.2c0 0.6 0 1.3 0 1.9q0.2 0 0.5 0.1c0.6 0.2 0.7 0.7 0.8 1 0.1 0.3 0.2 0.6 0.2 1zm-5.5-12.1v5c0.7 0 1.4 0 2.1 0.3v-5.3zm-4 0v5.8c0.7-0.3 1.5-0.5 2.2-0.7v-5.1zm-4.4 0c-0.1 3.9-0.3 6.8-0.6 9.1 0.2-0.2 1.3-1.2 2.1-1.6 0.2-0.2 0.6-0.5 1.2-0.8v-6.7zm-0.5 9.1q0 0 0 0 0 0 0 0zm-65.5 106.8q0.1 0.3 0.3 0.6c0.7 1.4 2 3.3 3.9 5.5 4 4.2 10.8 9.5 22.7 13.3q2.5 0.7 5 1.2c3.2 0.7 6.5 0.9 9.6 0.9 1 0.1 1.9 0 2.9 0 0.4 0 0.6-0.3 0.6-0.5 0.4-1.9 1.3-6.2 2.5-12 1.5-7.8 3.5-18.2 5.1-28.7 1.7-10.6 2.8-20.8 3.5-28.4 0.5-5.7 0.8-9.9 0.9-11.7l-3.4 0.3c-0.4 4.3-3.1 29.1-14.1 42-13.2 15.7-31.4 17.2-38.3 17.2q-0.6 0-1 0c-0.2 0-0.3 0.1-0.2 0.3zm0.8-2q0.2 0 0.4 0c6.6 0 24.3-1.5 37-16.6 8.6-10.1 12.1-28.5 13.3-37.1 0.2-1.6 0.3-2.9 0.4-3.7l-6.8 0.5c0 0-0.6 0-1.1 0.2-0.5 0.1-12.6 3.4-12.6 3.4 0 0-0.2 0.1-0.3 0.3 0 0.1-6.9 25.5-6.9 25.5q0 0.2-0.2 0.3c0 0-23.2 26.7-23.4 26.9-0.2 0.3-0.1 0.3 0.2 0.3zm49.2 24.6q8 0 15.7-1.5c0.7-0.2 2.7-0.7 3-1 0.2-0.3 0.2-0.7 0.2-0.7 0 0 0-0.2 0-0.4 0-0.1-0.3-0.5-1-0.5-0.3 0-2.8 0.2-2.8 0.2q-0.1 0-0.3-0.1l-2.7-0.8c-3.2 2.3-7.5 3.9-12.4 4.8q0.2 0 0.3 0zm-44.2-12.6c-4.5-4-6.7-7.7-7.5-9.6-0.6 0.6-1.2 1.4-1.5 2.1q-0.1 0.2-0.2 0.4c-0.1 0.2 0.1 0.6 0.2 0.7q4.3 3.5 9 6.4z"/>
					</g>
				</g>
			</g>
			<g id="Layer">
				<path id="Layer" class="s0" d="m19 125.3q1.5-0.2 2.5 0 1.1 0.3 1.8 0.9 0.7 0.6 1.2 1.7 0.4 1.1 0.6 2.6 0.2 1.3 0.1 2.4-0.2 1.1-0.7 2-0.5 0.8-1.5 1.3c-0.6 0.4-2 0.7-2 0.7-0.2 0-0.4 0.1-0.6 0.1l-7.6 1c-0.1 0-0.2 0.1-0.2 0.3l-0.1 1.1c0 0.1-0.1 0.3-0.3 0.3l-0.3 0.1c-0.1 0-0.3-0.1-0.3-0.3l-0.7-5.1c0-0.1 0.1-0.3 0.3-0.3h0.3c0.1 0 0.3 0.1 0.3 0.2l0.4 1c0 0.2 0.2 0.3 0.3 0.2l8.5-1.1q1.6-0.2 2.4-1.2 0.8-1.1 0.5-2.9-0.2-1.9-1.3-2.7c-0.7-0.4-2.8-0.4-2.8-0.4-0.1 0-0.4 0-0.5 0l-7.7 1c-0.2 0-0.3 0.2-0.3 0.3l-0.1 1.1c0 0.2-0.1 0.3-0.2 0.3l-0.4 0.1c-0.1 0-0.2-0.1-0.3-0.3l-0.6-4.6c0-0.1 0.1-0.2 0.3-0.2l0.3-0.1c0.1 0 0.3 0.1 0.3 0.2l0.4 1.1c0 0.1 0.2 0.2 0.3 0.2z"/>
				<path id="Layer" class="s0" d="m9.8 113.4c0-0.1 0.1-0.3 0.2-0.4l10.8-6.4-9-0.7c-0.1 0-0.3 0.1-0.3 0.3l-0.3 1c-0.1 0.2-0.2 0.3-0.4 0.3h-0.3c-0.1-0.1-0.2-0.2-0.2-0.3l0.3-4.4c0-0.2 0.1-0.3 0.3-0.3l0.3 0.1c0.1 0 0.3 0.1 0.3 0.2l0.1 1.1c0 0.2 0.2 0.3 0.3 0.3l12.7 1c0.2 0 0.3 0.1 0.3 0.3l-0.1 1.2c0 0.2-0.1 0.3-0.3 0.4l-12.4 7.3 10.5 0.8c0.1 0 0.3-0.1 0.3-0.3l0.3-1c0.1-0.2 0.2-0.3 0.3-0.3l0.4 0.1c0.1 0 0.2 0.1 0.2 0.2l-0.3 4.5c0 0.1-0.2 0.2-0.3 0.2h-0.3c-0.2 0-0.3-0.2-0.3-0.3l-0.2-1.1c0-0.2-0.1-0.3-0.2-0.3l-11.5-0.9c-0.1 0-0.3 0.1-0.3 0.3l-0.3 1c0 0.2-0.2 0.3-0.3 0.3h-0.4c-0.1-0.1-0.2-0.2-0.2-0.3z"/>
				<path id="Layer" class="s0" d="m14.2 89.6c0.1 0 0.2 0.2 0.2 0.3v1.1c0 0.1 0.1 0.3 0.2 0.3l11.2 2.8c0.1 0 0.3 0 0.3-0.2l0.5-1c0-0.1 0.2-0.2 0.3-0.1h0.4c0.1 0.1 0.2 0.2 0.1 0.4l-1.2 5c0 0.1-0.2 0.2-0.3 0.2l-0.3-0.1c-0.2 0-0.3-0.2-0.3-0.3l0.1-1.1c0-0.2-0.1-0.3-0.3-0.4l-11.1-2.7c-0.1-0.1-0.3 0-0.4 0.1l-0.4 1c-0.1 0.2-0.2 0.2-0.4 0.2l-0.3-0.1c-0.2 0-0.2-0.2-0.2-0.3l1.2-5c0.1-0.1 0.2-0.2 0.4-0.2z"/>
				<path id="Layer" class="s0" d="m31.6 81.1c0.1 0.1 0.2 0.3 0.1 0.5l-0.6 1.4c0 0.1-0.2 0.2-0.3 0.2l-13.6-0.9c-0.1 0-0.3 0.1-0.4 0.2l-0.5 0.7c-0.1 0.1-0.2 0.1-0.4 0.1l-0.3-0.2c-0.1 0-0.2-0.2-0.1-0.3l1.8-4.3c0.1-0.2 0.3-0.2 0.4-0.2l0.3 0.1c0.1 0.1 0.2 0.3 0.2 0.4l-0.2 0.9c0 0.1 0.1 0.2 0.2 0.3l10.9 0.8-8-7.6c-0.1-0.1-0.2-0.1-0.3 0l-0.6 0.9c-0.1 0.1-0.3 0.2-0.4 0.1l-0.3-0.1c-0.2-0.1-0.2-0.2-0.2-0.4l1.7-3.9c0.1-0.1 0.2-0.2 0.3-0.1l0.4 0.1c0.1 0.1 0.2 0.2 0.1 0.4l-0.2 1c0 0.1 0.1 0.3 0.2 0.4z"/>
				<path id="Layer" class="s0" d="m58.8 44.1q0.5-0.2 1-0.4 0.5-0.3 0.8-0.5 1.2-0.9 1.5-1.9 0.3-0.9-0.4-1.9-0.4-0.5-1-0.8-0.5-0.2-1.1-0.2-0.6 0-1.3 0.1-0.6 0.2-1.3 0.3-0.9 0.1-1.7 0.2-0.8 0.1-1.5 0-0.6-0.1-1.2-0.4-0.5-0.3-1-1-0.6-0.7-0.7-1.5-0.1-0.8 0.2-1.6 0.3-0.8 0.9-1.6 0.7-0.8 1.7-1.5 0.3-0.3 0.8-0.5 0.4-0.3 0.9-0.5 0.5-0.3 1-0.5c0.3-0.1 0.6-0.2 0.6-0.2 0.1 0 0.2 0 0.3 0 0 0 0.1 0.2 0.2 0.3l1 1.9c0.1 0.1 0.1 0.3 0 0.4l-0.8 0.5c-0.1 0.1-0.3 0.1-0.4 0l-1.3-1.1q-0.3 0-0.8 0.2-0.5 0.1-1.1 0.6-1 0.7-1.2 1.6-0.2 0.9 0.4 1.7 0.3 0.6 0.8 0.8 0.4 0.2 1 0.2 0.5 0 1-0.1 0.6-0.2 1.2-0.3 0.8-0.1 1.6-0.2 0.9-0.2 1.7-0.2 0.9 0.1 1.6 0.4 0.7 0.3 1.3 1.1 0.6 1 0.7 1.9 0.1 0.9-0.2 1.7-0.4 0.9-1.1 1.6-0.7 0.8-1.7 1.5-0.9 0.7-1.9 1.2c-0.6 0.3-1.5 0.6-1.5 0.6-0.1 0.1-0.2 0.1-0.3 0.1 0 0-0.1-0.2-0.2-0.3l-1.1-1.9c0-0.1 0-0.3 0.1-0.4l0.7-0.5c0.2-0.1 0.3-0.1 0.5 0z"/>
				<path id="Layer" class="s0" d="m69.1 22.9c0 0.2 0 0.3-0.1 0.4l-0.9 0.7c-0.1 0.1-0.1 0.3-0.1 0.4l5.5 10.1c0 0.1 0.2 0.2 0.3 0.2l1.1-0.4c0.1 0 0.3 0.1 0.4 0.2l0.1 0.3c0.1 0.1 0 0.3-0.1 0.3l-4.5 2.5c-0.2 0-0.3 0-0.4-0.1l-0.2-0.3c0-0.2 0-0.3 0.1-0.4l0.9-0.7c0.1-0.1 0.1-0.3 0.1-0.4l-5.5-10.1c0-0.1-0.2-0.2-0.4-0.2l-1 0.4c-0.1 0-0.3-0.1-0.4-0.2l-0.1-0.3c-0.1-0.1-0.1-0.3 0.1-0.3l4.5-2.5c0.2-0.1 0.3 0 0.4 0.1z"/>
				<path id="Layer" class="s0" d="m74.7 19.6c0 0 0.2-0.2 0.3-0.2l10.6-3.9c0.1 0 0.3 0 0.4 0 0.1 0 0.2 0.1 0.2 0.3l0.9 2.2c0.1 0.2 0 0.3-0.1 0.4l-0.9 0.3c-0.1 0-0.3 0-0.4-0.2l-0.7-1.1c-0.1-0.1-0.3-0.2-0.4-0.1l-1.1 0.3c-0.2 0.1-0.4 0.1-0.5 0.2l-1.1 0.4 4 10.9c0 0.2 0.2 0.3 0.3 0.2l1.1-0.1c0.2-0.1 0.3 0 0.4 0.2l0.1 0.3c0 0.1 0 0.3-0.2 0.3l-4.8 1.8c-0.2 0-0.3 0-0.3-0.2l-0.2-0.3c0-0.1 0-0.3 0.2-0.4l0.9-0.5c0.1-0.1 0.2-0.3 0.1-0.4l-3.9-11-1.1 0.4c-0.2 0.1-0.4 0.1-0.5 0.2l-1.1 0.5c-0.1 0-0.2 0.2-0.2 0.3l0.2 1.3c0 0.2-0.1 0.3-0.3 0.4l-0.8 0.3c-0.2 0.1-0.3 0-0.3-0.2l-0.8-2.2c0-0.1 0-0.3 0-0.4z"/>
				<path id="Layer" fill-rule="evenodd" class="s0" d="m100.7 21.1l-4.8 0.9-0.7 4.4c0 0.1 0.1 0.2 0.2 0.2h1c0.2 0 0.3 0.2 0.3 0.3l0.1 0.3c0 0.2-0.1 0.3-0.2 0.3l-4.2 0.8c-0.1 0-0.3-0.1-0.3-0.2v-0.3c-0.1-0.2 0-0.3 0.2-0.4l0.8-0.3c0.1-0.1 0.3-0.3 0.3-0.4l2.6-13.6c0-0.2 0.2-0.3 0.3-0.4l1.8-0.3c0.2 0 0.3 0.1 0.4 0.2l6.8 11.8c0 0.2 0.2 0.3 0.4 0.3h0.9c0.1 0 0.2 0.1 0.3 0.3v0.3c0.1 0.1 0 0.3-0.2 0.3l-4.7 0.9c-0.2 0-0.3-0.1-0.3-0.2l-0.1-0.3c0-0.2 0.1-0.3 0.2-0.4l0.8-0.4c0.2 0 0.2-0.2 0.2-0.3zm-3.5-6.2l-1.1 6 4-0.8z"/>
				<path id="Layer" class="s0" d="m113.8 24.1q0.5 0.1 1.1 0.2 0.5 0.1 0.9 0.2 1.5 0 2.3-0.7 0.8-0.6 0.8-1.8 0-0.7-0.3-1.1-0.3-0.5-0.8-0.9-0.5-0.4-1.1-0.7-0.6-0.2-1.1-0.5-0.9-0.5-1.6-0.9-0.7-0.4-1.2-0.8-0.5-0.5-0.7-1.1-0.3-0.5-0.3-1.4 0-0.9 0.4-1.6 0.4-0.7 1.1-1.2 0.7-0.5 1.7-0.7 1-0.3 2.2-0.3 0.4 0 0.9 0.1 0.6 0 1.1 0.1 0.5 0.1 1 0.2c0.3 0.1 0.6 0.2 0.6 0.2 0.1 0.1 0.3 0.1 0.3 0.2 0 0 0 0.2 0 0.3l-0.3 2.2c0 0.1-0.1 0.3-0.3 0.3h-0.9c-0.1 0-0.3-0.2-0.3-0.3l-0.4-1.7q-0.3-0.2-0.8-0.3-0.5-0.2-1.2-0.1-1.2 0-2 0.5-0.7 0.6-0.7 1.7 0 0.6 0.3 1 0.2 0.5 0.6 0.8 0.4 0.3 0.9 0.5 0.5 0.2 1.1 0.5 0.7 0.4 1.5 0.8 0.8 0.4 1.5 0.9 0.6 0.5 1 1.2 0.4 0.7 0.4 1.6-0.1 1.2-0.5 2-0.5 0.8-1.3 1.3-0.7 0.4-1.8 0.6-1 0.2-2.3 0.2-1.1 0-2.1-0.2c-0.7-0.1-1.6-0.3-1.6-0.3-0.2-0.1-0.3-0.1-0.3-0.2 0 0 0-0.2 0-0.3l0.3-2.2c0-0.1 0.1-0.3 0.3-0.3h0.9c0.1 0 0.2 0.2 0.3 0.3z"/>
				<path id="Layer" fill-rule="evenodd" class="s0" d="m150.9 29.9q-2.4 1.2-5.6 0.2-1.5-0.5-2.6-1.4-1-0.8-1.6-1.9-0.5-1.2-0.5-2.6-0.1-1.5 0.5-3.2 0.6-1.7 1.5-2.9 0.9-1.2 2-1.8 1.2-0.6 2.6-0.7 1.4-0.1 2.9 0.4 1.5 0.5 2.6 1.4 1 0.8 1.6 2 0.5 1.1 0.6 2.6 0 1.4-0.6 3.1-1.1 3.5-3.4 4.8zm1.3-10.3q-0.6-1.8-2.5-2.5-2-0.6-3.5 0.5-1.5 1.1-2.5 4.1-1 3.1-0.4 4.9 0.5 1.8 2.5 2.4 1.9 0.6 3.4-0.5 1.6-1 2.5-4.1 1-3.1 0.5-4.8z"/>
				<path id="Layer" class="s0" d="m159.3 34.1q0.3 0.3 0.7 0.7 0.5 0.4 0.9 0.6 1.2 0.7 2.2 0.5 1.1-0.1 1.6-1.2 0.3-0.6 0.3-1.2 0-0.5-0.3-1.1-0.2-0.5-0.6-1.1-0.4-0.5-0.7-1-0.6-0.9-1-1.5-0.4-0.7-0.6-1.3-0.2-0.7-0.2-1.3 0.1-0.6 0.5-1.4 0.4-0.8 1.1-1.2 0.7-0.5 1.5-0.5 0.9-0.1 1.9 0.1 1 0.3 2 0.9 0.4 0.2 0.8 0.5 0.5 0.3 0.9 0.6 0.4 0.4 0.8 0.7c0.2 0.2 0.4 0.4 0.4 0.4 0.1 0.1 0.2 0.3 0.2 0.3 0 0-0.1 0.2-0.2 0.3l-1.3 1.8c0 0.1-0.2 0.2-0.3 0.1l-0.8-0.5c-0.2 0-0.2-0.2-0.2-0.3l0.5-1.7q-0.2-0.3-0.6-0.7-0.3-0.3-0.9-0.7-1.1-0.6-2.1-0.4-0.9 0.2-1.4 1.1-0.3 0.5-0.3 1 0.1 0.5 0.3 1 0.2 0.5 0.5 0.9 0.3 0.5 0.7 1 0.4 0.6 0.9 1.4 0.6 0.7 0.9 1.5 0.3 0.7 0.3 1.5 0 0.8-0.4 1.6-0.7 1.1-1.5 1.5-0.7 0.5-1.6 0.5-0.9 0.1-2-0.3-1-0.3-2-0.9-1-0.5-1.9-1.2c-0.5-0.4-1.2-1.1-1.2-1.1-0.1-0.1-0.2-0.2-0.1-0.2 0-0.1 0.1-0.2 0.1-0.3l1.3-1.8c0.1-0.1 0.2-0.2 0.4-0.1l0.8 0.4c0.1 0.1 0.2 0.3 0.1 0.4z"/>
				<path id="Layer" class="s0" d="m174.2 43.5c-0.1 0.1-0.1 0.2 0 0.3l1.8 1.4c0.1 0.1 0.3 0.2 0.4 0.3l0.9 0.7c0.2 0 0.3 0 0.5-0.1l1.1-0.9c0.1-0.1 0.3-0.1 0.4 0l0.7 0.6c0.1 0.1 0.2 0.2 0.1 0.3l-1.5 1.8c-0.1 0.2-0.3 0.3-0.3 0.3-0.1 0.1-0.2 0-0.3-0.1l-7.6-5.9c-0.1-0.1-0.2-0.3-0.1-0.4l0.2-0.3c0.1-0.1 0.3-0.1 0.4-0.1l1 0.5c0.1 0.1 0.3 0.1 0.4 0l7.1-9.1c0.1-0.1 0.1-0.2 0-0.4l-0.8-0.8c0-0.1-0.1-0.3 0-0.4l0.2-0.2c0.1-0.2 0.3-0.2 0.4-0.1l4.1 3.2c0.1 0.1 0.1 0.2 0 0.3l-0.2 0.3c-0.1 0.1-0.3 0.2-0.4 0.1l-1-0.5c-0.1-0.1-0.3 0-0.4 0.1z"/>
				<path id="Layer" fill-rule="evenodd" class="s0" d="m191.1 59.5q-2.6-0.1-4.9-2.6-1-1.2-1.5-2.5-0.5-1.2-0.4-2.5 0.1-1.3 0.8-2.5 0.7-1.3 2.1-2.4 1.4-1.3 2.8-1.8 1.3-0.6 2.6-0.6 1.4 0.1 2.6 0.8 1.2 0.6 2.2 1.8 1.1 1.2 1.6 2.5 0.5 1.3 0.4 2.5-0.1 1.3-0.9 2.6-0.7 1.2-2 2.4-2.7 2.4-5.4 2.3zm6.4-8.2q0.4-1.8-1-3.3-1.3-1.6-3.2-1.4-1.8 0.2-4.2 2.3-2.4 2.1-2.9 3.9-0.4 1.9 1 3.4 1.3 1.5 3.2 1.4 1.8-0.2 4.2-2.3 2.4-2.1 2.9-4z"/>
				<path id="Layer" class="s0" d="m203.3 68.5c0.1-0.1 0.2-0.3 0.1-0.4l-1.6-2.6-5.1 3.1 1.7 2.8c0.1 0.1 0.2 0.3 0.3 0.4l0.6 1c0.1 0.1 0.3 0.1 0.4 0.1l1.4-0.5c0.1 0 0.3 0.1 0.4 0.2l0.5 0.8c0 0.1 0 0.3-0.1 0.3l-2.1 1.2c-0.1 0-0.3 0.1-0.3 0.1-0.1 0.1-0.2 0-0.3-0.1l-5.4-9.1c0-0.1 0-0.3 0.1-0.3l0.3-0.2c0.1-0.1 0.3-0.1 0.4 0l0.8 0.9c0 0.1 0.2 0.1 0.4 0l9.8-5.8c0.1-0.1 0.2-0.3 0.2-0.4l-0.4-1c-0.1-0.2 0-0.3 0.1-0.4l0.3-0.2c0.1-0.1 0.3 0 0.4 0.1l5.1 8.6c0.1 0.1 0.1 0.3 0.1 0.4 0 0-0.1 0.2-0.2 0.3l-2.1 1.3c-0.1 0.1-0.3 0-0.3-0.1l-0.5-0.8c-0.1-0.1 0-0.3 0.1-0.4l1.1-1c0.1-0.1 0.1-0.3 0.1-0.4l-0.6-1.1c0-0.1-0.2-0.3-0.2-0.4l-1.5-2.6-4.6 2.7 1.6 2.7c0.1 0.1 0.2 0.1 0.4 0.1l1-0.4c0.1-0.1 0.3 0 0.4 0.1l0.4 0.7c0.1 0.1 0 0.3-0.1 0.4l-3.3 1.9c-0.2 0.1-0.3 0.1-0.4-0.1l-0.4-0.6c-0.1-0.1 0-0.3 0.1-0.4z"/>
				<path id="Layer" class="s0" d="m34.4 62.4c-0.2 0-0.3 0-0.4 0.1l-1.7 2.6 5 3.2 1.8-2.7c0.1-0.1 0.2-0.3 0.3-0.5l0.5-1c0.1-0.1 0.1-0.3 0-0.4l-1-1c-0.1-0.1-0.2-0.3-0.1-0.4l0.5-0.8c0.1-0.1 0.3-0.1 0.4-0.1l1.9 1.4c0.2 0.1 0.3 0.2 0.3 0.2 0.1 0.1 0.1 0.2 0 0.3l-5.8 8.8c0 0.2-0.2 0.2-0.3 0.1l-0.3-0.2c-0.1-0.1-0.2-0.2-0.1-0.4l0.4-1c0.1-0.1 0-0.3-0.1-0.4l-9.6-6.2c-0.2-0.1-0.3-0.1-0.4 0l-0.8 0.8c-0.1 0.1-0.3 0.1-0.4 0.1l-0.3-0.2c-0.1-0.1-0.1-0.3-0.1-0.4l5.5-8.4c0.1-0.1 0.2-0.2 0.3-0.2 0.1-0.1 0.2 0 0.3 0l2.1 1.3c0.2 0.1 0.2 0.2 0.1 0.4l-0.5 0.7c-0.1 0.1-0.2 0.2-0.4 0.2l-1.4-0.6c-0.1 0-0.3 0-0.4 0.1l-0.7 1c-0.1 0.1-0.2 0.3-0.3 0.4l-1.6 2.5 4.4 2.9 1.7-2.6c0-0.1 0-0.3-0.1-0.4l-0.8-0.8c-0.1-0.1-0.1-0.2 0-0.4l0.4-0.6c0.1-0.1 0.2-0.2 0.3-0.1l3.3 2.1c0.1 0.1 0.2 0.3 0.1 0.4l-0.4 0.7c-0.1 0.1-0.3 0.1-0.4 0.1z"/>
				<path id="Layer" class="s0" d="m217.1 79.8c0 0.1 0 0.3-0.1 0.5l-7.3 10.1 8.5-3c0.1 0 0.2-0.2 0.2-0.3l-0.2-1.1c0-0.1 0.1-0.3 0.3-0.3l0.3-0.2c0.1 0 0.3 0.1 0.3 0.2l1.5 4.2c0 0.1-0.1 0.3-0.2 0.3l-0.3 0.1c-0.2 0.1-0.3 0-0.4-0.1l-0.6-1c0-0.1-0.2-0.2-0.3-0.1l-12.1 4.1c-0.1 0.1-0.3 0-0.3-0.1l-0.4-1.2c-0.1-0.2-0.1-0.4 0-0.5l8.5-11.6-9.9 3.4c-0.1 0.1-0.2 0.2-0.2 0.4l0.2 1.1c0 0.1-0.1 0.3-0.3 0.3l-0.3 0.1c-0.1 0.1-0.3 0-0.3-0.1l-1.5-4.2c0-0.2 0.1-0.3 0.2-0.4l0.3-0.1c0.2 0 0.3 0 0.4 0.2l0.6 0.9c0 0.2 0.2 0.2 0.3 0.2l10.9-3.8c0.1 0 0.2-0.2 0.2-0.3l-0.2-1.1c0-0.1 0.1-0.3 0.2-0.3l0.4-0.2c0.1 0 0.2 0.1 0.3 0.2z"/>
				<path id="Layer" class="s0" d="m209.6 101.7q-0.2 0.5-0.2 1.1 0 0.6 0 1 0.2 1.4 1 2.1 0.7 0.8 1.9 0.6 0.7-0.1 1.1-0.5 0.4-0.4 0.7-0.9 0.3-0.5 0.5-1.2 0.2-0.6 0.5-1.2 0.3-0.9 0.6-1.7 0.3-0.7 0.6-1.2 0.4-0.6 1-0.9 0.5-0.3 1.3-0.5 0.9-0.1 1.7 0.2 0.7 0.3 1.3 0.9 0.6 0.6 1 1.6 0.4 0.9 0.5 2.1 0.1 0.5 0.1 1 0 0.5 0 1 0 0.6 0 1.1c-0.1 0.3-0.1 0.6-0.1 0.6-0.1 0.1-0.1 0.3-0.2 0.3 0 0-0.2 0-0.3 0l-2.2 0.1c-0.1 0-0.3-0.1-0.3-0.3l-0.1-0.9c-0.1-0.1 0-0.3 0.2-0.3l1.6-0.7q0.1-0.3 0.2-0.8 0.1-0.5 0-1.2-0.2-1.2-0.9-1.9-0.7-0.6-1.7-0.5-0.6 0.1-1 0.4-0.4 0.3-0.7 0.8-0.2 0.4-0.4 1-0.1 0.5-0.3 1.1-0.3 0.8-0.6 1.6-0.3 0.8-0.7 1.6-0.4 0.7-1 1.2-0.6 0.5-1.6 0.6-1.2 0.1-2-0.3-0.9-0.3-1.4-1-0.6-0.7-1-1.7-0.3-1-0.5-2.3-0.1-1.1-0.1-2.1c0-0.8 0.1-1.7 0.1-1.7 0.1-0.1 0.1-0.2 0.2-0.2 0 0 0.2-0.1 0.3-0.1h2.2c0.1 0 0.3 0.1 0.3 0.2l0.1 0.9c0 0.1 0 0.3-0.2 0.4z"/>
				<path id="Layer" class="s0" d="m223.3 121c-0.1 0-0.3-0.1-0.3-0.2l-0.2-1.1c0-0.1-0.2-0.2-0.3-0.2h-11.5c-0.1 0-0.3 0.1-0.3 0.3l-0.2 1.1c0 0.1-0.2 0.2-0.3 0.2h-0.4c-0.1 0-0.2-0.1-0.2-0.2v-5.2c0-0.1 0.1-0.3 0.2-0.3h0.4c0.1 0 0.2 0.1 0.3 0.3l0.2 1.1c0 0.1 0.2 0.2 0.3 0.2h11.5c0.1 0 0.2-0.2 0.3-0.3l0.2-1.1c0-0.1 0.1-0.2 0.3-0.2h0.3c0.2 0 0.3 0.1 0.3 0.2v5.2c0 0.1-0.1 0.2-0.3 0.2z"/>
				<path id="Layer" class="s0" d="m210.2 129.8q-0.3 0.4-0.5 0.9-0.2 0.6-0.2 1-0.2 1.4 0.3 2.3 0.4 0.9 1.6 1.1 0.7 0.1 1.2-0.1 0.5-0.2 1-0.6 0.4-0.5 0.8-1 0.4-0.5 0.8-1.1 0.6-0.7 1.1-1.4 0.4-0.6 1-1 0.5-0.4 1.1-0.6 0.6-0.1 1.4 0 0.9 0.2 1.6 0.6 0.6 0.5 1 1.3 0.4 0.8 0.4 1.8 0.1 1-0.1 2.2 0 0.5-0.2 1-0.1 0.5-0.3 1-0.2 0.5-0.4 0.9c-0.1 0.3-0.2 0.6-0.2 0.6-0.1 0.1-0.2 0.2-0.2 0.2-0.1 0-0.2 0-0.4 0l-2.1-0.6c-0.1-0.1-0.2-0.2-0.2-0.3l0.1-0.9c0.1-0.2 0.2-0.3 0.3-0.3l1.8-0.1q0.2-0.3 0.4-0.8 0.2-0.4 0.3-1.1 0.2-1.2-0.2-2.1-0.5-0.8-1.5-0.9-0.6-0.1-1.1 0-0.5 0.2-0.8 0.6-0.4 0.3-0.7 0.8-0.3 0.5-0.7 0.9-0.5 0.7-1 1.4-0.5 0.7-1.1 1.3-0.6 0.5-1.4 0.8-0.7 0.3-1.6 0.2-1.2-0.3-1.9-0.9-0.7-0.6-1.1-1.4-0.3-0.8-0.3-1.9 0-1.1 0.2-2.3 0.1-1.1 0.5-2.1c0.2-0.7 0.6-1.5 0.6-1.5 0-0.1 0.1-0.2 0.2-0.2 0 0 0.2 0 0.3 0l2.1 0.6c0.2 0.1 0.3 0.2 0.2 0.3l-0.1 0.9c0 0.2-0.2 0.3-0.3 0.3z"/>
			</g>
			<g id="Layer">
				<path id="Layer" class="s0" d="m55.4 203.6c0.2 0.1 0.3 0 0.4-0.1l5.9-8.5-11 6.3c-0.1 0-0.3 0-0.4-0.1l-0.4-0.3c-0.2-0.1-0.2-0.3-0.2-0.5l3.2-11.8-6.7 7.2c-0.1 0.1-0.1 0.3 0 0.4l0.7 0.9c0.1 0.2 0 0.3 0 0.4l-0.3 0.3c-0.1 0.1-0.2 0.1-0.3 0l-3.3-3c-0.1-0.1-0.1-0.3 0-0.4l0.2-0.3c0.1-0.1 0.3-0.1 0.4 0l1 0.6c0.1 0 0.3 0 0.4-0.1l7.5-8.4c0.1-0.1 0.1-0.2 0-0.3l-0.7-0.9c-0.1-0.1-0.1-0.3 0-0.4l0.2-0.3c0.1-0.1 0.3-0.1 0.4 0l3.4 2.8c0.1 0.1 0.1 0.2 0.1 0.4l-2.7 10.4 9.3-5c0.1-0.1 0.3-0.1 0.4 0l3.3 2.7c0.1 0 0.1 0.2 0.1 0.3l-0.3 0.3c0 0.1-0.2 0.1-0.3 0.1l-1-0.6c-0.2 0-0.3 0-0.4 0.1l-6.5 9.2c0 0.1 0 0.3 0.1 0.4l0.7 0.8c0.1 0.1 0.1 0.3 0 0.4l-0.2 0.2c0 0.2-0.2 0.2-0.3 0.1l-4.2-3.1c-0.1 0-0.1-0.2-0.1-0.3l0.2-0.3c0.1-0.1 0.3-0.2 0.4-0.1z"/>
				<path id="Layer" fill-rule="evenodd" class="s0" d="m80.1 202.9q1.5 0.8 2.6 1.7 1.1 1 1.7 2.2 0.6 1.2 0.5 2.7-0.1 1.4-1 3.2-0.8 1.6-1.9 2.6-1.2 1-2.5 1.3-1.3 0.4-2.8 0.1c-1-0.2-2.9-1-2.9-1-0.1 0-0.3-0.1-0.5-0.2l-4.9-2.5c-0.1-0.1-0.2-0.3-0.1-0.4l0.1-0.3c0.1-0.1 0.3-0.2 0.4-0.2l1.1 0.4c0.1 0 0.3-0.1 0.3-0.2l5.2-10.2c0.1-0.1 0.1-0.3 0-0.4l-0.9-0.7c-0.1 0-0.2-0.2-0.1-0.3l0.1-0.3c0.1-0.2 0.3-0.2 0.4-0.2zm2.3 6.1q0.2-1.2 0-2.2-0.3-0.9-1-1.7c-0.5-0.5-1.8-1.2-1.8-1.2-0.1-0.1-0.3-0.2-0.4-0.3l-1.3-0.7-5.6 10.9 1.3 0.6q0.9 0.5 1.7 0.7 0.9 0.3 1.6 0.3 1.3-0.1 2.4-1 1.2-0.8 2.2-2.8 0.7-1.4 0.9-2.6z"/>
				<path id="Layer" class="s0" d="m104.5 213c0-0.5 0-0.6 0-0.9 0-0.5-0.2-0.6-0.6-0.9q-0.2-0.1-0.5-0.2-0.5-0.3-1.1-0.4-1-0.2-2 0.1-0.9 0.2-1.7 0.8-0.7 0.6-1.3 1.7-0.5 1-0.8 2.5-0.5 3.1 0.5 4.8 1 1.8 3.5 2.2 0.7 0.2 1.5 0.1 0.8 0 1.7-0.1c0.4-0.1 0.4 0.2 0.4 0.2v0.2c0 0 0.1 0.3-0.2 0.4q-0.8 0.3-1.9 0.5-1.2 0.1-2.7-0.1-1.4-0.3-2.6-0.9-1.2-0.6-1.9-1.6-0.8-1-1.1-2.5-0.2-1.4 0.1-3.3 0.4-2 1.2-3.3 0.8-1.3 2-2 1.2-0.7 2.6-0.9 1.5-0.2 3.1 0.1 1.1 0.2 2.1 0.6 0.6 0.2 1.2 0.5c0.5 0.3 0.4 0.7 0.4 0.7l-0.6 1.9c0 0-0.1 0.4-0.5 0.4-0.3-0.1-0.5-0.1-0.5-0.1 0 0-0.2-0.1-0.3-0.5z"/>
				<path id="Layer" class="s0" d="m126.3 213.4c-0.1-0.4-0.1-0.5-0.2-0.8-0.2-0.4-0.3-0.5-0.8-0.7q-0.3-0.1-0.6-0.2-0.5 0-1.1 0-1.1 0.1-1.9 0.5-0.9 0.4-1.5 1.2-0.5 0.8-0.8 1.9-0.3 1.2-0.2 2.7 0.2 3.1 1.6 4.6 1.4 1.4 3.9 1.3 0.7-0.1 1.6-0.3 0.7-0.2 1.6-0.5c0.3-0.2 0.4 0.1 0.4 0.1v0.2c0 0 0.1 0.3-0.1 0.4q-0.7 0.5-1.7 0.9-1.2 0.5-2.7 0.6-1.4 0.1-2.7-0.2-1.3-0.4-2.3-1.1-0.9-0.9-1.5-2.2-0.7-1.3-0.8-3.3-0.1-1.9 0.4-3.4 0.5-1.5 1.5-2.4 1-1 2.3-1.6 1.4-0.5 3.1-0.6 1.1-0.1 2.1 0.1 0.7 0.1 1.3 0.2c0.6 0.2 0.6 0.6 0.6 0.6l-0.1 2c0 0-0.1 0.4-0.4 0.5q-0.6 0-0.6 0c0 0-0.2 0-0.4-0.5z"/>
				<path id="Layer" class="s0" d="m147.6 209c-0.3-0.5-0.3-0.5-0.5-0.8-0.2-0.4-0.3-0.5-0.8-0.6q-0.3 0-0.6 0-0.6 0-1.1 0.2-1.1 0.3-1.8 0.9-0.8 0.6-1.2 1.5-0.4 0.9-0.4 2.1 0 1.1 0.4 2.6 0.8 3 2.5 4.2 1.7 1.1 4.1 0.4 0.7-0.2 1.4-0.6 0.7-0.3 1.5-0.9c0.3-0.1 0.4 0.1 0.4 0.1l0.1 0.2c0 0 0.2 0.2 0 0.4q-0.6 0.7-1.5 1.3-1 0.7-2.5 1.1-1.4 0.3-2.7 0.3-1.3 0-2.4-0.6-1.1-0.6-2-1.8-0.9-1.1-1.4-3-0.5-1.9-0.3-3.5 0.1-1.5 0.9-2.7 0.7-1.1 2-1.9 1.2-0.8 2.8-1.3 1.1-0.3 2.1-0.4 0.7 0 1.3 0c0.6 0 0.7 0.5 0.7 0.5l0.3 1.9c0 0 0 0.5-0.3 0.5q-0.5 0.2-0.5 0.2c0 0-0.3 0.1-0.5-0.3z"/>
				<path id="Layer" class="s0" d="m165.3 205.5l-6.4-2.9c-0.1 0-0.3 0-0.4 0l-1 0.3c-0.1 0-0.3 0-0.4-0.2l-0.1-0.2c-0.1-0.2-0.1-0.3 0.1-0.4l4.5-2.6c0.1-0.1 0.3 0 0.4 0.1l0.1 0.3c0.1 0.1 0.1 0.3 0 0.4l-0.6 0.5c-0.1 0.1-0.1 0.3 0.1 0.3l4.5 2.1 0.5-5c0-0.1-0.1-0.2-0.2-0.1l-0.8 0.2c-0.1 0-0.3 0-0.4-0.1l-0.2-0.3c0-0.2 0-0.3 0.1-0.4l3.6-2.1c0.2 0 0.3 0 0.4 0.2l0.2 0.2c0 0.2 0 0.3-0.1 0.4l-0.8 0.8c-0.1 0.1-0.2 0.3-0.2 0.4l-0.7 6.4 6.9 3.2c0.2 0.1 0.4 0.1 0.5 0.1l1-0.3c0.1-0.1 0.3 0 0.4 0.1l0.2 0.3c0 0.1 0 0.3-0.1 0.4l-4.6 2.6c-0.1 0-0.3 0-0.4-0.1l-0.1-0.3c-0.1-0.2-0.1-0.4 0-0.4l0.7-0.6c0.1-0.1 0-0.2-0.1-0.3l-5.2-2.5-0.7 5.9c0 0.1 0.1 0.2 0.2 0.2l0.8-0.3c0.1 0 0.3 0 0.4 0.2l0.1 0.3c0.1 0.1 0.1 0.2-0.1 0.3l-3.6 2.1c-0.1 0-0.3 0-0.3-0.1l-0.2-0.3c-0.1-0.1 0-0.3 0.1-0.4l0.8-0.7c0.1-0.1 0.2-0.3 0.2-0.5z"/>
				<path id="Layer" class="s0" d="m180.9 186.3c0.1 0.1 0.1 0.3 0 0.4l-0.7 0.9c-0.1 0.1-0.1 0.3 0 0.4l7.6 8.5c0.1 0.2 0.3 0.2 0.4 0.1l1-0.6c0.1 0 0.3 0 0.4 0.1l0.2 0.3c0.1 0.1 0.1 0.2 0 0.3l-3.9 3.5c-0.1 0-0.3 0-0.4-0.1l-0.2-0.2c-0.1-0.1-0.1-0.3 0-0.4l0.6-0.9c0.1-0.1 0.1-0.3 0-0.4l-7.5-8.6c-0.1-0.1-0.3-0.1-0.4 0l-1 0.5c-0.1 0.1-0.3 0.1-0.4 0l-0.2-0.3c-0.1-0.1-0.1-0.2 0-0.3l3.9-3.5c0.1-0.1 0.3-0.1 0.4 0z"/>
			</g>
			<g id="Layer">
				<path id="Layer" fill-rule="evenodd" class="s0" d="m44.5 50.5c-0.1 0-0.3 0-0.4 0.1l-0.6 0.6 3.9 3.7c0.1 0.1 0.2 0.1 0.4 0l0.9-0.6c0.1-0.1 0.3-0.1 0.4 0l0.2 0.2c0.1 0.1 0.1 0.3 0 0.4l-3.5 3.7c-0.1 0.1-0.3 0.2-0.4 0.1l-0.3-0.3c-0.1-0.1-0.1-0.3 0-0.4l0.6-0.9c0.1-0.1 0.1-0.3 0-0.4l-8.4-7.9c-0.1-0.1-0.2-0.1-0.4-0.1l-0.9 0.7c-0.1 0.1-0.3 0.1-0.4 0l-0.2-0.3c-0.1-0.1-0.1-0.2 0-0.3l3.8-4c0.1-0.1 0.3-0.3 0.4-0.4 0 0 0.6-0.7 1.1-1.1q0.8-0.5 1.6-0.8 0.7-0.3 1.6-0.2 0.8 0.1 1.6 0.9 1.2 1.1 1.2 2.4c0 0.9-0.8 2.6-0.8 2.6 0 0.1 0.1 0.3 0.2 0.3l6.5 1c0.1 0.1 0.3 0 0.4-0.1l0.8-0.5c0.1-0.1 0.3-0.1 0.4 0l0.3 0.2c0.1 0.1 0.1 0.3 0 0.4l-2.2 2.3c-0.1 0-0.3 0.1-0.4 0.1zm-1-0.6c0.1-0.1 0.3-0.3 0.4-0.4 0 0 0.9-1.3 0.9-2q0.1-1.1-1.1-2.3-0.6-0.5-1.1-0.7-0.5-0.2-1-0.1-0.5 0.1-1 0.5c-0.3 0.2-0.8 0.7-0.8 0.7-0.1 0.1-0.2 0.2-0.3 0.3l-0.8 0.8 4.2 3.9q0 0 0.1-0.2z"/>
			</g>
		</g>
	</g>
</svg>