<svg version="1.2" xmlns="http://www.w3.org/2000/svg" viewBox="0 0 234 234" width="234" height="234">
	<title>03_uio_segl_neg-svg</title>
	<style>
		.s0 { fill: #de0000 } 
		.s1 { fill: #ffffff } 
	</style>
	<g id="Segl">
		<g id="Layer">
			<path id="Shape 1" class="s0" d="m117 232c-63.6 0-115-51.6-115-115.5 0-63.9 51.4-115.5 115-115.5 63.6 0 115 51.6 115 115.5 0 63.9-51.4 115.5-115 115.5z"/>
			<g id="Layer">
				<path id="Layer" fill-rule="evenodd" class="s1" d="m1.9 116.4c0-27.9 9.9-53.6 26.4-73.6 21.3-25.8 53.4-42.2 89.4-42.2 64 0 115.8 51.9 115.8 115.8 0 64-51.8 115.8-115.8 115.8-64 0-115.8-51.8-115.8-115.8zm1.7 0c0 31.5 12.8 60.1 33.4 80.7 20.7 20.7 49.2 33.4 80.7 33.4 31.5 0 60-12.7 80.7-33.4 20.6-20.6 33.4-49.1 33.4-80.7 0-31.5-12.8-60-33.4-80.6-20.7-20.7-49.2-33.5-80.7-33.5-35.4 0-67.1 16.2-88 41.6-16.3 19.7-26.1 45-26.1 72.5z"/>
			</g>
			<g id="Layer">
				<path id="Layer" class="s1" d="m27.3 163.4c0.1-1.5 1.3-2.7 2.8-2.7 1.5 0 2.7 1.3 2.7 2.8 0 1.5-1.2 2.7-2.7 2.7-1.6 0-2.8-1.3-2.8-2.8z"/>
				<path id="Layer" class="s1" d="m201.6 165.1c0.1-1.6 1.3-2.8 2.8-2.7 1.5 0 2.7 1.2 2.7 2.7 0 1.5-1.2 2.8-2.8 2.7-1.5 0-2.7-1.2-2.7-2.7z"/>
			</g>
			<g id="Layer">
				<g id="Layer">
					<g id="Layer">
						<path id="Layer" fill-rule="evenodd" class="s1" d="m203.6 116.5c0 11.6-2.2 22.9-6.7 33.4-4.3 10.2-10.5 19.4-18.4 27.3-7.8 7.8-17 14-27.2 18.3-5.6 2.4-11.4 4.1-17.3 5.3-1 0.3-2.5 0.6-4.7 0.7q0 0 0 0-5.7 0.8-11.4 0.8-9.4 0-18.5-2-2.5-0.5-5-1.3-0.1 0-0.1 0-5-1.4-9.8-3.5c-10.2-4.3-19.4-10.5-27.2-18.3-7.9-7.9-14.1-17.1-18.4-27.3-4.5-10.5-6.7-21.8-6.7-33.4 0-11.5 2.2-22.8 6.7-33.3 4.3-10.3 10.5-19.4 18.4-27.3 7.9-7.9 17-14.1 27.2-18.4 10.6-4.4 21.8-6.7 33.4-6.7 11.6 0 22.8 2.3 33.4 6.7 10.2 4.3 19.4 10.5 27.2 18.4 7.9 7.9 14.1 17 18.4 27.3 4.5 10.5 6.7 21.8 6.7 33.3zm-1.7 0c0-11.3-2.2-22.3-6.6-32.7-4.3-10-10.3-19-18-26.7-7.7-7.7-16.7-13.8-26.7-18-10.4-4.4-21.4-6.6-32.7-6.6-11.4 0-22.4 2.2-32.7 6.6-10 4.2-19 10.3-26.7 18-7.8 7.7-13.8 16.7-18 26.7-4.4 10.4-6.6 21.4-6.6 32.7 0 11.4 2.2 22.4 6.6 32.7 4.2 10 10.2 19 18 26.7q2.1 2.2 4.4 4.2 0.1-0.3 0.2-0.5c0.3-0.5 0.7-1.1 1.1-1.6 0.7-1 1.5-1.8 1.5-1.9l2.3-2.5c-1.8-1.5-6.5-5.9-12.7-15.5-5.4-8.4-7.1-13.8-7.1-17.4 0-1.8 0.4-3.1 1.1-4l8.5-11.7c-0.8-0.8-1.7-1.6-2.6-2.4-3.6-3.2-6.8-6.1-6.8-6.2-0.1-0.1-0.2-0.3-0.2-0.6q0-0.3 0.2-0.6l46.4-46.9q0.1-0.1 0.1-0.1c0.3-0.3 0.6-0.5 0.7-0.6 4.1-2.8 8.4-4.7 9.1-5.1v-1.6c-0.4-0.1-1-0.3-1.6-0.7-1.2-0.7-2.6-2.1-3-4.3q-0.2-1.4-0.2-2.3c0-1.2 0.2-2 0.3-2.3q0-0.3 0-1c0-2.2 0.3-7.2 3.9-10 2.7-2.2 5.3-2.7 7.3-2.7 1.2 0 2.2 0.2 2.9 0.3 1 0.1 4.5 1 5.2 1.2 1.5 0 2.6 0.5 3.3 1.2 0.8 0.7 1 1.7 1 2.5 0 1.3-0.6 2.3-1 2.7 0.1 1.1 0.5 4.7 0.6 6.9q0.2 1.3 0.2 1.6c0 0.3-0.2 0.6-0.4 0.8-0.1 0.1-0.3 0.2-0.4 0.3q-0.4 0.2-0.8 0.2-0.1 0-0.2 0l0.1 0.9c0 0.3-0.1 0.5-0.3 0.7 0.1 0.3 0.1 0.5 0 0.8l-0.4 0.7q0.1 0.3 0.1 0.8 0 0.5-0.2 1c-0.2 0.7-0.7 1.2-1.4 1.4-0.6 0.3-1.3 0.4-2.2 0.4h-1c0.1 0.2 0.1 0.5 0.2 0.7 0.3 0.4 0.5 0.7 1.3 0.9 1.9 0.6 3.6 1.1 4.7 1.5 1.3 0.4 2.3 1.5 3.2 2.7q0.6 0.7 1.1 1.5 0-1 0-1.9c0-8 0-13.7 0-13.7q0-0.4 0.2-0.6 0.3-0.3 0.6-0.3c2.5 0 4.1 1 4.9 2.1 0.4 0.5 0.7 1 0.8 1.4h15.6c0.2-0.4 0.4-0.8 0.8-1.3 0.9-0.9 2.4-1.8 5-1.7q0.3 0 0.6 0.2 0.2 0.3 0.3 0.6c0 0-0.1 4.5-0.1 12.1 0 4.1 1 7.4 2.1 10.9 1.1 3.5 2.2 7.3 2.2 12 0 2.7-0.5 5.3-1.6 7.6 0.5 0.4 0.9 0.9 1.3 1.4 0.3 0.7 0.7 1.5 0.7 2.4 0 0.6-0.2 1.3-0.7 1.8-0.5 0.6-2.9 2.5-3.4 2.9-0.6 0.4-1.7 0.8-2.6 1.2-0.8 0.3-1.6 0.5-1.8 0.6l5.1 56.2c0 0.3-0.2 0.6-0.5 0.8l-7.7 4.3q0 0 0 0.1v7.1q0.1 0.1 0.1 0.3c-0.1 0.9-0.2 4-3 6-2.8 2.1-8.7 5.1-16.8 5.3l-0.1 2.6 2.8 3.6c0.2 0.3 0.2 0.8-0.1 1.1 0 0 0 0.1 0.1 0.2 0.2 0 1.3 0.3 1.3 0.3l3.6-0.1c0.6 0 1.7 0.5 1.7 1.5l0.1 1.7q6.2-1.5 12.1-4c10-4.3 19-10.3 26.7-18.1 7.7-7.7 13.8-16.7 18-26.7 4.4-10.3 6.6-21.3 6.6-32.7zm-149.4 20.4q0 0-0.1 0c-0.5 0-1.1 0.2-1.6 0.7q0 0.1 0 0.1h-0.1q0 0.1 0 0.1c-0.4 0.5-0.8 1.4-0.8 2.9 0 3 1.6 8.2 6.9 16.5 6.2 9.5 10.8 13.8 12.3 15.1l21.4-24.5c0 0 6.7-24.8 6.8-25.1 0-0.3-0.1-0.5-0.1-0.5l-1.5-1.2c-0.3-0.2-0.4-0.6-0.3-0.9l6.1-21.1q-0.1-0.1-0.2-0.3-0.4-0.5-1-1.4c-0.7-1.1-1.7-2.7-2.6-4.9-1.7-3.7-3.3-8.5-3.7-15.4-0.1-0.4-0.2-1.2-0.3-1.6l-26.2 61.3v0.1q-0.1 0.1-0.1 0.1c0 0.1-0.3 0.7-1 1.2-0.6 0.6-1.7 1.2-3.3 1.2q-0.6 0-1.3-0.1c-3.5-0.7-6.9-2-9.3-2.3zm12.7-7.4c1.1 1.1 1.8 2.2 2.2 3.2l25.5-60-42.6 43.1c2.7 2.4 12.5 11.4 14.9 13.7zm-6-3.3l-6.6 9q0.1 0 0.2 0c2.7 0.3 6 1.6 9.3 2.3q0.6 0.1 1 0.1c2 0 2.7-1.3 2.8-1.4q0 0 0-0.1 0 0 0.1-0.2c0-0.2 0.1-0.5 0.1-0.9 0-1.1-0.3-2.5-2.1-4.3-0.9-0.8-2.7-2.5-4.8-4.5zm47.3-76.1l-3.6 1.2c-0.6 0.6-1 1-1 1q-0.1 0-0.1 0-0.1 0.4-0.1 1.3 0 0.8 0.2 2.1c0.2 1.4 1 2.2 1.8 2.8 0.6 0.4 1.3 0.7 1.7 0.8l2.6-2.7q-0.1 0-0.2-0.1c-0.6-0.7-1.1-1.8-1.1-3.4-0.1-0.8 0.3-1.5 0.8-1.8 0.4-0.3 0.7-0.4 0.8-0.4h0.2l2-0.1 4-5.3c0.1-0.2 0.4-0.3 0.6-0.3l6.4-0.7q0.1-0.2 0.2-0.4c0.2-0.3 0.4-0.8 0.4-1.3 0-0.5-0.1-0.9-0.5-1.3-0.3-0.3-0.9-0.6-2.2-0.6l-0.2-0.1c0 0-1.1-0.3-2.2-0.6-1.2-0.2-2.5-0.6-2.9-0.6-0.8-0.1-1.7-0.3-2.7-0.3-1.7 0-3.7 0.4-6.2 2.3-2.6 1.9-3.2 5.9-3.2 8.1q0.6-0.6 1.4-1.3l2.2-4.3c0.2-0.4 0.8-0.6 1.2-0.3 0.4 0.2 0.6 0.7 0.3 1.1l-0.2 0.4q0.5-0.3 0.9-0.6 0.2-0.2 0.5-0.4l2-2.8c0.3-0.4 0.8-0.5 1.2-0.2 0.4 0.3 0.5 0.8 0.2 1.2 1.8-0.8 3.3-1.3 3.3-1.3 0.5-0.1 1 0.2 1.1 0.6 0.1 0.5-0.1 1-0.6 1.1q0 0-0.6 0.2-0.6 0.2-1.6 0.6c-1 0.4-2.2 1-3.3 1.6h0.5c0.5-0.1 0.9 0.2 1 0.7 0 0.5-0.3 0.9-0.8 1l-3.7 0.4q-0.5 0.5-1.1 1c0.5-0.1 0.9 0.1 1.1 0.6 0.1 0.4-0.1 0.9-0.5 1.1zm13.6 4.5q0-0.3 0.2-0.6 0.3-0.3 0.6-0.3c0 0 0.2 0 0.5 0 0.2-0.1 0.4-0.1 0.4-0.4q0-0.4 0-0.8c-0.1-0.6-0.3-1.7-0.3-2.6-0.1-0.1-0.2-0.3-0.4-0.3-0.4 0-0.7 0.3-0.7 0.8-0.1 0.4-0.2 0.8-0.6 0.9-0.4 0.1-1-0.1-1.6-0.3-0.5-0.1-0.9-0.2-1.1-0.4-0.4-0.3-0.4-1 0-1.3 0.5-0.4 1.3-0.7 2-0.8q1.1 0 2 0c0.1 0 0.3-0.1 0.3-0.4q-0.1-0.9-0.2-1.6c0-0.3-0.3-0.3-0.3-0.3l-4.9 0.5c0 0-0.4 0.1-0.6 0.4-0.3 0.3-3.9 5.1-3.9 5.1-0.1 0.2-0.4 0.3-0.6 0.3h-2.3q0 0.1-0.1 0.1c-0.1 0.1-0.1 0.1-0.2 0.5 0.1 2.1 1.1 2.4 1.3 2.5 0.3 0.1 0.5 0.3 0.6 0.6 0 0.3-0.1 0.7-0.3 0.9l-3.4 3.4v2.5c0 0.4-0.2 0.7-0.5 0.8q0 0-0.4 0.2l5.4 4.3 7.9-0.6-3.1-3.4q0 0 0 0-0.3-0.4-0.6-0.8c-0.3-0.7-0.4-1.5-0.4-1.9 0-0.4 0-0.6 0-0.7 0.1-0.4 0.5-0.7 0.9-0.7l1.8 0.1c0.7 0 1.3-0.1 1.6-0.3 0.3-0.1 0.5-0.6 0.5-0.8 0-0.3-0.1-0.6-0.1-0.7q0 0 0 0-0.1-0.3 0-0.7c0 0 0.2-0.2 0.2-0.3 0.1-0.1 0.1-0.2 0-0.2-0.1-0.2-0.2-0.5-0.2-0.7q0.1-0.5 0.5-0.7c0.2-0.1 0.2-0.4 0.2-0.4zm-16.2 10.3c-0.6 0.3-1.2 0.6-1.8 0.9q-0.6 0.4-1.3 0.7 0.5 0 0.9 0c1.7 0 3.3 0.4 4.4 1.5 2.2 2.2 4.4 5.5 4.9 6.2l9.7 6.5 4.4-3.4c0.6-1.7 1.1-3.5 1.4-5.2-0.4-1-1.2-2.3-2-3.3-0.8-1.1-1.8-2-2.3-2.1q-1.1-0.3-2.7-0.8l1.8 2c0.3 0.2 0.3 0.6 0.2 0.9-0.1 0.3-0.4 0.5-0.8 0.5l-10 0.7q0 0 0 0-0.3 0-0.6-0.2zm-7.2 5.6q-0.2 0.3-0.3 0.6-0.1 0.1-0.1 0.1-0.1 0.3-0.2 0.5 0 0-0.1 0.1-0.1 0.2-0.2 0.5 0 0 0 0-0.1 0.3-0.1 0.5-0.2 0.5-0.2 0.9 0 0 0 0.1 0 0.1-0.1 0.3 0 0.2 0 0.4 0 0.3 0.1 0.6 0 0.1 0 0.3 0 0.1 0.1 0.3 0 0.3 0.1 0.7 0 0 0 0 0.1 0.2 0.2 0.4 0 0 0 0.1 0.2 0.3 0.3 0.6 0.1 0.1 0.1 0.1 0.1 0.2 0.2 0.3 0.1 0.2 0.1 0.3 0.1 0.1 0.2 0.3 0.2 0.1 0.3 0.3 0.1 0.1 0.1 0.1 0.2 0.3 0.4 0.5c1.3 1.3 2.8 2.2 3.6 2.6 4.3 2.3 9.9 4.8 14.4 6.8 3.2 1.3 5.9 2.4 7.2 2.9 0.2 0.1 0.4 0 0.5-0.1q0.3-0.2 0.7-0.5c0.9-0.8 2.1-1.9 3.6-3.4 1.4-1.4 3.6-4.2 5.4-6.6 1.8-2.4 3.3-4.5 3.3-4.5 0.1-0.2 0.3-0.3 0.6-0.4 0 0 1.2-0.1 1.9-0.1q0 0 0.1 0 0.1 0 0.2 0 0.3-0.1 0.6-0.2c0.5-0.1 1.2-0.2 1.7-0.4 1.2-0.2 2.3-0.5 2.3-0.5l0.3-0.1h0.8c0.1 0 0.4 0 0.7-0.1 0.2 0 0.6-0.1 0.6-0.6 0-0.5-0.5-0.6-0.8-0.6-0.4-0.1-0.7-0.4-0.7-0.8 0 0 0-1.5 0-2.6 0-0.6-0.2-0.8-0.5-1-0.3-0.3-1-0.4-1.9-0.4q-0.2 0-0.4 0c-1.9 0-4.8 1.8-5.5 2.2-0.2 0.2-0.7 0.6-1.1 0.9-0.4 0.3-0.7 0.6-0.7 0.6l-13.2 10c-0.3 0.2-0.7 0.3-1 0l-10.3-6.9q-0.1-0.1-0.2-0.2c0-0.1-0.7-1-1.6-2.2-0.9-1.3-2.1-2.8-3.2-3.9-0.7-0.7-1.9-1.1-3.2-1.1-2.1 0-4.3 1-5.1 2.3zm32.1-3q0 2.4-0.4 4.6 0 0.1-0.1 0.2-0.3 1.7-0.8 3.4l3.9-3c0.5-2.6 0.8-6 0.8-11.4q0-0.4 0.3-0.6 0.2-0.3 0.6-0.3h16.6q0.3 0 0.6 0.3 0.2 0.2 0.2 0.6c0 7.5 0.6 11.8 1.3 14.9 0.6 3 1.3 5 1.3 7.9-0.1 6.3-4.9 12-11.4 12.1q-0.1 0-0.2 0 0 0-0.1 0 0 0-0.1-0.1c-3 0-5.9-1.1-8.1-2.9-1.6-1.4-2.8-3.2-3.4-5.3q-0.6 0.6-1 1.1c-1.9 1.9-3.4 3.2-4.3 3.9 0.5 2.8 1.8 5.4 3.8 7.6 2.8 2.8 6.9 4.8 12.6 4.8 4 0 7.2-0.9 9.8-2.4-0.2-0.5-0.3-1-0.3-1.5q0-0.4 0.1-0.8c0.1-0.4 0.4-0.7 0.6-1q0.4-0.4 0.8-0.8 0.4-0.3 0.6-0.5c-0.1-0.3-0.3-0.6-0.3-1.1q0-0.2 0.1-0.5c0.3-0.5 0.6-0.8 1-1.1 0.5-0.3 0.9-0.6 1.6-0.6q0.2 0 0.3 0c0.4 0.1 1.1 0.4 1.8 0.8 0.9-2.1 1.4-4.3 1.4-6.7 0-4.4-1.1-7.9-2.2-11.4-1.1-3.5-2.2-7.1-2.2-11.4 0-5.4 0.1-9.1 0.1-10.9 0-0.2-0.1-0.3-0.2-0.3-1.4 0.2-2.1 0.6-2.6 1-0.5 0.6-0.6 1.1-0.7 1.2 0 0.4-0.4 0.7-0.8 0.7h-16.8c-0.4 0-0.8-0.3-0.9-0.7q0 0 0-0.1 0-0.1-0.1-0.3c-0.1-0.2-0.3-0.6-0.5-0.9-0.5-0.6-1.2-1.1-2.5-1.3-0.1 0-0.2 0-0.2 0.4 0 2.2 0 6.7 0 12.4zm24.1 35.9c-0.1 0.5-0.3 0.7-0.4 0.9q-0.3 0.2-0.5 0.4c-0.1 0.1 0 0.3 0 0.3 0 0 0 0.2 0.3 0.1q0.4-0.1 0.8-0.3c0.9-0.3 2-0.8 2.3-1 0.2-0.1 2.8-2.3 3-2.6 0.2-0.1 0.3-0.4 0.3-0.6 0-0.5-0.2-1.1-0.5-1.6-0.3-0.5-1-1.1-1.8-1.6-0.5-0.3-1-0.5-1.3-0.6-0.1-0.1-0.5-0.2-0.8 0.1-0.3 0.3-0.3 0.5-0.2 0.7q0.1 0.1 0.2 0.3c0 0.1 0.1 0.3 0.1 0.6 0.1 0.2-0.1 0.6-0.3 0.8 0 0-0.5 0.3-0.9 0.7-0.5 0.4-1 0.9-1.1 1.1q0 0.1 0 0.3c0 0.3 0.1 0.7 0.6 1.4 0.1 0.2 0.2 0.4 0.2 0.6zm-2.8 1.8q-1 0.4-2 0.7l0.7 60.5c0 0 6.1-3.4 6.3-3.5 0.2-0.1 0.1-0.3 0.1-0.3zm-22.7 84.7c0 0 2.5-71.3 2.5-71.6 0-0.2-0.1-0.4-0.5-0.4-0.4 0.1-2.6 0.2-2.6 0.2-0.3 3.7-1.6 21.6-4.5 40.4-2.8 18.3-6.6 36.2-7.6 40.8 6.3-0.7 11.7-2.7 15.1-5.4 0.1-0.1 0.2-0.2 0.1-0.4-0.1-0.1-2.4-3-2.4-3q-0.1-0.2-0.1-0.6zm-29.7-69.5c0.4 0.3 0.5 0.4 0.7 0.5 0.2 0.2 0.6 0.1 0.6 0.1 0 0 12-3.2 12.5-3.4 0.5-0.1 1.1-0.2 1.6-0.2 3.4-0.3 17.1-1.2 17.5-1.3 0.5 0 0.6-0.3 0.6-0.5 0-0.2 0-10.9 0-10.9q-2.3-1.3-4.1-3.1c-1.3-1.4-2.3-2.9-3-4.6l-14.1 0.9c0 0-1.1 0.1-1.7 0.3-0.7 0.2-4.8 1.3-4.8 1.3 0 0-0.2 0.1-0.3 0.4-0.1 0.2-5.7 19.6-5.7 19.6 0 0-0.2 0.6 0.2 0.9zm5.5-22.6c0.2 0 3.3-0.9 4.6-1.3 1.1-0.3 2.6-0.4 2.6-0.4l13-0.7q-0.2-0.9-0.4-1.8 0 0-0.1 0c0 0-13.8-5.4-22.5-10.1-0.9-0.5-2.6-1.5-4-3q-0.1-0.1-0.3-0.3c1.4 10.1 5.3 15.7 6.7 17.6 0 0 0.2 0.1 0.4 0zm26 87.6c7.7-0.2 13.3-3.1 15.8-4.9 2.1-1.5 2.2-4 2.2-4.7q0-0.2 0-0.2l-0.8-69.2q-2.5 0.6-5.4 0.6 0 0 0 0c-3.1 0-5.8-0.5-8.1-1.5v11.2c0 0.4-0.3 0.8-0.7 0.8l-0.6 0.2zm5.1-93.7q1.1 0.9 2.4 1.5v-14.3c-1.3 1.7-3.5 4.7-5.5 7.2 0.4 2.4 1.5 4.3 3.1 5.6zm6.3 2.6v-16.9q-0.3 0.1-0.5 0.1c-0.6 0.1-0.9 0.2-1.3 0.2q-0.2 0-0.4 0v16.2q1.1 0.3 2.2 0.4zm3.8-0.4v-17.3h-0.3c-0.3 0-1 0.2-1.8 0.4v17.3q1.1-0.1 2.1-0.4zm3.4-19.8q0 0.6-0.1 1.1c-0.1 0.3-0.1 0.5-0.5 0.9-0.1 0.1-0.3 0.3-0.7 0.3q0.1 0 0 0-0.1 0-0.2 0-0.1 0-0.2 0v16.8q1.4-0.8 2.4-2c1.8-1.9 2.8-4.5 2.8-7.2 0-2.6-0.6-4.4-1.2-7.6-0.6-3.1-1.3-7.3-1.3-14.4h-2.7v7q0.2 0.5 0.2 1.1c0 0.6 0 1.4 0 1.9q0.2 0.1 0.5 0.1c0.6 0.2 0.8 0.7 0.9 1 0.1 0.3 0.1 0.7 0.1 1zm-5.5-12.1v5c0.8 0 1.5 0.1 2.1 0.3v-5.3zm-3.9 0v5.9c0.7-0.3 1.4-0.6 2.2-0.7v-5.2zm-4.5 0c0 3.9-0.3 6.8-0.6 9.1 0.2-0.2 1.3-1.1 2.1-1.6 0.2-0.2 0.7-0.4 1.2-0.8v-6.7zm-0.5 9.1q0 0 0 0 0 0 0 0zm-65.5 106.9q0.1 0.3 0.3 0.6c0.8 1.3 2 3.3 4 5.4 3.9 4.3 10.8 9.6 22.6 13.3q2.5 0.7 5 1.3c3.2 0.6 6.5 0.9 9.6 0.9 1 0 1.9-0.1 2.9-0.1 0.4 0 0.6-0.3 0.6-0.5 0.4-1.8 1.4-6.2 2.5-11.9 1.6-7.8 3.5-18.3 5.1-28.8 1.7-10.5 2.8-20.8 3.5-28.4 0.5-5.6 0.8-9.8 1-11.6l-3.5 0.2c-0.4 4.4-3.1 29.1-14 42.1-13.3 15.6-31.5 17.2-38.4 17.2q-0.5 0-1 0c-0.2 0-0.3 0.1-0.2 0.3zm0.8-2q0.2 0 0.4 0c6.6 0 24.3-1.6 37-16.7 8.6-10 12.1-28.5 13.3-37.1 0.2-1.6 0.3-2.9 0.4-3.7l-6.8 0.5c0 0-0.6 0.1-1.1 0.2-0.5 0.1-12.6 3.5-12.6 3.5 0 0-0.2 0-0.3 0.2 0 0.2-6.9 25.5-6.9 25.5q0 0.2-0.2 0.4c0 0-23.2 26.6-23.4 26.9-0.2 0.2 0 0.2 0.2 0.3zm49.2 24.5q8 0 15.7-1.4c0.8-0.3 2.7-0.8 3-1.1 0.3-0.2 0.2-0.7 0.2-0.7 0 0 0-0.2 0-0.3 0-0.2-0.3-0.6-1-0.6-0.2 0-2.8 0.2-2.8 0.2q-0.1 0-0.3-0.1l-2.7-0.7c-3.2 2.3-7.5 3.9-12.4 4.7q0.2 0 0.3 0zm-44.1-12.5c-4.6-4-6.7-7.7-7.6-9.7-0.5 0.6-1.1 1.4-1.5 2.1q-0.1 0.2-0.2 0.4c-0.1 0.3 0.1 0.6 0.3 0.7q4.2 3.6 9 6.5z"/>
					</g>
				</g>
			</g>
			<g id="Layer">
				<path id="Layer" class="s1" d="m19.7 123.7q1.5-0.2 2.5 0.1 1.1 0.2 1.8 0.8 0.8 0.7 1.2 1.8 0.4 1 0.6 2.6 0.2 1.3 0.1 2.4-0.2 1.1-0.7 1.9-0.5 0.8-1.4 1.4c-0.7 0.3-2.1 0.7-2.1 0.7-0.2 0-0.4 0-0.5 0l-7.6 1c-0.2 0.1-0.3 0.2-0.3 0.3l-0.1 1.1c0 0.2-0.1 0.3-0.2 0.3l-0.4 0.1c-0.1 0-0.3-0.1-0.3-0.2l-0.6-5.2c-0.1-0.1 0-0.2 0.2-0.2l0.3-0.1c0.2 0 0.3 0.1 0.4 0.2l0.3 1.1c0 0.1 0.2 0.2 0.4 0.2l8.5-1.1q1.5-0.2 2.3-1.3 0.8-1 0.5-2.9-0.2-1.9-1.3-2.6c-0.7-0.5-2.8-0.5-2.8-0.5-0.1 0-0.4 0-0.5 0l-7.7 1.1c-0.2 0-0.3 0.1-0.3 0.2l-0.1 1.2c0 0.1-0.1 0.2-0.2 0.3h-0.4c-0.1 0-0.2-0.1-0.3-0.2l-0.6-4.6c0-0.2 0.1-0.3 0.3-0.3h0.3c0.1-0.1 0.3 0 0.3 0.2l0.4 1c0 0.2 0.2 0.3 0.3 0.2z"/>
				<path id="Layer" class="s1" d="m10.5 111.8c0-0.1 0.1-0.3 0.3-0.4l10.7-6.4-9-0.6c-0.1 0-0.3 0.1-0.3 0.2l-0.3 1.1c-0.1 0.1-0.2 0.2-0.4 0.2h-0.3c-0.1 0-0.2-0.2-0.2-0.3l0.3-4.4c0-0.1 0.1-0.3 0.3-0.2h0.3c0.2 0 0.3 0.1 0.3 0.3l0.1 1.1c0.1 0.1 0.2 0.2 0.3 0.3l12.7 0.9c0.2 0 0.3 0.2 0.3 0.3l-0.1 1.2c0 0.2-0.1 0.4-0.3 0.4l-12.4 7.3 10.5 0.8c0.1 0 0.3-0.1 0.3-0.2l0.3-1.1c0.1-0.1 0.2-0.2 0.3-0.2h0.4c0.1 0 0.2 0.1 0.2 0.3l-0.3 4.4c0 0.1-0.2 0.2-0.3 0.2h-0.3c-0.2 0-0.3-0.1-0.3-0.3l-0.2-1.1c0-0.1-0.1-0.3-0.2-0.3l-11.5-0.8c-0.1 0-0.3 0.1-0.3 0.2l-0.3 1.1c0 0.1-0.2 0.2-0.3 0.2h-0.4c-0.1 0-0.2-0.2-0.2-0.3z"/>
				<path id="Layer" class="s1" d="m14.9 88c0.2 0.1 0.3 0.2 0.3 0.3l-0.1 1.1c0 0.2 0.1 0.3 0.2 0.4l11.2 2.7c0.1 0.1 0.3 0 0.3-0.1l0.5-1c0.1-0.2 0.2-0.2 0.4-0.2l0.3 0.1c0.1 0 0.2 0.2 0.2 0.3l-1.3 5c0 0.1-0.2 0.2-0.3 0.2l-0.3-0.1c-0.2 0-0.3-0.2-0.3-0.3l0.1-1.1c0-0.1-0.1-0.3-0.2-0.3l-11.2-2.8c-0.1 0-0.3 0-0.3 0.2l-0.5 1c-0.1 0.1-0.2 0.2-0.4 0.1l-0.3-0.1c-0.1 0-0.2-0.1-0.2-0.3l1.3-5c0-0.1 0.2-0.2 0.3-0.2z"/>
				<path id="Layer" class="s1" d="m32.4 79.6c0.1 0.1 0.1 0.3 0 0.4l-0.6 1.4c0 0.1-0.2 0.2-0.3 0.2l-13.5-0.9c-0.2 0-0.4 0.1-0.4 0.2l-0.5 0.7c-0.1 0.1-0.3 0.2-0.4 0.1l-0.3-0.1c-0.2-0.1-0.2-0.2-0.2-0.4l1.9-4.3c0-0.1 0.2-0.2 0.3-0.2l0.3 0.2c0.1 0 0.2 0.2 0.2 0.3l-0.1 0.9c-0.1 0.1 0 0.3 0.2 0.3l10.8 0.8-8-7.6c-0.1-0.1-0.2-0.1-0.3 0l-0.6 0.9c-0.1 0.1-0.2 0.2-0.4 0.1l-0.3-0.1c-0.1 0-0.2-0.2-0.1-0.3l1.6-3.9c0.1-0.2 0.2-0.2 0.4-0.2l0.3 0.1c0.1 0.1 0.2 0.3 0.2 0.4l-0.2 1c-0.1 0.2 0 0.4 0.1 0.5z"/>
				<path id="Layer" class="s1" d="m59.5 42.5q0.5-0.1 1-0.4 0.5-0.2 0.9-0.5 1.1-0.8 1.4-1.8 0.3-1-0.4-1.9-0.4-0.6-1-0.8-0.5-0.2-1.1-0.2-0.6 0-1.2 0.1-0.7 0.1-1.3 0.2-1 0.1-1.8 0.2-0.8 0.1-1.4 0-0.7 0-1.2-0.3-0.6-0.4-1.1-1-0.5-0.8-0.6-1.6-0.1-0.8 0.1-1.6 0.3-0.8 1-1.6 0.6-0.7 1.6-1.5 0.3-0.2 0.8-0.5 0.5-0.3 0.9-0.5 0.5-0.2 1-0.4c0.3-0.1 0.6-0.2 0.6-0.2 0.1-0.1 0.3-0.1 0.3-0.1 0 0.1 0.1 0.2 0.2 0.3l1.1 1.9c0 0.2 0 0.3-0.1 0.4l-0.7 0.5c-0.1 0.1-0.3 0.1-0.4 0l-1.4-1.1q-0.3 0-0.8 0.2-0.5 0.2-1 0.6-1 0.7-1.3 1.6-0.2 1 0.4 1.8 0.4 0.5 0.8 0.7 0.5 0.2 1 0.2 0.5 0 1-0.1 0.6-0.1 1.2-0.2 0.8-0.1 1.7-0.3 0.8-0.1 1.7-0.1 0.8 0 1.5 0.3 0.8 0.3 1.3 1.1 0.7 1 0.7 1.9 0.1 0.9-0.2 1.8-0.3 0.8-1.1 1.6-0.7 0.8-1.7 1.5-0.9 0.6-1.9 1.1c-0.6 0.3-1.4 0.7-1.4 0.7-0.2 0-0.3 0-0.3 0-0.1 0-0.2-0.1-0.2-0.3l-1.1-1.9c-0.1-0.1-0.1-0.3 0-0.3l0.8-0.6c0.1-0.1 0.3 0 0.4 0z"/>
				<path id="Layer" class="s1" d="m69.8 21.4c0 0.1 0 0.3-0.1 0.4l-0.9 0.7c-0.1 0-0.1 0.2 0 0.3l5.4 10.1c0.1 0.2 0.2 0.2 0.4 0.2l1-0.3c0.1-0.1 0.3 0 0.4 0.1l0.1 0.3c0.1 0.1 0.1 0.3-0.1 0.4l-4.5 2.4c-0.2 0.1-0.3 0-0.4-0.1l-0.1-0.3c-0.1-0.1-0.1-0.3 0-0.4l0.9-0.7c0.1-0.1 0.1-0.2 0.1-0.4l-5.5-10.1c0-0.1-0.2-0.2-0.3-0.1l-1.1 0.3c-0.1 0-0.3 0-0.4-0.1l-0.1-0.3c-0.1-0.2 0-0.3 0.1-0.4l4.5-2.4c0.2-0.1 0.3-0.1 0.4 0.1z"/>
				<path id="Layer" class="s1" d="m75.4 18.1c0-0.1 0.2-0.2 0.3-0.3l10.6-3.8c0.2-0.1 0.3-0.1 0.4-0.1 0.1 0 0.2 0.2 0.2 0.3l0.9 2.3c0.1 0.1 0 0.2-0.1 0.3l-0.9 0.3c-0.1 0.1-0.3 0-0.4-0.1l-0.7-1.1c-0.1-0.2-0.3-0.2-0.4-0.2l-1.1 0.4c-0.1 0-0.4 0.1-0.5 0.1l-1.1 0.4 4 11c0.1 0.1 0.2 0.2 0.4 0.2l1-0.2c0.2 0 0.3 0.1 0.4 0.2l0.1 0.3c0.1 0.2 0 0.3-0.1 0.3l-4.9 1.8c-0.1 0.1-0.3 0-0.3-0.2l-0.1-0.3c-0.1-0.1 0-0.3 0.1-0.3l0.9-0.6c0.2-0.1 0.2-0.3 0.2-0.4l-4-11-1.1 0.4c-0.1 0.1-0.4 0.2-0.5 0.2l-1.1 0.5c-0.1 0-0.2 0.2-0.2 0.3l0.2 1.4c0 0.1-0.1 0.3-0.2 0.3l-0.9 0.3c-0.1 0.1-0.3 0-0.3-0.1l-0.8-2.3c0-0.1 0-0.2 0-0.3z"/>
				<path id="Layer" fill-rule="evenodd" class="s1" d="m101.4 19.6l-4.7 0.9-0.8 4.3c0 0.1 0.1 0.3 0.2 0.3h1c0.2 0 0.3 0.1 0.3 0.2l0.1 0.4c0 0.1-0.1 0.2-0.2 0.3l-4.2 0.7c-0.1 0.1-0.2 0-0.3-0.2v-0.3c0-0.1 0-0.3 0.2-0.4l0.8-0.3c0.2-0.1 0.3-0.2 0.3-0.4l2.6-13.6c0.1-0.2 0.2-0.3 0.3-0.3l1.9-0.4c0.1 0 0.3 0.1 0.3 0.2l6.8 11.9c0.1 0.1 0.2 0.2 0.4 0.2h0.9c0.1 0 0.3 0.2 0.3 0.3v0.3c0.1 0.2 0 0.3-0.2 0.3l-4.7 0.9c-0.2 0-0.3 0-0.3-0.2l-0.1-0.3c0-0.2 0.1-0.3 0.2-0.4l0.9-0.3c0.1-0.1 0.1-0.2 0.1-0.4zm-3.5-6.2l-1.1 6 4-0.7z"/>
				<path id="Layer" class="s1" d="m114.5 22.5q0.5 0.2 1.1 0.3 0.5 0.1 1 0.1 1.4 0 2.2-0.7 0.8-0.6 0.8-1.7 0-0.7-0.3-1.2-0.3-0.5-0.8-0.9-0.5-0.4-1.1-0.6-0.5-0.3-1.1-0.6-0.9-0.5-1.6-0.9-0.7-0.4-1.2-0.8-0.4-0.4-0.7-1-0.3-0.6-0.3-1.5 0-0.9 0.4-1.6 0.4-0.7 1.1-1.2 0.7-0.5 1.7-0.7 1-0.2 2.2-0.3 0.4 0 1 0.1 0.5 0.1 1 0.2 0.5 0 1 0.2c0.3 0 0.6 0.1 0.6 0.1 0.2 0.1 0.3 0.2 0.3 0.2 0 0.1 0 0.2 0 0.3l-0.3 2.2c0 0.2-0.1 0.3-0.3 0.3h-0.9c-0.1 0-0.2-0.1-0.3-0.3l-0.4-1.7q-0.3-0.2-0.8-0.3-0.5-0.1-1.2-0.1-1.2 0-1.9 0.6-0.8 0.6-0.8 1.6 0 0.6 0.3 1.1 0.2 0.4 0.6 0.7 0.4 0.3 1 0.5 0.5 0.3 1 0.5 0.7 0.4 1.5 0.8 0.8 0.4 1.5 0.9 0.6 0.5 1 1.2 0.4 0.7 0.4 1.6-0.1 1.2-0.5 2-0.5 0.8-1.3 1.3-0.7 0.5-1.8 0.6-1 0.2-2.2 0.2-1.2 0-2.2-0.1c-0.7-0.2-1.6-0.4-1.6-0.4-0.1 0-0.3-0.1-0.3-0.1 0-0.1 0-0.2 0.1-0.4l0.2-2.2c0-0.1 0.1-0.2 0.3-0.2h0.9c0.1 0 0.3 0.1 0.3 0.2z"/>
				<path id="Layer" fill-rule="evenodd" class="s1" d="m151.6 28.3q-2.3 1.2-5.5 0.2-1.6-0.5-2.6-1.3-1.1-0.9-1.7-2-0.5-1.2-0.5-2.6 0-1.4 0.5-3.1 0.6-1.8 1.5-3 0.9-1.2 2-1.8 1.2-0.6 2.6-0.7 1.4 0 2.9 0.5 1.5 0.5 2.6 1.3 1 0.8 1.6 2 0.6 1.1 0.6 2.6 0 1.4-0.5 3.2-1.2 3.4-3.5 4.7zm1.3-10.3q-0.6-1.8-2.5-2.4-2-0.7-3.5 0.4-1.5 1.1-2.5 4.1-1 3.1-0.4 4.9 0.6 1.8 2.5 2.4 1.9 0.7 3.4-0.4 1.6-1.1 2.5-4.1 1-3.1 0.5-4.9z"/>
				<path id="Layer" class="s1" d="m160 32.5q0.3 0.4 0.8 0.8 0.4 0.3 0.8 0.5 1.2 0.7 2.3 0.5 1-0.1 1.5-1.1 0.4-0.6 0.3-1.2 0-0.6-0.2-1.2-0.3-0.5-0.7-1-0.4-0.6-0.7-1.1-0.5-0.8-1-1.5-0.4-0.7-0.6-1.3-0.2-0.6-0.1-1.3 0-0.6 0.4-1.3 0.4-0.9 1.1-1.3 0.7-0.4 1.6-0.5 0.8-0.1 1.8 0.2 1 0.2 2 0.8 0.4 0.2 0.9 0.5 0.4 0.3 0.8 0.6 0.4 0.4 0.8 0.7c0.2 0.2 0.4 0.5 0.4 0.5 0.1 0.1 0.2 0.2 0.2 0.2 0 0.1-0.1 0.2-0.2 0.3l-1.3 1.8c0 0.1-0.2 0.2-0.3 0.1l-0.8-0.4c-0.1-0.1-0.2-0.3-0.2-0.4l0.5-1.7q-0.2-0.3-0.5-0.7-0.4-0.3-1-0.6-1.1-0.6-2-0.5-1 0.2-1.5 1.1-0.3 0.6-0.3 1.1 0.1 0.5 0.3 0.9 0.2 0.5 0.5 0.9 0.4 0.5 0.7 1 0.4 0.7 0.9 1.4 0.6 0.7 0.9 1.5 0.3 0.8 0.3 1.6 0.1 0.7-0.4 1.6-0.6 1-1.4 1.5-0.8 0.4-1.7 0.5-0.9 0-1.9-0.3-1-0.4-2.1-1-1-0.5-1.8-1.1c-0.6-0.5-1.3-1.1-1.3-1.1-0.1-0.1-0.2-0.2-0.1-0.3 0 0 0.1-0.1 0.1-0.3l1.3-1.8c0.1-0.1 0.3-0.1 0.4-0.1l0.8 0.5c0.1 0 0.2 0.2 0.1 0.3z"/>
				<path id="Layer" class="s1" d="m174.9 41.9c-0.1 0.1-0.1 0.3 0 0.4l1.8 1.3c0.1 0.1 0.3 0.3 0.4 0.3l1 0.7c0.1 0.1 0.3 0.1 0.4 0l1.1-1c0.1 0 0.3 0 0.4 0l0.8 0.6c0.1 0.1 0.1 0.3 0 0.4l-1.5 1.8c-0.1 0.1-0.2 0.2-0.3 0.3 0 0-0.2 0-0.3-0.1l-7.6-6c-0.1-0.1-0.1-0.3-0.1-0.4l0.3-0.2c0-0.1 0.2-0.2 0.3-0.1l1 0.5c0.2 0 0.3 0 0.4-0.1l7.1-9c0.1-0.1 0.1-0.3 0-0.4l-0.7-0.9c-0.1-0.1-0.1-0.2 0-0.4l0.2-0.2c0-0.1 0.2-0.2 0.3-0.1l4.1 3.2c0.1 0.1 0.1 0.3 0 0.4l-0.2 0.2c-0.1 0.2-0.2 0.2-0.4 0.1l-0.9-0.5c-0.2 0-0.4 0-0.4 0.1z"/>
				<path id="Layer" fill-rule="evenodd" class="s1" d="m191.8 58q-2.6-0.2-4.8-2.7-1.1-1.2-1.6-2.4-0.5-1.3-0.4-2.6 0.1-1.2 0.8-2.5 0.8-1.2 2.1-2.4 1.4-1.2 2.8-1.8 1.4-0.6 2.7-0.5 1.3 0 2.5 0.7 1.2 0.7 2.3 1.9 1 1.2 1.5 2.4 0.5 1.3 0.4 2.6-0.1 1.3-0.8 2.5-0.8 1.3-2.1 2.5-2.7 2.4-5.4 2.3zm6.4-8.3q0.4-1.8-0.9-3.3-1.4-1.5-3.2-1.4-1.9 0.2-4.3 2.3-2.4 2.1-2.8 4-0.5 1.8 0.9 3.3 1.3 1.6 3.2 1.4 1.8-0.2 4.2-2.3 2.5-2.1 2.9-3.9z"/>
				<path id="Layer" class="s1" d="m204 66.9c0.2 0 0.2-0.2 0.1-0.3l-1.5-2.7-5.2 3.1 1.7 2.8c0.1 0.1 0.2 0.3 0.3 0.4l0.6 1c0.1 0.1 0.3 0.2 0.4 0.1l1.4-0.4c0.2-0.1 0.3 0 0.4 0.1l0.5 0.8c0.1 0.1 0 0.3-0.1 0.4l-2.1 1.1c-0.1 0.1-0.3 0.1-0.3 0.2-0.1 0-0.2-0.1-0.3-0.2l-5.3-9.1c-0.1-0.1-0.1-0.2 0-0.3l0.3-0.2c0.2-0.1 0.3 0 0.4 0.1l0.8 0.8c0.1 0.1 0.2 0.1 0.4 0.1l9.8-5.9c0.1-0.1 0.2-0.2 0.2-0.4l-0.4-1c-0.1-0.2 0-0.3 0.1-0.4l0.3-0.2c0.1 0 0.3 0 0.4 0.1l5.1 8.6c0.1 0.2 0.1 0.3 0.1 0.4 0 0.1-0.1 0.2-0.2 0.3l-2.1 1.3c-0.1 0.1-0.2 0-0.3-0.1l-0.5-0.8c-0.1-0.1 0-0.3 0.1-0.4l1.1-1c0.1-0.1 0.1-0.3 0.1-0.4l-0.6-1c0-0.2-0.1-0.4-0.2-0.5l-1.5-2.5-4.5 2.7 1.5 2.6c0.1 0.1 0.3 0.2 0.4 0.1l1-0.4c0.2 0 0.3 0 0.4 0.2l0.4 0.6c0.1 0.2 0 0.3-0.1 0.4l-3.3 2c-0.1 0-0.3 0-0.4-0.1l-0.4-0.7c0-0.1 0-0.3 0.1-0.4z"/>
				<path id="Layer" class="s1" d="m35.1 60.8c-0.2 0-0.3 0-0.4 0.2l-1.7 2.5 5 3.3 1.8-2.8c0.1-0.1 0.2-0.3 0.3-0.4l0.6-1c0-0.2 0-0.3-0.1-0.4l-1-1.1c-0.1-0.1-0.1-0.3-0.1-0.4l0.5-0.8c0.1-0.1 0.3-0.1 0.4 0l1.9 1.3c0.2 0.1 0.3 0.2 0.3 0.3 0.1 0 0.1 0.1 0 0.3l-5.7 8.8c-0.1 0.1-0.3 0.1-0.4 0l-0.3-0.1c-0.1-0.1-0.2-0.3-0.1-0.4l0.4-1c0.1-0.2 0-0.3-0.1-0.4l-9.6-6.3c-0.1-0.1-0.3 0-0.4 0.1l-0.8 0.8c-0.1 0.1-0.3 0.1-0.4 0l-0.3-0.2c-0.1-0.1-0.1-0.2 0-0.3l5.4-8.4c0.1-0.2 0.2-0.3 0.3-0.3 0.1 0 0.2 0 0.4 0.1l2.1 1.2c0.1 0.1 0.1 0.3 0 0.4l-0.5 0.8c0 0.1-0.2 0.1-0.4 0.1l-1.4-0.5c-0.1-0.1-0.3 0-0.4 0.1l-0.7 0.9c-0.1 0.1-0.2 0.3-0.3 0.4l-1.6 2.5 4.4 2.9 1.7-2.6c0.1-0.1 0-0.3-0.1-0.4l-0.8-0.7c-0.1-0.1-0.1-0.3 0-0.4l0.4-0.7c0.1-0.1 0.2-0.1 0.4 0l3.2 2.1c0.1 0.1 0.2 0.2 0.1 0.3l-0.4 0.7c-0.1 0.1-0.3 0.2-0.4 0.1z"/>
				<path id="Layer" class="s1" d="m217.8 78.2c0 0.2 0 0.4-0.1 0.5l-7.3 10.1 8.5-3c0.1 0 0.3-0.2 0.2-0.3l-0.1-1.1c-0.1-0.1 0-0.3 0.2-0.3l0.3-0.1c0.1-0.1 0.3 0 0.3 0.1l1.5 4.2c0 0.2-0.1 0.3-0.2 0.3l-0.3 0.2c-0.1 0-0.3-0.1-0.4-0.2l-0.5-1c-0.1-0.1-0.3-0.2-0.4-0.1l-12.1 4.2c-0.1 0-0.3-0.1-0.3-0.2l-0.4-1.2c-0.1-0.1 0-0.3 0-0.4l8.5-11.7-9.9 3.5c-0.1 0-0.2 0.2-0.2 0.3l0.2 1.1c0 0.1-0.1 0.3-0.2 0.3l-0.4 0.2c-0.1 0-0.2-0.1-0.3-0.2l-1.4-4.2c-0.1-0.1 0-0.3 0.1-0.3l0.3-0.1c0.2-0.1 0.3 0 0.4 0.1l0.6 1c0 0.1 0.2 0.2 0.4 0.1l10.8-3.7c0.1-0.1 0.2-0.2 0.2-0.4l-0.2-1.1c0-0.1 0.1-0.3 0.3-0.3l0.3-0.1c0.1-0.1 0.3 0 0.3 0.1z"/>
				<path id="Layer" class="s1" d="m210.3 100.1q-0.1 0.5-0.2 1.1 0 0.6 0.1 1 0.2 1.4 0.9 2.2 0.7 0.7 1.9 0.5 0.7-0.1 1.1-0.5 0.5-0.3 0.8-0.9 0.3-0.5 0.4-1.1 0.2-0.6 0.5-1.3 0.3-0.9 0.6-1.6 0.3-0.8 0.7-1.3 0.3-0.6 0.9-0.9 0.5-0.3 1.4-0.4 0.9-0.2 1.6 0.1 0.8 0.3 1.3 0.9 0.6 0.7 1 1.6 0.4 1 0.6 2.1 0 0.5 0 1 0.1 0.5 0 1.1 0 0.5 0 1c-0.1 0.3-0.1 0.6-0.1 0.6 0 0.2-0.1 0.3-0.1 0.3-0.1 0-0.2 0-0.4 0l-2.2 0.1c-0.1 0-0.3-0.1-0.3-0.3l-0.1-0.8c0-0.2 0.1-0.3 0.2-0.4l1.6-0.6q0.2-0.3 0.2-0.8 0.1-0.5 0-1.2-0.2-1.3-0.9-1.9-0.7-0.7-1.7-0.5-0.6 0.1-1 0.4-0.4 0.3-0.6 0.7-0.3 0.5-0.5 1-0.1 0.6-0.3 1.1-0.3 0.8-0.6 1.6-0.3 0.9-0.7 1.6-0.4 0.7-1 1.2-0.6 0.5-1.6 0.6-1.2 0.1-2-0.3-0.9-0.3-1.4-1-0.6-0.7-0.9-1.7-0.4-1-0.6-2.2-0.1-1.1-0.1-2.2c0.1-0.7 0.2-1.6 0.2-1.6 0-0.2 0-0.3 0.1-0.3 0 0 0.2 0 0.3 0l2.2-0.1c0.1 0 0.3 0.1 0.3 0.3l0.1 0.8c0.1 0.2 0 0.3-0.2 0.4z"/>
				<path id="Layer" class="s1" d="m224 119.5c-0.1 0-0.3-0.1-0.3-0.3l-0.2-1.1c0-0.1-0.2-0.2-0.3-0.2h-11.5c-0.1 0-0.3 0.2-0.3 0.3l-0.2 1.1c0 0.1-0.2 0.2-0.3 0.2h-0.3c-0.2 0-0.3-0.1-0.3-0.2v-5.2c0-0.1 0.1-0.2 0.2-0.2h0.4c0.1 0 0.3 0.1 0.3 0.2l0.2 1.1c0 0.1 0.2 0.2 0.3 0.2h11.5c0.1 0 0.3-0.1 0.3-0.3l0.2-1c0-0.2 0.2-0.3 0.3-0.3h0.3c0.2 0 0.3 0.1 0.3 0.3v5.1c0 0.2-0.1 0.3-0.2 0.3z"/>
				<path id="Layer" class="s1" d="m210.9 128.2q-0.2 0.4-0.4 1-0.2 0.5-0.3 0.9-0.2 1.5 0.3 2.4 0.5 0.9 1.6 1.1 0.7 0.1 1.2-0.2 0.6-0.2 1-0.6 0.4-0.4 0.8-1 0.4-0.5 0.8-1 0.6-0.8 1.1-1.4 0.5-0.6 1-1 0.5-0.5 1.1-0.6 0.6-0.2 1.5 0 0.9 0.1 1.5 0.6 0.7 0.5 1 1.3 0.4 0.7 0.5 1.7 0.1 1.1-0.1 2.3-0.1 0.4-0.3 0.9-0.1 0.5-0.3 1-0.1 0.5-0.3 1c-0.2 0.3-0.3 0.5-0.3 0.5-0.1 0.2-0.2 0.3-0.2 0.3-0.1 0-0.2 0-0.3-0.1l-2.2-0.6c-0.1 0-0.2-0.2-0.2-0.3l0.2-0.9c0-0.1 0.1-0.2 0.3-0.3l1.7-0.1q0.2-0.3 0.4-0.7 0.2-0.5 0.4-1.2 0.2-1.2-0.3-2-0.5-0.8-1.5-1-0.6-0.1-1.1 0.1-0.5 0.2-0.8 0.5-0.4 0.4-0.7 0.8-0.3 0.5-0.7 1-0.5 0.6-1 1.4-0.5 0.7-1.1 1.2-0.6 0.6-1.3 0.9-0.8 0.3-1.7 0.1-1.2-0.3-1.9-0.8-0.7-0.6-1-1.5-0.4-0.8-0.4-1.9 0-1 0.2-2.2 0.1-1.1 0.5-2.1c0.2-0.7 0.6-1.6 0.6-1.6 0.1-0.1 0.1-0.2 0.2-0.2 0 0 0.2 0 0.3 0.1l2.1 0.6c0.2 0 0.3 0.1 0.3 0.3l-0.2 0.9c0 0.1-0.2 0.2-0.3 0.2z"/>
			</g>
			<g id="Layer">
				<path id="Layer" class="s1" d="m56.2 202.1c0.1 0 0.3 0 0.3-0.2l5.9-8.4-11 6.2c-0.1 0.1-0.3 0-0.4-0.1l-0.4-0.3c-0.1-0.1-0.2-0.3-0.2-0.4l3.2-11.9-6.7 7.3c-0.1 0.1-0.1 0.2 0 0.4l0.7 0.9c0.1 0.1 0.1 0.3 0 0.4l-0.3 0.2c-0.1 0.1-0.2 0.1-0.3 0l-3.3-3c-0.1-0.1-0.1-0.3 0-0.4l0.2-0.2c0.1-0.1 0.3-0.2 0.4-0.1l1 0.6c0.1 0.1 0.3 0.1 0.4 0l7.5-8.4c0.1-0.1 0.1-0.3 0-0.4l-0.7-0.9c-0.1-0.1-0.1-0.3 0-0.4l0.2-0.2c0.1-0.1 0.3-0.2 0.4-0.1l3.4 2.8c0.1 0.1 0.2 0.3 0.1 0.4l-2.7 10.5 9.3-5.1c0.2-0.1 0.4-0.1 0.5 0l3.2 2.7c0.1 0.1 0.2 0.2 0.1 0.3l-0.2 0.3c-0.1 0.1-0.3 0.2-0.4 0.1l-1-0.5c-0.1-0.1-0.3-0.1-0.4 0l-6.4 9.2c-0.1 0.1-0.1 0.3 0 0.4l0.8 0.8c0.1 0.1 0.1 0.3 0 0.4l-0.2 0.3c-0.1 0.1-0.3 0.1-0.4 0l-4.2-3c-0.1-0.1-0.1-0.3 0-0.4l0.2-0.3c0-0.1 0.2-0.1 0.3-0.1z"/>
				<path id="Layer" fill-rule="evenodd" class="s1" d="m80.8 201.3q1.5 0.8 2.6 1.8 1.2 0.9 1.7 2.1 0.6 1.2 0.5 2.7 0 1.5-0.9 3.2-0.9 1.7-2 2.7-1.1 0.9-2.5 1.3-1.3 0.3-2.8 0c-1-0.2-2.9-0.9-2.9-0.9-0.1-0.1-0.3-0.2-0.4-0.3l-5-2.5c-0.1-0.1-0.2-0.2-0.1-0.4l0.1-0.3c0.1-0.1 0.3-0.2 0.4-0.1l1.1 0.3c0.1 0 0.3 0 0.4-0.2l5.2-10.2c0-0.1 0-0.3-0.1-0.3l-0.9-0.7c-0.1-0.1-0.1-0.3-0.1-0.4l0.2-0.3c0-0.1 0.2-0.2 0.3-0.1zm2.3 6q0.3-1.2 0-2.1-0.3-1-1-1.8c-0.5-0.5-1.7-1.2-1.7-1.2-0.2-0.1-0.4-0.2-0.5-0.2l-1.3-0.7-5.5 10.8 1.2 0.6q0.9 0.5 1.7 0.8 0.9 0.3 1.6 0.2 1.3-0.1 2.5-0.9 1.1-0.9 2.1-2.8 0.7-1.5 0.9-2.7z"/>
				<path id="Layer" class="s1" d="m105.2 211.4c0-0.5 0-0.6 0-0.9 0-0.4-0.1-0.6-0.6-0.8q-0.2-0.2-0.5-0.3-0.5-0.2-1-0.3-1.1-0.2-2.1 0-0.9 0.2-1.6 0.8-0.8 0.7-1.3 1.7-0.6 1.1-0.8 2.5-0.6 3.1 0.4 4.9 1 1.7 3.5 2.2 0.7 0.1 1.6 0.1 0.7-0.1 1.6-0.2c0.4 0 0.4 0.2 0.4 0.2l0.1 0.3c0 0 0 0.3-0.3 0.3q-0.8 0.4-1.9 0.5-1.2 0.2-2.7-0.1-1.4-0.2-2.6-0.9-1.1-0.6-1.9-1.6-0.8-1-1-2.4-0.3-1.5 0-3.4 0.4-1.9 1.2-3.2 0.8-1.3 2-2.1 1.2-0.7 2.7-0.9 1.4-0.2 3.1 0.1 1.1 0.2 2 0.6 0.6 0.3 1.2 0.6c0.5 0.2 0.4 0.7 0.4 0.7l-0.6 1.8c0 0-0.1 0.5-0.5 0.4-0.3-0.1-0.5-0.1-0.5-0.1 0 0-0.2 0-0.3-0.5z"/>
				<path id="Layer" class="s1" d="m127 211.9c-0.1-0.5-0.1-0.6-0.2-0.9-0.1-0.4-0.3-0.5-0.8-0.7q-0.2-0.1-0.6-0.1-0.5-0.1-1-0.1-1.1 0.1-2 0.5-0.9 0.5-1.4 1.2-0.6 0.8-0.9 2-0.3 1.1-0.2 2.6 0.2 3.2 1.6 4.6 1.4 1.5 3.9 1.3 0.8 0 1.6-0.2 0.7-0.3 1.6-0.6c0.3-0.1 0.4 0.1 0.4 0.1l0.1 0.2c0 0 0.1 0.3-0.2 0.5q-0.7 0.5-1.7 0.9-1.2 0.4-2.7 0.5-1.4 0.1-2.7-0.2-1.3-0.3-2.2-1.1-1-0.8-1.6-2.1-0.6-1.4-0.8-3.3-0.1-2 0.4-3.5 0.5-1.4 1.5-2.4 1-1 2.3-1.5 1.4-0.6 3.1-0.7 1.1 0 2.1 0.1 0.7 0.1 1.3 0.3c0.6 0.1 0.6 0.6 0.6 0.6l-0.1 1.9c0 0-0.1 0.5-0.4 0.5q-0.5 0-0.5 0c0 0-0.3 0-0.5-0.4z"/>
				<path id="Layer" class="s1" d="m148.3 207.4c-0.3-0.4-0.3-0.5-0.4-0.8-0.2-0.4-0.4-0.5-0.9-0.5q-0.3-0.1-0.6 0-0.5 0-1.1 0.1-1.1 0.3-1.8 0.9-0.7 0.6-1.1 1.5-0.5 0.9-0.5 2.1 0 1.2 0.4 2.6 0.8 3.1 2.5 4.2 1.7 1.1 4.1 0.4 0.7-0.2 1.5-0.6 0.6-0.3 1.4-0.8c0.3-0.2 0.4 0 0.4 0l0.2 0.2c0 0 0.1 0.3 0 0.5q-0.7 0.6-1.6 1.2-1 0.7-2.5 1.1-1.3 0.4-2.6 0.3-1.4 0-2.5-0.6-1.1-0.6-2-1.7-0.9-1.2-1.4-3.1-0.5-1.9-0.3-3.4 0.2-1.6 0.9-2.7 0.7-1.2 2-2 1.2-0.8 2.8-1.3 1.1-0.3 2.1-0.3 0.7-0.1 1.3-0.1c0.6 0 0.7 0.5 0.7 0.5l0.3 2c0 0 0.1 0.4-0.3 0.5q-0.5 0.1-0.5 0.1c0 0-0.3 0.1-0.5-0.3z"/>
				<path id="Layer" class="s1" d="m166 203.9l-6.3-2.8c-0.2-0.1-0.4-0.1-0.5-0.1l-1 0.3c-0.1 0.1-0.3 0-0.3-0.1l-0.2-0.3c-0.1-0.1 0-0.3 0.1-0.4l4.5-2.6c0.1 0 0.3 0 0.4 0.1l0.2 0.3c0 0.2 0 0.3-0.1 0.4l-0.6 0.5c-0.1 0.2-0.1 0.3 0.1 0.3l4.5 2.2 0.5-5c0-0.2-0.1-0.3-0.2-0.2l-0.8 0.2c-0.1 0.1-0.3 0-0.4-0.1l-0.1-0.3c-0.1-0.1-0.1-0.3 0.1-0.4l3.6-2c0.1-0.1 0.2 0 0.3 0.1l0.2 0.3c0.1 0.1 0 0.3-0.1 0.4l-0.8 0.7c-0.1 0.1-0.2 0.3-0.2 0.4l-0.7 6.4 7 3.3c0.1 0 0.3 0 0.5 0l0.9-0.3c0.2-0.1 0.3 0 0.4 0.1l0.2 0.3c0 0.1 0 0.3-0.1 0.4l-4.6 2.6c-0.1 0.1-0.3 0-0.3-0.1l-0.2-0.3c-0.1-0.1 0-0.3 0.1-0.4l0.6-0.6c0.1-0.1 0.1-0.2-0.1-0.3l-5.2-2.5-0.7 5.9c0 0.1 0.1 0.2 0.3 0.2l0.7-0.2c0.2-0.1 0.3 0 0.4 0.1l0.2 0.3c0 0.1 0 0.3-0.1 0.4l-3.7 2c-0.1 0.1-0.2 0-0.3-0.1l-0.2-0.3c0-0.1 0-0.3 0.1-0.4l0.8-0.7c0.1-0.1 0.2-0.3 0.2-0.4z"/>
				<path id="Layer" class="s1" d="m181.6 184.7c0.1 0.1 0.1 0.3 0 0.4l-0.7 0.9c0 0.1 0 0.3 0.1 0.4l7.5 8.6c0.1 0.1 0.3 0.1 0.4 0l1-0.5c0.1-0.1 0.3-0.1 0.4 0l0.2 0.3c0.1 0.1 0.1 0.3 0 0.4l-3.9 3.4c-0.1 0.1-0.3 0.1-0.4 0l-0.2-0.3c-0.1-0.1-0.1-0.3 0-0.4l0.7-0.8c0.1-0.2 0-0.3 0-0.4l-7.6-8.6c-0.1-0.1-0.3-0.2-0.4-0.1l-1 0.6c-0.1 0-0.3 0-0.4-0.1l-0.2-0.2c-0.1-0.1-0.1-0.3 0-0.4l3.9-3.4c0.1-0.1 0.3-0.1 0.4 0z"/>
			</g>
			<g id="Layer">
				<path id="Layer" fill-rule="evenodd" class="s1" d="m45.3 48.9c-0.2 0-0.4 0.1-0.5 0.2l-0.5 0.6 3.8 3.6c0.1 0.1 0.3 0.1 0.4 0l0.9-0.6c0.1-0.1 0.3-0.1 0.4 0l0.2 0.3c0.1 0.1 0.1 0.2 0 0.3l-3.5 3.8c-0.1 0.1-0.3 0.1-0.4 0l-0.2-0.2c-0.1-0.1-0.2-0.3-0.1-0.4l0.6-1c0.1-0.1 0.1-0.3 0-0.4l-8.3-7.9c-0.1-0.1-0.3-0.1-0.4 0l-0.9 0.6c-0.2 0.1-0.3 0.1-0.4 0l-0.3-0.2c-0.1-0.1-0.1-0.3 0-0.4l3.8-4c0.1-0.1 0.3-0.3 0.4-0.4 0 0 0.7-0.6 1.2-1q0.7-0.6 1.5-0.9 0.8-0.3 1.6-0.2 0.8 0.1 1.6 0.9 1.2 1.1 1.2 2.4c0.1 0.9-0.7 2.6-0.7 2.6-0.1 0.2 0 0.3 0.1 0.3l6.5 1.1c0.1 0 0.3-0.1 0.4-0.1l0.9-0.6c0.1-0.1 0.3-0.1 0.4 0l0.2 0.2c0.1 0.1 0.1 0.3 0 0.4l-2.1 2.3c-0.1 0.1-0.3 0.1-0.5 0.1zm-0.9-0.6c0-0.1 0.2-0.3 0.3-0.4 0 0 0.9-1.3 1-2q0-1.1-1.2-2.3-0.6-0.5-1.1-0.7-0.5-0.2-1-0.1-0.5 0.2-1 0.5c-0.3 0.2-0.7 0.7-0.7 0.7-0.2 0.1-0.3 0.2-0.4 0.4l-0.8 0.7 4.2 3.9q0 0 0.1-0.1z"/>
			</g>
		</g>
	</g>
	<g id="Outline">
	</g>
</svg>