<svg xmlns="http://www.w3.org/2000/svg" version="1.0" width="300.000000pt" height="300.000000pt" viewBox="0 0 300.000000 300.000000" preserveAspectRatio="xMidYMid meet">

<g transform="translate(0.000000,300.000000) scale(0.100000,-0.100000)" fill="#ffffff" stroke="none">
<path d="M1335 2978 c-543 -60 -1017 -424 -1219 -933 -82 -209 -118 -456 -97 -671 35 -360 182 -675 430 -924 217 -216 484 -357 791 -416 148 -28 409 -24 560 9 589 127 1030 568 1157 1157 33 149 37 413 9 555 -60 314 -199 578 -416 796 -319 319 -769 477 -1215 427z m415 -24 c292 -47 569 -192 791 -413 175 -176 283 -349 359 -580 53 -160 73 -285 73 -461 0 -403 -147 -755 -432 -1040 -178 -178 -348 -283 -580 -360 -160 -53 -285 -73 -461 -73 -403 0 -755 146 -1041 432 -175 176 -283 349 -359 580 -53 159 -73 285 -73 461 0 402 147 755 432 1041 345 345 802 491 1291 413z" fill="#ffffff"/>
<path d="M1416 2865 c-8 -22 -8 -27 3 -21 7 5 31 -34 31 -51 0 -3 -13 -3 -29 -1 -24 4 -31 -1 -44 -29 -13 -30 -13 -33 3 -33 13 0 16 6 12 26 -4 24 -3 25 34 22 30 -2 39 -7 38 -20 -1 -12 5 -18 17 -18 18 0 17 5 -10 58 -43 83 -47 87 -55 67z" fill="#ffffff"/>
<path d="M1624 2804 c6 -41 13 -74 16 -74 4 0 17 22 30 50 13 27 26 47 30 45 4 -3 11 -25 14 -50 7 -46 20 -65 29 -42 41 101 45 117 36 122 -5 4 -8 3 -7 -2 4 -13 -24 -93 -33 -93 -4 0 -11 20 -15 45 -3 25 -10 47 -14 50 -4 2 -18 -15 -31 -40 -26 -49 -39 -43 -39 16 0 20 -6 39 -12 42 -10 3 -11 -11 -4 -69z" fill="#ffffff"/>
<path d="M1270 2831 c-26 -43 -44 -44 -38 -2 4 24 1 27 -20 23 -13 -3 -19 -8 -13 -11 12 -8 34 -100 27 -118 -3 -8 2 -13 14 -13 17 0 18 3 8 31 -6 16 -8 32 -6 34 2 3 21 -7 41 -20 20 -14 44 -25 54 -25 11 0 0 12 -29 31 -27 17 -48 34 -48 38 0 4 13 21 29 39 17 17 24 32 18 32 -7 0 -23 -18 -37 -39z" fill="#ffffff"/>
<path d="M1132 2833 c-20 -4 -21 -6 -9 -16 16 -14 41 -103 32 -118 -7 -11 3 -11 30 1 11 5 15 9 8 9 -13 1 -47 107 -38 121 3 6 5 9 3 9 -2 -1 -13 -4 -26 -6z" fill="#ffffff"/>
<path d="M1065 2810 c-11 -5 -15 -9 -10 -9 6 -1 17 -18 24 -38 8 -21 16 -44 19 -52 3 -9 -21 0 -60 22 -37 20 -71 37 -76 37 -6 0 0 -27 14 -60 14 -34 22 -65 19 -70 -3 -4 4 -6 15 -3 17 5 18 7 7 17 -8 6 -22 31 -31 55 l-17 43 48 -27 c26 -16 57 -34 69 -42 32 -20 35 -6 13 54 -12 29 -18 60 -15 68 3 8 4 15 3 14 -1 0 -11 -4 -22 -9z" fill="#ffffff"/>
<path d="M1836 2764 c-49 -60 -56 -83 -13 -40 15 14 24 26 21 26 -2 0 4 12 13 27 l18 27 5 -29 c4 -21 1 -32 -10 -37 -12 -5 -11 -7 4 -7 14 -1 17 -7 14 -25 -4 -21 7 -36 26 -36 4 0 -22 141 -26 146 -3 2 -26 -21 -52 -52z" fill="#ffffff"/>
<path d="M1995 2780 c7 -12 -34 -110 -47 -110 -5 0 -6 -4 -3 -10 12 -20 23 -9 49 50 25 54 29 59 47 49 26 -14 20 -43 -10 -47 -21 -3 -22 -7 -16 -40 3 -20 13 -44 22 -52 13 -13 15 -13 10 5 -20 69 -20 73 5 77 15 2 24 11 26 25 3 17 -6 27 -37 42 -45 23 -55 26 -46 11z" fill="#ffffff"/>
<path d="M887 2736 c-16 -12 -16 -15 -1 -26 8 -8 13 -22 11 -32 -3 -10 -1 -16 4 -13 10 7 41 -50 31 -59 -3 -4 1 -4 11 0 22 8 22 4 -14 65 -16 28 -28 58 -25 65 6 17 6 17 -17 0z" fill="#ffffff"/>
<path d="M2118 2709 c-26 -15 -22 -44 9 -67 32 -23 26 -52 -12 -52 -17 0 -28 7 -34 22 -6 16 -10 18 -16 8 -12 -19 24 -42 59 -38 16 2 34 11 40 20 8 14 5 23 -17 46 -28 30 -34 47 -17 57 19 12 50 -6 50 -28 0 -18 2 -19 10 -7 7 11 4 20 -11 33 -24 19 -37 21 -61 6z" fill="#ffffff"/>
<path d="M797 2686 c-10 -8 -14 -16 -10 -17 15 -7 64 -99 58 -109 -4 -6 6 -5 21 2 17 8 22 14 13 16 -8 1 -21 12 -28 24 -12 19 -11 23 10 40 l24 19 -24 -12 c-21 -10 -26 -9 -38 7 -7 10 -11 24 -9 31 6 16 6 16 -17 -1z" fill="#ffffff"/>
<path d="M2234 2648 c-4 -7 -4 -10 1 -6 8 8 65 -21 65 -33 0 -3 -34 -16 -75 -28 -41 -13 -75 -24 -75 -26 0 -1 23 -18 51 -35 40 -27 52 -30 62 -20 9 10 9 11 -1 6 -11 -6 -82 28 -82 40 0 2 34 13 75 25 41 12 75 25 75 28 0 3 -10 12 -22 20 -13 8 -33 20 -45 28 -17 11 -23 12 -29 1z" fill="#ffffff"/>
<path d="M732 2641 c-11 -6 -9 -9 6 -13 15 -4 19 -2 15 8 -6 16 -4 16 -21 5z" fill="#ffffff"/>
<path d="M1260 2630 c-157 -37 -321 -109 -404 -176 -201 -162 -206 -167 -269 -263 -149 -225 -205 -396 -220 -671 -10 -161 42 -400 119 -552 73 -145 190 -286 316 -380 39 -29 85 -63 102 -76 37 -28 84 -51 186 -90 118 -46 175 -60 320 -77 113 -14 146 -15 200 -5 36 7 76 14 90 15 86 8 326 99 365 138 18 18 18 19 2 14 -11 -4 -16 -3 -12 4 4 6 14 8 22 4 18 -6 91 38 185 113 72 58 161 164 235 282 47 76 48 78 52 208 1 13 5 21 10 18 5 -4 12 0 14 6 3 7 6 3 6 -8 1 -12 -6 -38 -15 -59 -8 -20 -13 -39 -11 -42 4 -3 32 72 68 182 27 84 34 458 9 540 -60 202 -94 280 -165 390 -82 126 -222 256 -390 360 -76 48 -171 88 -189 81 -6 -2 4 -7 22 -11 18 -4 35 -12 38 -17 6 -9 -64 -2 -107 12 -15 4 -31 4 -35 0 -10 -9 -59 -14 -119 -11 l-40 2 30 16 c19 10 52 15 92 15 70 -1 82 12 26 27 -47 13 -56 14 -49 2 4 -5 -8 -13 -26 -16 -36 -8 -125 -64 -210 -132 -15 -12 -52 -29 -83 -37 -30 -9 -62 -19 -72 -23 -33 -11 -1 14 57 46 30 17 48 31 39 31 -8 0 -40 -18 -70 -40 -70 -51 -119 -79 -102 -58 11 12 8 14 -17 10 -18 -2 -27 -9 -23 -15 4 -6 0 -8 -10 -4 -10 3 -17 2 -17 -3 0 -6 -4 -10 -10 -10 -5 0 -7 7 -4 15 4 8 12 15 20 15 8 0 14 5 14 11 0 6 15 9 34 8 26 -3 45 6 89 39 31 23 100 65 154 93 98 51 126 69 107 69 -5 0 -15 -5 -21 -11 -12 -12 -69 -4 -78 12 -4 5 11 9 32 9 28 0 34 3 23 10 -25 16 -228 10 -310 -10z m225 -17 c59 -18 66 -32 22 -44 -21 -6 -32 -2 -49 17 -13 13 -30 24 -38 24 -9 0 -20 4 -25 9 -6 5 -19 12 -30 15 -11 3 -1 3 22 1 24 -3 68 -13 98 -22z m-157 -17 c36 -13 40 -13 35 0 -3 8 -2 14 2 14 13 0 105 -53 105 -60 0 -4 -13 -13 -30 -20 -31 -13 -37 -11 -144 42 -21 11 -35 15 -32 10 3 -6 -7 -21 -24 -34 -24 -19 -39 -23 -73 -19 l-42 4 32 11 c45 16 51 26 9 16 -21 -5 -36 -4 -36 1 0 14 46 29 88 29 20 0 44 5 52 10 18 12 10 12 58 -4z m-222 -45 c-9 -10 -44 -26 -76 -35 -33 -10 -60 -20 -60 -23 0 -5 34 2 66 14 12 4 15 3 10 -5 -10 -16 7 -15 23 1 16 16 255 17 271 1 8 -8 -4 -18 -46 -38 -45 -22 -62 -25 -83 -17 -22 8 -23 10 -5 10 11 1 29 8 40 17 18 14 18 15 -6 8 -14 -4 -39 -8 -56 -8 -17 -1 -43 -10 -58 -19 -16 -11 -40 -17 -59 -15 l-32 4 35 17 c34 17 35 17 5 11 -16 -3 -37 -12 -46 -20 -18 -16 -33 -19 -24 -4 3 6 2 10 -4 10 -5 0 -14 -6 -18 -13 -14 -22 -64 -48 -86 -45 -20 3 -18 6 18 31 46 31 36 37 -12 7 -18 -11 -33 -16 -33 -11 0 12 58 61 72 61 6 0 16 7 22 15 11 16 120 64 145 65 11 0 10 -4 -3 -19z m617 -17 c37 -2 67 0 67 4 0 4 10 9 22 9 23 2 128 -63 128 -79 0 -4 6 -8 14 -8 7 0 37 -28 67 -62 32 -37 46 -59 34 -54 -11 4 -44 16 -72 26 -29 11 -74 33 -99 51 -47 32 -47 32 -23 44 22 12 19 14 -34 20 -31 4 -60 11 -63 16 -3 5 -10 9 -15 9 -6 0 -7 -4 -4 -10 4 -6 -6 -10 -22 -10 -15 0 -50 -6 -77 -13 l-50 -13 35 -22 c41 -25 75 -60 66 -68 -8 -9 -78 16 -72 26 2 4 -17 15 -43 25 -62 23 -70 31 -49 52 15 15 20 16 38 5 12 -8 18 -9 15 -3 -4 6 2 21 13 33 12 12 21 26 21 31 0 5 8 6 18 2 9 -4 47 -9 85 -11z m247 -5 c0 -6 9 -8 20 -4 15 5 33 -7 75 -48 30 -30 55 -56 55 -59 0 -4 -33 5 -72 19 -60 21 -102 44 -147 80 -2 2 -2 6 1 9 4 3 20 -2 38 -11 18 -9 34 -14 37 -12 2 3 -5 8 -16 12 -24 7 -28 25 -6 25 8 0 15 -5 15 -11z m-154 -77 c23 -15 50 -32 60 -39 35 -22 -54 -15 -156 12 -19 5 -22 4 -10 -4 13 -9 13 -11 -1 -11 -8 0 -24 7 -35 15 -18 13 -18 14 -1 15 11 0 15 5 11 11 -4 7 0 9 12 6 11 -4 33 -9 49 -12 25 -5 27 -4 12 5 -18 12 -15 30 6 30 7 0 31 -13 53 -28z m-966 -33 c0 -6 -17 -26 -39 -45 -21 -20 -41 -47 -44 -62 -8 -39 -47 -93 -86 -119 -47 -32 -55 -29 -48 13 8 45 27 67 83 93 48 23 60 37 17 20 l-27 -10 19 22 c20 22 114 99 121 99 2 0 4 -5 4 -11z m230 2 c0 -17 -79 -79 -110 -86 -48 -11 -48 2 1 25 24 11 37 20 29 20 -8 0 -28 -7 -44 -15 -38 -20 -39 -19 -20 10 22 33 144 72 144 46z m134 -2 c-8 -13 -94 -69 -106 -69 -4 0 -8 7 -8 16 0 11 -6 14 -20 9 -27 -9 -25 1 6 30 22 20 37 25 81 25 37 0 52 -4 47 -11z m310 1 c17 0 42 -10 56 -21 14 -11 19 -18 13 -14 -7 3 -13 2 -13 -4 0 -5 13 -12 30 -16 44 -10 47 -25 3 -19 -21 2 -45 6 -53 9 -8 3 -27 -2 -42 -10 -19 -9 -28 -10 -28 -2 0 8 -3 8 -12 -1 -17 -17 -28 -15 -28 5 0 15 -2 15 -19 -1 -13 -12 -21 -14 -26 -6 -5 8 -11 6 -20 -7 -11 -15 -15 -15 -29 -4 -9 7 -25 11 -37 8 -18 -5 -18 -3 5 20 14 13 30 22 36 18 17 -11 50 5 50 25 0 23 17 31 54 25 16 -3 43 -5 60 -5z m718 -58 c-18 -6 -95 50 -81 59 8 5 29 -5 52 -24 22 -17 35 -33 29 -35z m-197 47 c4 -6 13 -8 20 -5 7 2 21 -2 32 -10 17 -14 16 -14 -4 -4 -35 17 -27 5 17 -23 27 -18 41 -23 46 -15 4 6 3 9 -2 5 -5 -3 -17 1 -27 8 -15 11 -15 14 -3 25 20 16 45 -8 88 -86 18 -33 50 -89 71 -123 20 -34 37 -64 37 -67 0 -14 -105 61 -143 101 -10 11 -16 14 -12 8 9 -19 -1 -16 -64 17 -62 33 -127 87 -117 97 3 3 25 -7 48 -22 24 -15 37 -22 31 -14 -18 19 -16 29 6 29 11 0 32 -16 47 -37 37 -51 49 -63 35 -35 -11 20 -9 22 13 22 17 0 24 -4 20 -13 -2 -7 7 -24 21 -37 14 -13 25 -19 25 -13 0 6 -7 16 -15 23 -8 6 -13 17 -12 23 1 6 -22 23 -51 38 -45 23 -132 98 -132 114 0 9 19 5 25 -6z m-1175 -9 c0 -5 -4 -10 -10 -10 -5 0 -10 5 -10 10 0 6 5 10 10 10 6 0 10 -4 10 -10z m50 -16 c0 -11 -23 -50 -43 -72 -15 -16 -23 -19 -28 -10 -6 10 -11 10 -20 1 -8 -8 -18 -9 -31 -2 -29 16 -6 45 54 68 57 22 68 24 68 15z m866 -10 c17 -14 17 -15 1 -10 -10 3 -27 6 -38 6 -10 0 -19 5 -19 10 0 15 34 12 56 -6z m-495 -25 c-27 -27 -31 -36 -25 -68 3 -20 17 -53 30 -73 16 -25 24 -52 24 -82 0 -25 4 -48 10 -51 5 -3 12 -28 16 -56 4 -33 13 -54 27 -64 28 -19 15 -45 -22 -45 -25 0 -86 -19 -171 -54 -13 -5 -14 3 -12 53 4 70 -8 98 -45 103 -27 4 -26 5 14 22 48 20 106 80 101 103 -5 26 -76 45 -148 40 -81 -6 -168 -35 -176 -59 -3 -10 0 -43 6 -74 l12 -56 35 7 c19 3 41 9 49 12 8 3 14 0 14 -6 0 -6 -4 -11 -10 -11 -17 0 -48 -41 -85 -112 -27 -51 -36 -79 -33 -104 4 -33 3 -34 -29 -34 l-33 0 0 -79 c0 -323 161 -678 430 -948 46 -46 79 -83 74 -83 -9 0 -87 28 -192 68 -123 47 -279 176 -349 287 -15 25 -42 65 -59 88 -33 46 -42 66 -74 177 -12 41 -26 85 -31 98 -21 53 1 338 32 410 11 24 19 51 19 61 0 32 76 167 138 243 65 80 97 108 196 174 52 34 267 141 289 143 5 1 -5 -13 -22 -30z m654 4 c28 -30 49 -63 40 -63 -15 0 -145 64 -145 71 0 12 6 11 43 -7 l32 -17 -19 22 c-19 21 -19 21 2 21 12 0 33 -12 47 -27z m-149 -18 c31 -14 62 -25 70 -25 27 0 168 -96 242 -164 36 -32 142 -168 142 -181 0 -4 13 -24 29 -44 27 -34 40 -67 76 -191 54 -188 38 -396 -45 -581 -73 -163 -184 -291 -340 -391 -47 -31 -95 -60 -106 -66 -17 -9 -170 -62 -178 -62 -1 0 28 30 64 67 254 261 420 649 420 982 l0 81 -31 0 c-25 0 -30 3 -25 17 11 28 25 196 19 228 -7 39 -64 115 -83 112 -8 -1 -24 -17 -35 -35 -20 -33 -21 -33 -80 -28 -33 3 -73 8 -90 11 l-30 5 30 -15 c17 -8 57 -14 89 -15 33 0 56 -3 53 -7 -12 -11 -106 -3 -147 13 l-40 16 40 29 c23 17 44 37 47 47 4 9 20 39 36 65 16 26 27 50 24 53 -9 10 -181 -56 -195 -74 -18 -23 -11 -111 11 -142 48 -68 66 -101 61 -114 -8 -21 27 -36 80 -36 44 0 46 -2 66 -42 26 -54 25 -57 -7 -26 -17 16 -52 33 -88 41 -33 9 -85 22 -115 31 -30 9 -70 16 -87 16 -23 0 -37 7 -48 23 -13 21 -13 27 3 68 9 24 28 62 42 84 32 51 41 180 16 238 l-15 37 34 0 c19 0 60 -11 91 -25z m-606 5 c-8 -5 -26 -10 -40 -10 -20 0 -22 2 -10 10 8 5 26 10 40 10 20 0 22 -2 10 -10z m1093 -64 c31 -32 42 -40 30 -21 -28 42 -35 65 -19 59 17 -7 89 -131 82 -143 -4 -5 3 -16 14 -24 11 -8 32 -45 45 -83 14 -38 23 -59 21 -46 -8 41 11 23 37 -35 25 -58 25 -58 21 -18 -4 36 -3 38 11 24 8 -8 20 -42 25 -75 15 -93 13 -102 -13 -63 -41 61 -67 110 -67 125 0 8 -4 13 -8 10 -11 -7 -122 102 -122 119 0 8 -6 20 -14 27 -7 8 -21 30 -30 48 l-17 35 33 -35 c18 -19 45 -51 60 -70 24 -31 27 -32 21 -10 -3 14 -17 38 -32 53 -21 23 -22 27 -7 21 34 -13 8 14 -39 42 -38 22 -71 58 -110 124 -15 25 23 -6 78 -64z m-1196 39 c-27 -24 -75 -35 -62 -15 10 15 -6 12 -26 -6 -10 -9 -15 -22 -12 -30 3 -9 -1 -14 -12 -14 -18 0 -15 7 22 58 21 28 29 32 71 32 l47 -1 -28 -24z m468 -4 c-6 -5 -25 10 -25 20 0 5 6 4 14 -3 8 -7 12 -15 11 -17z m-593 -18 c-36 -50 -66 -77 -70 -64 -2 6 2 19 9 29 7 9 2 7 -12 -5 -37 -33 -55 -29 -30 6 12 17 40 36 64 44 59 21 61 21 39 -10z m390 -31 c9 -2 28 8 43 22 30 28 41 32 47 16 2 -5 18 -10 36 -12 17 -1 32 -5 32 -8 0 -3 16 -6 36 -7 20 -1 41 -7 48 -13 8 -10 5 -11 -14 -7 -47 11 -53 -7 -11 -38 37 -29 38 -30 20 -46 -18 -16 -18 -17 -1 -33 10 -9 23 -16 29 -16 6 0 9 -9 6 -20 -3 -11 -13 -20 -22 -20 -10 0 -26 -18 -39 -45 -12 -26 -29 -45 -38 -45 -10 0 -14 6 -11 14 3 7 1 18 -5 24 -7 7 -20 -2 -42 -31 -25 -33 -38 -41 -57 -39 -48 7 -63 37 -32 67 16 16 15 18 -2 28 -18 10 -18 10 0 23 17 13 16 14 -13 14 -32 0 -32 1 -32 49 0 28 -4 52 -9 55 -13 8 -20 57 -14 89 l6 28 11 -23 c6 -13 19 -24 28 -26z m701 -23 c43 -46 31 -54 -20 -13 -71 56 -71 56 -38 49 17 -4 42 -20 58 -36z m-1237 -27 c-14 -27 -32 -52 -41 -55 -18 -8 -20 14 -3 31 7 7 9 12 5 12 -3 0 -17 -12 -31 -27 -30 -32 -38 -28 -28 13 6 22 21 36 62 56 29 16 55 26 57 24 3 -2 -7 -26 -21 -54z m1100 1 c-15 -29 -76 -83 -94 -83 -5 0 -17 -9 -27 -20 -20 -22 -5 -28 17 -7 51 47 58 51 58 33 0 -9 -11 -21 -24 -26 -13 -5 -27 -14 -31 -19 -10 -18 -44 -12 -55 8 -29 55 -5 88 80 112 25 7 54 19 64 26 27 17 30 10 12 -24z m-250 0 c-10 -10 -19 5 -10 18 6 11 8 11 12 0 2 -7 1 -15 -2 -18z m474 -38 c36 -37 49 -40 30 -6 -9 17 -8 21 5 21 8 0 15 -4 15 -10 0 -5 14 -31 30 -57 17 -26 30 -51 30 -56 0 -17 -132 93 -151 126 -16 28 5 19 41 -18z m-1541 -26 c-19 -50 -68 -124 -76 -115 -10 10 72 165 89 166 3 0 -3 -23 -13 -51z m280 11 c-13 -22 -31 -48 -41 -57 -16 -15 -18 -15 -18 0 0 28 -58 -13 -70 -50 -13 -38 -40 -65 -40 -39 0 41 -62 -15 -83 -74 -8 -25 -18 -54 -23 -64 -5 -14 -4 -17 4 -12 8 5 12 -3 12 -27 0 -63 -13 -127 -25 -127 -8 0 -11 10 -9 28 4 25 3 25 -13 -8 l-18 -35 -3 44 c-2 33 2 52 18 74 13 17 24 48 26 76 l3 46 -15 -33 c-8 -18 -19 -30 -24 -27 -11 7 -2 64 12 82 5 7 7 16 5 21 -3 4 -1 14 5 22 8 12 8 11 3 -5 -5 -15 3 -11 29 14 23 22 36 30 36 20 1 -7 7 0 14 17 15 34 100 99 116 89 6 -3 13 1 17 11 5 14 74 53 96 54 5 0 -2 -18 -14 -40z m-200 -45 c-24 -59 -55 -85 -46 -39 4 23 3 24 -10 11 -8 -8 -16 -22 -17 -32 -3 -19 -26 -34 -26 -17 0 28 34 83 71 117 51 46 59 35 28 -40z m986 65 c3 -5 2 -10 -4 -10 -5 0 -13 5 -16 10 -3 6 -2 10 4 10 5 0 13 -4 16 -10z m-500 -31 c5 -5 19 -9 32 -9 13 0 23 -3 23 -6 0 -6 -59 -64 -66 -64 -2 0 -8 15 -13 33 l-10 32 2 -39 c2 -44 3 -44 -119 -64 l-50 -8 -2 30 c-1 17 -3 42 -5 55 -2 20 5 26 43 37 25 8 53 12 62 10 10 -2 20 0 23 5 7 10 65 1 80 -12z m-420 -9 c-3 -5 -14 -10 -23 -10 -15 0 -15 2 -2 10 20 13 33 13 25 0z m1726 -42 c22 -24 39 -47 39 -52 0 -6 -3 -6 -9 0 -57 63 -82 94 -76 94 4 0 25 -19 46 -42z m-154 -48 c-2 8 -6 21 -11 29 -6 9 -5 12 5 9 8 -2 24 -29 35 -59 40 -100 39 -103 -8 -56 -57 55 -67 68 -78 109 l-10 33 34 -40 c19 -22 34 -33 33 -25z m-218 -3 c15 -28 21 -51 15 -55 -5 -4 -10 -54 -11 -111 -2 -57 -5 -106 -8 -109 -6 -7 -99 -21 -104 -16 -2 2 4 13 14 24 18 20 18 21 -4 44 -12 13 -24 40 -28 60 -6 40 -21 56 -33 36 -5 -8 -9 -6 -12 7 -8 30 2 43 35 44 27 0 29 2 12 9 -17 7 -16 9 10 9 23 1 26 4 15 11 -12 8 -12 10 3 16 9 3 28 3 42 0 28 -7 32 -1 11 20 -8 8 -22 11 -30 8 -20 -8 -20 5 0 34 23 33 46 24 73 -31z m-1299 39 c0 -3 -4 -8 -10 -11 -5 -3 -10 -1 -10 4 0 6 5 11 10 11 6 0 10 -2 10 -4z m137 -38 c-3 -8 -6 -5 -6 6 -1 11 2 17 5 13 3 -3 4 -12 1 -19z m665 -52 c-15 -42 -42 -170 -36 -175 6 -6 54 41 54 53 0 16 117 11 170 -7 25 -8 64 -18 87 -22 43 -7 57 -18 58 -45 0 -8 7 -14 17 -12 19 3 33 -14 19 -22 -9 -6 -275 -18 -431 -20 l-85 -1 3 43 c2 25 -1 42 -7 42 -6 0 -11 -15 -11 -32 0 -18 -4 -37 -8 -43 -6 -9 -96 -11 -244 -7 -43 2 -48 4 -48 25 0 13 9 33 20 44 27 30 127 66 183 67 31 1 47 5 47 14 0 7 6 12 13 11 6 -1 37 1 68 5 l56 8 33 70 c28 58 35 67 43 52 7 -11 6 -27 -1 -48z m674 -3 c22 -51 17 -49 -21 7 -19 29 -35 55 -35 58 0 14 44 -37 56 -65z m-1711 40 c-4 -10 -11 -34 -15 -53 -7 -38 -30 -80 -43 -80 -5 0 -5 9 -2 20 9 27 -3 25 -15 -2 -8 -21 -9 -20 -9 9 -1 22 10 45 37 77 38 46 60 59 47 29z m1280 -21 c-3 -3 -11 0 -18 7 -9 10 -8 11 6 5 10 -3 15 -9 12 -12z m566 -56 l28 -61 -5 45 c-5 44 -5 44 11 22 15 -21 40 -150 31 -159 -2 -2 -15 10 -29 26 -23 28 -56 101 -77 174 -15 47 10 19 41 -47z m-1341 54 c0 -5 -5 -10 -11 -10 -5 0 -7 5 -4 10 3 6 8 10 11 10 2 0 4 -4 4 -10z m74 -35 c-4 -10 -21 -15 -48 -16 -24 -1 -31 -3 -16 -6 56 -9 70 -14 70 -28 0 -10 -12 -15 -37 -16 l-38 -1 38 -10 c51 -14 52 -43 1 -33 -24 4 -34 3 -29 -4 3 -6 17 -11 31 -11 19 0 25 -5 22 -17 -4 -21 -45 -30 -61 -14 -6 6 -20 11 -31 11 -15 0 -17 -3 -8 -8 24 -16 2 -42 -37 -43 -28 0 -32 -2 -16 -9 18 -7 18 -9 -9 -19 -16 -7 -35 -10 -43 -7 -18 7 -16 70 3 109 36 71 69 117 82 112 7 -3 11 -1 7 4 -8 13 13 19 72 20 43 1 51 -2 47 -14z m-429 -12 c-5 -10 -13 -38 -20 -63 -9 -30 -17 -44 -28 -42 -8 1 -18 -8 -22 -20 l-8 -23 -4 24 c-7 36 3 63 40 104 37 40 54 48 42 20z m1620 -40 c14 -27 23 -37 19 -25 -5 19 -2 23 12 20 20 -3 37 -63 32 -111 -3 -27 -6 -25 -46 36 -38 59 -64 127 -48 127 3 0 17 -21 31 -47z m-1792 -60 c-7 -98 -28 -144 -50 -110 -5 7 -10 -5 -14 -33 -5 -39 -7 -42 -14 -21 l-8 25 -9 -24 c-6 -16 -1 -40 17 -86 25 -61 25 -65 9 -90 l-17 -26 -14 27 c-8 14 -21 44 -28 66 -13 35 -13 41 1 46 13 5 13 8 -1 29 -18 28 -20 70 -3 80 7 5 9 0 6 -14 -4 -13 0 -26 10 -34 13 -11 14 -10 8 15 -5 20 -2 29 9 33 8 3 12 10 9 15 -6 10 76 159 87 159 3 0 4 -26 2 -57z m-87 -15 c-9 -77 -25 -111 -26 -54 0 38 19 116 28 116 2 0 1 -28 -2 -62z m2054 -22 c0 -11 5 -16 14 -13 7 3 19 0 25 -6 12 -12 16 -157 4 -157 -11 0 -57 109 -59 139 -1 14 -5 44 -8 66 -7 39 -7 39 8 15 8 -14 15 -33 16 -44z m-135 -36 c9 -17 15 -36 13 -43 -3 -16 49 -103 75 -125 42 -34 49 -47 36 -76 -7 -14 -15 -26 -19 -26 -11 0 -47 43 -63 75 -19 37 -47 142 -40 149 3 2 -2 15 -11 28 -15 21 -21 48 -11 48 2 0 12 -14 20 -30z m55 -17 c0 -13 5 -23 11 -23 5 0 7 5 3 11 -7 12 15 31 28 23 11 -7 10 -132 -2 -139 -16 -10 -60 90 -60 137 0 32 3 39 10 28 5 -8 10 -25 10 -37z m157 15 c-3 -8 -6 -5 -6 6 -1 11 2 17 5 13 3 -3 4 -12 1 -19z m-1477 -24 c0 -14 -4 -23 -10 -19 -5 3 -10 15 -10 26 0 10 5 19 10 19 6 0 10 -12 10 -26z m-464 -32 c-8 -15 -22 -35 -32 -43 -12 -9 -8 3 11 41 16 30 30 50 32 43 2 -6 -3 -25 -11 -41z m1960 -29 c-3 -27 -3 -42 0 -35 3 6 9 12 14 12 13 0 -4 -50 -39 -116 -17 -32 -31 -62 -31 -66 0 -5 -21 -34 -46 -67 -34 -44 -50 -58 -65 -54 -10 3 -19 0 -19 -6 0 -6 7 -8 17 -4 11 4 6 -9 -17 -40 -18 -26 -35 -45 -37 -43 -11 10 30 122 55 151 33 37 147 246 157 288 11 43 18 31 11 -20z m-459 -75 c-12 -248 -110 -525 -253 -723 -104 -143 -282 -329 -349 -365 -33 -18 -50 -8 -165 92 -245 214 -428 507 -495 793 -17 77 -39 271 -31 290 4 13 71 15 443 18 241 1 532 3 647 5 l209 2 -6 -112z m-1607 43 c0 -59 -10 -78 -40 -77 -8 1 -16 10 -18 20 -4 21 37 116 50 116 4 0 8 -26 8 -59z m1973 -67 c4 -4 7 2 7 14 0 12 5 22 11 22 6 0 8 -9 3 -22 -10 -33 -13 -34 -33 -12 -14 15 -17 28 -13 59 l6 40 6 -47 c3 -26 9 -50 13 -54z m-1907 31 c-3 -14 -8 -30 -12 -36 -4 -8 -3 -9 4 -5 21 12 13 -5 -29 -67 -23 -35 -36 -63 -29 -65 10 -4 90 -117 90 -129 0 -3 -17 7 -37 23 l-38 28 34 -42 c19 -23 39 -42 45 -42 6 0 2 -6 -8 -12 -16 -9 -23 -6 -43 18 -57 68 -74 103 -63 127 10 19 9 19 -9 -3 -19 -24 -34 -55 -61 -128 -9 -23 -16 -30 -23 -23 -7 7 -7 18 1 35 9 21 9 24 -3 19 -44 -16 26 143 114 264 53 72 75 85 67 38z m2005 -107 l-9 -33 -1 32 c-1 17 2 40 6 50 12 30 16 -9 4 -49z m-2204 30 c-3 -8 -6 -5 -6 6 -1 11 2 17 5 13 3 -3 4 -12 1 -19z m2012 -10 c2 22 21 2 21 -21 0 -18 -2 -19 -10 -7 -7 11 -10 2 -10 -32 0 -26 -4 -50 -10 -53 -6 -4 -10 22 -9 72 1 54 3 70 9 53 4 -14 8 -19 9 -12z m-2017 -71 c0 -25 -3 -51 -8 -60 -6 -10 -10 11 -12 61 -1 57 1 72 8 60 6 -10 11 -37 12 -61z m215 6 c-3 -10 -5 -2 -5 17 0 19 2 27 5 18 2 -10 2 -26 0 -35z m-177 -5 c0 -25 -3 -29 -10 -18 -13 20 -13 50 0 50 6 0 10 -15 10 -32z m2011 -1 c-8 -8 -11 -7 -11 4 0 9 3 19 7 23 4 4 9 2 11 -4 3 -7 -1 -17 -7 -23z m-1875 -14 c-11 -11 -19 6 -11 24 8 17 8 17 12 0 3 -10 2 -21 -1 -24z m2002 5 c10 -13 52 -133 52 -150 0 -16 -19 -7 -25 12 -4 11 -11 18 -16 15 -5 -3 -21 19 -36 49 -22 46 -24 57 -14 70 16 19 25 20 39 4z m-1965 -15 c-7 -2 -13 -14 -13 -26 0 -14 -3 -18 -10 -11 -15 15 -2 44 19 43 10 0 11 -2 4 -6z m-204 -57 c-9 -8 -10 -7 -5 7 3 10 7 24 7 30 1 7 3 4 6 -7 3 -10 -1 -23 -8 -30z m2098 -38 c-3 -24 -3 -35 0 -25 2 9 9 17 14 17 23 0 18 -34 -13 -87 l-33 -58 -3 75 c-2 45 2 83 9 97 20 37 32 27 26 -19z m-1972 -8 c8 -16 14 -37 14 -47 -1 -17 -2 -17 -6 0 -2 9 -8 17 -13 17 -5 0 -11 10 -13 23 -3 12 -3 -4 0 -35 2 -32 2 -58 0 -58 -3 0 -12 12 -22 26 -12 19 -15 36 -10 65 8 47 28 51 50 9z m2042 -76 c-2 -13 0 -25 6 -27 5 -1 1 -18 -9 -37 l-19 -35 -3 64 c-2 35 0 71 3 80 6 14 8 14 17 -2 5 -11 8 -29 5 -43z m-137 21 c5 3 3 -14 -4 -37 -7 -24 -16 -54 -20 -68 l-7 -25 17 23 c18 24 34 29 34 10 0 -9 -69 -118 -75 -118 0 0 1 30 3 68 3 42 11 79 23 98 22 37 25 58 4 30 -11 -15 -15 -16 -15 -5 0 19 23 44 28 29 2 -5 8 -8 12 -5z m-1823 -48 c18 -26 29 -47 24 -47 -5 0 -11 -8 -14 -17 -3 -13 -7 -9 -17 15 -18 47 -23 33 -6 -16 18 -50 5 -63 -23 -23 -15 21 -21 44 -21 86 0 68 10 68 57 2z m-151 6 c-11 -11 -19 6 -11 24 8 17 8 17 12 0 3 -10 2 -21 -1 -24z m56 -43 c15 -21 27 -54 30 -83 6 -52 0 -53 -20 -4 -11 28 -12 29 -7 5 4 -22 2 -26 -10 -22 -9 4 -20 15 -25 25 -12 21 -13 137 -2 124 4 -6 20 -26 34 -45z m1838 -26 c-31 -49 -36 -36 -8 22 15 33 24 43 26 31 2 -9 -6 -33 -18 -53z m166 42 c-3 -13 -9 -32 -13 -43 -6 -16 -5 -16 10 -4 31 25 20 -26 -19 -85 -20 -30 -37 -54 -39 -54 -10 0 11 140 24 160 34 53 46 62 37 26z m-2067 -39 c1 -5 -3 -5 -9 -2 -13 8 -13 4 5 -38 18 -43 19 -50 4 -42 -19 12 -30 57 -23 94 6 30 8 32 15 16 4 -11 8 -24 8 -28z m236 -71 c15 -21 29 -53 29 -70 1 -17 6 -38 10 -46 5 -8 -2 -5 -16 8 -13 12 -29 22 -36 22 -6 0 -16 9 -22 19 -12 23 -14 130 -2 116 4 -6 21 -28 37 -49z m1665 25 c-8 -15 -8 -27 0 -41 7 -13 7 -26 1 -37 -13 -25 -80 -88 -86 -82 -10 11 26 107 56 148 31 43 50 51 29 12z m-1743 -55 c32 -46 46 -105 22 -90 -8 5 -8 1 0 -14 14 -27 14 -39 -1 -24 -7 7 -17 12 -22 12 -6 0 13 -21 42 -48 40 -37 50 -52 46 -70 -4 -13 -11 -19 -18 -15 -6 3 -2 -3 8 -15 24 -27 17 -28 -28 -1 -26 15 -39 33 -51 69 -9 27 -15 57 -14 67 2 10 -2 27 -8 38 -6 11 -11 31 -11 45 0 14 -5 42 -10 63 -14 51 2 45 45 -17z m1820 12 c0 -13 3 -35 7 -49 6 -22 0 -32 -46 -77 -29 -28 -54 -49 -56 -47 -8 7 31 121 51 150 17 25 36 44 43 45 1 0 2 -10 1 -22z m-1908 -43 c39 -51 52 -85 32 -85 -5 0 -12 7 -15 16 -4 9 -9 14 -12 11 -3 -3 2 -19 11 -37 9 -18 14 -34 11 -37 -3 -3 8 -22 25 -41 17 -19 38 -51 47 -71 9 -20 23 -44 31 -54 8 -9 12 -20 9 -23 -10 -9 -138 168 -138 190 0 4 5 4 10 1 18 -11 11 11 -9 29 -10 9 -21 29 -24 44 -3 15 -10 46 -15 70 -5 23 -8 42 -7 42 1 0 21 -25 44 -55z m1976 -17 c-4 -18 -16 -42 -26 -54 -10 -11 -19 -24 -19 -28 0 -14 22 6 41 38 18 29 19 30 19 7 0 -14 -14 -37 -32 -55 -18 -18 -42 -42 -53 -56 -17 -20 -18 -23 -2 -17 9 4 17 2 17 -2 0 -15 -28 -20 -34 -6 -12 31 61 203 87 205 5 0 5 -15 2 -32z m-1749 -89 c3 -5 10 -24 15 -41 l8 -31 -26 24 -27 24 18 -28 c21 -35 17 -42 -12 -21 -28 19 -48 58 -58 109 l-7 39 41 -33 c23 -18 44 -37 48 -42z m1507 39 c-3 -16 -20 -41 -37 -56 -18 -15 -31 -33 -29 -39 2 -6 -10 -23 -28 -37 -34 -29 -34 -45 0 -26 16 8 21 8 21 -2 0 -7 -25 -25 -55 -39 -30 -14 -55 -22 -55 -18 0 4 19 31 43 59 23 29 49 65 57 79 17 30 82 112 86 108 1 -1 0 -14 -3 -29z m38 -32 c-17 -25 -36 -48 -41 -51 -6 -3 -10 -11 -10 -17 0 -7 7 -5 18 4 27 24 40 29 46 19 3 -4 -19 -25 -49 -45 l-55 -37 15 38 c21 50 42 83 74 114 37 36 38 27 2 -25z m109 -5 c0 -4 -17 -30 -37 -57 -34 -45 -35 -48 -11 -31 36 23 41 22 23 -6 -19 -29 -105 -92 -105 -77 0 24 55 117 87 148 36 34 43 37 43 23z m-1560 -77 c22 -15 40 -31 40 -35 0 -14 -12 -11 -32 8 -10 9 -18 11 -18 5 0 -5 13 -21 28 -34 43 -36 50 -53 15 -34 -31 15 -57 48 -73 91 -12 31 -9 31 40 -1z m-64 -46 c54 -29 71 -52 54 -73 -8 -10 -5 -18 12 -30 l23 -17 -25 7 c-14 4 -30 12 -37 17 -7 5 -17 7 -22 3 -9 -5 -71 101 -71 121 0 7 0 7 66 -28z m1454 -24 c-30 -31 -45 -51 -33 -45 12 6 25 16 28 21 10 16 27 12 23 -5 -3 -18 -128 -90 -128 -75 0 17 71 103 108 132 60 45 60 32 2 -28z m149 -14 c-18 -38 -29 -50 -29 -32 0 9 38 72 44 72 2 0 -5 -18 -15 -40z m-323 -19 c-15 -16 -86 -45 -93 -37 -2 2 20 19 49 38 52 35 76 34 44 -1z m285 20 c-6 -10 -34 -39 -62 -65 -28 -25 -47 -46 -41 -46 5 0 15 7 22 15 7 8 19 15 26 15 8 0 14 7 14 15 0 8 5 15 10 15 13 0 13 -17 0 -25 -6 -4 -8 -10 -5 -15 3 -5 -28 -26 -70 -48 -41 -22 -75 -37 -75 -35 0 9 59 89 82 110 45 43 93 82 101 83 4 0 3 -8 -2 -19z m-1628 -22 c20 -17 37 -37 37 -45 0 -23 -17 -16 -44 19 -14 17 -26 27 -26 21 0 -7 17 -27 38 -45 56 -48 60 -60 14 -42 -31 12 -44 26 -65 69 -24 48 -25 54 -9 54 10 0 34 -14 55 -31z m1386 -22 c-19 -17 -44 -38 -55 -45 -10 -7 -13 -10 -6 -7 7 4 25 10 41 15 25 7 28 6 23 -12 -3 -11 -16 -21 -33 -25 -16 -3 -29 -12 -29 -19 0 -8 -26 -27 -57 -43 -57 -29 -57 -29 -30 -36 41 -11 21 -22 -53 -30 l-65 -6 27 28 c25 26 50 41 118 72 21 9 22 10 3 5 -13 -3 -23 -1 -23 3 0 23 136 132 165 132 6 0 -6 -14 -26 -32z m-1186 6 c9 -3 17 -9 17 -14 0 -5 3 -8 8 -8 20 3 40 -2 58 -17 15 -12 15 -15 2 -10 -25 8 -30 -22 -5 -39 12 -8 27 -15 34 -15 6 0 14 -4 17 -8 5 -8 -71 8 -104 23 -15 6 -80 88 -80 101 0 3 8 3 18 -1 9 -4 25 -10 35 -12z m1027 -65 c-34 -19 -50 -33 -40 -36 7 -3 16 0 18 7 5 14 32 15 32 1 0 -13 -33 -26 -88 -33 l-44 -5 43 36 c46 41 84 61 114 61 12 1 -1 -11 -35 -31z m212 -14 c-34 -25 -62 -48 -62 -51 0 -2 4 -1 10 2 18 11 50 14 50 5 0 -13 -10 -17 -81 -39 l-62 -20 49 50 c26 27 53 49 59 50 5 0 26 11 45 24 62 42 56 27 -8 -21z m-1283 10 c34 -15 61 -32 61 -38 0 -11 63 -66 76 -66 4 0 -3 11 -16 25 -13 14 -21 27 -18 31 3 3 32 -2 64 -10 62 -16 105 -48 83 -61 -8 -6 -10 -4 -4 5 5 9 4 11 -3 6 -6 -4 -21 -2 -32 4 -11 6 -20 8 -20 5 0 -3 24 -17 53 -31 l52 -25 -45 6 c-25 3 -54 12 -65 19 -27 18 -78 26 -94 16 -9 -5 0 -10 29 -15 24 -4 55 -19 74 -35 l31 -29 -27 3 c-16 2 -28 2 -28 -1 0 -2 12 -9 28 -15 26 -11 26 -12 4 -16 -13 -2 -39 6 -58 17 -19 12 -32 17 -29 11 13 -21 -15 -8 -62 28 -26 21 -68 50 -93 64 -43 25 -91 68 -76 68 14 0 92 -43 116 -65 18 -16 32 -20 49 -16 23 6 22 8 -16 19 -29 8 -51 26 -77 59 -56 72 -50 77 43 37z m235 3 c58 -14 80 -44 25 -34 -29 5 -26 2 19 -19 32 -15 50 -28 46 -35 -4 -8 11 -10 52 -8 53 4 60 2 69 -18 5 -13 16 -23 23 -23 7 0 10 -4 7 -10 -4 -6 -14 -5 -28 4 -12 7 -40 16 -62 20 l-40 6 44 -25 c26 -15 59 -25 83 -25 42 0 78 -14 78 -31 0 -5 -12 -7 -27 -3 -19 4 -24 3 -15 -4 11 -7 11 -10 -3 -16 -20 -7 -98 31 -90 44 4 6 -4 10 -15 10 -12 0 -49 17 -83 38 -60 37 -60 37 -31 43 28 6 28 6 -11 13 -25 5 -57 23 -85 47 -50 43 -44 46 44 26z m756 -12 c0 -5 -77 -55 -85 -55 -15 0 9 22 43 40 42 22 42 22 42 15z m-600 -57 c0 -10 -36 7 -45 22 -4 6 5 5 19 -2 14 -6 26 -15 26 -20z m489 6 c-7 -9 -24 -20 -37 -25 -14 -5 -22 -12 -19 -15 9 -9 -49 -56 -143 -116 -104 -67 -135 -84 -126 -69 9 15 -21 13 -59 -3 -16 -7 -40 -10 -52 -8 -18 3 -8 12 53 43 42 22 87 39 99 39 13 0 27 5 30 10 3 6 -2 10 -11 10 -22 0 -13 9 13 14 11 3 51 26 89 54 90 64 198 108 163 66z m-425 -15 c14 -11 26 -15 26 -9 0 6 27 -8 60 -30 63 -43 71 -54 44 -64 -11 -4 -42 12 -91 50 -40 31 -76 60 -79 65 -10 16 13 9 40 -12z m504 -17 c-37 -17 -50 -32 -26 -32 6 0 4 -6 -5 -13 -18 -13 -107 -11 -107 3 0 22 92 58 150 58 22 0 20 -2 -12 -16z m272 -12 c0 -6 -37 -29 -82 -50 -80 -39 -96 -55 -25 -25 31 13 36 13 31 1 -10 -27 -89 -45 -229 -52 -89 -5 -98 -4 -85 9 32 32 95 58 148 62 64 5 58 -6 -13 -25 -76 -20 -81 -26 -20 -24 43 1 63 8 91 29 20 15 57 35 83 45 26 9 56 22 67 28 24 14 34 15 34 2z m40 -4 c0 -2 -7 -7 -16 -10 -8 -3 -12 -2 -9 4 6 10 25 14 25 6z m-400 -59 c0 -9 -12 -14 -31 -15 -17 0 -45 -3 -62 -7 l-32 -6 24 21 c27 23 101 29 101 7z m-500 -13 c13 -5 13 -7 -2 -15 -10 -6 -26 -5 -42 1 -17 6 -26 6 -26 0 0 -6 21 -16 46 -22 43 -12 44 -13 18 -20 -30 -8 -61 5 -109 47 l-30 25 65 -6 c36 -3 72 -8 80 -10z m433 -29 c9 -22 -10 -28 -34 -11 -20 13 -20 14 -2 19 30 8 31 8 36 -8z m-43 -25 c22 -11 50 -19 62 -17 13 2 16 2 8 -1 -9 -3 -5 -9 15 -18 l30 -13 -37 5 c-28 5 -38 3 -38 -7 0 -19 -56 -43 -78 -33 -16 8 -26 10 -47 13 -5 1 -3 5 5 10 8 6 28 7 45 5 26 -5 25 -3 -12 15 -45 21 -51 29 -31 49 17 17 33 15 78 -8z m-481 -11 c34 -7 48 -14 45 -24 -4 -10 -15 -9 -56 6 -82 30 -78 37 11 18z m156 -19 c-28 -12 -63 -12 -70 0 -4 6 12 10 42 9 36 0 43 -3 28 -9z m210 -10 c3 -5 -1 -10 -10 -10 -9 0 -13 5 -10 10 3 6 8 10 10 10 2 0 7 -4 10 -10z m270 0 c3 -5 1 -10 -4 -10 -6 0 -11 5 -11 10 0 6 2 10 4 10 3 0 8 -4 11 -10z m-328 -46 c-3 -3 -12 -4 -19 -1 -8 3 -5 6 6 6 11 1 17 -2 13 -5z m70 0 c-3 -3 -12 -4 -19 -1 -8 3 -5 6 6 6 11 1 17 -2 13 -5z" fill="#ffffff"/>
<path d="M1180 2495 c-8 -9 -8 -15 -2 -15 12 0 26 19 19 26 -2 2 -10 -2 -17 -11z" fill="#ffffff"/>
<path d="M1700 2520 c8 -5 20 -10 25 -10 6 0 3 5 -5 10 -8 5 -19 10 -25 10 -5 0 -3 -5 5 -10z" fill="#ffffff"/>
<path d="M1904 2473 c4 -7 2 -13 -3 -13 -23 0 -10 -16 22 -28 29 -10 30 -10 12 4 -11 8 -20 19 -20 24 0 4 -4 12 -9 17 -5 5 -6 3 -2 -4z" fill="#ffffff"/>
<path d="M670 2229 c-19 -16 -29 -29 -23 -29 12 0 67 50 61 55 -2 2 -19 -10 -38 -26z" fill="#ffffff"/>
<path d="M1446 2263 c-7 -17 1 -33 15 -33 6 0 8 4 4 9 -3 5 4 11 15 13 18 3 18 4 -4 14 -20 9 -26 9 -30 -3z" fill="#ffffff"/>
<path d="M1486 2222 c-3 -6 3 -12 15 -15 12 -3 19 -1 16 6 -5 15 -24 20 -31 9z" fill="#ffffff"/>
<path d="M1361 2201 c-23 -14 -3 -30 37 -29 44 1 70 17 50 29 -17 11 -69 11 -87 0z" fill="#ffffff"/>
<path d="M1487 2184 c-3 -3 4 -24 15 -46 18 -34 19 -44 9 -60 -13 -22 -9 -34 8 -23 6 3 11 19 11 36 0 24 4 29 25 29 l26 0 -28 35 c-26 32 -51 44 -66 29z" fill="#ffffff"/>
<path d="M1101 2094 c0 -11 3 -14 6 -6 3 7 2 16 -1 19 -3 4 -6 -2 -5 -13z" fill="#ffffff"/>
<path d="M1990 1921 c0 -5 5 -13 10 -16 6 -3 10 -2 10 4 0 5 -4 13 -10 16 -5 3 -10 2 -10 -4z" fill="#ffffff"/>
<path d="M2020 1851 c0 -11 4 -22 9 -25 4 -3 6 6 3 19 -5 30 -12 33 -12 6z" fill="#ffffff"/>
<path d="M1755 1820 c-4 -6 3 -10 14 -10 25 0 27 6 6 13 -8 4 -17 2 -20 -3z" fill="#ffffff"/>
<path d="M1480 1816 c0 -2 7 -9 15 -16 12 -10 15 -10 15 4 0 9 -7 16 -15 16 -8 0 -15 -2 -15 -4z" fill="#ffffff"/>
<path d="M994 1838 l-19 -23 23 19 c21 18 27 26 19 26 -2 0 -12 -10 -23 -22z" fill="#ffffff"/>
<path d="M1390 1700 c0 -6 -94 -11 -247 -12 l-248 -3 3 -79 c9 -251 152 -566 365 -808 63 -71 238 -228 255 -228 17 0 113 80 107 90 -3 5 0 12 6 16 8 4 9 3 5 -4 -21 -34 18 -1 84 73 60 65 74 88 72 109 -2 15 1 26 8 26 7 0 9 -7 6 -16 -12 -31 16 -1 65 73 117 173 210 413 225 582 3 31 8 84 11 118 l5 62 -279 3 c-153 2 -283 -1 -290 -5 -6 -4 -14 -3 -18 3 -9 14 -55 13 -55 -2 0 -9 -3 -9 -12 0 -14 14 -68 16 -68 2z m50 -22 c0 -19 -2 -20 -10 -8 -13 19 -13 30 0 30 6 0 10 -10 10 -22z m63 -4 c-4 -12 -8 -13 -14 -3 -9 15 -2 32 11 24 5 -3 6 -13 3 -21z m63 -1 c-10 -10 -19 5 -10 18 6 11 8 11 12 0 2 -7 1 -15 -2 -18z m74 -149 c0 -107 -3 -163 -10 -159 -5 3 -11 27 -12 53 l-1 47 -7 -45 c-5 -29 -8 8 -8 108 -1 90 2 152 8 152 5 0 11 -26 13 -57 l3 -58 2 63 c1 34 4 62 7 62 3 0 5 -75 5 -166z m60 11 c0 -85 -4 -146 -10 -150 -7 -4 -10 48 -10 150 0 102 3 154 10 150 6 -4 10 -65 10 -150z m50 128 c0 -27 -19 -41 -22 -16 -1 10 -5 -40 -8 -112 l-6 -130 -2 140 c-2 135 -1 141 18 141 14 0 20 -7 20 -23z m27 14 c-4 -11 6 -13 46 -11 42 3 46 2 22 -5 -24 -7 -25 -9 -8 -10 12 0 37 -16 56 -33 29 -28 36 -44 46 -103 15 -88 20 -107 30 -100 9 5 24 -115 16 -123 -2 -3 -15 2 -28 11 -19 12 -26 28 -30 69 -7 53 -27 124 -52 183 -7 17 -15 37 -18 45 -3 9 -6 4 -6 -11 -1 -35 -22 -51 -58 -44 -24 5 -25 5 -10 -5 11 -7 32 -9 48 -6 30 6 40 -7 13 -18 -77 -30 -136 46 -90 117 9 13 13 26 10 30 -3 3 -3 10 1 16 9 16 18 14 12 -2z m113 3 c0 -5 -2 -10 -4 -10 -3 0 -8 5 -11 10 -3 6 -1 10 4 10 6 0 11 -4 11 -10z m17 -12 c-3 -8 -6 -5 -6 6 -1 11 2 17 5 13 3 -3 4 -12 1 -19z m33 -7 c0 -29 -19 -37 -37 -16 -4 4 -2 5 5 1 8 -5 12 -1 12 12 0 17 8 32 17 32 2 0 3 -13 3 -29z m30 -28 c0 -41 -3 -54 -10 -43 -13 20 -13 100 0 100 6 0 10 -26 10 -57z m28 -105 c-1 -131 -3 -149 -8 -93 -12 109 -11 255 0 255 6 0 9 -60 8 -162z m30 -41 c1 115 6 194 12 198 14 9 13 -314 -1 -373 -23 -95 -29 -62 -27 159 l2 224 6 -200 6 -200 2 192z m51 81 c0 -68 -4 -132 -9 -143 -5 -12 -9 34 -9 123 -1 88 3 142 9 142 6 0 10 -47 9 -122z m-1120 -53 c-1 -96 -4 -150 -9 -135 -4 14 -8 39 -9 56 -1 16 -5 34 -10 40 -10 10 -14 54 -12 144 1 49 4 56 21 56 19 0 20 -7 19 -161z m31 -31 c0 -127 -3 -193 -10 -189 -6 4 -10 80 -10 196 0 119 4 189 10 189 6 0 10 -72 10 -196z m29 29 c0 -93 -4 -177 -9 -188 -5 -12 -9 53 -9 168 -1 118 3 187 9 187 6 0 10 -62 9 -167z m22 114 c2 -25 0 -50 -4 -53 -4 -4 -7 19 -7 51 0 69 8 70 11 2z m29 18 c0 -19 -4 -35 -10 -35 -11 0 -14 53 -3 63 11 12 13 8 13 -28z m28 10 c-5 -25 5 -34 17 -15 3 6 27 10 51 10 37 0 51 -6 76 -30 26 -26 29 -35 23 -63 -9 -43 -9 -48 -1 -81 4 -18 3 -25 -4 -21 -5 3 -10 17 -10 30 0 22 -2 23 -30 12 -23 -9 -35 -9 -48 1 -26 18 -42 25 -48 19 -9 -9 -34 -111 -40 -162 -6 -57 -9 -62 -44 -67 -18 -2 -24 1 -21 12 3 8 8 65 11 127 6 91 12 119 30 150 14 22 22 51 21 71 -1 18 3 32 10 32 7 0 9 -10 7 -25z m19 3 c-3 -8 -6 -5 -6 6 -1 11 2 17 5 13 3 -3 4 -12 1 -19z m33 12 c0 -5 -5 -10 -11 -10 -5 0 -7 5 -4 10 3 6 8 10 11 10 2 0 4 -4 4 -10z m60 0 c0 -5 -4 -10 -10 -10 -5 0 -10 5 -10 10 0 6 5 10 10 10 6 0 10 -4 10 -10z m49 -18 c0 -15 -3 -21 -6 -14 -2 6 -11 12 -19 12 -22 0 -16 26 6 27 16 1 20 -4 19 -25z m33 -99 l2 -128 3 128 c5 181 23 163 23 -23 0 -146 -1 -149 -18 -132 -16 16 -20 41 -25 150 -4 83 -3 132 3 132 6 0 11 -54 12 -127z m57 95 c0 17 6 32 11 32 6 0 11 -39 12 -92 l2 -93 3 93 c6 152 21 104 21 -65 0 -92 -4 -147 -8 -133 l-8 25 -1 -27 c-1 -16 -5 -28 -11 -28 -6 0 -11 42 -12 103 l-2 102 -3 -103 c-6 -166 -23 -112 -22 66 1 96 5 143 9 122 l7 -35 2 33z m321 -128 c0 -100 -4 -160 -10 -160 -6 0 -10 60 -10 160 0 100 4 160 10 160 6 0 10 -60 10 -160z m427 83 c-2 -16 -4 -3 -4 27 0 30 2 43 4 28 2 -16 2 -40 0 -55z m-508 -80 c-2 -146 -2 -147 -10 -63 -5 47 -7 112 -4 145 5 71 4 65 10 65 3 0 4 -66 4 -147z m-172 105 c-3 -7 -5 -2 -5 12 0 14 2 19 5 13 2 -7 2 -19 0 -25z m91 5 c-10 -2 -26 -2 -35 0 -10 3 -2 5 17 5 19 0 27 -2 18 -5z m51 -110 c3 -140 8 -163 37 -163 38 0 58 -40 50 -103 -10 -74 -43 -170 -83 -240 -34 -61 -34 -62 -31 -170 3 -114 10 -131 49 -125 21 3 22 7 20 77 -2 64 0 73 14 67 9 -3 13 -2 10 4 -3 6 -1 10 6 10 7 0 10 -13 7 -36 -4 -36 -4 -36 13 -15 15 18 16 27 7 47 -13 28 -1 47 13 21 15 -26 35 -21 65 19 23 29 27 45 25 83 -2 31 1 43 8 36 17 -17 18 -79 1 -93 -13 -11 -11 -12 10 -6 24 6 24 6 5 -9 -15 -11 -22 -12 -28 -4 -6 8 -7 6 -3 -5 3 -11 -2 -19 -15 -23 -10 -4 -19 -11 -19 -16 0 -11 35 5 45 21 3 6 15 10 26 10 14 0 19 7 19 25 0 14 -5 25 -11 25 -6 0 -9 13 -7 29 1 17 -4 37 -14 48 -18 19 -41 108 -52 196 -5 41 -3 50 12 53 32 9 37 3 49 -54 6 -31 19 -86 27 -122 29 -119 29 -112 6 -105 -11 4 -20 2 -20 -4 0 -6 7 -11 15 -11 12 0 15 -13 15 -55 0 -32 -4 -55 -11 -55 -5 0 -7 5 -4 10 10 16 -1 12 -73 -24 -69 -35 -102 -65 -102 -91 0 -35 -19 -11 -23 28 -3 39 -4 39 -5 -12 -2 -42 1 -52 12 -48 10 4 14 -1 12 -18 -4 -33 -24 -55 -52 -55 -14 0 -24 -6 -24 -14 0 -7 -7 -19 -15 -26 -13 -11 -14 -10 -10 2 4 11 -2 14 -25 12 -24 -2 -30 2 -30 18 0 14 -5 18 -16 14 -8 -3 -24 -1 -34 4 -13 7 -20 6 -22 -2 -3 -7 -5 4 -6 25 -2 41 0 42 28 25 15 -10 25 -10 38 -2 18 12 21 28 24 150 2 75 0 85 -29 130 -53 85 -85 181 -87 259 -1 69 -1 70 30 84 28 12 31 19 32 55 1 22 4 67 7 99 7 56 7 57 -19 57 -32 0 -32 7 -4 37 17 19 32 23 78 23 l56 0 3 -97z m402 24 c6 -21 8 -46 6 -55 -3 -12 -5 -10 -6 5 0 13 -10 46 -21 75 -13 37 -15 47 -4 33 8 -11 19 -37 25 -58z m-539 -117 l-10 -55 -1 81 c0 44 2 84 7 88 11 12 14 -54 4 -114z m328 45 c0 -19 -4 -37 -10 -40 -6 -4 -10 12 -10 40 0 28 4 44 10 40 6 -3 10 -21 10 -40z m34 13 c9 16 46 2 46 -17 0 -18 -20 -61 -54 -117 -20 -31 -93 -81 -104 -70 -3 3 0 6 6 6 7 0 12 5 12 11 0 6 -6 9 -14 6 -28 -11 -27 26 1 49 15 13 31 23 34 24 4 0 18 18 33 41 18 27 25 47 21 62 -4 15 -4 18 3 8 6 -8 12 -9 16 -3z m89 -5 c-4 -10 -2 -14 4 -10 6 4 17 -32 28 -96 9 -56 24 -117 31 -136 20 -48 7 -64 -29 -37 -40 31 -77 267 -46 287 19 12 19 11 12 -8z m-713 -85 c-1 -82 -25 -189 -46 -205 -27 -20 -58 -17 -49 5 24 55 34 94 40 157 3 39 11 82 17 97 16 43 38 12 38 -54z m56 66 c12 -3 28 -21 37 -39 9 -19 34 -46 57 -61 42 -28 53 -54 23 -54 -16 -1 -16 -2 1 -15 11 -8 16 -18 13 -22 -4 -3 -21 3 -37 15 -16 12 -34 22 -39 22 -15 0 -32 36 -25 54 3 9 1 16 -6 16 -6 0 -8 -5 -4 -11 4 -7 1 -10 -6 -7 -8 2 -17 11 -20 19 -4 8 -15 28 -24 46 -9 17 -16 34 -16 37 0 7 18 7 46 0z m-5 -119 c25 -8 24 -28 -6 -150 -17 -69 -31 -105 -46 -117 -39 -33 -47 -24 -33 40 8 31 20 86 28 122 8 36 18 83 22 105 4 22 9 32 11 23 2 -9 13 -20 24 -23z m657 -122 c20 -78 33 -145 30 -148 -13 -13 -57 28 -63 58 -6 32 -26 103 -46 165 -9 28 -8 37 7 53 10 11 22 18 27 16 5 -1 25 -67 45 -144z m-587 57 c18 0 20 -5 14 -47 -3 -27 -9 -59 -12 -73 -4 -14 -6 -28 -5 -32 4 -20 -30 -102 -49 -119 -34 -29 -42 -24 -35 24 11 75 60 271 64 259 2 -7 13 -12 23 -12z m656 -2 c-3 -8 -6 -5 -6 6 -1 11 2 17 5 13 3 -3 4 -12 1 -19z m33 -71 c0 -40 -4 -78 -9 -86 -6 -9 -9 19 -9 77 0 51 4 89 9 86 5 -3 9 -38 9 -77z m-952 32 l-3 -24 -13 23 c-7 12 -10 27 -6 33 10 17 26 -6 22 -32z m32 -25 c0 -41 -4 -63 -10 -59 -5 3 -10 33 -10 66 0 33 4 59 10 59 6 0 10 -29 10 -66z m30 54 c0 -7 -5 -20 -10 -28 -8 -12 -10 -9 -10 13 0 15 5 27 10 27 6 0 10 -6 10 -12z m919 -25 c0 -21 -4 -47 -9 -58 -6 -14 -9 -4 -9 38 -1 32 3 57 9 57 6 0 10 -17 9 -37z m-294 -7 c2 -12 9 -57 15 -101 6 -44 13 -92 15 -107 5 -32 -5 -35 -40 -12 -40 26 -57 89 -43 166 5 29 10 58 12 64 7 19 36 11 41 -10z m-350 -71 c6 -38 7 -83 3 -99 -15 -56 -68 -90 -68 -43 0 30 19 189 25 205 11 32 31 2 40 -63z m554 -12 c-1 -37 -1 -37 -8 -8 -7 28 -5 45 5 45 2 0 3 -17 3 -37z m-789 6 c0 -11 -4 -18 -8 -15 -5 3 -8 -3 -8 -12 0 -63 -5 -86 -14 -72 -17 26 -12 98 8 109 23 14 22 14 22 -10z m800 -131 l-20 -33 0 34 c0 22 4 32 13 28 9 -3 11 8 9 44 -2 27 0 57 4 67 6 11 10 -3 12 -45 2 -48 -2 -68 -18 -95z m-851 105 c0 -33 -1 -35 -9 -15 -8 20 -4 52 6 52 2 0 4 -17 3 -37z m378 -210 c4 -43 2 -68 -7 -78 -8 -10 -10 -30 -6 -60 5 -29 4 -45 -3 -45 -7 0 -11 25 -11 61 0 37 4 58 10 54 6 -3 10 -1 10 4 0 10 -35 45 -73 74 -15 11 -15 17 -2 76 9 35 18 68 21 73 12 18 56 -97 61 -159z m187 135 c4 -13 10 -39 13 -58 3 -19 9 -36 14 -38 17 -7 9 -23 -22 -50 -54 -46 -55 -46 -66 15 -9 49 -8 58 8 74 11 11 19 21 19 24 -1 16 13 55 20 55 4 0 11 -10 14 -22z m226 -56 c0 -37 -4 -74 -10 -82 -6 -9 -8 16 -8 72 1 48 5 85 10 82 4 -3 8 -35 8 -72z m-675 -16 c5 -56 4 -76 -4 -72 -6 4 -11 39 -11 83 0 42 2 74 4 72 2 -2 7 -39 11 -83z m705 30 c0 -25 -4 -48 -10 -51 -6 -4 -10 13 -10 44 0 28 5 51 10 51 6 0 10 -20 10 -44z m-730 -17 l0 -52 -25 37 c-14 20 -25 43 -25 51 0 9 10 15 25 15 23 0 25 -3 25 -51z m120 -5 c0 -27 -4 -43 -10 -39 -17 11 -11 85 7 85 2 0 3 -21 3 -46z m67 -6 c-3 -8 -6 -5 -6 6 -1 11 2 17 5 13 3 -3 4 -12 1 -19z m-79 -52 c16 -18 17 -17 23 15 l6 34 2 -32 c0 -17 -2 -34 -7 -36 -10 -7 -62 39 -62 56 0 25 15 29 18 5 2 -12 11 -31 20 -42z m62 7 c0 -41 -3 -54 -10 -43 -17 26 -12 100 7 100 2 0 3 -26 3 -57z m370 7 c0 -27 -4 -50 -9 -50 -5 0 -8 23 -8 50 0 28 4 50 9 50 4 0 8 -22 8 -50z m17 -22 c-2 -13 -4 -3 -4 22 0 25 2 35 4 23 2 -13 2 -33 0 -45z m-501 17 c-6 -29 -4 -36 11 -41 10 -3 27 -10 38 -15 34 -15 87 -15 93 0 3 8 0 11 -7 7 -7 -5 -11 1 -11 16 1 23 1 23 16 3 9 -12 13 -31 10 -47 -3 -15 -1 -30 4 -33 6 -3 10 -11 10 -17 0 -7 -7 -5 -17 4 -10 8 -40 25 -68 38 -27 13 -59 27 -69 33 -16 8 -18 6 -13 -7 4 -10 3 -15 -3 -11 -14 9 -13 105 1 105 7 0 9 -12 5 -35z m534 21 c0 -8 -4 -18 -10 -21 -5 -3 -10 3 -10 14 0 12 5 21 10 21 6 0 10 -6 10 -14z m-273 -138 c-2 -24 -4 -5 -4 42 0 47 2 66 4 43 2 -24 2 -62 0 -85z m83 35 c0 -51 -4 -82 -9 -75 -16 25 -12 162 5 162 2 0 4 -39 4 -87z m-306 58 c4 -5 -3 -7 -14 -4 -23 6 -26 13 -6 13 8 0 17 -4 20 -9z m155 -108 c0 -57 -2 -64 -11 -43 -13 33 -16 71 -5 93 14 30 17 19 16 -50z m-159 36 c0 -11 -4 -17 -10 -14 -5 3 -10 13 -10 21 0 8 5 14 10 14 6 0 10 -9 10 -21z m521 -32 c-8 -8 -11 -4 -11 14 0 33 14 47 18 19 2 -12 -1 -27 -7 -33z m-491 12 c0 -17 -4 -28 -10 -24 -5 3 -10 17 -10 31 0 13 5 24 10 24 6 0 10 -14 10 -31z m30 -25 c0 -21 -4 -33 -10 -29 -5 3 -10 22 -10 41 0 21 4 33 10 29 6 -3 10 -22 10 -41z m280 -14 c0 -33 -4 -60 -10 -60 -6 0 -10 27 -10 60 0 33 4 60 10 60 6 0 10 -27 10 -60z m160 31 c0 -17 -4 -33 -10 -36 -6 -4 -10 8 -10 29 0 20 5 36 10 36 6 0 10 -13 10 -29z m-33 -48 c-2 -16 -4 -5 -4 22 0 28 2 40 4 28 2 -13 2 -35 0 -50z m-390 -5 c-2 -13 -4 -3 -4 22 0 25 2 35 4 23 2 -13 2 -33 0 -45z m132 15 c-1 -39 -2 -43 -9 -23 -12 36 -12 70 0 70 6 0 10 -21 9 -47z m232 -46 c-8 -8 -11 2 -11 34 0 59 14 73 18 19 2 -24 -2 -48 -7 -53z m-331 31 c0 -38 -3 -49 -10 -38 -13 20 -13 90 0 90 6 0 10 -24 10 -52z m26 -34 c1 -24 -2 -41 -7 -38 -5 3 -9 26 -9 51 0 58 15 47 16 -13z m275 -37 c-8 -8 -11 2 -11 34 0 59 14 73 18 19 2 -24 -2 -48 -7 -53z m-204 -59 c-3 -8 -6 -5 -6 6 -1 11 2 17 5 13 3 -3 4 -12 1 -19z m133 8 c0 -8 -4 -18 -10 -21 -5 -3 -10 3 -10 14 0 12 5 21 10 21 6 0 10 -6 10 -14z m-69 -43 c12 -16 12 -17 -2 -6 -9 7 -20 9 -24 5 -5 -4 -5 -1 -1 6 9 16 11 15 27 -5z m39 7 c0 -5 -5 -10 -11 -10 -5 0 -7 5 -4 10 3 6 8 10 11 10 2 0 4 -4 4 -10z" fill="#ffffff"/>
<path d="M1238 1580 c5 -37 -35 -68 -67 -51 -29 16 -39 13 -17 -4 27 -20 52 -19 76 5 20 20 27 64 12 74 -5 3 -6 -8 -4 -24z" fill="#ffffff"/>
<path d="M1056 1535 c-3 -9 -5 -29 -5 -43 1 -20 3 -17 9 13 8 43 7 57 -4 30z" fill="#ffffff"/>
<path d="M1457 1589 c8 -8 16 -8 30 0 16 9 14 10 -11 11 -22 0 -27 -3 -19 -11z" fill="#ffffff"/>
<path d="M1544 1475 c0 -55 1 -76 3 -47 2 29 2 74 0 100 -2 26 -3 2 -3 -53z" fill="#ffffff"/>
<path d="M1605 1190 c-3 -5 -1 -10 4 -10 6 0 11 5 11 10 0 6 -2 10 -4 10 -3 0 -8 -4 -11 -10z" fill="#ffffff"/>
<path d="M1595 1160 c-3 -5 -1 -10 4 -10 6 0 11 5 11 10 0 6 -2 10 -4 10 -3 0 -8 -4 -11 -10z" fill="#ffffff"/>
<path d="M1567 1073 c-4 -3 -7 -13 -7 -22 1 -13 3 -13 11 2 11 19 8 33 -4 20z" fill="#ffffff"/>
<path d="M1530 1005 c-7 -9 -11 -17 -9 -20 3 -2 10 5 17 15 14 24 10 26 -8 5z" fill="#ffffff"/>
<path d="M1425 699 c8 -11 42 -12 49 -1 3 5 -8 9 -25 10 -16 0 -27 -4 -24 -9z" fill="#ffffff"/>
<path d="M1580 701 c-33 -6 -34 -7 -11 -15 16 -6 28 -3 39 8 9 9 14 15 12 15 -3 -1 -21 -5 -40 -8z" fill="#ffffff"/>
<path d="M1770 1379 c0 -5 5 -7 10 -4 6 3 10 8 10 11 0 2 -4 4 -10 4 -5 0 -10 -5 -10 -11z" fill="#ffffff"/>
<path d="M1278 1323 c7 -3 16 -2 19 1 4 3 -2 6 -13 5 -11 0 -14 -3 -6 -6z" fill="#ffffff"/>
<path d="M690 1080 c0 -8 5 -22 10 -30 9 -13 10 -13 10 0 0 8 -5 22 -10 30 -9 13 -10 13 -10 0z" fill="#ffffff"/>
<path d="M2335 1099 c-4 -6 -5 -12 -2 -15 2 -3 7 2 10 11 7 17 1 20 -8 4z" fill="#ffffff"/>
<path d="M2411 1054 c-12 -28 -9 -40 7 -30 8 5 14 56 7 56 -1 0 -7 -12 -14 -26z" fill="#ffffff"/>
<path d="M787 789 c12 -12 24 -21 27 -18 2 2 -8 13 -22 23 l-27 19 22 -24z" fill="#ffffff"/>
<path d="M920 727 c0 -3 12 -12 26 -22 15 -9 23 -12 20 -6 -7 11 -46 35 -46 28z" fill="#ffffff"/>
<path d="M905 631 c-3 -5 -2 -12 3 -15 5 -3 9 1 9 9 0 17 -3 19 -12 6z" fill="#ffffff"/>
<path d="M930 614 c0 -8 32 -33 42 -34 4 0 0 9 -9 20 -17 20 -33 26 -33 14z" fill="#ffffff"/>
<path d="M922 544 c10 -10 20 -15 24 -12 3 4 -5 12 -18 18 -22 12 -22 12 -6 -6z" fill="#ffffff"/>
<path d="M1630 2629 c0 -6 7 -9 15 -5 8 3 15 0 15 -6 0 -7 4 -7 14 1 9 8 16 8 20 2 8 -12 36 -3 36 10 0 5 -22 9 -50 9 -30 0 -50 -4 -50 -11z" fill="#ffffff"/>
<path d="M688 2613 c-25 -29 -29 -53 -13 -82 15 -31 33 -41 69 -41 26 0 76 36 75 53 0 8 -2 8 -6 -1 -3 -7 -18 -19 -33 -27 -65 -34 -131 44 -83 97 9 10 14 18 11 18 -3 0 -12 -8 -20 -17z" fill="#ffffff"/>
<path d="M570 2515 c-19 -19 -29 -35 -22 -35 16 0 88 -81 84 -94 -2 -6 13 5 32 23 20 19 36 42 35 50 0 11 -3 10 -9 -4 -16 -40 -35 -47 -59 -21 l-22 24 22 16 c13 9 19 16 15 16 -5 0 -17 -7 -26 -15 -15 -14 -19 -13 -36 6 -19 21 -19 21 5 40 13 10 28 16 34 12 6 -3 7 -1 3 5 -11 18 -19 15 -56 -23z" fill="#ffffff"/>
<path d="M2338 2505 c-58 -28 -66 -35 -52 -46 12 -10 15 -10 12 2 -5 22 36 22 56 0 14 -15 15 -24 7 -39 -8 -16 -7 -23 6 -33 9 -8 14 -9 10 -3 -3 6 3 39 14 74 11 35 18 67 17 70 -2 4 -33 -8 -70 -25z m46 -12 c-4 -16 -8 -30 -10 -32 -5 -5 -34 20 -34 29 0 5 32 25 48 29 1 1 -1 -11 -4 -26z" fill="#ffffff"/>
<path d="M2441 2410 c-23 -33 -38 -60 -33 -60 5 0 29 7 52 15 24 8 45 13 47 11 3 -2 -7 -25 -22 -50 -15 -25 -22 -46 -17 -46 17 0 132 57 126 63 -3 3 -24 -6 -47 -19 -23 -13 -46 -24 -50 -24 -4 0 4 20 19 45 14 25 24 48 22 51 -3 2 -24 -3 -48 -11 -24 -8 -45 -13 -48 -11 -2 3 10 23 27 45 17 22 27 42 23 45 -5 3 -28 -21 -51 -54z" fill="#ffffff"/>
<path d="M476 2420 c-31 -35 -39 -60 -20 -60 3 0 3 4 0 9 -3 5 1 14 9 21 12 10 23 5 60 -25 25 -21 42 -42 38 -49 -3 -6 3 -2 15 8 26 22 26 24 9 22 -8 0 -33 16 -56 37 -34 31 -40 41 -31 53 7 7 17 11 23 7 6 -3 7 -1 3 5 -10 16 -9 17 -50 -28z" fill="#ffffff"/>
<path d="M410 2345 c-7 -8 -8 -15 -4 -15 5 0 31 -20 57 -43 45 -42 47 -43 64 -25 14 16 14 18 1 13 -16 -6 -105 61 -100 76 3 13 -4 11 -18 -6z" fill="#ffffff"/>
<path d="M2586 2277 c-17 -12 -17 -17 -5 -50 12 -34 11 -38 -7 -52 -16 -12 -16 -14 -3 -15 30 0 42 26 30 62 -9 26 -8 35 3 47 12 12 18 12 30 1 9 -7 17 -22 17 -34 1 -18 2 -18 6 -3 5 20 -22 57 -42 57 -6 0 -19 -6 -29 -13z" fill="#ffffff"/>
<path d="M2513 2224 c-3 -9 3 -24 18 -37 l23 -22 -18 22 c-10 12 -16 29 -13 38 4 8 4 15 1 15 -2 0 -7 -7 -11 -16z" fill="#ffffff"/>
<path d="M325 2220 c-3 -5 -1 -10 5 -10 11 0 91 -50 101 -63 3 -4 12 -1 19 8 10 12 10 15 -1 15 -8 0 -34 14 -59 30 -49 33 -56 35 -65 20z" fill="#ffffff"/>
<path d="M472 2225 c4 -4 3 -16 -3 -26 -5 -11 -7 -19 -5 -19 3 0 10 9 16 19 7 15 7 22 -2 27 -7 4 -10 4 -6 -1z" fill="#ffffff"/>
<path d="M2634 2154 c-33 -17 -58 -36 -56 -42 2 -8 11 -7 28 5 32 21 39 12 24 -31 -6 -20 -10 -44 -8 -53 3 -11 10 -1 18 27 7 25 20 50 27 57 12 9 12 12 -4 16 -14 3 -11 7 14 18 17 8 29 19 25 24 -4 6 -32 -3 -68 -21z" fill="#ffffff"/>
<path d="M282 2137 c-12 -13 -22 -27 -22 -32 0 -5 7 1 16 13 21 30 68 29 99 -3 16 -15 25 -19 25 -10 0 19 -48 55 -75 55 -12 0 -31 -10 -43 -23z" fill="#ffffff"/>
<path d="M2690 2117 c0 -3 15 -10 32 -16 18 -6 28 -7 23 -2 -12 10 -55 25 -55 18z" fill="#ffffff"/>
<path d="M260 2057 c0 -38 93 -64 119 -33 10 12 6 13 -29 9 -33 -5 -45 -2 -65 17 -20 19 -25 20 -25 7z" fill="#ffffff"/>
<path d="M221 1996 c-7 -8 -16 -28 -21 -45 -7 -27 -6 -31 10 -31 11 0 41 -9 69 -19 48 -19 49 -19 54 -1 3 13 0 17 -9 13 -20 -7 -114 27 -114 42 0 18 27 38 44 32 8 -3 16 -16 19 -29 4 -22 4 -22 6 3 2 42 -34 64 -58 35z" fill="#ffffff"/>
<path d="M2636 1985 c4 -8 10 -12 15 -9 11 6 2 24 -11 24 -5 0 -7 -7 -4 -15z" fill="#ffffff"/>
<path d="M2692 1970 c7 -10 14 -18 15 -16 6 6 -9 36 -18 36 -5 0 -4 -9 3 -20z" fill="#ffffff"/>
<path d="M2733 1981 l28 -6 -35 -32 c-19 -18 -39 -33 -45 -33 -13 0 -14 -11 -3 -25 4 -6 30 14 61 48 l54 57 -44 -1 c-36 -1 -39 -2 -16 -8z" fill="#ffffff"/>
<path d="M240 1561 c-8 -5 -39 -14 -67 -21 -57 -13 -67 -24 -29 -34 13 -3 32 -8 43 -12 10 -3 7 1 -7 9 l-25 15 27 7 c15 4 39 8 53 9 17 1 25 7 25 19 0 19 0 19 -20 8z" fill="#ffffff"/>
<path d="M2740 1556 c0 -3 16 -16 35 -29 l36 -24 -36 -21 c-20 -13 -35 -29 -34 -39 0 -11 3 -13 6 -5 8 20 83 54 109 49 16 -3 24 0 24 9 0 9 -12 14 -33 14 -18 0 -49 11 -70 25 -20 14 -37 23 -37 21z" fill="#ffffff"/>
<path d="M219 1481 c9 -6 -1 -14 -38 -26 -28 -9 -53 -20 -56 -25 -2 -4 24 -15 60 -24 83 -21 95 -19 25 4 -45 14 -51 19 -35 25 87 34 91 37 70 45 -27 11 -43 12 -26 1z" fill="#ffffff"/>
<path d="M2736 1394 c-9 -24 -7 -63 4 -84 27 -50 100 -49 125 0 26 49 18 82 -22 94 -19 6 -23 4 -23 -16 0 -16 3 -19 8 -10 12 18 42 4 42 -20 0 -54 -59 -84 -105 -54 -31 20 -35 79 -7 95 15 9 15 10 1 11 -9 0 -20 -7 -23 -16z" fill="#ffffff"/>
<path d="M130 1346 c0 -7 10 -12 23 -12 18 1 23 -5 25 -32 3 -27 -1 -35 -17 -39 -12 -3 -21 -14 -21 -25 0 -18 1 -18 16 -3 9 9 38 27 65 41 27 13 49 28 49 33 0 10 -50 25 -58 16 -3 -3 2 -5 11 -5 25 0 20 -15 -9 -29 -26 -11 -26 -11 -22 18 4 25 0 30 -29 39 -25 8 -33 7 -33 -2z" fill="#ffffff"/>
<path d="M2716 1238 c-25 -35 -20 -83 10 -107 49 -38 107 -17 119 44 l6 30 -15 -32 c-18 -38 -53 -50 -93 -31 -31 15 -43 59 -22 84 15 19 69 18 97 -2 12 -8 22 -11 22 -5 0 18 -44 41 -77 41 -22 0 -37 -7 -47 -22z" fill="#ffffff"/>
<path d="M280 1223 c0 -13 -94 -38 -114 -30 -9 4 -12 0 -9 -13 5 -17 7 -17 68 0 47 13 65 15 69 7 2 -7 5 -6 5 3 0 8 -4 22 -9 30 -5 8 -10 10 -10 3z" fill="#ffffff"/>
<path d="M207 1136 c-36 -46 -34 -70 1 -27 25 30 31 32 49 21 27 -17 53 -6 53 22 -1 20 -2 21 -11 6 -12 -22 -45 -23 -57 -2 -7 13 -13 9 -35 -20z" fill="#ffffff"/>
<path d="M288 1093 c-12 -3 -18 -17 -20 -50 -2 -26 -8 -48 -14 -50 -18 -6 -46 28 -41 48 3 11 1 19 -4 19 -5 0 -9 -9 -9 -20 0 -28 37 -62 63 -58 17 2 22 10 24 38 1 19 2 41 2 48 1 8 10 12 24 10 17 -2 22 -9 22 -30 -1 -16 3 -28 8 -28 4 0 7 12 5 26 -3 30 -34 53 -60 47z" fill="#ffffff"/>
<path d="M2800 1066 c0 -10 -5 -26 -10 -36 -10 -19 -11 -19 -63 1 -28 11 -55 25 -58 31 -4 5 -9 2 -13 -8 -3 -9 -4 -19 -1 -22 3 -3 5 -3 5 1 0 3 27 -5 60 -19 33 -13 61 -24 63 -24 8 0 30 81 24 87 -4 3 -7 -1 -7 -11z" fill="#ffffff"/>
<path d="M2622 967 c-12 -13 -22 -27 -22 -32 0 -5 7 1 16 13 19 28 63 29 98 1 32 -25 35 -11 3 19 -30 28 -68 28 -95 -1z" fill="#ffffff"/>
<path d="M247 923 c4 -11 8 -12 11 -5 7 21 38 13 51 -14 9 -20 9 -30 0 -40 -6 -8 -15 -12 -19 -9 -5 3 -6 -4 -3 -16 5 -19 9 -17 44 23 70 78 70 78 -15 78 -67 0 -75 -2 -69 -17z m103 -13 c-9 -17 -30 -28 -30 -16 0 2 -3 11 -6 20 -5 12 0 16 20 16 24 0 25 -2 16 -20z" fill="#ffffff"/>
<path d="M2600 895 c0 -8 9 -24 21 -36 29 -29 86 -23 108 11 15 25 15 25 -5 8 -29 -25 -71 -22 -99 7 -17 16 -25 20 -25 10z" fill="#ffffff"/>
<path d="M376 827 c-25 -30 -46 -57 -46 -60 0 -3 23 1 52 9 29 7 54 11 56 9 3 -2 -10 -23 -27 -46 -17 -24 -29 -45 -26 -47 6 -7 135 40 135 49 0 4 -5 11 -12 15 -6 4 -8 3 -5 -3 7 -11 -71 -48 -80 -39 -3 3 9 24 26 47 17 24 29 44 28 45 -2 2 -27 -3 -57 -11 -30 -8 -56 -13 -57 -11 -2 2 14 19 36 38 23 22 36 40 31 48 -5 7 -23 -7 -54 -43z" fill="#ffffff"/>
<path d="M2554 848 c-4 -6 -3 -8 3 -5 6 4 30 -8 54 -26 l44 -32 -70 -5 c-88 -6 -108 -17 -68 -37 16 -7 43 -27 61 -42 23 -21 32 -25 36 -15 3 8 2 13 -2 12 -4 -1 -27 11 -51 27 l-45 30 78 7 c43 4 81 9 83 12 4 4 -101 86 -111 86 -3 0 -8 -5 -12 -12z" fill="#ffffff"/>
<path d="M2450 705 c-11 -13 -10 -14 2 -10 8 3 22 -3 31 -13 16 -17 15 -20 -11 -45 -28 -27 -28 -27 -49 -7 -18 17 -23 17 -33 5 -10 -12 -10 -15 0 -15 20 0 100 -71 93 -84 -3 -6 3 -2 15 8 22 19 30 32 14 22 -10 -6 -52 21 -52 34 0 5 11 22 25 37 l25 28 24 -27 c21 -23 26 -25 36 -13 7 8 8 15 3 15 -6 0 -31 18 -56 40 -25 22 -47 40 -50 40 -2 0 -10 -7 -17 -15z" fill="#ffffff"/>
<path d="M542 616 c-44 -48 -47 -75 -9 -101 33 -23 50 -18 92 25 21 21 43 36 49 33 6 -4 4 1 -4 11 -11 14 -15 15 -18 5 -7 -24 -65 -79 -82 -79 -18 0 -50 30 -50 47 0 6 20 29 44 51 39 36 47 52 26 52 -4 0 -26 -20 -48 -44z" fill="#ffffff"/>
<path d="M2329 581 c-17 -18 -29 -40 -29 -56 0 -29 40 -75 65 -75 25 0 72 28 79 47 6 14 2 13 -17 -5 -35 -33 -84 -25 -107 19 -16 28 -3 57 33 80 18 10 26 19 19 19 -8 0 -27 -13 -43 -29z" fill="#ffffff"/>
<path d="M690 551 c0 -21 -71 -101 -84 -94 -7 4 -6 1 1 -7 10 -11 16 -9 32 11 10 13 28 35 39 49 l21 25 1 -82 c0 -49 4 -83 10 -83 6 0 10 3 10 8 0 4 19 29 43 54 29 32 39 49 30 52 -7 3 -13 0 -13 -7 0 -7 -13 -27 -29 -46 l-28 -34 -6 73 c-3 40 -11 78 -17 84 -7 7 -10 6 -10 -3z" fill="#ffffff"/>
<path d="M2218 493 c-35 -23 -36 -26 -21 -42 9 -9 28 -35 43 -57 24 -39 27 -41 46 -27 10 8 28 21 39 29 14 10 16 16 7 24 -6 6 -10 7 -7 3 7 -9 -25 -43 -41 -43 -16 0 -37 37 -29 50 3 6 13 10 20 10 9 0 12 6 9 15 -5 12 -10 10 -24 -8 -19 -22 -19 -22 -34 -2 -8 11 -16 23 -16 27 0 12 39 30 50 23 6 -3 10 -2 10 4 0 20 -16 18 -52 -6z" fill="#ffffff"/>
<path d="M820 429 c-7 -16 -25 -43 -39 -58 -24 -26 -25 -30 -11 -39 12 -7 17 -7 17 2 0 20 63 107 74 101 5 -4 9 -4 9 -1 0 3 -8 10 -19 15 -16 9 -21 6 -31 -20z" fill="#ffffff"/>
<path d="M2113 424 c-24 -14 -43 -30 -43 -35 0 -6 7 -3 16 5 8 9 20 14 25 11 18 -12 60 -95 54 -106 -6 -8 -2 -8 13 0 20 11 20 12 -14 62 -19 28 -34 54 -34 58 0 5 10 13 23 19 12 6 18 11 12 11 -5 1 -29 -11 -52 -25z" fill="#ffffff"/>
<path d="M877 352 c-3 -42 -5 -78 -3 -79 1 -1 24 17 52 41 27 23 56 45 64 48 12 4 10 7 -7 17 -18 9 -22 9 -17 -2 5 -13 -63 -83 -72 -74 -3 2 -1 29 4 60 7 41 6 57 -3 61 -9 3 -14 -18 -18 -72z" fill="#ffffff"/>
<path d="M1982 361 c-11 -6 -9 -9 6 -13 15 -4 19 -2 15 8 -6 16 -4 16 -21 5z" fill="#ffffff"/>
<path d="M1005 303 c-11 -30 -25 -58 -33 -61 -11 -4 -8 -8 9 -18 27 -15 52 -19 30 -5 -17 11 -6 65 12 58 7 -3 20 -8 30 -12 10 -4 17 -3 17 4 0 6 -9 11 -19 11 -28 0 -35 17 -17 45 12 18 13 24 2 28 -8 3 -19 -14 -31 -50z" fill="#ffffff"/>
<path d="M1933 342 c-8 -5 -4 -23 13 -65 14 -32 22 -62 19 -66 -3 -5 3 -7 14 -4 17 4 18 7 4 35 -13 26 -13 32 -2 39 8 5 20 7 28 4 9 -4 11 0 7 11 -3 8 -6 18 -6 22 0 3 -6 -3 -14 -13 -19 -26 -50 -13 -44 20 5 26 1 30 -19 17z" fill="#ffffff"/>
<path d="M1078 322 c9 -10 19 -14 21 -9 2 5 -3 13 -10 18 -24 15 -30 10 -11 -9z" fill="#ffffff"/>
<path d="M1133 306 c0 -26 -27 -111 -37 -119 -7 -5 -3 -7 9 -5 14 2 23 18 34 61 10 38 20 57 30 58 12 0 10 3 -4 9 -28 12 -32 12 -32 -4z" fill="#ffffff"/>
<path d="M1792 290 c-30 -28 -29 -74 3 -105 13 -14 34 -25 47 -24 15 0 18 3 8 6 -33 12 -60 47 -60 78 0 38 16 55 52 55 36 0 62 -38 56 -82 -5 -28 -4 -29 9 -13 7 11 13 25 13 33 0 17 -20 55 -34 64 -21 15 -72 8 -94 -12z" fill="#ffffff"/>
<path d="M1197 277 c4 -19 -1 -27 -20 -33 -24 -9 -25 -10 -10 -46 8 -20 21 -39 29 -42 12 -5 12 -1 -1 24 -20 39 -19 57 6 63 15 4 20 12 17 28 -2 12 -8 24 -14 26 -7 2 -10 -5 -7 -20z" fill="#ffffff"/>
<path d="M1263 273 c-25 -10 -14 -52 17 -68 29 -15 43 -55 18 -55 -6 0 -8 -3 -5 -6 10 -10 37 16 37 36 0 10 -16 28 -36 39 -19 12 -34 27 -32 34 6 17 46 21 64 7 8 -8 14 -8 14 -2 0 18 -47 28 -77 15z" fill="#ffffff"/>
<path d="M1365 200 c0 -88 19 -94 23 -8 2 35 9 66 15 70 7 5 2 8 -13 8 -24 0 -25 -2 -25 -70z" fill="#ffffff"/>
<path d="M1652 235 l-19 -38 -22 32 c-12 17 -29 31 -36 31 -9 0 -2 -12 16 -32 25 -28 35 -59 30 -90 0 -5 5 -8 12 -8 9 0 12 10 9 30 -3 19 4 43 17 66 12 20 20 39 17 41 -2 3 -13 -12 -24 -32z" fill="#ffffff"/>
<path d="M1430 251 c0 -4 11 -6 25 -3 28 5 29 0 16 -80 -7 -41 -5 -48 8 -48 13 0 16 12 16 62 0 58 2 62 25 69 18 5 8 7 -32 8 -32 1 -58 -3 -58 -8z" fill="#ffffff"/>
<path d="M1045 210 c-16 -7 -17 -9 -3 -9 9 -1 20 4 23 9 7 11 7 11 -20 0z" fill="#ffffff"/>
<path d="M1230 165 c0 -9 7 -18 15 -22 23 -8 24 0 3 20 -15 14 -18 15 -18 2z" fill="#ffffff"/>
</g>
</svg>